<svg id="Capa_1" data-name="Capa 1" xmlns="http://www.w3.org/2000/svg" viewBox="0 0 340 155"><defs><style>.cls-1{fill:#fff;}.cls-2{fill:#847770;}</style></defs><path class="cls-1" d="M90.69,123.8h8.38v1.83H92.81v3.18H98.3v1.74H92.81v5.39H90.69Z"/><path class="cls-1" d="M102.13,123.8h2.12v12.14h-2.12Z"/><path class="cls-1" d="M107.06,123.8h9.82v1.83H113v10.31H110.9V125.63h-3.84Z"/><path class="cls-1" d="M119.57,123.8h2.24l5.55,8.94h0V123.8h2v12.14h-2.24L121.65,127h-.06v8.93h-2Z"/><path class="cls-1" d="M133.29,123.8H142v1.83h-6.62v3.18h6.12v1.74h-6.12v3.55h6.74v1.84h-8.86Z"/><path class="cls-1" d="M146.75,131.89a2.72,2.72,0,0,0,.24,1.19,2.19,2.19,0,0,0,.66.81,3,3,0,0,0,1,.46,5.06,5.06,0,0,0,1.2.14,3.81,3.81,0,0,0,1.19-.16,2.51,2.51,0,0,0,.8-.42,1.52,1.52,0,0,0,.44-.58,1.8,1.8,0,0,0,.14-.68,1.43,1.43,0,0,0-.32-1,1.81,1.81,0,0,0-.69-.47,13.73,13.73,0,0,0-1.5-.45l-2.12-.55a4.75,4.75,0,0,1-1.3-.54,3.12,3.12,0,0,1-.82-.74,2.55,2.55,0,0,1-.44-.87,3.59,3.59,0,0,1-.12-.93,3.12,3.12,0,0,1,.38-1.59,3.26,3.26,0,0,1,1-1.11,4.36,4.36,0,0,1,1.43-.66,6.3,6.3,0,0,1,1.61-.21,6.53,6.53,0,0,1,1.8.24,4.78,4.78,0,0,1,1.48.74,3.73,3.73,0,0,1,1,1.22,3.57,3.57,0,0,1,.37,1.67h-2.12a2.06,2.06,0,0,0-.8-1.65,3.13,3.13,0,0,0-1.82-.49,4.11,4.11,0,0,0-.77.08,2.4,2.4,0,0,0-.71.25,1.58,1.58,0,0,0-.54.49,1.48,1.48,0,0,0,.19,1.77,2.63,2.63,0,0,0,1,.56l.53.14,1.05.28,1.13.3.79.21a3.88,3.88,0,0,1,1,.51,3.46,3.46,0,0,1,.74.74,3.14,3.14,0,0,1,.58,1.85,3.4,3.4,0,0,1-.42,1.74,3.52,3.52,0,0,1-1.09,1.18,4.61,4.61,0,0,1-1.55.67,7.52,7.52,0,0,1-1.77.21,7.24,7.24,0,0,1-1.95-.25,4.59,4.59,0,0,1-1.6-.78,3.83,3.83,0,0,1-1.09-1.35,4.52,4.52,0,0,1-.42-2Z"/><path class="cls-1" d="M159.13,131.89a2.72,2.72,0,0,0,.24,1.19,2.19,2.19,0,0,0,.66.81,2.86,2.86,0,0,0,1,.46,5,5,0,0,0,1.2.14,3.81,3.81,0,0,0,1.19-.16,2.45,2.45,0,0,0,.79-.42,1.45,1.45,0,0,0,.45-.58,1.79,1.79,0,0,0,.13-.68,1.43,1.43,0,0,0-.31-1,1.81,1.81,0,0,0-.69-.47,13.73,13.73,0,0,0-1.5-.45c-.58-.14-1.28-.33-2.12-.55a4.62,4.62,0,0,1-1.3-.54,3.18,3.18,0,0,1-.83-.74,2.72,2.72,0,0,1-.43-.87,3.6,3.6,0,0,1-.13-.93,3.12,3.12,0,0,1,.39-1.59,3.26,3.26,0,0,1,1-1.11,4.3,4.3,0,0,1,1.42-.66,6.43,6.43,0,0,1,1.62-.21,6.51,6.51,0,0,1,1.79.24,4.67,4.67,0,0,1,1.48.74,3.61,3.61,0,0,1,1,1.22,3.58,3.58,0,0,1,.38,1.67h-2.13a2,2,0,0,0-.8-1.65,3.1,3.1,0,0,0-1.82-.49,4.09,4.09,0,0,0-.76.08,2.3,2.3,0,0,0-.71.25,1.49,1.49,0,0,0-.54.49,1.31,1.31,0,0,0-.21.76,1.28,1.28,0,0,0,.4,1,2.52,2.52,0,0,0,1,.56l.54.14,1,.28,1.13.3.79.21a3.74,3.74,0,0,1,1,.51,3.25,3.25,0,0,1,.74.74,3,3,0,0,1,.44.89,3.2,3.2,0,0,1,.15,1,3.4,3.4,0,0,1-.42,1.74,3.63,3.63,0,0,1-1.09,1.18,4.7,4.7,0,0,1-1.55.67,7.52,7.52,0,0,1-1.77.21,7.36,7.36,0,0,1-2-.25,4.55,4.55,0,0,1-1.59-.78,3.72,3.72,0,0,1-1.09-1.35,4.67,4.67,0,0,1-.43-2Z"/><path class="cls-1" d="M184.39,127.66a4.15,4.15,0,0,0-.37-1,2.7,2.7,0,0,0-1.49-1.27,3.47,3.47,0,0,0-1.17-.18,3.41,3.41,0,0,0-1.67.39,3.31,3.31,0,0,0-1.15,1.05,4.78,4.78,0,0,0-.65,1.49,6.88,6.88,0,0,0-.21,1.7,7,7,0,0,0,.21,1.7,4.73,4.73,0,0,0,.65,1.48,3.31,3.31,0,0,0,1.15,1,3.41,3.41,0,0,0,1.67.39,2.92,2.92,0,0,0,1.26-.25,2.67,2.67,0,0,0,.94-.68,3.1,3.1,0,0,0,.61-1,4.89,4.89,0,0,0,.29-1.24h2.07a5.54,5.54,0,0,1-.47,2,4.87,4.87,0,0,1-1.07,1.56,5,5,0,0,1-1.6,1,5.51,5.51,0,0,1-2,.35,5.62,5.62,0,0,1-2.43-.5,5.31,5.31,0,0,1-1.83-1.37,6.08,6.08,0,0,1-1.15-2,7.73,7.73,0,0,1,0-4.91,6.08,6.08,0,0,1,1.15-2,5.46,5.46,0,0,1,1.83-1.38,5.62,5.62,0,0,1,2.43-.51,6.39,6.39,0,0,1,1.93.28,5,5,0,0,1,1.59.82,4.22,4.22,0,0,1,1.11,1.3,4.6,4.6,0,0,1,.53,1.75Z"/><path class="cls-1" d="M189.83,123.8h8.74v1.83H192v3.18h6.12v1.74H192v3.55h6.73v1.84h-8.86Z"/><path class="cls-1" d="M201.82,123.8h2.24l5.54,8.94h0V123.8h2v12.14h-2.25L203.89,127h0v8.93h-2Z"/><path class="cls-1" d="M214.38,123.8h9.82v1.83h-3.85v10.31h-2.13V125.63h-3.84Z"/><path class="cls-1" d="M227,123.8h8.73v1.83H229.1v3.18h6.12v1.74H229.1v3.55h6.73v1.84H227Z"/><path class="cls-1" d="M239,123.8h5.8a4.54,4.54,0,0,1,3,.86,3,3,0,0,1,1,2.42,3.46,3.46,0,0,1-.25,1.43,3.05,3.05,0,0,1-.6.92,2.24,2.24,0,0,1-.67.5c-.22.11-.38.17-.48.21v0a2.48,2.48,0,0,1,.58.17,1.72,1.72,0,0,1,.59.44,2.27,2.27,0,0,1,.45.77,3.39,3.39,0,0,1,.18,1.19,10.69,10.69,0,0,0,.16,1.95,2.67,2.67,0,0,0,.5,1.25H247a2.17,2.17,0,0,1-.28-.87c0-.32,0-.62,0-.92a8.71,8.71,0,0,0-.1-1.44,2.57,2.57,0,0,0-.37-1,1.72,1.72,0,0,0-.74-.59,3.45,3.45,0,0,0-1.2-.18h-3.13v5H239Zm2.13,5.52h3.48a2.23,2.23,0,0,0,1.55-.48,1.9,1.9,0,0,0,.53-1.46,2.29,2.29,0,0,0-.17-.94,1.47,1.47,0,0,0-.47-.57,1.71,1.71,0,0,0-.68-.27,4.07,4.07,0,0,0-.79-.07h-3.45Z"/><circle class="cls-1" cx="170" cy="61.59" r="42.82"/><g id="qbHO0g"><path class="cls-2" d="M157,58.35h26c0-.22,0-.42,0-.63V48.47a4.68,4.68,0,0,1,.72-2.78,3.28,3.28,0,0,1,3.23-1.6,3.48,3.48,0,0,1,3,2.64,5.68,5.68,0,0,1,.23,1.7q0,13.23,0,26.47a4.38,4.38,0,0,1-1.29,3.41,3.36,3.36,0,0,1-5.35-.93,5.37,5.37,0,0,1-.56-2.58q0-4.67,0-9.35c0-.37-.1-.51-.5-.51H157.37l-.4,0c0,.2,0,.39,0,.58V75a4.51,4.51,0,0,1-1.12,3.14,3.34,3.34,0,0,1-5.54-.82,5.43,5.43,0,0,1-.52-2.13c0-9,0-18,0-27.06a4.24,4.24,0,0,1,1.13-3,3.37,3.37,0,0,1,5.52.84,5.07,5.07,0,0,1,.55,2.38v10Z"/><path class="cls-2" d="M191.79,61.64V52.35a2.76,2.76,0,0,1,2.14-2.84,2.86,2.86,0,0,1,3.66,2.9c0,2.05,0,4.09,0,6.13V70.81a2.87,2.87,0,0,1-1,2.39,3,3,0,0,1-3.25.41A2.57,2.57,0,0,1,191.8,71Q191.78,66.35,191.79,61.64Z"/><path class="cls-2" d="M148.27,61.69q0,4.59,0,9.2A2.77,2.77,0,0,1,147,73.48a2.91,2.91,0,0,1-4.46-2.22,3.39,3.39,0,0,1,0-.45V52.52A2.88,2.88,0,0,1,143.58,50a3.06,3.06,0,0,1,3.06-.31,2.49,2.49,0,0,1,1.6,2.31c.06.88,0,1.78,0,2.67C148.28,57,148.27,59.35,148.27,61.69Z"/></g></svg>