<svg id="Capa_1" data-name="Capa 1" xmlns="http://www.w3.org/2000/svg" viewBox="0 0 340 155"><defs><style>.cls-1{fill:#fff;}.cls-2{fill:#847770;}</style></defs><path class="cls-1" d="M24.65,123.18h5.8a4.49,4.49,0,0,1,3,.87,3,3,0,0,1,1,2.41,3.54,3.54,0,0,1-.25,1.44,3.05,3.05,0,0,1-.6.92,2.38,2.38,0,0,1-.67.5,3.89,3.89,0,0,1-.49.2v0a2,2,0,0,1,.59.17,1.68,1.68,0,0,1,.59.43,2.48,2.48,0,0,1,.45.77,3.43,3.43,0,0,1,.18,1.19,10.54,10.54,0,0,0,.16,1.95,2.57,2.57,0,0,0,.5,1.25H32.64a2,2,0,0,1-.28-.87c0-.31,0-.62,0-.92a9.7,9.7,0,0,0-.1-1.43,2.52,2.52,0,0,0-.38-1,1.54,1.54,0,0,0-.74-.59,3.14,3.14,0,0,0-1.2-.19H26.78v5H24.65Zm2.13,5.53h3.48a2.19,2.19,0,0,0,1.55-.49,1.88,1.88,0,0,0,.53-1.45,2.26,2.26,0,0,0-.17-.94,1.34,1.34,0,0,0-.47-.57A1.78,1.78,0,0,0,31,125a5.16,5.16,0,0,0-.79-.06H26.78Z"/><path class="cls-1" d="M43.15,122.89a5.67,5.67,0,0,1,2.44.51,5.33,5.33,0,0,1,1.82,1.38,6,6,0,0,1,1.15,2,7.36,7.36,0,0,1,.4,2.45,7.44,7.44,0,0,1-.4,2.47,6,6,0,0,1-1.15,2,5.3,5.3,0,0,1-1.82,1.37,6.2,6.2,0,0,1-4.88,0,5.44,5.44,0,0,1-1.83-1.37,6.18,6.18,0,0,1-1.15-2,7.7,7.7,0,0,1-.4-2.47,7.63,7.63,0,0,1,.4-2.45,6.18,6.18,0,0,1,1.15-2,5.46,5.46,0,0,1,1.83-1.38A5.64,5.64,0,0,1,43.15,122.89Zm0,1.74a3.42,3.42,0,0,0-1.68.39,3.38,3.38,0,0,0-1.15,1,4.89,4.89,0,0,0-.65,1.49,7,7,0,0,0,0,3.4,4.78,4.78,0,0,0,.65,1.49,3.38,3.38,0,0,0,1.15,1,3.79,3.79,0,0,0,3.35,0,3.38,3.38,0,0,0,1.15-1,4.78,4.78,0,0,0,.65-1.49,6.68,6.68,0,0,0,0-3.4,4.89,4.89,0,0,0-.65-1.49,3.26,3.26,0,0,0-2.82-1.43Z"/><path class="cls-1" d="M57.43,122.89a5.67,5.67,0,0,1,2.44.51,5.33,5.33,0,0,1,1.82,1.38,6,6,0,0,1,1.15,2,7.36,7.36,0,0,1,.4,2.45,7.44,7.44,0,0,1-.4,2.47,6,6,0,0,1-1.15,2,5.3,5.3,0,0,1-1.82,1.37,6.2,6.2,0,0,1-4.88,0,5.44,5.44,0,0,1-1.83-1.37,6.18,6.18,0,0,1-1.15-2,7.7,7.7,0,0,1-.4-2.47,7.63,7.63,0,0,1,.4-2.45,6.18,6.18,0,0,1,1.15-2A5.46,5.46,0,0,1,55,123.4,5.64,5.64,0,0,1,57.43,122.89Zm0,1.74a3.42,3.42,0,0,0-1.68.39,3.38,3.38,0,0,0-1.15,1,4.89,4.89,0,0,0-.65,1.49,7,7,0,0,0,0,3.4,4.78,4.78,0,0,0,.65,1.49,3.38,3.38,0,0,0,1.15,1,3.79,3.79,0,0,0,3.35,0,3.38,3.38,0,0,0,1.15-1A4.78,4.78,0,0,0,60.9,131a6.68,6.68,0,0,0,0-3.4,4.89,4.89,0,0,0-.65-1.49,3.26,3.26,0,0,0-2.82-1.43Z"/><path class="cls-1" d="M66.54,123.18h8.38V125H68.66v3.18h5.5v1.73h-5.5v5.39H66.54Z"/><path class="cls-1" d="M76.82,123.18h9.83V125H82.79v10.3H80.67V125H76.82Z"/><path class="cls-1" d="M94.59,122.89a5.67,5.67,0,0,1,2.44.51,5.33,5.33,0,0,1,1.82,1.38,6,6,0,0,1,1.15,2,7.36,7.36,0,0,1,.4,2.45,7.44,7.44,0,0,1-.4,2.47,6,6,0,0,1-1.15,2A5.3,5.3,0,0,1,97,135.11a6.2,6.2,0,0,1-4.88,0,5.44,5.44,0,0,1-1.83-1.37,6.18,6.18,0,0,1-1.15-2,7.7,7.7,0,0,1-.4-2.47,7.63,7.63,0,0,1,.4-2.45,6.18,6.18,0,0,1,1.15-2,5.46,5.46,0,0,1,1.83-1.38A5.64,5.64,0,0,1,94.59,122.89Zm0,1.74a3.42,3.42,0,0,0-1.68.39,3.26,3.26,0,0,0-1.14,1,4.67,4.67,0,0,0-.66,1.49,7,7,0,0,0,0,3.4,4.58,4.58,0,0,0,.66,1.49,3.26,3.26,0,0,0,1.14,1,3.79,3.79,0,0,0,3.35,0,3.29,3.29,0,0,0,1.15-1,4.78,4.78,0,0,0,.65-1.49,6.68,6.68,0,0,0,0-3.4,4.89,4.89,0,0,0-.65-1.49,3.29,3.29,0,0,0-1.15-1A3.41,3.41,0,0,0,94.59,124.63Z"/><path class="cls-1" d="M103.7,123.18h5.36a5,5,0,0,1,2.1.38,3.29,3.29,0,0,1,1.26.93,3,3,0,0,1,.6,1.22,5.25,5.25,0,0,1,.17,1.23,5.1,5.1,0,0,1-.17,1.22,3,3,0,0,1-.6,1.21,3.29,3.29,0,0,1-1.26.93,5.21,5.21,0,0,1-2.1.36h-3.23v4.66H103.7Zm2.13,5.75h3.11a3.2,3.2,0,0,0,.73-.1,2,2,0,0,0,.69-.34,1.62,1.62,0,0,0,.51-.61,2.08,2.08,0,0,0,.19-1,2.53,2.53,0,0,0-.17-1,1.47,1.47,0,0,0-.46-.62,1.57,1.57,0,0,0-.66-.32,3.45,3.45,0,0,0-.8-.08h-3.14Z"/><path class="cls-1" d="M129,134a4.26,4.26,0,0,1-1.5,1.22,4.91,4.91,0,0,1-3.44.13,3.53,3.53,0,0,1-1.21-.7,3.25,3.25,0,0,1-.79-1.13,3.9,3.9,0,0,1-.28-1.53,2.78,2.78,0,0,1,.24-1.17,3.51,3.51,0,0,1,.62-1,4.76,4.76,0,0,1,.9-.77,8.2,8.2,0,0,1,1-.61c-.16-.21-.32-.41-.46-.61a4,4,0,0,1-.39-.62,3.14,3.14,0,0,1-.28-.68,3.08,3.08,0,0,1-.1-.75,3,3,0,0,1,.23-1.19,2.73,2.73,0,0,1,1.59-1.49,3.19,3.19,0,0,1,1.16-.21,3.66,3.66,0,0,1,1.13.18,2.66,2.66,0,0,1,1,.55,2.73,2.73,0,0,1,.67.91,2.94,2.94,0,0,1,.25,1.27,2.7,2.7,0,0,1-.18,1,2.88,2.88,0,0,1-.47.84,3.52,3.52,0,0,1-.7.69,5.78,5.78,0,0,1-.84.55l1.89,2.28c.06-.2.13-.42.2-.67a5.77,5.77,0,0,0,.17-1h1.7a9.09,9.09,0,0,1-.31,1.57,6,6,0,0,1-.64,1.41l2.33,2.82h-2.38Zm-3.41-4.25c-.19.11-.38.23-.6.34a2.75,2.75,0,0,0-.6.43,2.24,2.24,0,0,0-.48.61,1.85,1.85,0,0,0-.19.9,2,2,0,0,0,.55,1.51,2,2,0,0,0,1.4.53,2.42,2.42,0,0,0,.9-.15,2.3,2.3,0,0,0,.64-.35,2,2,0,0,0,.44-.44l.32-.42Zm.78-5.37a1.28,1.28,0,0,0-.92.36,1.31,1.31,0,0,0-.37,1,1.35,1.35,0,0,0,.11.57,2.49,2.49,0,0,0,.27.51c.11.16.23.33.35.48s.26.32.37.46l.53-.38a3.7,3.7,0,0,0,.46-.42,2.14,2.14,0,0,0,.32-.52,1.67,1.67,0,0,0,.12-.65,1.45,1.45,0,0,0-.34-1A1.12,1.12,0,0,0,126.33,124.34Z"/><path class="cls-1" d="M144.19,123.18h2.27l4.67,12.14h-2.28l-1.14-3.21h-4.84l-1.14,3.21h-2.19Zm-.74,7.31h3.7l-1.82-5.22h-.05Z"/><path class="cls-1" d="M153.65,123.18h2.12v10.3h6.17v1.84h-8.29Z"/><path class="cls-1" d="M164.76,123.18h5.9a4.22,4.22,0,0,1,2.62.75,2.65,2.65,0,0,1,1,2.26,2.69,2.69,0,0,1-.45,1.57,2.89,2.89,0,0,1-1.29,1v0a2.64,2.64,0,0,1,1.7,1.06,3.86,3.86,0,0,1,.33,3.4,2.7,2.7,0,0,1-.8,1.07,4.19,4.19,0,0,1-1.4.72,7,7,0,0,1-2,.26h-5.58Zm2.13,5.09h3.47a1.89,1.89,0,0,0,1.27-.44,1.54,1.54,0,0,0,.51-1.25,1.57,1.57,0,0,0-.46-1.29,2,2,0,0,0-1.32-.37h-3.47Zm0,5.32h3.76a2.1,2.1,0,0,0,1.5-.51,1.82,1.82,0,0,0,.54-1.42,1.75,1.75,0,0,0-.54-1.38,2.18,2.18,0,0,0-1.5-.49h-3.76Z"/><path class="cls-1" d="M178.09,123.18h8.74V125h-6.61v3.18h6.12v1.73h-6.12v3.55H187v1.84h-8.86Z"/><path class="cls-1" d="M190.16,123.18H196a4.49,4.49,0,0,1,3,.87,3,3,0,0,1,1,2.41,3.54,3.54,0,0,1-.25,1.44,3.05,3.05,0,0,1-.6.92,2.38,2.38,0,0,1-.67.5,3.89,3.89,0,0,1-.49.2v0a2,2,0,0,1,.59.17,1.68,1.68,0,0,1,.59.43,2.48,2.48,0,0,1,.45.77,3.43,3.43,0,0,1,.18,1.19,10.54,10.54,0,0,0,.16,1.95,2.57,2.57,0,0,0,.5,1.25h-2.28a2,2,0,0,1-.28-.87c0-.31,0-.62,0-.92a9.7,9.7,0,0,0-.1-1.43,2.52,2.52,0,0,0-.38-1,1.54,1.54,0,0,0-.74-.59,3.14,3.14,0,0,0-1.2-.19h-3.12v5h-2.13Zm2.13,5.53h3.48a2.19,2.19,0,0,0,1.55-.49,1.88,1.88,0,0,0,.53-1.45,2.26,2.26,0,0,0-.17-.94,1.34,1.34,0,0,0-.47-.57,1.78,1.78,0,0,0-.68-.28,5.16,5.16,0,0,0-.79-.06h-3.45Z"/><path class="cls-1" d="M211.68,127a4.33,4.33,0,0,0-.37-1,2.65,2.65,0,0,0-.61-.76,2.46,2.46,0,0,0-.88-.5A3.82,3.82,0,0,0,207,125a3.26,3.26,0,0,0-1.14,1,4.67,4.67,0,0,0-.66,1.49,7,7,0,0,0,0,3.4,4.58,4.58,0,0,0,.66,1.49,3.26,3.26,0,0,0,1.14,1,3.42,3.42,0,0,0,1.68.39,3.15,3.15,0,0,0,1.26-.24,2.87,2.87,0,0,0,.93-.68,3.32,3.32,0,0,0,.61-1,4.58,4.58,0,0,0,.29-1.24h2.08a6.11,6.11,0,0,1-.47,2,5,5,0,0,1-1.08,1.55,4.74,4.74,0,0,1-1.6,1,5.5,5.5,0,0,1-2,.36,5.78,5.78,0,0,1-2.44-.5,5.44,5.44,0,0,1-1.83-1.37,6.18,6.18,0,0,1-1.15-2,7.7,7.7,0,0,1-.4-2.47,7.63,7.63,0,0,1,.4-2.45,6.18,6.18,0,0,1,1.15-2,5.46,5.46,0,0,1,1.83-1.38,5.64,5.64,0,0,1,2.44-.51,6.65,6.65,0,0,1,1.92.28,5,5,0,0,1,1.59.82,4.2,4.2,0,0,1,1.11,1.3,4.6,4.6,0,0,1,.53,1.75Z"/><path class="cls-1" d="M220.37,123.18h2.26l4.68,12.14H225l-1.14-3.21H219l-1.13,3.21h-2.2Zm-.75,7.31h3.71l-1.82-5.22h0Z"/><path class="cls-1" d="M235.91,123.18h5.35a5.07,5.07,0,0,1,2.11.38,3.37,3.37,0,0,1,1.26.93,3.1,3.1,0,0,1,.6,1.22,5.25,5.25,0,0,1,.17,1.23,5.1,5.1,0,0,1-.17,1.22,3.12,3.12,0,0,1-.6,1.21,3.37,3.37,0,0,1-1.26.93,5.27,5.27,0,0,1-2.11.36H238v4.66h-2.12Zm2.12,5.75h3.12a3.2,3.2,0,0,0,.73-.1,2.07,2.07,0,0,0,.68-.34,1.62,1.62,0,0,0,.51-.61,2.07,2.07,0,0,0,.2-1,2.53,2.53,0,0,0-.17-1A1.58,1.58,0,0,0,242,125a3.45,3.45,0,0,0-.8-.08H238Z"/><path class="cls-1" d="M248.61,123.18h5.79a4.49,4.49,0,0,1,3,.87,3,3,0,0,1,1,2.41,3.53,3.53,0,0,1-.26,1.44,3.24,3.24,0,0,1-.59.92,2.28,2.28,0,0,1-.68.5,4.69,4.69,0,0,1-.48.2v0a2.14,2.14,0,0,1,.59.17,1.65,1.65,0,0,1,.58.43,2.48,2.48,0,0,1,.45.77,3.43,3.43,0,0,1,.18,1.19,11.48,11.48,0,0,0,.16,1.95,2.67,2.67,0,0,0,.5,1.25H256.6a1.86,1.86,0,0,1-.28-.87c0-.31-.05-.62-.05-.92a8.5,8.5,0,0,0-.1-1.43,2.52,2.52,0,0,0-.37-1,1.54,1.54,0,0,0-.74-.59,3.14,3.14,0,0,0-1.2-.19h-3.13v5h-2.12Zm2.12,5.53h3.49a2.16,2.16,0,0,0,1.54-.49,1.88,1.88,0,0,0,.53-1.45,2.26,2.26,0,0,0-.17-.94,1.27,1.27,0,0,0-.47-.57A1.72,1.72,0,0,0,255,125a5.06,5.06,0,0,0-.79-.06h-3.45Z"/><path class="cls-1" d="M261.94,123.18h2.12v12.14h-2.12Z"/><path class="cls-1" d="M266.64,123.18h2.21l3,9.61h0l3.11-9.61h2.16l-4.15,12.14h-2.36Z"/><path class="cls-1" d="M282.08,123.18h2.26L289,135.32h-2.28l-1.14-3.21h-4.85l-1.13,3.21h-2.2Zm-.75,7.31H285l-1.82-5.22h-.05Z"/><path class="cls-1" d="M291.53,123.18h5a5.65,5.65,0,0,1,2.42.48,4.48,4.48,0,0,1,1.66,1.3,5.55,5.55,0,0,1,1,1.93,8.86,8.86,0,0,1,0,4.72,5.55,5.55,0,0,1-1,1.93,4.38,4.38,0,0,1-1.66,1.3,5.65,5.65,0,0,1-2.42.48h-5Zm2.13,10.41h2.09a5.15,5.15,0,0,0,2-.34,2.93,2.93,0,0,0,1.24-.91,3.33,3.33,0,0,0,.61-1.38,9.22,9.22,0,0,0,0-3.42,3.35,3.35,0,0,0-.61-1.37,2.87,2.87,0,0,0-1.24-.92,5.35,5.35,0,0,0-2-.33h-2.09Z"/><path class="cls-1" d="M308.41,123.18h2.26l4.68,12.14h-2.28l-1.14-3.21h-4.84L306,135.32h-2.2Zm-.75,7.31h3.71l-1.82-5.22h-.05Z"/><circle class="cls-1" cx="170" cy="60.98" r="42.82"/><g id="KwcbMz"><path class="cls-2" d="M177.21,46.54l-3,1.35a.55.55,0,0,1-.73-.19,9.41,9.41,0,0,1-2.47-5A1.37,1.37,0,0,1,172.57,41a32.25,32.25,0,0,1,10.55,2.52l.93.37c-.53-.61-1-1.07-1.34-1.55a8.28,8.28,0,0,1-1.94-5.21,1.93,1.93,0,0,1,2.81-1.8,17.69,17.69,0,0,1,6.12,4.94,20.33,20.33,0,0,1,4.59,11.84c.17,3,.05,5.93.06,8.9a7.15,7.15,0,0,0,.08,1,2,2,0,0,1-2.07,2.38H165.18c0,.21,0,.39,0,.57,0,1.18,0,2.36,0,3.54s0,1.1,1.12,1.38c3.22.84,6.25.07,9.18-1.18a3.28,3.28,0,0,1,2.85,0A16.9,16.9,0,0,0,184,70.21a13.93,13.93,0,0,0,5.49-.9c.73-.24,1.44-.55,2.15-.83a2,2,0,0,1,2.64.93,2,2,0,0,1-1,2.62c-5.21,2.49-10.51,2.92-15.89.56a1.2,1.2,0,0,0-1.09,0,17.8,17.8,0,0,1-14.54,0,1.43,1.43,0,0,0-1,0,18.07,18.07,0,0,1-8,1.53A19.85,19.85,0,0,1,144.7,72a1.91,1.91,0,0,1-.88-2.55,2,2,0,0,1,2.53-1l3.14,1.18V64.38c-1.12,0-2.24,0-3.37,0a2.34,2.34,0,0,1-2.2-1.39,2.38,2.38,0,0,1,.88-3.15c2.68-1.58,5.36-3.15,8.09-4.63a5.87,5.87,0,0,1,2.4-.56c1.33-.09,2.68,0,4,0a5.57,5.57,0,0,1,2.85.75c2.47,1.41,4.93,2.84,7.39,4.26a1.31,1.31,0,0,1,.41.26c.45.65,1.11.6,1.78.6h18.59a3.41,3.41,0,0,0-2-3.9c-.92-.36-1.89-.59-2.85-.87a8.15,8.15,0,0,1-3.71-2.06c.9-1.17,1.77-2.34,1.59-4.07a4,4,0,0,1-.52.47c-1.07.62-2.14,1.23-3.22,1.81a.65.65,0,0,1-.56,0c-1.2-.76-2.38-1.54-3.62-2.35A6,6,0,0,0,177.21,46.54Z"/><path class="cls-2" d="M185.51,82a19.19,19.19,0,0,1-8.06-1.54,1.29,1.29,0,0,0-1.15,0A17.89,17.89,0,0,1,168.67,82a19.23,19.23,0,0,1-7-1.57,1.27,1.27,0,0,0-.9,0c-5.41,2.36-10.72,2-16-.54a2,2,0,1,1,1.62-3.56,21.76,21.76,0,0,0,5.46,1.64,13.44,13.44,0,0,0,6.28-.8,19.78,19.78,0,0,0,2-.77,2.4,2.4,0,0,1,2.11,0,19.92,19.92,0,0,0,5.29,1.58,13.58,13.58,0,0,0,6.22-.8,15.19,15.19,0,0,0,1.88-.72,2.55,2.55,0,0,1,2.33,0,19,19,0,0,0,5.24,1.54,13.4,13.4,0,0,0,6.21-.82c.73-.24,1.44-.55,2.16-.84a2,2,0,0,1,2.64,1,2,2,0,0,1-1,2.61A19.74,19.74,0,0,1,185.51,82Z"/><path class="cls-2" d="M157.3,52.66a5.86,5.86,0,1,1,5.89-5.8A5.83,5.83,0,0,1,157.3,52.66Z"/></g></svg>