<svg id="Capa_1" data-name="Capa 1" xmlns="http://www.w3.org/2000/svg" viewBox="0 0 340 155"><defs><style>.cls-1{fill:#fff;}.cls-2{fill:#847770;}</style></defs><path class="cls-1" d="M131.53,131.93a8.68,8.68,0,0,1-.14,1.55,3.25,3.25,0,0,1-.55,1.34,2.79,2.79,0,0,1-1.21,1,5.08,5.08,0,0,1-2.1.36,4,4,0,0,1-1.64-.3,3,3,0,0,1-1.13-.81,3.28,3.28,0,0,1-.64-1.23,5.53,5.53,0,0,1-.21-1.55v-.65H126v.63a3,3,0,0,0,.35,1.61,1.41,1.41,0,0,0,1.31.57,2.09,2.09,0,0,0,.85-.15,1.29,1.29,0,0,0,.52-.46,1.84,1.84,0,0,0,.27-.74,7.36,7.36,0,0,0,.06-1v-8.34h2.13Z"/><path class="cls-1" d="M138.72,123.71H141l4.68,12.13h-2.28l-1.14-3.21h-4.85l-1.13,3.21h-2.2ZM138,131h3.71l-1.82-5.21h-.05Z"/><path class="cls-1" d="M148.17,123.71H154a4.49,4.49,0,0,1,3,.86,3,3,0,0,1,1,2.42,3.52,3.52,0,0,1-.25,1.43,3.05,3.05,0,0,1-.6.92,2.38,2.38,0,0,1-.67.5l-.48.21v0a2.08,2.08,0,0,1,.58.17,1.82,1.82,0,0,1,.59.43,2.43,2.43,0,0,1,.45.78,3.35,3.35,0,0,1,.18,1.19,10.5,10.5,0,0,0,.16,1.94,2.53,2.53,0,0,0,.5,1.25h-2.28a2,2,0,0,1-.28-.86c0-.32,0-.63,0-.92a8.54,8.54,0,0,0-.1-1.44,2.52,2.52,0,0,0-.38-1,1.55,1.55,0,0,0-.74-.59,3.33,3.33,0,0,0-1.19-.19H150.3v5h-2.13Zm2.13,5.52h3.48a2.23,2.23,0,0,0,1.55-.48,1.9,1.9,0,0,0,.53-1.46,2.29,2.29,0,0,0-.17-.94,1.4,1.4,0,0,0-.47-.57,1.62,1.62,0,0,0-.68-.27,4.15,4.15,0,0,0-.79-.07H150.3Z"/><path class="cls-1" d="M161.5,123.71h5a5.65,5.65,0,0,1,2.42.47,4.48,4.48,0,0,1,1.66,1.3,5.55,5.55,0,0,1,1,1.93,8.9,8.9,0,0,1,0,4.73,5.64,5.64,0,0,1-1,1.93,4.48,4.48,0,0,1-1.66,1.3,5.8,5.8,0,0,1-2.42.47h-5Zm2.13,10.4h2.09a5.35,5.35,0,0,0,2-.33,3,3,0,0,0,1.24-.92,3.33,3.33,0,0,0,.61-1.38,9.16,9.16,0,0,0,0-3.41,3.33,3.33,0,0,0-.61-1.38,3,3,0,0,0-1.24-.92,5.35,5.35,0,0,0-2-.33h-2.09Z"/><path class="cls-1" d="M175.13,123.71h2.13v12.13h-2.13Z"/><path class="cls-1" d="M181.14,123.71h2.24l5.54,8.94h0v-8.94h2v12.13h-2.25l-5.52-8.92h-.05v8.92h-2Z"/><path class="cls-1" d="M194.85,123.71h8.74v1.83H197v3.18h6.12v1.73H197V134h6.73v1.83h-8.86Z"/><path class="cls-1" d="M208.32,131.8a2.72,2.72,0,0,0,.24,1.19,2,2,0,0,0,.66.8,2.69,2.69,0,0,0,1,.46,4.46,4.46,0,0,0,1.19.15,4,4,0,0,0,1.19-.16,2.41,2.41,0,0,0,.8-.42,1.58,1.58,0,0,0,.45-.59,1.74,1.74,0,0,0,.13-.67,1.46,1.46,0,0,0-.31-1,1.78,1.78,0,0,0-.69-.46,13.3,13.3,0,0,0-1.51-.45l-2.11-.56a4.35,4.35,0,0,1-1.3-.53,3.18,3.18,0,0,1-.83-.74,2.53,2.53,0,0,1-.43-.87,3.26,3.26,0,0,1-.13-.93,3.17,3.17,0,0,1,.38-1.59,3.53,3.53,0,0,1,1-1.12,4.4,4.4,0,0,1,1.42-.65,6.37,6.37,0,0,1,1.62-.21,6.51,6.51,0,0,1,1.79.24,4.47,4.47,0,0,1,1.48.74,3.61,3.61,0,0,1,1,1.22,3.58,3.58,0,0,1,.38,1.67h-2.13a2.07,2.07,0,0,0-.8-1.66,3.18,3.18,0,0,0-1.82-.48,3.33,3.33,0,0,0-.76.08,2.46,2.46,0,0,0-.72.25,1.55,1.55,0,0,0-.53.49,1.48,1.48,0,0,0,.19,1.77,2.4,2.4,0,0,0,1,.55l.54.15,1,.28,1.13.3.79.21a3.36,3.36,0,0,1,1.78,1.25,2.85,2.85,0,0,1,.44.89,3.19,3.19,0,0,1,.15.95,3.44,3.44,0,0,1-.42,1.75,3.55,3.55,0,0,1-1.1,1.18,4.87,4.87,0,0,1-1.54.67,7.52,7.52,0,0,1-1.77.21,7.36,7.36,0,0,1-2-.25,4.4,4.4,0,0,1-1.59-.79,3.72,3.72,0,0,1-1.09-1.35,4.51,4.51,0,0,1-.43-1.94Z"/><circle class="cls-1" cx="169.22" cy="61.69" r="42.82"/><g id="SEU1lY"><path class="cls-2" d="M169,71.93a21,21,0,0,1-5.11-4.84,18,18,0,0,1-3.13-6.53,17.44,17.44,0,0,1,.89-11.24,20.07,20.07,0,0,1,7.15-8.61.31.31,0,0,1,.41,0,20.16,20.16,0,0,1,6.93,8.11,17.41,17.41,0,0,1,1.49,9.77,18.12,18.12,0,0,1-4.07,9.2,20.88,20.88,0,0,1-4.35,4Z"/><path class="cls-2" d="M165.93,72.27c-1,0-2,.06-2.94,0a18,18,0,0,1-7.73-2.35,17.4,17.4,0,0,1-8-9.77A19.91,19.91,0,0,1,146.6,50a.34.34,0,0,1,.34-.32,20.94,20.94,0,0,1,6.75-.13,18.91,18.91,0,0,1,4.78,1.35l.32.15C156.88,59.62,159.49,66.57,165.93,72.27Z"/><path class="cls-2" d="M172.11,72.31c.82-.82,1.65-1.57,2.39-2.39a20.16,20.16,0,0,0,4.93-9.4,19.55,19.55,0,0,0-.12-9c-.1-.38,0-.51.33-.64a19.35,19.35,0,0,1,8.53-1.47c1,.05,1.92.2,2.88.3.22,0,.32.11.36.35a20.4,20.4,0,0,1-.18,8.38,17.48,17.48,0,0,1-6.08,9.82,18.12,18.12,0,0,1-10.84,4C173.59,72.34,172.86,72.31,172.11,72.31Z"/><path class="cls-2" d="M165.33,74.51c-.3.18-.6.36-.91.53a17.88,17.88,0,0,1-23.15-4.78,21,21,0,0,1-2.91-5.05.34.34,0,0,1,.1-.46,21,21,0,0,1,6.46-4.07l.2-.06C148.7,69.86,155.55,74.28,165.33,74.51Z"/><path class="cls-2" d="M172.69,74.51c9.77-.23,16.61-4.66,20.22-14,.86.42,1.76.84,2.62,1.3a20.51,20.51,0,0,1,4,2.87.38.38,0,0,1,.11.51,20.74,20.74,0,0,1-3.79,6.1,17.6,17.6,0,0,1-12,6,18.39,18.39,0,0,1-11-2.72A.62.62,0,0,1,172.69,74.51Z"/></g></svg>