<svg id="Capa_1" data-name="Capa 1" xmlns="http://www.w3.org/2000/svg" viewBox="0 0 340 155"><defs><style>.cls-1{fill:#fff;}.cls-2{fill:#847770;}</style></defs><path class="cls-1" d="M40.27,131.18a2.69,2.69,0,0,0,.24,1.19,2.12,2.12,0,0,0,.67.81,2.9,2.9,0,0,0,1,.46,5.06,5.06,0,0,0,1.2.14,3.77,3.77,0,0,0,1.19-.16,2.41,2.41,0,0,0,.8-.42,1.52,1.52,0,0,0,.44-.58,1.79,1.79,0,0,0,.14-.67,1.44,1.44,0,0,0-.32-1,1.78,1.78,0,0,0-.68-.47,14,14,0,0,0-1.51-.45l-2.12-.55a4.75,4.75,0,0,1-1.3-.54,3.12,3.12,0,0,1-.82-.74,2.57,2.57,0,0,1-.43-.86,3.33,3.33,0,0,1-.13-.94,3.22,3.22,0,0,1,.38-1.59,3.36,3.36,0,0,1,1-1.11,4.57,4.57,0,0,1,1.43-.66,6.32,6.32,0,0,1,1.62-.21,6.15,6.15,0,0,1,1.79.25,4.38,4.38,0,0,1,1.48.74,3.7,3.7,0,0,1,1,1.21,3.59,3.59,0,0,1,.37,1.68H45.58a2,2,0,0,0-.8-1.66,3.2,3.2,0,0,0-1.82-.49,4,4,0,0,0-.76.08,2.37,2.37,0,0,0-.72.26,1.62,1.62,0,0,0-.53.48,1.25,1.25,0,0,0-.22.77,1.33,1.33,0,0,0,.4,1,2.75,2.75,0,0,0,1,.55l.53.14,1,.28,1.13.3.79.21a3.88,3.88,0,0,1,1,.51,3.7,3.7,0,0,1,.74.74,3.13,3.13,0,0,1,.44.9,3.08,3.08,0,0,1,.14,1,3.4,3.4,0,0,1-.41,1.74,3.56,3.56,0,0,1-1.1,1.18,4.61,4.61,0,0,1-1.55.67,6.9,6.9,0,0,1-1.76.22,7.25,7.25,0,0,1-2-.26,4.68,4.68,0,0,1-1.6-.78,3.8,3.8,0,0,1-1.08-1.35,4.38,4.38,0,0,1-.43-1.95Z"/><path class="cls-1" d="M54.5,123.09h2.26l4.68,12.14H59.16L58,132H53.18L52,135.23H49.85Zm-.74,7.31h3.7l-1.82-5.22h0Z"/><path class="cls-1" d="M64,123.09h2.12v10.3h6.17v1.84H64Z"/><path class="cls-1" d="M80.24,122.8a5.64,5.64,0,0,1,2.44.51,5.46,5.46,0,0,1,1.83,1.38,6.18,6.18,0,0,1,1.15,2,7.73,7.73,0,0,1,0,4.91,6.23,6.23,0,0,1-1.15,2A5.41,5.41,0,0,1,82.68,135a6.09,6.09,0,0,1-4.88,0A5.41,5.41,0,0,1,76,133.65a6.21,6.21,0,0,1-1.14-2,7.73,7.73,0,0,1,0-4.91,6.16,6.16,0,0,1,1.14-2,5.46,5.46,0,0,1,1.83-1.38A5.64,5.64,0,0,1,80.24,122.8Zm0,1.73A3.3,3.3,0,0,0,77.42,126a4.8,4.8,0,0,0-.66,1.49,7,7,0,0,0,0,3.4,4.9,4.9,0,0,0,.66,1.49,3.29,3.29,0,0,0,1.15,1,3.79,3.79,0,0,0,3.35,0,3.26,3.26,0,0,0,1.14-1,4.67,4.67,0,0,0,.66-1.49,7,7,0,0,0,0-3.4,4.58,4.58,0,0,0-.66-1.49,3.26,3.26,0,0,0-1.14-1A3.32,3.32,0,0,0,80.24,124.53Zm.73-5h2.3l-2.42,2.43H79.44Z"/><path class="cls-1" d="M89.27,123.09h2.24L97.05,132h0v-8.94h2v12.14H96.87l-5.53-8.93h0v8.93h-2Z"/><path class="cls-1" d="M109.07,123.09h5a5.63,5.63,0,0,1,2.41.48,4.49,4.49,0,0,1,1.67,1.3,5.55,5.55,0,0,1,1,1.93,9.14,9.14,0,0,1,0,4.72,5.55,5.55,0,0,1-1,1.93,4.6,4.6,0,0,1-1.67,1.3,5.63,5.63,0,0,1-2.41.48h-5Zm2.13,10.4h2.09a5.32,5.32,0,0,0,2-.33,3,3,0,0,0,1.24-.92,3.23,3.23,0,0,0,.61-1.37,9.22,9.22,0,0,0,0-3.42,3.21,3.21,0,0,0-.61-1.38,2.93,2.93,0,0,0-1.24-.91,5.12,5.12,0,0,0-2-.34H111.2Z"/><path class="cls-1" d="M122.71,123.09h8.74v1.84h-6.62v3.17H131v1.74h-6.12v3.55h6.73v1.84h-8.85Z"/><path class="cls-1" d="M140.73,123.09h2.12v7.07c0,.41,0,.82.06,1.24a2.77,2.77,0,0,0,.34,1.13,2.19,2.19,0,0,0,.85.83,3.37,3.37,0,0,0,1.61.32,3.33,3.33,0,0,0,1.6-.32,2.13,2.13,0,0,0,.85-.83,2.77,2.77,0,0,0,.34-1.13c0-.42.06-.83.06-1.24v-7.07h2.13v7.77a5.31,5.31,0,0,1-.36,2,3.87,3.87,0,0,1-1,1.45,4.24,4.24,0,0,1-1.57.88,7.32,7.32,0,0,1-4.08,0,4.28,4.28,0,0,1-1.58-.88,4,4,0,0,1-1-1.45,5.51,5.51,0,0,1-.35-2Z"/><path class="cls-1" d="M155.89,131.18a2.69,2.69,0,0,0,.24,1.19,2.19,2.19,0,0,0,.66.81,2.86,2.86,0,0,0,1,.46,5.06,5.06,0,0,0,1.2.14,3.81,3.81,0,0,0,1.19-.16,2.51,2.51,0,0,0,.8-.42,1.52,1.52,0,0,0,.44-.58,1.77,1.77,0,0,0,.13-.67,1.44,1.44,0,0,0-.31-1,1.81,1.81,0,0,0-.69-.47A13.73,13.73,0,0,0,159,130c-.58-.14-1.28-.33-2.12-.55a4.75,4.75,0,0,1-1.3-.54,3,3,0,0,1-.82-.74,2.6,2.6,0,0,1-.44-.86,3.74,3.74,0,0,1-.13-.94,3.12,3.12,0,0,1,.39-1.59,3.26,3.26,0,0,1,1-1.11,4.47,4.47,0,0,1,1.43-.66,6.3,6.3,0,0,1,1.61-.21,6.22,6.22,0,0,1,1.8.25,4.24,4.24,0,0,1,1.47.74,3.61,3.61,0,0,1,1,1.21,3.71,3.71,0,0,1,.37,1.68h-2.13a2,2,0,0,0-.79-1.66,3.22,3.22,0,0,0-1.82-.49,4.11,4.11,0,0,0-.77.08,2.31,2.31,0,0,0-.71.26,1.56,1.56,0,0,0-.54.48,1.32,1.32,0,0,0-.21.77,1.3,1.3,0,0,0,.4,1,2.63,2.63,0,0,0,1,.55l.54.14,1,.28,1.13.3.79.21a3.81,3.81,0,0,1,1,.51,3.46,3.46,0,0,1,.74.74,2.9,2.9,0,0,1,.44.9,3.09,3.09,0,0,1,.15,1,3.4,3.4,0,0,1-.42,1.74,3.53,3.53,0,0,1-1.09,1.18,4.7,4.7,0,0,1-1.55.67,7,7,0,0,1-1.77.22,7.23,7.23,0,0,1-2-.26,4.51,4.51,0,0,1-1.6-.78,3.72,3.72,0,0,1-1.09-1.35,4.67,4.67,0,0,1-.43-1.95Z"/><path class="cls-1" d="M172,122.8a5.64,5.64,0,0,1,2.44.51,5.46,5.46,0,0,1,1.83,1.38,6,6,0,0,1,1.14,2,7.73,7.73,0,0,1,0,4.91,6,6,0,0,1-1.14,2,5.41,5.41,0,0,1-1.83,1.36,6.09,6.09,0,0,1-4.88,0,5.41,5.41,0,0,1-1.83-1.36,6,6,0,0,1-1.14-2,7.73,7.73,0,0,1,0-4.91,6,6,0,0,1,1.14-2,5.46,5.46,0,0,1,1.83-1.38A5.64,5.64,0,0,1,172,122.8Zm0,1.73a3.3,3.3,0,0,0-2.82,1.44,4.8,4.8,0,0,0-.66,1.49,7,7,0,0,0,0,3.4,4.9,4.9,0,0,0,.66,1.49,3.29,3.29,0,0,0,1.15,1,3.77,3.77,0,0,0,3.34,0,3.29,3.29,0,0,0,1.15-1,4.67,4.67,0,0,0,.66-1.49,7,7,0,0,0,0-3.4,4.58,4.58,0,0,0-.66-1.49,3.3,3.3,0,0,0-2.82-1.44Z"/><path class="cls-1" d="M182.55,131.18a2.84,2.84,0,0,0,.23,1.19,2.12,2.12,0,0,0,.67.81,2.9,2.9,0,0,0,1,.46,5.06,5.06,0,0,0,1.2.14,3.77,3.77,0,0,0,1.19-.16,2.41,2.41,0,0,0,.8-.42,1.43,1.43,0,0,0,.44-.58,1.79,1.79,0,0,0,.14-.67,1.49,1.49,0,0,0-.31-1,1.81,1.81,0,0,0-.69-.47,14,14,0,0,0-1.51-.45l-2.11-.55a4.5,4.5,0,0,1-1.3-.54,3.18,3.18,0,0,1-.83-.74,2.57,2.57,0,0,1-.43-.86,3.33,3.33,0,0,1-.13-.94,3.22,3.22,0,0,1,.38-1.59,3.36,3.36,0,0,1,1-1.11,4.57,4.57,0,0,1,1.43-.66,6.37,6.37,0,0,1,1.62-.21,6.15,6.15,0,0,1,1.79.25,4.29,4.29,0,0,1,1.48.74,3.7,3.7,0,0,1,1,1.21,3.59,3.59,0,0,1,.38,1.68h-2.13a2,2,0,0,0-.8-1.66,3.18,3.18,0,0,0-1.82-.49,4,4,0,0,0-.76.08,2.47,2.47,0,0,0-.72.26,1.62,1.62,0,0,0-.53.48,1.32,1.32,0,0,0-.22.77,1.3,1.3,0,0,0,.41,1,2.63,2.63,0,0,0,1,.55l.54.14,1,.28,1.13.3.79.21a3.88,3.88,0,0,1,1,.51,3.7,3.7,0,0,1,.74.74,3.13,3.13,0,0,1,.44.9,3.09,3.09,0,0,1,.15,1,3.4,3.4,0,0,1-.42,1.74,3.46,3.46,0,0,1-1.1,1.18,4.61,4.61,0,0,1-1.55.67,6.9,6.9,0,0,1-1.76.22,7.31,7.31,0,0,1-2-.26,4.68,4.68,0,0,1-1.6-.78,3.8,3.8,0,0,1-1.08-1.35,4.38,4.38,0,0,1-.43-1.95Z"/><path class="cls-1" d="M199.58,123.09h3l3.35,9.5h0l3.26-9.5h3v12.14h-2v-9.37h0l-3.37,9.37H205l-3.36-9.37h0v9.37h-2Z"/><path class="cls-1" d="M216,123.09h2.13v7.07c0,.41,0,.82.06,1.24a2.62,2.62,0,0,0,.34,1.13,2.13,2.13,0,0,0,.85.83,3.33,3.33,0,0,0,1.6.32,3.37,3.37,0,0,0,1.61-.32,2.19,2.19,0,0,0,.85-.83,2.77,2.77,0,0,0,.34-1.13c0-.42.06-.83.06-1.24v-7.07h2.12v7.77a5.51,5.51,0,0,1-.35,2,3.89,3.89,0,0,1-1,1.45,4.16,4.16,0,0,1-1.57.88,7.32,7.32,0,0,1-4.08,0,4.24,4.24,0,0,1-1.57-.88,3.87,3.87,0,0,1-1-1.45,5.31,5.31,0,0,1-.36-2Z"/><path class="cls-1" d="M229.72,123.09h2.13v10.3H238v1.84h-8.3Z"/><path class="cls-1" d="M238.12,123.09h9.82v1.84h-3.86v10.3H242v-10.3h-3.84Z"/><path class="cls-1" d="M250.72,123.09h2.12v12.14h-2.12Z"/><path class="cls-1" d="M256.8,123.09h5.36a5,5,0,0,1,2.1.37,3.21,3.21,0,0,1,1.26.94,3.12,3.12,0,0,1,.61,1.22,5.62,5.62,0,0,1,.16,1.23,5.45,5.45,0,0,1-.16,1.21,3.1,3.1,0,0,1-1.87,2.14,5,5,0,0,1-2.1.37h-3.23v4.66H256.8Zm2.13,5.75H262a2.69,2.69,0,0,0,.73-.11,2,2,0,0,0,.69-.33,1.7,1.7,0,0,0,.51-.61,2.11,2.11,0,0,0,.19-1,2.38,2.38,0,0,0-.17-1,1.53,1.53,0,0,0-.46-.62,1.68,1.68,0,0,0-.66-.31,3.44,3.44,0,0,0-.8-.09h-3.14Z"/><path class="cls-1" d="M269.5,123.09h2.12v10.3h6.18v1.84h-8.3Z"/><path class="cls-1" d="M280.62,123.09h8.74v1.84h-6.62v3.17h6.12v1.74h-6.12v3.55h6.74v1.84h-8.86Z"/><path class="cls-1" d="M294.08,131.18a2.69,2.69,0,0,0,.24,1.19,2.19,2.19,0,0,0,.66.81,3,3,0,0,0,1,.46,5.06,5.06,0,0,0,1.2.14,3.81,3.81,0,0,0,1.19-.16,2.51,2.51,0,0,0,.8-.42,1.52,1.52,0,0,0,.44-.58,1.79,1.79,0,0,0,.14-.67,1.44,1.44,0,0,0-.32-1,1.81,1.81,0,0,0-.69-.47,13.73,13.73,0,0,0-1.5-.45l-2.12-.55a4.75,4.75,0,0,1-1.3-.54,3.12,3.12,0,0,1-.82-.74,2.6,2.6,0,0,1-.44-.86,3.73,3.73,0,0,1-.12-.94,3.12,3.12,0,0,1,.38-1.59,3.26,3.26,0,0,1,1-1.11,4.57,4.57,0,0,1,1.43-.66,6.3,6.3,0,0,1,1.61-.21,6.22,6.22,0,0,1,1.8.25,4.24,4.24,0,0,1,1.47.74,3.45,3.45,0,0,1,1.39,2.89h-2.12a2.06,2.06,0,0,0-.8-1.66,3.22,3.22,0,0,0-1.82-.49,4.11,4.11,0,0,0-.77.08,2.31,2.31,0,0,0-.71.26,1.56,1.56,0,0,0-.54.48,1.32,1.32,0,0,0-.21.77,1.3,1.3,0,0,0,.4,1,2.68,2.68,0,0,0,1.05.55l.53.14,1.05.28,1.13.3.79.21a3.81,3.81,0,0,1,1,.51,3.25,3.25,0,0,1,.74.74,3.16,3.16,0,0,1,.45.9,3.43,3.43,0,0,1-1.37,3.87,4.7,4.7,0,0,1-1.55.67,7,7,0,0,1-1.77.22,7.23,7.23,0,0,1-1.95-.26,4.59,4.59,0,0,1-1.6-.78,3.83,3.83,0,0,1-1.09-1.35,4.52,4.52,0,0,1-.42-1.95Z"/><circle class="cls-1" cx="170" cy="61.07" r="42.82"/><g id="AZpEp5"><path class="cls-2" d="M176.45,62V73.28H183a6.91,6.91,0,0,1,3.61.89,4.11,4.11,0,0,1,2.3,4.2,4.33,4.33,0,0,1-1.8,2.94,10.86,10.86,0,0,1-3.74,1.75,36.62,36.62,0,0,1-8,1.28,96,96,0,0,1-12.23,0,32.39,32.39,0,0,1-9.4-1.73,8.1,8.1,0,0,1-2.88-1.71,4,4,0,0,1,.52-6.45,6.81,6.81,0,0,1,4-1.17c2,0,4,0,6.06,0h.53V62l-.29.45a54.85,54.85,0,0,1-5,7.29,16.62,16.62,0,0,1-4,3.53,8.61,8.61,0,0,1-4.14,1.35,3.24,3.24,0,1,1-.35-6.47,3.07,3.07,0,0,0,1.75-.77A14.63,14.63,0,0,0,153,63.72c1.66-2.55,3.22-5.16,4.87-7.7A45,45,0,0,1,161,51.59a8.35,8.35,0,0,1,6.89-3.11c.9,0,1.81,0,2.72,0A8.42,8.42,0,0,1,176.7,51a20.69,20.69,0,0,1,3.24,4.25c1.6,2.53,3.14,5.11,4.77,7.62a38.58,38.58,0,0,0,2.59,3.4,7.8,7.8,0,0,0,1.29,1.21,3,3,0,0,0,1.7.68,3.23,3.23,0,0,1-.29,6.46A8.67,8.67,0,0,1,185.29,73a18.65,18.65,0,0,1-4.72-4.78c-1.34-1.89-2.56-3.86-3.84-5.8Z"/><path class="cls-2" d="M176.53,40a7.38,7.38,0,1,1-7.34-7.4A7.38,7.38,0,0,1,176.53,40Z"/></g></svg>