<svg id="Capa_1" data-name="Capa 1" xmlns="http://www.w3.org/2000/svg" viewBox="0 0 340 155"><defs><style>.cls-1{fill:#fff;}.cls-2{fill:#847770;}</style></defs><path class="cls-1" d="M105.44,127.56a4.33,4.33,0,0,0-.37-1,2.65,2.65,0,0,0-.61-.76,2.62,2.62,0,0,0-.88-.5,3.82,3.82,0,0,0-2.84.21,3.31,3.31,0,0,0-1.15,1,4.73,4.73,0,0,0-.65,1.48,7,7,0,0,0-.21,1.7,6.88,6.88,0,0,0,.21,1.7,4.68,4.68,0,0,0,.65,1.49,3.31,3.31,0,0,0,1.15,1,3.42,3.42,0,0,0,1.68.39,2.91,2.91,0,0,0,1.25-.25,2.67,2.67,0,0,0,.94-.68,3.32,3.32,0,0,0,.61-1,4.58,4.58,0,0,0,.29-1.24h2.07a5.8,5.8,0,0,1-.46,2,4.9,4.9,0,0,1-1.08,1.55,4.68,4.68,0,0,1-1.6,1,5.5,5.5,0,0,1-2,.36,5.78,5.78,0,0,1-2.44-.5,5.31,5.31,0,0,1-1.83-1.37,6.18,6.18,0,0,1-1.15-2,7.66,7.66,0,0,1-.4-2.47,7.57,7.57,0,0,1,.4-2.44,6.23,6.23,0,0,1,1.15-2,5.44,5.44,0,0,1,1.83-1.37,5.64,5.64,0,0,1,2.44-.51,6.32,6.32,0,0,1,1.92.28,5,5,0,0,1,1.59.81,4.2,4.2,0,0,1,1.11,1.3,4.65,4.65,0,0,1,.53,1.75Z"/><path class="cls-1" d="M110.88,123.71H113V134h6.17v1.83h-8.3Z"/><path class="cls-1" d="M121.86,123.71H124v7.07c0,.4,0,.82.06,1.24a2.81,2.81,0,0,0,.34,1.13,2.17,2.17,0,0,0,.85.82,4.07,4.07,0,0,0,3.21,0,2.17,2.17,0,0,0,.85-.82,2.81,2.81,0,0,0,.34-1.13c0-.42.06-.84.06-1.24v-7.07h2.13v7.76a5.24,5.24,0,0,1-.36,2,4,4,0,0,1-1,1.46,4.19,4.19,0,0,1-1.58.87,6.53,6.53,0,0,1-2,.29,6.62,6.62,0,0,1-2-.29,4.22,4.22,0,0,1-1.57-.87,4,4,0,0,1-1-1.46,5.24,5.24,0,0,1-.36-2Z"/><path class="cls-1" d="M135.63,123.71h5.9a4.22,4.22,0,0,1,2.62.74,2.66,2.66,0,0,1,1,2.26,2.72,2.72,0,0,1-.45,1.58,2.94,2.94,0,0,1-1.29,1v0a2.64,2.64,0,0,1,1.7,1.06,3.49,3.49,0,0,1,.58,2.07,3.42,3.42,0,0,1-.25,1.33,2.73,2.73,0,0,1-.8,1.08,4.18,4.18,0,0,1-1.4.71,7,7,0,0,1-2,.26h-5.58Zm2.13,5.08h3.47a1.89,1.89,0,0,0,1.27-.44,1.53,1.53,0,0,0,.51-1.25,1.57,1.57,0,0,0-.46-1.29,2,2,0,0,0-1.32-.37h-3.47Zm0,5.32h3.76a2.14,2.14,0,0,0,1.5-.5,1.85,1.85,0,0,0,.54-1.42,1.79,1.79,0,0,0-.54-1.39,2.18,2.18,0,0,0-1.5-.48h-3.76Z"/><path class="cls-1" d="M155.05,123.71h5a5.6,5.6,0,0,1,2.41.47,4.52,4.52,0,0,1,1.67,1.3,5.55,5.55,0,0,1,1,1.93,9.18,9.18,0,0,1,0,4.73,5.64,5.64,0,0,1-1,1.93,4.52,4.52,0,0,1-1.67,1.3,5.76,5.76,0,0,1-2.41.47h-5Zm2.12,10.4h2.09a5.28,5.28,0,0,0,2-.33,3,3,0,0,0,1.25-.92,3.33,3.33,0,0,0,.61-1.38,9.16,9.16,0,0,0,0-3.41,3.33,3.33,0,0,0-.61-1.38,3,3,0,0,0-1.25-.92,5.28,5.28,0,0,0-2-.33h-2.09Z"/><path class="cls-1" d="M168.68,123.71h8.74v1.83h-6.61v3.18h6.12v1.73h-6.12V134h6.73v1.83h-8.86Z"/><path class="cls-1" d="M186.84,123.71h5.35a5.08,5.08,0,0,1,2.11.37,3.45,3.45,0,0,1,1.26.93,3.35,3.35,0,0,1,.6,1.23,5.05,5.05,0,0,1,.16,1.22,5,5,0,0,1-.16,1.22,3.1,3.1,0,0,1-1.86,2.14,5.27,5.27,0,0,1-2.11.36H189v4.66h-2.12Zm2.12,5.74h3.11a2.62,2.62,0,0,0,.73-.1,2.2,2.2,0,0,0,.69-.33,1.79,1.79,0,0,0,.51-.61,2.15,2.15,0,0,0,.2-1,2.53,2.53,0,0,0-.17-1,1.55,1.55,0,0,0-.46-.62,1.69,1.69,0,0,0-.66-.32,4.09,4.09,0,0,0-.8-.08H189Z"/><path class="cls-1" d="M199.54,123.71h2.12V134h6.17v1.83h-8.29Z"/><path class="cls-1" d="M213.9,123.71h2.26l4.68,12.13h-2.28l-1.14-3.21h-4.84l-1.14,3.21h-2.2Zm-.75,7.3h3.71L215,125.8h0Z"/><path class="cls-1" d="M225.26,131.08l-4.56-7.37h2.47l3.21,5.43,3.16-5.43h2.38l-4.54,7.37v4.76h-2.12Z"/><path class="cls-1" d="M236.46,123.71h2.26l4.68,12.13h-2.28L240,132.63h-4.85L234,135.84h-2.2Zm-.75,7.3h3.71l-1.82-5.21h0Z"/><circle class="cls-1" cx="171.54" cy="61.69" r="42.82"/><path class="cls-2" d="M168.7,84.92V56.41l-12.85,9.64a20.83,20.83,0,0,1,3.61-14.86H147.82C153,36.33,169.5,42,169.5,42a33.86,33.86,0,0,0,3.93,0s16.46-5.62,21.68,9.24H183.47a20.78,20.78,0,0,1,3.61,14.86l-12.84-9.64V84.92Z"/></svg>