<?xml version="1.0" encoding="utf-8"?>
<!-- Generator: Adobe Illustrator 24.2.0, SVG Export Plug-In . SVG Version: 6.00 Build 0)  -->
<svg version="1.1" id="Capa_1" xmlns="http://www.w3.org/2000/svg" xmlns:xlink="http://www.w3.org/1999/xlink" x="0px" y="0px"
	 viewBox="0 0 340 155" style="enable-background:new 0 0 340 155;" xml:space="preserve">
<style type="text/css">
	.st0{fill:#FFFFFF;}
	.st1{fill:#847770;}
	.st2{enable-background:new    ;}
</style>
<circle class="st0" cx="170" cy="61" r="42.8"/>
<g id="KwcbMz">
	<path class="st1" d="M177.2,46.5l-3,1.3c-0.3,0.1-0.6,0.1-0.7-0.2c-1.3-1.4-2.2-3.1-2.5-5c-0.2-0.7,0.2-1.5,1-1.7
		c0.2-0.1,0.4-0.1,0.6,0c3.6,0.2,7.2,1.1,10.6,2.5l0.9,0.4c-0.5-0.6-1-1.1-1.3-1.5c-1.2-1.5-1.9-3.3-1.9-5.2c0-1.1,0.8-2,1.8-2
		c0.3,0,0.7,0.1,1,0.2c2.4,1.2,4.5,2.9,6.1,4.9c2.8,3.4,4.4,7.5,4.6,11.8c0.2,3,0.1,5.9,0.1,8.9c0,0.3,0,0.7,0.1,1
		c0.2,1.1-0.5,2.1-1.6,2.3c-0.2,0-0.3,0-0.5,0h-27.2c0,0.2,0,0.4,0,0.6c0,1.2,0,2.4,0,3.5s0,1.1,1.1,1.4c3.2,0.8,6.2,0.1,9.2-1.2
		c0.9-0.4,1.9-0.4,2.9,0c1.8,0.8,3.7,1.3,5.7,1.5c1.9,0.1,3.7-0.2,5.5-0.9c0.7-0.2,1.4-0.6,2.1-0.8c1-0.5,2.2,0,2.6,0.9
		c0.4,1,0,2.2-1,2.6c-5.2,2.5-10.5,2.9-15.9,0.6c-0.3-0.2-0.7-0.2-1.1,0c-4.6,2.1-9.9,2.1-14.5,0c-0.3-0.1-0.7-0.1-1,0
		c-2.5,1.1-5.3,1.6-8,1.5c-2.8-0.1-5.6-0.9-8.1-2.1c-0.9-0.5-1.3-1.6-0.9-2.6c0.5-0.9,1.6-1.4,2.5-1l3.1,1.2v-5.2
		c-1.1,0-2.2,0-3.4,0c-0.9,0-1.8-0.5-2.2-1.4c-0.6-1.1-0.2-2.5,0.9-3.2c2.7-1.6,5.4-3.2,8.1-4.6c0.8-0.4,1.6-0.5,2.4-0.6
		c1.3-0.1,2.7,0,4,0c1,0,2,0.2,2.9,0.8c2.5,1.4,4.9,2.8,7.4,4.3c0.2,0.1,0.3,0.1,0.4,0.3c0.4,0.7,1.1,0.6,1.8,0.6h18.6
		c0.4-1.6-0.5-3.3-2-3.9c-0.9-0.4-1.9-0.6-2.9-0.9c-1.4-0.3-2.7-1.1-3.7-2.1c0.9-1.2,1.8-2.3,1.6-4.1c-0.2,0.2-0.3,0.3-0.5,0.5
		c-1.1,0.6-2.1,1.2-3.2,1.8c-0.2,0.1-0.4,0.1-0.6,0c-1.2-0.8-2.4-1.5-3.6-2.3C176.3,48.7,176.9,47.7,177.2,46.5z"/>
	<path class="st1" d="M185.5,82c-2.8,0.1-5.5-0.5-8.1-1.5c-0.4-0.2-0.8-0.2-1.1,0c-2.4,1.1-5,1.6-7.6,1.5c-2.4-0.1-4.8-0.6-7-1.6
		c-0.3-0.1-0.6-0.1-0.9,0c-5.4,2.4-10.7,2-16-0.5c-1.1-0.2-1.8-1.3-1.5-2.4s1.3-1.8,2.4-1.5c0.3,0.1,0.5,0.2,0.8,0.3
		c1.7,0.8,3.6,1.3,5.5,1.6c2.1,0.2,4.3,0,6.3-0.8c0.7-0.2,1.3-0.5,2-0.8c0.7-0.3,1.4-0.3,2.1,0c1.7,0.8,3.5,1.3,5.3,1.6
		c2.1,0.2,4.2-0.1,6.2-0.8c0.6-0.2,1.3-0.4,1.9-0.7c0.7-0.4,1.6-0.4,2.3,0c1.7,0.8,3.4,1.3,5.2,1.5c2.1,0.2,4.2-0.1,6.2-0.8
		c0.7-0.2,1.4-0.6,2.2-0.8c1-0.5,2.2,0,2.6,1c0.4,1,0,2.2-1,2.6C190.8,81.1,188.2,81.8,185.5,82z"/>
	<path class="st1" d="M157.3,52.7c-3.2,0-5.8-2.7-5.8-5.9c0-3.2,2.7-5.8,5.9-5.8c3.2,0,5.8,2.7,5.8,5.9c0,0,0,0,0,0
		C163.2,50.1,160.6,52.7,157.3,52.7C157.3,52.7,157.3,52.7,157.3,52.7z"/>
</g>
<g class="st2">
	<path class="st0" d="M67.3,122.7c0.4,0.2,0.8,0.5,1.1,0.8c0.3,0.3,0.5,0.6,0.6,1c0.1,0.4,0.2,0.8,0.2,1.3c0,0.6-0.1,1.1-0.4,1.7
		c-0.3,0.6-0.8,0.9-1.4,1.2c0.6,0.2,0.9,0.5,1.2,1c0.2,0.4,0.3,1,0.3,1.9v0.8c0,0.5,0,0.9,0.1,1.1c0.1,0.3,0.2,0.5,0.5,0.7v0.3h-2.8
		c-0.1-0.3-0.1-0.5-0.2-0.6c-0.1-0.3-0.1-0.7-0.1-1l0-1.1c0-0.8-0.1-1.3-0.4-1.5c-0.3-0.3-0.7-0.4-1.4-0.4h-2.5v4.7h-2.5v-12h5.8
		C66.2,122.4,66.8,122.6,67.3,122.7z M62.1,124.5v3.2h2.7c0.5,0,0.9-0.1,1.2-0.2c0.5-0.2,0.7-0.7,0.7-1.4c0-0.7-0.2-1.2-0.7-1.5
		c-0.3-0.1-0.6-0.2-1.2-0.2H62.1z"/>
	<path class="st0" d="M80.9,133.4c-0.9,0.9-2.2,1.4-3.9,1.4c-1.7,0-3-0.5-3.9-1.4c-1.2-1.2-1.8-2.8-1.8-5c0-2.2,0.6-3.9,1.8-5
		c0.9-0.9,2.2-1.4,3.9-1.4c1.7,0,3,0.5,3.9,1.4c1.2,1.1,1.8,2.8,1.8,5C82.8,130.6,82.1,132.3,80.9,133.4z M79.4,131.6
		c0.6-0.7,0.9-1.8,0.9-3.1c0-1.4-0.3-2.4-0.9-3.1c-0.6-0.7-1.4-1.1-2.4-1.1s-1.8,0.4-2.4,1.1c-0.6,0.7-0.9,1.8-0.9,3.1
		c0,1.4,0.3,2.4,0.9,3.1c0.6,0.7,1.4,1.1,2.4,1.1S78.8,132.3,79.4,131.6z"/>
	<path class="st0" d="M94,133.4c-0.9,0.9-2.2,1.4-3.9,1.4c-1.7,0-3-0.5-3.9-1.4c-1.2-1.2-1.8-2.8-1.8-5c0-2.2,0.6-3.9,1.8-5
		c0.9-0.9,2.2-1.4,3.9-1.4c1.7,0,3,0.5,3.9,1.4c1.2,1.1,1.8,2.8,1.8,5C95.8,130.6,95.2,132.3,94,133.4z M92.4,131.6
		c0.6-0.7,0.9-1.8,0.9-3.1c0-1.4-0.3-2.4-0.9-3.1c-0.6-0.7-1.4-1.1-2.4-1.1s-1.8,0.4-2.4,1.1c-0.6,0.7-0.9,1.8-0.9,3.1
		c0,1.4,0.3,2.4,0.9,3.1c0.6,0.7,1.4,1.1,2.4,1.1S91.8,132.3,92.4,131.6z"/>
	<path class="st0" d="M97.7,122.4h8.6v2.1h-6.1v2.8h5.3v2.1h-5.3v5.1h-2.5V122.4z"/>
</g>
<g class="st2">
	<path class="st0" d="M116.7,122.4v2.1h-3.6v9.9h-2.5v-9.9h-3.6v-2.1H116.7z"/>
</g>
<g class="st2">
	<path class="st0" d="M127.1,133.4c-0.9,0.9-2.2,1.4-3.9,1.4c-1.7,0-3-0.5-3.9-1.4c-1.2-1.2-1.8-2.8-1.8-5c0-2.2,0.6-3.9,1.8-5
		c0.9-0.9,2.2-1.4,3.9-1.4c1.7,0,3,0.5,3.9,1.4c1.2,1.1,1.8,2.8,1.8,5C129,130.6,128.4,132.3,127.1,133.4z M125.6,131.6
		c0.6-0.7,0.9-1.8,0.9-3.1c0-1.4-0.3-2.4-0.9-3.1c-0.6-0.7-1.4-1.1-2.4-1.1s-1.8,0.4-2.4,1.1c-0.6,0.7-0.9,1.8-0.9,3.1
		c0,1.4,0.3,2.4,0.9,3.1c0.6,0.7,1.4,1.1,2.4,1.1S125,132.3,125.6,131.6z"/>
</g>
<g class="st2">
	<path class="st0" d="M139,129.3c-0.7,0.6-1.7,0.9-3,0.9h-2.5v4.3H131v-12h5.2c1.2,0,2.1,0.3,2.9,0.9s1.1,1.6,1.1,2.9
		C140,127.7,139.7,128.7,139,129.3z M137.1,124.9c-0.3-0.3-0.8-0.4-1.3-0.4h-2.3v3.5h2.3c0.6,0,1-0.1,1.3-0.4
		c0.3-0.3,0.5-0.7,0.5-1.4C137.5,125.6,137.4,125.2,137.1,124.9z"/>
</g>
<g class="st2">
	<path class="st0" d="M146.6,129.4c0.4-0.5,0.9-1,1.8-1.5l0.3-0.2c-0.3-0.4-0.6-0.8-0.8-1.2c-0.2-0.4-0.3-0.8-0.3-1.3
		c0-0.9,0.3-1.6,0.9-2.1s1.4-0.7,2.3-0.7c0.9,0,1.6,0.3,2.1,0.8s0.8,1.2,0.8,1.9c0,0.7-0.2,1.3-0.5,1.7c-0.3,0.4-0.8,0.9-1.5,1.2
		l1.7,2.1c0.2-0.3,0.4-0.6,0.5-0.9c0.1-0.3,0.2-0.7,0.2-1.1h2.1c0,0.7-0.2,1.5-0.5,2.2c-0.2,0.4-0.5,0.9-0.8,1.4l2.2,2.6h-2.8
		l-0.8-1c-0.4,0.4-0.8,0.7-1.1,0.8c-0.6,0.3-1.4,0.5-2.2,0.5c-1.2,0-2.2-0.4-2.9-1.1c-0.7-0.7-1-1.5-1-2.4
		C146,130.6,146.2,130,146.6,129.4z M148.9,132.3c0.3,0.3,0.8,0.5,1.3,0.5c0.4,0,0.8-0.1,1.1-0.3c0.3-0.2,0.6-0.4,0.8-0.6l-2.3-2.7
		c-0.6,0.4-1,0.7-1.2,1c-0.2,0.3-0.3,0.6-0.3,1C148.4,131.6,148.5,132,148.9,132.3z M149.9,125.9c0.1,0.2,0.3,0.4,0.7,0.8
		c0.3-0.2,0.6-0.4,0.7-0.6c0.3-0.3,0.4-0.6,0.4-1c0-0.3-0.1-0.5-0.3-0.7c-0.2-0.2-0.4-0.3-0.8-0.3c-0.2,0-0.4,0.1-0.6,0.2
		c-0.3,0.2-0.4,0.4-0.4,0.8C149.7,125.4,149.7,125.6,149.9,125.9z"/>
	<path class="st0" d="M171.2,129.3c-0.7,0.6-1.7,0.9-3,0.9h-2.5v4.3h-2.5v-12h5.2c1.2,0,2.1,0.3,2.9,0.9s1.1,1.6,1.1,2.9
		C172.3,127.7,172,128.7,171.2,129.3z M169.3,124.9c-0.3-0.3-0.8-0.4-1.3-0.4h-2.3v3.5h2.3c0.6,0,1-0.1,1.3-0.4
		c0.3-0.3,0.5-0.7,0.5-1.4C169.8,125.6,169.6,125.2,169.3,124.9z"/>
	<path class="st0" d="M182,122.7c0.4,0.2,0.8,0.5,1.1,0.8c0.3,0.3,0.5,0.6,0.6,1c0.1,0.4,0.2,0.8,0.2,1.3c0,0.6-0.1,1.1-0.4,1.7
		c-0.3,0.6-0.8,0.9-1.4,1.2c0.6,0.2,0.9,0.5,1.2,1c0.2,0.4,0.3,1,0.3,1.9v0.8c0,0.5,0,0.9,0.1,1.1c0.1,0.3,0.2,0.5,0.5,0.7v0.3h-2.8
		c-0.1-0.3-0.1-0.5-0.2-0.6c-0.1-0.3-0.1-0.7-0.1-1l0-1.1c0-0.8-0.1-1.3-0.4-1.5c-0.3-0.3-0.7-0.4-1.4-0.4h-2.5v4.7h-2.5v-12h5.8
		C181,122.4,181.6,122.6,182,122.7z M176.8,124.5v3.2h2.7c0.5,0,0.9-0.1,1.2-0.2c0.5-0.2,0.7-0.7,0.7-1.4c0-0.7-0.2-1.2-0.7-1.5
		c-0.3-0.1-0.6-0.2-1.2-0.2H176.8z"/>
	<path class="st0" d="M188.7,134.5h-2.5v-12h2.5V134.5z"/>
</g>
<g class="st2">
	<path class="st0" d="M198.1,122.4h2.6l-4.1,12h-2.4l-4.1-12h2.7l2.6,9.1L198.1,122.4z"/>
	<path class="st0" d="M203.3,122.4h2.8l4.3,12h-2.7l-0.8-2.5h-4.4l-0.8,2.5H199L203.3,122.4z M203.1,129.9h3.1l-1.5-4.7L203.1,129.9
		z"/>
</g>
<g class="st2">
	<path class="st0" d="M220.6,122.4v2.1H217v9.9h-2.5v-9.9h-3.6v-2.1H220.6z"/>
	<path class="st0" d="M231,124.6h-6.4v2.6h5.9v2.1h-5.9v3.1h6.7v2.2h-9.1v-12h8.8V124.6z"/>
	<path class="st0" d="M246,129.3c-0.7,0.6-1.7,0.9-3,0.9h-2.5v4.3H238v-12h5.2c1.2,0,2.1,0.3,2.9,0.9s1.1,1.6,1.1,2.9
		C247.1,127.7,246.7,128.7,246,129.3z M244.1,124.9c-0.3-0.3-0.8-0.4-1.3-0.4h-2.3v3.5h2.3c0.6,0,1-0.1,1.3-0.4
		c0.3-0.3,0.5-0.7,0.5-1.4C244.6,125.6,244.4,125.2,244.1,124.9z"/>
	<path class="st0" d="M258.3,133.4c-0.9,0.9-2.2,1.4-3.9,1.4s-3-0.5-3.9-1.4c-1.2-1.2-1.8-2.8-1.8-5c0-2.2,0.6-3.9,1.8-5
		c0.9-0.9,2.2-1.4,3.9-1.4s3,0.5,3.9,1.4c1.2,1.1,1.8,2.8,1.8,5C260.2,130.6,259.6,132.3,258.3,133.4z M256.8,131.6
		c0.6-0.7,0.9-1.8,0.9-3.1c0-1.4-0.3-2.4-0.9-3.1c-0.6-0.7-1.4-1.1-2.4-1.1s-1.8,0.4-2.4,1.1c-0.6,0.7-0.9,1.8-0.9,3.1
		c0,1.4,0.3,2.4,0.9,3.1c0.6,0.7,1.4,1.1,2.4,1.1S256.2,132.3,256.8,131.6z"/>
	<path class="st0" d="M271.4,133.4c-0.9,0.9-2.2,1.4-3.9,1.4c-1.7,0-3-0.5-3.9-1.4c-1.2-1.2-1.8-2.8-1.8-5c0-2.2,0.6-3.9,1.8-5
		c0.9-0.9,2.2-1.4,3.9-1.4c1.7,0,3,0.5,3.9,1.4c1.2,1.1,1.8,2.8,1.8,5C273.2,130.6,272.6,132.3,271.4,133.4z M269.8,131.6
		c0.6-0.7,0.9-1.8,0.9-3.1c0-1.4-0.3-2.4-0.9-3.1s-1.4-1.1-2.4-1.1s-1.8,0.4-2.4,1.1c-0.6,0.7-0.9,1.8-0.9,3.1
		c0,1.4,0.3,2.4,0.9,3.1c0.6,0.7,1.4,1.1,2.4,1.1S269.2,132.3,269.8,131.6z"/>
</g>
<g class="st2">
	<path class="st0" d="M275.1,122.4h2.5v9.9h6v2.2h-8.5V122.4z"/>
</g>
</svg>
