<svg id="Capa_1" data-name="Capa 1" xmlns="http://www.w3.org/2000/svg" viewBox="0 0 340 155"><defs><style>.cls-1{fill:#fff;}.cls-2{fill:#847770;}</style></defs><path class="cls-1" d="M130.54,124.71h2.13V135h6.17v1.83h-8.3Z"/><path class="cls-1" d="M146.83,124.42a5.64,5.64,0,0,1,2.44.51,5.44,5.44,0,0,1,1.83,1.37,6.21,6.21,0,0,1,1.14,2,7.3,7.3,0,0,1,.4,2.44,7.4,7.4,0,0,1-.4,2.47,6.16,6.16,0,0,1-1.14,2,5.31,5.31,0,0,1-1.83,1.37,6.2,6.2,0,0,1-4.88,0,5.31,5.31,0,0,1-1.83-1.37,6.18,6.18,0,0,1-1.15-2,7.66,7.66,0,0,1-.39-2.47,7.56,7.56,0,0,1,.39-2.44,6.23,6.23,0,0,1,1.15-2,5.44,5.44,0,0,1,1.83-1.37A5.64,5.64,0,0,1,146.83,124.42Zm0,1.73a3.42,3.42,0,0,0-1.68.39,3.2,3.2,0,0,0-1.14,1,4.52,4.52,0,0,0-.66,1.48,7,7,0,0,0-.21,1.7,6.88,6.88,0,0,0,.21,1.7A4.48,4.48,0,0,0,144,134a3.2,3.2,0,0,0,1.14,1,3.42,3.42,0,0,0,1.68.39,3.38,3.38,0,0,0,1.67-.39,3.23,3.23,0,0,0,1.15-1,4.7,4.7,0,0,0,.66-1.49,6.88,6.88,0,0,0,.21-1.7,7,7,0,0,0-.21-1.7,4.74,4.74,0,0,0-.66-1.48,3.23,3.23,0,0,0-1.15-1A3.38,3.38,0,0,0,146.83,126.15Z"/><path class="cls-1" d="M155.8,124.71h2.13v7.07c0,.4,0,.82.06,1.24a2.81,2.81,0,0,0,.34,1.13,2.17,2.17,0,0,0,.85.82,4.07,4.07,0,0,0,3.21,0,2.17,2.17,0,0,0,.85-.82,2.81,2.81,0,0,0,.34-1.13c0-.42.06-.84.06-1.24v-7.07h2.13v7.76a5.24,5.24,0,0,1-.36,2,4,4,0,0,1-1,1.46,4.22,4.22,0,0,1-1.57.87,6.62,6.62,0,0,1-2,.29,6.53,6.53,0,0,1-2-.29,4.19,4.19,0,0,1-1.58-.87,4,4,0,0,1-1-1.46,5.24,5.24,0,0,1-.36-2Z"/><path class="cls-1" d="M169.49,124.71h2.24l5.55,8.94h0v-8.94h2v12.13h-2.24l-5.53-8.92h-.05v8.92h-2Z"/><path class="cls-1" d="M193.8,136.84h-1.36l-.32-1.42a5.22,5.22,0,0,1-1.7,1.34,4.83,4.83,0,0,1-2,.37,5.78,5.78,0,0,1-2.44-.5,5.31,5.31,0,0,1-1.83-1.37,6.16,6.16,0,0,1-1.14-2,7.4,7.4,0,0,1-.4-2.47,7.3,7.3,0,0,1,.4-2.44,6.21,6.21,0,0,1,1.14-2,5.44,5.44,0,0,1,1.83-1.37,5.64,5.64,0,0,1,2.44-.51,6.47,6.47,0,0,1,1.88.26,5.36,5.36,0,0,1,1.59.78,4.36,4.36,0,0,1,1.15,1.3,4.49,4.49,0,0,1,.58,1.8h-2.07a2.67,2.67,0,0,0-1.07-1.8,3.22,3.22,0,0,0-1-.46,4.07,4.07,0,0,0-1.11-.15,3.41,3.41,0,0,0-1.67.39,3.23,3.23,0,0,0-1.15,1,4.74,4.74,0,0,0-.66,1.48,7,7,0,0,0-.21,1.7,6.88,6.88,0,0,0,.21,1.7,4.7,4.7,0,0,0,.66,1.49,3.23,3.23,0,0,0,1.15,1,3.41,3.41,0,0,0,1.67.39,4.1,4.1,0,0,0,1.45-.21,3,3,0,0,0,1.06-.67,2.67,2.67,0,0,0,.65-1.06,4.35,4.35,0,0,0,.24-1.39h-3.23v-1.62h5.17Z"/><path class="cls-1" d="M197.47,124.71h8.74v1.83H199.6v3.18h6.12v1.73H199.6V135h6.73v1.83h-8.86Z"/><circle class="cls-1" cx="170" cy="60.69" r="42.82"/><g id="fbdf37"><path class="cls-2" d="M169.88,41.1h17.58a9.13,9.13,0,0,1,2.7.33,2.16,2.16,0,0,1,1.56,1.45,2,2,0,0,1,0,1.19,6.54,6.54,0,0,1-1.62,2.65c-1.15,1.2-2.35,2.37-3.54,3.53-2.85,2.77-5.72,5.52-8.57,8.28-1.85,1.79-3.7,3.57-5.54,5.37a.52.52,0,0,0-.14.34c0,5,0,10,0,15a2,2,0,0,0,.35.93,4.06,4.06,0,0,0,1.75,1.45c.62.29,1.26.56,1.87.87a2.54,2.54,0,0,1,.74.5,1.46,1.46,0,0,1,.32.69.68.68,0,0,1-.67.88,11.33,11.33,0,0,1-1.43.11c-3.23,0-6.46,0-9.69,0a11.83,11.83,0,0,1-1.88-.16.78.78,0,0,1-.45-1.41,4.09,4.09,0,0,1,1.06-.73c.72-.35,1.49-.62,2.2-1a6.23,6.23,0,0,0,1.07-.78,1.73,1.73,0,0,0,.58-1.38q0-7.41,0-14.8a.58.58,0,0,0-.18-.48L156.2,52.57,150.37,47a6,6,0,0,1-1.56-2.22,2.39,2.39,0,0,1,1.88-3.46,8.32,8.32,0,0,1,1.65-.17h17.54Z"/></g></svg>