<?xml version="1.0" encoding="utf-8"?>
<!-- Generator: Adobe Illustrator 24.2.0, SVG Export Plug-In . SVG Version: 6.00 Build 0)  -->
<svg version="1.1" id="Capa_1" xmlns="http://www.w3.org/2000/svg" xmlns:xlink="http://www.w3.org/1999/xlink" x="0px" y="0px"
	 viewBox="0 0 340 155" style="enable-background:new 0 0 340 155;" xml:space="preserve">
<style type="text/css">
	.st0{fill:#FFFFFF;}
	.st1{fill:#847770;}
</style>
<circle class="st0" cx="171.5" cy="61.7" r="42.8"/>
<path class="st1" d="M168.7,84.9V56.4L155.8,66c-0.7-5.2,0.6-10.5,3.6-14.9h-11.6c5.2-14.9,21.7-9.2,21.7-9.2c1.3,0.1,2.6,0.1,3.9,0
	c0,0,16.5-5.6,21.7,9.2h-11.6c3,4.3,4.3,9.6,3.6,14.9l-12.8-9.6v28.5H168.7z"/>
<path class="st0" d="M126.4,125c0.4,0.5,0.6,1.2,0.6,1.8c0,0.6-0.2,1.3-0.6,1.8c-0.3,0.3-0.6,0.5-0.9,0.7c0.6,0.2,1.1,0.6,1.4,1.1
	c0.3,0.5,0.5,1.1,0.5,1.8c0,1.1-0.5,2.2-1.4,2.9c-0.4,0.3-0.9,0.5-1.4,0.6c-0.6,0.1-1.1,0.2-1.7,0.2h-5.4v-12h5.8
	C124.5,123.7,125.7,124.1,126.4,125z M119.9,125.8v2.7h2.9c0.4,0,0.9-0.1,1.3-0.3c0.3-0.2,0.5-0.6,0.5-1c0.1-0.5-0.2-0.9-0.7-1.1
	c-0.5-0.1-0.9-0.2-1.4-0.2L119.9,125.8z M119.9,130.5v3.2h2.9c0.4,0,0.8-0.1,1.2-0.2c0.6-0.3,0.9-0.9,0.8-1.5c0-0.5-0.3-1.1-0.8-1.3
	c-0.4-0.1-0.8-0.2-1.2-0.2L119.9,130.5z"/>
<path class="st0" d="M138.4,125.8h-6.4v2.6h5.9v2.1h-5.9v3.1h6.7v2.2h-9.1v-12h8.8L138.4,125.8z"/>
<path class="st0" d="M144.1,123.7h2.9l4.3,12h-2.7l-0.8-2.5h-4.4l-0.8,2.5h-2.6L144.1,123.7z M144,131.2h3.1l-1.5-4.7L144,131.2z"/>
<path class="st0" d="M154,124.9c2.3-2.1,5.8-2,7.9,0.3c0.1,0.1,0.1,0.1,0.2,0.2c0.5,0.7,0.8,1.4,0.8,2.2h-2.5
	c-0.1-0.5-0.3-0.9-0.6-1.3c-0.5-0.6-1.2-0.8-2-0.8c-0.9,0-1.7,0.4-2.1,1.1c-0.6,0.9-0.8,2-0.8,3.1c-0.1,1.1,0.2,2.1,0.8,3
	c0.5,0.6,1.3,1,2.1,1c0.8,0.1,1.5-0.3,2-0.9c0.3-0.4,0.5-0.9,0.6-1.4h2.5c-0.2,1.2-0.7,2.4-1.6,3.2c-0.9,0.8-2.2,1.3-3.4,1.2
	c-1.5,0.1-3-0.6-4-1.7c-1-1.3-1.6-2.9-1.5-4.6C152.3,128,152.8,126.3,154,124.9z"/>
<path class="st0" d="M164.9,135.7v-12h2.5v4.6h4.7v-4.6h2.5v12h-2.5v-5.4h-4.7v5.4L164.9,135.7z"/>
<path class="st0" d="M182.8,124.9c2.3-2.1,5.8-2,7.9,0.3c0.1,0.1,0.1,0.1,0.2,0.2c0.5,0.7,0.8,1.4,0.8,2.2h-2.5
	c-0.1-0.5-0.3-0.9-0.6-1.3c-0.5-0.6-1.2-0.8-2-0.8c-0.9,0-1.7,0.4-2.1,1.1c-0.6,0.9-0.8,2-0.8,3.1c-0.1,1.1,0.2,2.1,0.8,3
	c0.5,0.6,1.3,1,2.1,1c0.8,0.1,1.5-0.3,2-0.9c0.3-0.4,0.5-0.9,0.6-1.4h2.5c-0.2,1.2-0.8,2.4-1.6,3.2c-0.9,0.8-2.2,1.3-3.4,1.2
	c-1.5,0.1-3-0.5-4-1.7C180.6,131.5,180.7,127.7,182.8,124.9L182.8,124.9z"/>
<path class="st0" d="M193.7,123.7h2.5v9.9h6v2.2h-8.5L193.7,123.7z"/>
<path class="st0" d="M204,123.7h2.6v7.4c0,0.6,0.1,1.2,0.3,1.8c0.8,1.1,2.3,1.4,3.4,0.6c0.2-0.2,0.4-0.4,0.6-0.6
	c0.2-0.6,0.3-1.2,0.3-1.8v-7.4h2.6v7.4c0.1,1-0.2,2.1-0.6,3c-0.7,1.3-2.2,2-4.2,2s-3.5-0.7-4.2-2c-0.4-0.9-0.7-2-0.6-3L204,123.7z"
	/>
<path class="st0" d="M225,125c0.4,0.5,0.6,1.2,0.6,1.8c0,0.6-0.2,1.3-0.6,1.8c-0.3,0.3-0.6,0.5-0.9,0.7c0.6,0.2,1.1,0.6,1.4,1.1
	c0.3,0.5,0.5,1.1,0.5,1.8c0,0.7-0.2,1.3-0.5,1.9c-0.2,0.4-0.5,0.7-0.9,0.9c-0.4,0.3-0.9,0.5-1.4,0.6c-0.6,0.1-1.1,0.2-1.7,0.2h-5.4
	v-12h5.8C223.1,123.6,224.2,124.1,225,125z M218.5,125.8v2.7h2.9c0.4,0,0.9-0.1,1.3-0.3c0.3-0.2,0.5-0.6,0.5-1
	c0.1-0.5-0.2-0.9-0.6-1.1c-0.5-0.1-0.9-0.2-1.4-0.2L218.5,125.8z M218.5,130.5v3.2h2.9c0.4,0,0.8-0.1,1.2-0.2
	c0.5-0.3,0.9-0.9,0.8-1.5c0-0.5-0.3-1.1-0.8-1.3c-0.4-0.1-0.8-0.2-1.2-0.2L218.5,130.5z"/>
</svg>
