<?xml version="1.0" encoding="utf-8"?>
<!-- Generator: Adobe Illustrator 24.2.0, SVG Export Plug-In . SVG Version: 6.00 Build 0)  -->
<svg version="1.1" id="Capa_1" xmlns="http://www.w3.org/2000/svg" xmlns:xlink="http://www.w3.org/1999/xlink" x="0px" y="0px"
	 viewBox="0 0 340 155" style="enable-background:new 0 0 340 155;" xml:space="preserve">
<style type="text/css">
	.st0{fill:#FFFFFF;}
	.st1{fill:#847770;}
</style>
<circle class="st0" cx="169.2" cy="61.7" r="42.8"/>
<g id="SEU1lY">
	<path class="st1" d="M169,71.9c-2-1.3-3.7-3-5.1-4.8c-1.5-1.9-2.5-4.2-3.1-6.5c-1-3.7-0.6-7.7,0.9-11.2c1.5-3.5,4-6.5,7.1-8.6
		c0.1-0.1,0.3-0.1,0.4,0c3,2,5.4,4.8,6.9,8.1c1.4,3,1.9,6.4,1.5,9.8c-0.5,3.4-1.9,6.6-4.1,9.2c-1.3,1.5-2.7,2.9-4.4,4L169,71.9z"/>
	<path class="st1" d="M165.9,72.3c-1,0-2,0.1-2.9,0c-2.7-0.2-5.4-1-7.7-2.3c-3.8-2.1-6.7-5.6-8-9.8c-1.1-3.3-1.3-6.8-0.7-10.1
		c0-0.2,0.2-0.3,0.3-0.3c2.2-0.4,4.5-0.5,6.8-0.1c1.6,0.2,3.3,0.7,4.8,1.3l0.3,0.2C156.9,59.6,159.5,66.6,165.9,72.3z"/>
	<path class="st1" d="M172.1,72.3c0.8-0.8,1.6-1.6,2.4-2.4c2.5-2.6,4.2-5.9,4.9-9.4c0.7-3,0.6-6.1-0.1-9c-0.1-0.4,0-0.5,0.3-0.6
		c2.7-1.1,5.6-1.6,8.5-1.5c1,0,1.9,0.2,2.9,0.3c0.2,0,0.3,0.1,0.4,0.3c0.5,2.8,0.5,5.6-0.2,8.4c-0.9,3.9-3,7.3-6.1,9.8
		c-3.1,2.5-6.9,3.9-10.8,4C173.6,72.3,172.9,72.3,172.1,72.3z"/>
	<path class="st1" d="M165.3,74.5c-0.3,0.2-0.6,0.4-0.9,0.5c-7.8,4.5-17.7,2.4-23.1-4.8c-1.2-1.5-2.2-3.2-2.9-5.1
		c-0.1-0.2-0.1-0.4,0.1-0.5c1.9-1.7,4.1-3.1,6.5-4.1l0.2-0.1C148.7,69.9,155.6,74.3,165.3,74.5z"/>
	<path class="st1" d="M172.7,74.5c9.8-0.2,16.6-4.7,20.2-14c0.9,0.4,1.8,0.8,2.6,1.3c1.4,0.8,2.8,1.8,4,2.9c0.2,0.1,0.2,0.3,0.1,0.5
		c-0.9,2.2-2.2,4.3-3.8,6.1c-3.1,3.5-7.4,5.7-12,6c-3.9,0.3-7.7-0.7-11-2.7C172.8,74.6,172.7,74.5,172.7,74.5z"/>
</g>
<path class="st0" d="M138.2,127.4c-0.2-0.8-0.7-1.4-1.4-1.7c-0.4-0.2-0.9-0.3-1.4-0.3c-0.9,0-1.8,0.4-2.4,1.1c-0.7,1-1,2.1-0.9,3.3
	c-0.1,1.1,0.2,2.3,1,3.1c0.6,0.6,1.4,0.9,2.3,0.9c0.8,0,1.5-0.2,2.1-0.7c0.5-0.5,0.9-1.2,1-1.9h-2.8v-2h5v6.5H139l-0.2-1.5
	c-0.4,0.5-0.8,0.9-1.3,1.2c-0.7,0.4-1.6,0.6-2.4,0.6c-1.5,0-2.9-0.6-3.9-1.6c-1.1-1.3-1.7-2.9-1.6-4.6c-0.1-1.7,0.5-3.4,1.6-4.7
	c1.1-1.2,2.6-1.8,4.3-1.8c1.3-0.1,2.6,0.3,3.7,1.2c0.9,0.7,1.5,1.8,1.6,2.9L138.2,127.4z"/>
<path class="st0" d="M146.6,123.7h2.9l4.3,12h-2.7l-0.8-2.5h-4.4l-0.8,2.5h-2.6L146.6,123.7z M146.4,131.2h3.1l-1.5-4.7L146.4,131.2
	z"/>
<path class="st0" d="M162.9,124c0.4,0.2,0.8,0.5,1.1,0.8c0.3,0.3,0.5,0.6,0.6,1c0.2,0.4,0.2,0.8,0.2,1.3c0,0.6-0.2,1.2-0.4,1.7
	c-0.3,0.6-0.8,1-1.4,1.2c0.5,0.2,0.9,0.5,1.2,1c0.3,0.6,0.4,1.2,0.4,1.9v0.8c0,0.4,0,0.8,0.1,1.1c0,0.3,0.2,0.5,0.5,0.7v0.3h-2.8
	c-0.1-0.3-0.1-0.5-0.2-0.6c-0.1-0.3-0.1-0.7-0.1-1V133c0.1-0.5-0.1-1.1-0.4-1.5c-0.4-0.3-0.9-0.4-1.4-0.4h-2.5v4.7h-2.5v-12h5.8
	C161.6,123.8,162.3,123.8,162.9,124z M157.7,125.8v3.2h2.7c0.4,0,0.8,0,1.2-0.2c0.5-0.3,0.8-0.8,0.7-1.4c0.1-0.6-0.2-1.2-0.7-1.5
	c-0.4-0.2-0.8-0.2-1.2-0.2L157.7,125.8z"/>
<path class="st0" d="M174.4,123.9c0.8,0.3,1.6,0.8,2.1,1.5c0.4,0.6,0.7,1.3,0.9,2c0.2,0.7,0.2,1.3,0.2,2c0,1.4-0.3,2.8-1,4.1
	c-0.8,1.5-2.4,2.3-4.1,2.2h-5.2v-12h5.2C173.1,123.7,173.7,123.8,174.4,123.9z M169.7,125.8v7.9h2.3c1.1,0,2.2-0.7,2.5-1.8
	c0.3-0.7,0.4-1.5,0.4-2.3c0.1-1-0.1-2-0.6-2.8c-0.5-0.7-1.4-1.1-2.3-1L169.7,125.8z"/>
<path class="st0" d="M188.3,125.8h-6.4v2.6h5.9v2.1h-5.9v3.1h6.7v2.2h-9.1v-12h8.8V125.8z"/>
<path class="st0" d="M190.5,123.7h2.6l4.8,8.4v-8.4h2.4v12h-2.5l-4.9-8.6v8.6h-2.3V123.7z"/>
<path class="st0" d="M204.5,132c0,0.4,0.2,0.9,0.5,1.2c0.6,0.6,1.4,0.8,2.1,0.7c0.5,0,1,0,1.5-0.2c0.6-0.2,1.1-0.7,1.1-1.4
	c0-0.4-0.2-0.7-0.5-0.9c-0.5-0.3-1.1-0.5-1.7-0.6l-1.3-0.3c-0.9-0.2-1.8-0.5-2.6-0.9c-0.8-0.6-1.3-1.6-1.2-2.6c0-1,0.4-2,1.2-2.7
	c1-0.8,2.2-1.2,3.5-1.1c1.2,0,2.3,0.3,3.3,1c0.9,0.7,1.5,1.8,1.4,2.9h-2.4c0-0.7-0.4-1.3-1-1.5c-0.5-0.2-1-0.3-1.5-0.3
	c-0.6,0-1.1,0.1-1.6,0.4c-0.4,0.2-0.6,0.6-0.6,1.1c0,0.4,0.2,0.8,0.6,1c0.5,0.2,1.1,0.4,1.6,0.5l2.1,0.5c0.8,0.1,1.5,0.4,2.1,0.9
	c0.7,0.6,1.1,1.5,1.1,2.5c0,1.1-0.4,2.1-1.3,2.7c-1,0.8-2.3,1.2-3.6,1.1c-1.3,0.1-2.7-0.3-3.7-1.1c-0.9-0.7-1.4-1.8-1.4-3L204.5,132
	z"/>
</svg>
