<?xml version="1.0" encoding="utf-8"?>
<!-- Generator: Adobe Illustrator 24.2.0, SVG Export Plug-In . SVG Version: 6.00 Build 0)  -->
<svg version="1.1" id="Capa_1" xmlns="http://www.w3.org/2000/svg" xmlns:xlink="http://www.w3.org/1999/xlink" x="0px" y="0px"
	 viewBox="0 0 340 155" style="enable-background:new 0 0 340 155;" xml:space="preserve">
<style type="text/css">
	.st0{fill:#FFFFFF;}
	.st1{fill:#847770;}
</style>
<circle class="st0" cx="170" cy="61.1" r="42.8"/>
<g id="AZpEp5">
	<path class="st1" d="M176.4,62v11.3h6.6c1.3,0,2.5,0.3,3.6,0.9c1.6,0.8,2.5,2.5,2.3,4.2c-0.2,1.2-0.8,2.3-1.8,2.9
		c-1.1,0.8-2.4,1.4-3.7,1.8c-2.6,0.7-5.3,1.2-8,1.3c-4.1,0.3-8.2,0.3-12.2,0c-3.2-0.1-6.4-0.7-9.4-1.7c-1.1-0.4-2-0.9-2.9-1.7
		c-1.7-1.4-1.9-4-0.4-5.6c0.3-0.3,0.6-0.6,1-0.8c1.2-0.8,2.6-1.2,4-1.2c2,0,4,0,6.1,0h0.5V62l-0.3,0.5c-1.5,2.6-3.1,5-5,7.3
		c-1.1,1.4-2.5,2.6-4,3.5c-1.2,0.8-2.7,1.3-4.1,1.3c-1.8,0.1-3.3-1.2-3.4-3c-0.1-1.8,1.2-3.3,3-3.4c0,0,0.1,0,0.1,0
		c0.7-0.1,1.3-0.3,1.8-0.8c1.2-1,2.2-2.3,3.1-3.7c1.7-2.5,3.2-5.2,4.9-7.7c1-1.5,2-3,3.1-4.4c1.7-2.1,4.2-3.2,6.9-3.1
		c0.9,0,1.8,0,2.7,0c2.3,0,4.5,0.9,6.1,2.5c1.3,1.3,2.3,2.7,3.2,4.2c1.6,2.5,3.1,5.1,4.8,7.6c0.8,1.2,1.7,2.3,2.6,3.4
		c0.4,0.5,0.8,0.9,1.3,1.2c0.5,0.4,1.1,0.6,1.7,0.7c1.8,0.1,3.2,1.6,3.1,3.4c-0.1,1.8-1.6,3.2-3.4,3.1c-1.7-0.1-3.3-0.6-4.7-1.6
		c-1.8-1.3-3.4-2.9-4.7-4.8c-1.3-1.9-2.6-3.9-3.8-5.8L176.4,62z"/>
	<path class="st1" d="M176.5,40c0,4.1-3.3,7.4-7.4,7.4c-4.1,0-7.4-3.3-7.4-7.4s3.3-7.4,7.4-7.4c0,0,0,0,0,0
		C173.3,32.6,176.5,35.9,176.5,40z"/>
</g>
<path class="st0" d="M85.2,123.1h3.6v12.1h-2.3V127c0-0.2,0-0.6,0-1s0-0.8,0-1l-2.3,10.1h-2.4L79.6,125v1c0,0.4,0,0.8,0,1v8.2h-2.3
	v-12.1h3.7l2.2,9.5L85.2,123.1z"/>
<path class="st0" d="M91.2,123.1h2.6v7.4c0,0.6,0.1,1.2,0.3,1.8c0.8,1.1,2.3,1.4,3.4,0.6c0.2-0.2,0.4-0.4,0.6-0.6
	c0.2-0.6,0.3-1.2,0.3-1.8v-7.4h2.6v7.4c0.1,1-0.2,2.1-0.6,3c-0.7,1.3-2.2,2-4.2,2c-2.1,0-3.5-0.6-4.2-2c-0.4-0.9-0.6-2-0.6-3
	L91.2,123.1z"/>
<path class="st0" d="M103.3,123.1h2.5v9.9h6v2.2h-8.5V123.1z"/>
<path class="st0" d="M121.1,123.1v2.1h-3.6v9.9h-2.5v-9.9h-3.6v-2.1H121.1z"/>
<path class="st0" d="M124.8,135.1h-2.5v-12.1h2.5V135.1z"/>
<path class="st0" d="M135.3,129.9c-0.9,0.6-1.9,1-3,0.9h-2.5v4.3h-2.5v-12.1h5.2c1-0.1,2.1,0.3,2.9,0.9c0.8,0.8,1.2,1.8,1.1,2.9
	C136.5,128,136.1,129.1,135.3,129.9z M133.3,125.6c-0.4-0.3-0.9-0.4-1.3-0.4h-2.3v3.6h2.3c0.5,0,1-0.1,1.3-0.4
	c0.4-0.4,0.5-0.9,0.5-1.4C133.9,126.4,133.7,125.9,133.3,125.6z"/>
<path class="st0" d="M138.3,123.1h2.6v7.4c0,0.6,0.1,1.2,0.3,1.8c0.4,0.7,1.2,1.1,2,1c0.8,0.1,1.6-0.3,2-1c0.2-0.6,0.3-1.2,0.3-1.8
	v-7.4h2.5v7.4c0.1,1-0.2,2.1-0.6,3c-0.7,1.3-2.2,2-4.2,2s-3.5-0.6-4.2-2c-0.4-0.9-0.7-2-0.6-3L138.3,123.1z"/>
<path class="st0" d="M158.2,123.4c0.4,0.2,0.8,0.5,1.1,0.8c0.3,0.3,0.5,0.6,0.6,1c0.2,0.4,0.2,0.8,0.2,1.3c0,0.6-0.2,1.2-0.4,1.7
	c-0.3,0.6-0.8,1-1.4,1.2c0.5,0.2,0.9,0.5,1.2,1c0.3,0.6,0.4,1.2,0.4,1.9v0.8c0,0.4,0,0.7,0.1,1.1c0,0.3,0.2,0.5,0.5,0.7v0.3h-2.8
	c-0.1-0.2-0.1-0.4-0.2-0.6c-0.1-0.3-0.1-0.7-0.1-1v-1.1c0.1-0.5-0.1-1.1-0.4-1.5c-0.4-0.3-0.9-0.5-1.4-0.4H153v4.7h-2.5v-12.1h5.8
	C156.9,123.1,157.6,123.2,158.2,123.4z M153,125.2v3.2h2.7c0.4,0,0.8,0,1.2-0.2c0.5-0.3,0.8-0.8,0.7-1.4c0.1-0.6-0.2-1.2-0.7-1.5
	c-0.4-0.2-0.8-0.2-1.2-0.2L153,125.2z"/>
<path class="st0" d="M170.6,129.9c-0.9,0.6-1.9,1-3,0.9h-2.5v4.3h-2.5v-12.1h5.2c1-0.1,2,0.3,2.9,0.9c0.8,0.8,1.2,1.8,1.1,2.9
	C171.8,128,171.4,129.1,170.6,129.9z M168.7,125.6c-0.4-0.3-0.9-0.4-1.3-0.4h-2.3v3.6h2.3c0.5,0,1-0.1,1.3-0.4
	c0.4-0.4,0.5-0.9,0.5-1.4C169.2,126.4,169,125.9,168.7,125.6z"/>
<path class="st0" d="M183,134.1c-2.3,1.9-5.6,1.9-7.9,0c-1.3-1.3-2-3.1-1.8-5c-0.2-1.9,0.5-3.7,1.8-5c2.3-1.9,5.6-1.9,7.9,0
	c1.3,1.3,2,3.1,1.8,5C185,130.9,184.3,132.7,183,134.1z M181.4,132.2c1.2-1.9,1.2-4.4,0-6.3c-1.1-1.3-3.1-1.5-4.4-0.4
	c-0.1,0.1-0.3,0.2-0.4,0.4c-1.2,1.9-1.2,4.4,0,6.3c1.1,1.3,3.1,1.5,4.4,0.4C181.2,132.5,181.3,132.4,181.4,132.2z"/>
<path class="st0" d="M188.5,131.4c0,0.4,0.2,0.9,0.5,1.2c0.6,0.6,1.4,0.8,2.1,0.8c0.5,0,1-0.1,1.5-0.2c0.6-0.2,1.1-0.7,1.1-1.4
	c0-0.4-0.2-0.7-0.5-0.9c-0.5-0.3-1.1-0.5-1.7-0.6l-1.3-0.3c-0.9-0.2-1.8-0.5-2.6-0.9c-0.8-0.6-1.3-1.6-1.2-2.6c0-1,0.4-2,1.2-2.7
	c1-0.8,2.2-1.2,3.5-1.1c1.2,0,2.3,0.3,3.3,1c0.9,0.7,1.4,1.8,1.4,2.9h-2.4c0-0.7-0.4-1.3-1-1.6c-0.5-0.2-1-0.3-1.5-0.3
	c-0.6,0-1.1,0.1-1.6,0.4c-0.4,0.2-0.6,0.7-0.6,1.1c0,0.4,0.2,0.8,0.6,1c0.5,0.2,1,0.4,1.6,0.5l2.1,0.5c0.7,0.1,1.5,0.4,2.1,0.9
	c0.7,0.6,1.1,1.5,1.1,2.5c0,1.1-0.5,2.1-1.3,2.8c-1,0.8-2.3,1.2-3.6,1.1c-1.3,0.1-2.7-0.3-3.8-1.1c-0.9-0.7-1.4-1.8-1.4-2.9
	L188.5,131.4z"/>
<path class="st0" d="M206.8,125.2h-6.4v2.6h5.9v2.1h-5.9v3.2h6.7v2.2H198v-12.1h8.8L206.8,125.2z"/>
<path class="st0" d="M221.4,123.4c0.4,0.2,0.8,0.5,1.1,0.8c0.3,0.3,0.5,0.6,0.6,1c0.2,0.4,0.2,0.8,0.2,1.3c0,0.6-0.2,1.2-0.4,1.7
	c-0.3,0.6-0.8,1-1.4,1.2c0.5,0.2,0.9,0.5,1.2,1c0.3,0.6,0.4,1.2,0.4,1.9v0.8c0,0.4,0,0.7,0.1,1.1c0,0.3,0.2,0.5,0.5,0.7v0.3h-2.8
	c-0.1-0.3-0.1-0.5-0.2-0.6c-0.1-0.3-0.1-0.7-0.1-1v-1.1c0.1-0.5-0.1-1.1-0.4-1.5c-0.4-0.3-0.9-0.5-1.4-0.4h-2.4v4.7h-2.5v-12.1h5.8
	C220.2,123.1,220.8,123.2,221.4,123.4z M216.2,125.2v3.2h2.7c0.4,0,0.8,0,1.2-0.2c0.5-0.3,0.8-0.8,0.7-1.4c0.1-0.6-0.2-1.2-0.7-1.5
	c-0.4-0.2-0.8-0.2-1.2-0.2H216.2z"/>
<path class="st0" d="M235.1,134.1c-2.3,1.9-5.6,1.9-7.9,0c-1.3-1.3-2-3.1-1.8-5c-0.2-1.9,0.5-3.7,1.8-5c2.3-1.9,5.6-1.9,7.9,0
	c1.3,1.3,2,3.1,1.8,5C237,130.9,236.4,132.7,235.1,134.1z M233.5,132.2c1.2-1.9,1.2-4.3,0-6.3c-0.6-0.7-1.5-1.1-2.4-1.1
	c-0.9,0-1.8,0.4-2.4,1.1c-1.2,1.9-1.2,4.4,0,6.3c0.6,0.7,1.5,1.1,2.4,1.1C232.1,133.4,232.9,132.9,233.5,132.2z"/>
<path class="st0" d="M248.1,134.1c-2.3,1.9-5.6,1.9-7.9,0c-1.3-1.3-2-3.1-1.8-5c-0.2-1.9,0.5-3.7,1.8-5c2.3-1.9,5.6-1.9,7.9,0
	c1.3,1.3,2,3.1,1.8,5C250.1,130.9,249.4,132.7,248.1,134.1z M246.5,132.2c1.2-1.9,1.2-4.4,0-6.3c-1.1-1.3-3.1-1.5-4.4-0.4
	c-0.1,0.1-0.3,0.2-0.4,0.4c-1.2,1.9-1.2,4.4,0,6.3c1.1,1.3,3.1,1.5,4.4,0.4C246.3,132.5,246.4,132.4,246.5,132.2z"/>
<path class="st0" d="M259.8,123.1h3.6v12.1h-2.4V127c0-0.2,0-0.6,0-1s0-0.8,0-1l-2.3,10.1h-2.4l-2.3-10.1c0,0.2,0,0.6,0,1v9.1h-2.3
	v-12.1h3.7l2.2,9.5L259.8,123.1z"/>
</svg>
