<svg id="Capa_1" data-name="Capa 1" xmlns="http://www.w3.org/2000/svg" viewBox="0 0 137.74 112.28"><defs><style>.cls-1{fill:#bfa57a;}</style></defs><path class="cls-1" d="M26.08,93.94a2.12,2.12,0,0,0-1-.74A3.15,3.15,0,0,0,23.92,93a3.24,3.24,0,0,0-1.34.27,3.09,3.09,0,0,0-1,.74,3.19,3.19,0,0,0-.66,1.09,3.83,3.83,0,0,0-.24,1.37,4.27,4.27,0,0,0,.23,1.42,3.09,3.09,0,0,0,.65,1.1,2.92,2.92,0,0,0,1,.72,3.27,3.27,0,0,0,1.32.25,3,3,0,0,0,1.36-.3,2.63,2.63,0,0,0,.95-.79l1.35,1A4.37,4.37,0,0,1,26,101a4.91,4.91,0,0,1-2.13.44,5.61,5.61,0,0,1-2-.37,4.74,4.74,0,0,1-1.6-1,4.65,4.65,0,0,1-1.05-1.58,5.32,5.32,0,0,1-.37-2,5.17,5.17,0,0,1,.39-2.05,4.51,4.51,0,0,1,1.09-1.56,4.72,4.72,0,0,1,1.63-1,5.59,5.59,0,0,1,2-.35,6.41,6.41,0,0,1,.95.08,4.94,4.94,0,0,1,.95.27,4.39,4.39,0,0,1,.86.45,2.77,2.77,0,0,1,.68.64Z"/><path class="cls-1" d="M32.05,94.58a2.53,2.53,0,0,1,1.08.22,2.23,2.23,0,0,1,.73.59,2.32,2.32,0,0,1,.42.83,3.43,3.43,0,0,1,.14,1v4H32.81V97.66a3.86,3.86,0,0,0,0-.58,1.68,1.68,0,0,0-.17-.55,1.08,1.08,0,0,0-.36-.41,1.14,1.14,0,0,0-.62-.16,1.41,1.41,0,0,0-.67.15,1.49,1.49,0,0,0-.47.39,1.84,1.84,0,0,0-.28.56,2.18,2.18,0,0,0-.09.63v3.51H28.5V91.08h1.61v4.59h0a1.71,1.71,0,0,1,.28-.4,2.44,2.44,0,0,1,.42-.35,2.13,2.13,0,0,1,.55-.24A2,2,0,0,1,32.05,94.58Z"/><path class="cls-1" d="M36.09,92.59a.94.94,0,0,1,.29-.68,1,1,0,0,1,.73-.29,1.08,1.08,0,0,1,.74.28.89.89,0,0,1,.3.69.9.9,0,0,1-.3.69,1.07,1.07,0,0,1-.74.27,1,1,0,0,1-.73-.29A.92.92,0,0,1,36.09,92.59Zm.23,2.18h1.6v6.43h-1.6Z"/><path class="cls-1" d="M39.91,91.08h1.6V101.2h-1.6Z"/><path class="cls-1" d="M50,101.2H48.47v-1h0a2.27,2.27,0,0,1-.93.86,2.82,2.82,0,0,1-1.28.29,3.11,3.11,0,0,1-1.32-.27,2.93,2.93,0,0,1-1-.74,3.3,3.3,0,0,1-.63-1.08A3.91,3.91,0,0,1,43.08,98a3.61,3.61,0,0,1,.23-1.33,3.09,3.09,0,0,1,1.63-1.79,3.05,3.05,0,0,1,1.26-.26,3.22,3.22,0,0,1,.79.1,3.1,3.1,0,0,1,.61.25,3.25,3.25,0,0,1,.45.32,2.93,2.93,0,0,1,.3.34h0V91.08H50ZM44.71,98a2.78,2.78,0,0,0,.11.75,2,2,0,0,0,.35.67,1.92,1.92,0,0,0,.57.48,1.77,1.77,0,0,0,.82.18,1.7,1.7,0,0,0,.79-.18,2,2,0,0,0,.59-.47,2.18,2.18,0,0,0,.38-.66,2.23,2.23,0,0,0,0-1.5,2.12,2.12,0,0,0-.38-.67,2.14,2.14,0,0,0-.59-.48,1.71,1.71,0,0,0-.79-.19,1.77,1.77,0,0,0-.82.19,1.64,1.64,0,0,0-.57.47,2.1,2.1,0,0,0-.35.66A2.78,2.78,0,0,0,44.71,98Z"/><path class="cls-1" d="M52,94.77h1.54v1.07h0a2.39,2.39,0,0,1,.75-.91,1.89,1.89,0,0,1,1.12-.35h.21a.84.84,0,0,1,.18,0V96.1L55.51,96h-.22a1.78,1.78,0,0,0-.89.2,1.61,1.61,0,0,0-.52.48,1.73,1.73,0,0,0-.25.58,1.9,1.9,0,0,0-.07.47v3.44H52Z"/><path class="cls-1" d="M62.72,98.06v.22a1.49,1.49,0,0,1,0,.21H57.82a1.69,1.69,0,0,0,.18.64,1.49,1.49,0,0,0,.41.49A2,2,0,0,0,59,100a1.93,1.93,0,0,0,.67.12,2.14,2.14,0,0,0,1-.22,1.9,1.9,0,0,0,.68-.61l1.07.86a3.19,3.19,0,0,1-2.75,1.28,3.85,3.85,0,0,1-1.38-.23,3.31,3.31,0,0,1-1.09-.66,3.14,3.14,0,0,1-.73-1A3.74,3.74,0,0,1,56.21,98a3.8,3.8,0,0,1,.26-1.41,3.4,3.4,0,0,1,.72-1.08,3.2,3.2,0,0,1,1.08-.7,3.67,3.67,0,0,1,1.34-.25,3.55,3.55,0,0,1,1.24.22,2.65,2.65,0,0,1,1,.66,2.92,2.92,0,0,1,.65,1.08A4.41,4.41,0,0,1,62.72,98.06Zm-1.61-.72a2,2,0,0,0-.09-.59,1.28,1.28,0,0,0-.75-.83,1.54,1.54,0,0,0-.67-.13,1.83,1.83,0,0,0-1.23.43,1.59,1.59,0,0,0-.55,1.12Z"/><path class="cls-1" d="M64.27,94.77H65.8v1h0a2.13,2.13,0,0,1,.75-.85,2.17,2.17,0,0,1,1.25-.37,2.53,2.53,0,0,1,1.08.22,2.23,2.23,0,0,1,.73.59,2.17,2.17,0,0,1,.42.83,3.43,3.43,0,0,1,.14,1v4H68.58V97.63a4,4,0,0,0,0-.58,1.67,1.67,0,0,0-.17-.56,1.32,1.32,0,0,0-.37-.41,1.14,1.14,0,0,0-.62-.16,1.28,1.28,0,0,0-.67.16,1.49,1.49,0,0,0-.47.39A1.71,1.71,0,0,0,66,97a2.28,2.28,0,0,0-.09.63v3.54H64.27Z"/><path class="cls-1" d="M72.6,91.72h1.55L73,95.25H71.66Z"/><path class="cls-1" d="M78.56,96.48A1.91,1.91,0,0,0,78,96a1.67,1.67,0,0,0-.82-.21,1.51,1.51,0,0,0-.71.16.59.59,0,0,0,0,1.06,6.28,6.28,0,0,0,1,.32,5.4,5.4,0,0,1,.73.21,2.53,2.53,0,0,1,.67.36,1.73,1.73,0,0,1,.49.55,1.59,1.59,0,0,1,.19.79,2.17,2.17,0,0,1-.22,1,2,2,0,0,1-.59.66,2.67,2.67,0,0,1-.86.37,4.23,4.23,0,0,1-1,.11,4.06,4.06,0,0,1-1.46-.27,3,3,0,0,1-1.18-.78l1.06-1a2.05,2.05,0,0,0,1.64.81,1.47,1.47,0,0,0,.36,0,1.2,1.2,0,0,0,.33-.13.65.65,0,0,0,.35-.59.61.61,0,0,0-.37-.58,6.13,6.13,0,0,0-1.11-.35,4.33,4.33,0,0,1-.7-.21,2.11,2.11,0,0,1-.61-.33,1.56,1.56,0,0,1-.43-.52,1.71,1.71,0,0,1-.16-.76,1.8,1.8,0,0,1,.81-1.56,2.72,2.72,0,0,1,.81-.37,3.73,3.73,0,0,1,.94-.12,4,4,0,0,1,1.36.24,2.31,2.31,0,0,1,1,.74Z"/><path class="cls-1" d="M84.4,91.72h3.3a5.63,5.63,0,0,1,1.3.14,3.25,3.25,0,0,1,1.11.46,2.45,2.45,0,0,1,.79.84,2.66,2.66,0,0,1,.29,1.28,2.44,2.44,0,0,1-.58,1.68A3,3,0,0,1,89,97l2.53,4.21h-2l-2.2-4H86.09v4H84.4Zm3.07,4.08a5.81,5.81,0,0,0,.72,0,2.15,2.15,0,0,0,.65-.2,1.38,1.38,0,0,0,.48-.42,1.29,1.29,0,0,0,.19-.71,1,1,0,0,0-.18-.63,1.21,1.21,0,0,0-.44-.4,1.9,1.9,0,0,0-.61-.2,5.14,5.14,0,0,0-.66,0H86.09V95.8Z"/><path class="cls-1" d="M92.21,98a3.48,3.48,0,0,1,.27-1.39,3.24,3.24,0,0,1,.75-1.06,3.16,3.16,0,0,1,1.11-.69,4,4,0,0,1,2.73,0,3.16,3.16,0,0,1,1.11.69,3.21,3.21,0,0,1,.74,1.06,3.37,3.37,0,0,1-1.85,4.56,3.85,3.85,0,0,1-2.73,0,3.3,3.3,0,0,1-1.86-1.78A3.52,3.52,0,0,1,92.21,98Zm1.63,0a2.45,2.45,0,0,0,.12.75,2,2,0,0,0,.34.67,1.92,1.92,0,0,0,.57.48,1.81,1.81,0,0,0,.83.18,1.76,1.76,0,0,0,.83-.18,1.84,1.84,0,0,0,.58-.48,2,2,0,0,0,.34-.67,2.61,2.61,0,0,0,0-1.5,2.07,2.07,0,0,0-.34-.66,1.59,1.59,0,0,0-.58-.47,1.75,1.75,0,0,0-.83-.19,1.81,1.81,0,0,0-.83.19,1.64,1.64,0,0,0-.57.47,2.07,2.07,0,0,0-.34.66A2.45,2.45,0,0,0,93.84,98Z"/><path class="cls-1" d="M100.38,98a3.48,3.48,0,0,1,.27-1.39,3.21,3.21,0,0,1,.74-1.06,3.29,3.29,0,0,1,1.12-.69,3.81,3.81,0,0,1,1.36-.24,3.91,3.91,0,0,1,1.37.24,3.25,3.25,0,0,1,1.11.69,3.21,3.21,0,0,1,.74,1.06,3.48,3.48,0,0,1,.28,1.39,3.52,3.52,0,0,1-.28,1.39,3.3,3.3,0,0,1-.74,1.08,3.43,3.43,0,0,1-1.11.7,3.7,3.7,0,0,1-1.37.25,3.61,3.61,0,0,1-1.36-.25,3.48,3.48,0,0,1-1.12-.7,3.3,3.3,0,0,1-.74-1.08A3.52,3.52,0,0,1,100.38,98ZM102,98a2.78,2.78,0,0,0,.11.75,2,2,0,0,0,.35.67,1.92,1.92,0,0,0,.57.48,2,2,0,0,0,1.66,0,2.1,2.1,0,0,0,.58-.48,2.23,2.23,0,0,0,.34-.67,2.61,2.61,0,0,0,0-1.5,2.3,2.3,0,0,0-.34-.66,1.86,1.86,0,0,0-2.24-.47,1.64,1.64,0,0,0-.57.47,2.1,2.1,0,0,0-.35.66A2.78,2.78,0,0,0,102,98Z"/><path class="cls-1" d="M116.59,94.58a2.53,2.53,0,0,1,1.08.22,2.14,2.14,0,0,1,.73.59,2.32,2.32,0,0,1,.42.83,3.43,3.43,0,0,1,.14,1v4h-1.61V97.63a4,4,0,0,0,0-.58,1.67,1.67,0,0,0-.17-.56,1.21,1.21,0,0,0-.37-.41,1.14,1.14,0,0,0-.62-.16,1.33,1.33,0,0,0-.65.16,1.6,1.6,0,0,0-.44.42,1.83,1.83,0,0,0-.25.57,2.2,2.2,0,0,0-.08.62v3.51h-1.61V97.31a1.57,1.57,0,0,0-.29-1,1,1,0,0,0-.9-.4,1.18,1.18,0,0,0-.63.16,1.24,1.24,0,0,0-.43.39,1.7,1.7,0,0,0-.26.56,2.28,2.28,0,0,0-.09.63v3.54h-1.6V94.77h1.52v1h0a1.82,1.82,0,0,1,.29-.45,1.79,1.79,0,0,1,.43-.39,1.9,1.9,0,0,1,.57-.28,2.59,2.59,0,0,1,.71-.1,2.11,2.11,0,0,1,1.24.34,2.16,2.16,0,0,1,.76.88,2.33,2.33,0,0,1,.86-.9A2.46,2.46,0,0,1,116.59,94.58Z"/><path class="cls-1" d="M95.8,28.13h0a1.11,1.11,0,0,0-1.08,1.11A1.08,1.08,0,0,0,95,30a1.2,1.2,0,0,0,.84.33h0A1.13,1.13,0,0,0,97,29.23a1.09,1.09,0,0,0-.34-.77A1.18,1.18,0,0,0,95.8,28.13Z"/><path class="cls-1" d="M103.27,61.07l.66-.39a1.3,1.3,0,0,0,.67-1.45,1.1,1.1,0,0,0-1-1,2.54,2.54,0,0,0-1.46.39A44.14,44.14,0,0,1,94,62.51l-.39.13-2-5.42c-1.42-3.82-2.83-7.6-4.23-11.38a13,13,0,0,1,.44-9.79,5.31,5.31,0,0,1,2-2.62l.41-.26.2.44c.13.28.25.55.37.83a14.22,14.22,0,0,0,.81,1.66,9.68,9.68,0,0,0,1.57,2.09,4,4,0,0,0,6.89-1.56l.1-.25a4.66,4.66,0,0,0,.36-1.14c.09-1,.17-1.92.25-2.88s.17-2.19.29-3.28a3.49,3.49,0,0,1,.72-2c.83-.91.91-1.42.39-2.36a6.31,6.31,0,0,0-.94-1.35,15,15,0,0,0-12-4.86,14.77,14.77,0,0,0-10.82,5.27c-.93,1.05-2,2.13-3.28,3.4A5.55,5.55,0,0,1,70,29.05a19.19,19.19,0,0,0-2-.2l-.66,0a54.06,54.06,0,0,0-12.17.26,8.91,8.91,0,0,0-5.33,2.32,3.87,3.87,0,0,1-2.73,1.21,13.87,13.87,0,0,0-2.28.35C40.49,34,37.77,36.33,36.52,40A12.78,12.78,0,0,0,41,54a23.3,23.3,0,0,0,2.8,1.74c.47.26.94.52,1.41.8l.29.18L43.7,62.38l-.41-.16L43,62.1a3.63,3.63,0,0,1-.56-.22l-2.16-1.09c-1.43-.73-2.91-1.48-4.38-2.19a3,3,0,0,0-1.29-.37h-.13a1.16,1.16,0,0,0-1,1.08,1.43,1.43,0,0,0,.84,1.48,43.07,43.07,0,0,0,10.38,4.79,75.09,75.09,0,0,0,20.61,3.13,104.66,104.66,0,0,0,17.41-.81,53.92,53.92,0,0,0,16.88-4.78C100.83,62.51,102.07,61.78,103.27,61.07ZM46.71,38.91l.17.43c.15.39.28.78.41,1.18a8.93,8.93,0,0,0,1,2.37,3.87,3.87,0,0,1,.29,4.25,1.13,1.13,0,0,0-.08.24c0,.08-.05.15-.08.22a.78.78,0,0,1-.12.22l-.3.43-.33-.18c-1.67-.87-3.61-2.22-3.84-4.93a4.31,4.31,0,0,1,2.45-4Zm-8.05,4.32a7.6,7.6,0,0,1,5-7.08,1.85,1.85,0,0,1,.67-.11l1.31,0-1.08.75a7.33,7.33,0,0,0-3.28,4.77c-.57,3.06.5,5.59,3.28,7.74a11.74,11.74,0,0,0,1.81,1.11A1.13,1.13,0,0,1,47,52.09h0a5.3,5.3,0,0,0-.29.85c0,.14-.09.28-.13.42l-.13.38-.38-.1C41.75,52.53,38.49,48,38.66,43.23Zm45.86,21.7A108.16,108.16,0,0,1,69,66.07a105.1,105.1,0,0,1-16.07-1.25l-.6-.09.46-.85c.11-.19.2-.37.3-.53l2.07-3.53q2.93-4.93,5.82-9.89a1.61,1.61,0,0,1,1.56-.86l1.26,0c2.22,0,4.52,0,6.78,0A32.43,32.43,0,0,0,74,48.7l1.71-.23.28,0,9.17,16.4Zm6.07-1.37-.55.16a10,10,0,0,1-1.48.34h-.08a1.46,1.46,0,0,1-1.07-.73c-1.63-2.87-3.23-5.75-4.84-8.62L81.06,52c-1.15-2.07-2.31-4.13-3.46-6.19-.4-.72-.8-1.1-1.2-1.17a2,2,0,0,0-1.52.69,5.39,5.39,0,0,1-3.7,1c-3.46,0-6.58.05-9.75,0a2.26,2.26,0,0,0-2.27,1.28c-1.48,2.56-3,5.12-4.5,7.67s-3,5.1-4.49,7.66a1.49,1.49,0,0,1-2.05.79,8.21,8.21,0,0,0-.91-.28l-.49-.14-.41-.12L47,61c.43-1.35.85-2.67,1.28-4l2.1-6.51,1-3.22,0-.1a1.24,1.24,0,0,1,0-.16l.24-.75c.68-2.07.68-2.07-.63-3.87L51,42.2a6.62,6.62,0,0,1-.71-6.88,5.6,5.6,0,0,1,4.3-3.39,47.17,47.17,0,0,1,11.92-.45c.65,0,1.31.1,2,.17.86.08,1.74.17,2.61.19,2.07.05,3.93-.8,6-2.8,1.43-1.35,2.74-2.78,3.84-4,4.4-4.85,12.47-5.11,17.61-.57a5,5,0,0,1,.45.47l.21.23.23.24-.19.28a6.87,6.87,0,0,0-.9,3.79l0,.34a45,45,0,0,1-.65,5.38c-.09.53-.68,1.51-1.28,1.51h0a2.64,2.64,0,0,1-1.78-1,11.57,11.57,0,0,1-2-4.87,1.93,1.93,0,0,0-.87-1.39,2,2,0,0,0-1.63.31c-3.48,2-5.41,5.16-6.07,9.91-.53,3.76.72,7.08,2,10.59,1.11,2.94,2.22,5.87,3.35,8.82l1.64,4.31Z"/></svg>