<svg id="Capa_1" data-name="Capa 1" xmlns="http://www.w3.org/2000/svg" viewBox="0 0 137.74 112.28"><defs><style>.cls-1{fill:#bfa57a;}</style></defs><path class="cls-1" d="M32.43,90.25h3.29a6.16,6.16,0,0,1,1.3.14,3.62,3.62,0,0,1,1.12.46,2.55,2.55,0,0,1,.78.85,2.51,2.51,0,0,1,.3,1.27,2.41,2.41,0,0,1-.59,1.68,3,3,0,0,1-1.58.88l2.53,4.2h-2l-2.19-4H34.12v4H32.43Zm3.06,4.08a4.48,4.48,0,0,0,.73,0,2,2,0,0,0,.65-.2,1.27,1.27,0,0,0,.47-.42,1.18,1.18,0,0,0,.19-.7,1.05,1.05,0,0,0-.18-.64,1.1,1.1,0,0,0-.44-.39,1.91,1.91,0,0,0-.61-.21,4.89,4.89,0,0,0-.66,0H34.12v2.66Z"/><path class="cls-1" d="M40.23,96.49a3.24,3.24,0,0,1,.28-1.38A3.15,3.15,0,0,1,41.25,94a3.29,3.29,0,0,1,1.11-.68,3.91,3.91,0,0,1,1.37-.24,3.85,3.85,0,0,1,1.36.24A3.29,3.29,0,0,1,46.2,94,3.18,3.18,0,0,1,47,95.11a3.4,3.4,0,0,1,.27,1.38A3.48,3.48,0,0,1,47,97.88a3.3,3.3,0,0,1-1.86,1.78,3.66,3.66,0,0,1-1.36.26,3.71,3.71,0,0,1-1.37-.26,3.33,3.33,0,0,1-1.11-.7,3.42,3.42,0,0,1-1-2.47Zm1.64,0a2.43,2.43,0,0,0,.11.75,2.23,2.23,0,0,0,.34.67,1.7,1.7,0,0,0,.58.48,1.77,1.77,0,0,0,2.23-.48,1.85,1.85,0,0,0,.34-.67,2.45,2.45,0,0,0,.12-.75,2.34,2.34,0,0,0-.12-.74,1.85,1.85,0,0,0-.34-.67,1.75,1.75,0,0,0-.57-.47,1.82,1.82,0,0,0-2.24.47,2.23,2.23,0,0,0-.34.67A2.33,2.33,0,0,0,41.87,96.49Z"/><path class="cls-1" d="M48.4,96.49a3.4,3.4,0,0,1,.27-1.38A3.18,3.18,0,0,1,49.42,94a3.29,3.29,0,0,1,1.11-.68,4,4,0,0,1,2.73,0,3.29,3.29,0,0,1,1.11.68,3.15,3.15,0,0,1,.74,1.07,3.24,3.24,0,0,1,.28,1.38,3.3,3.3,0,0,1-2.13,3.17,3.71,3.71,0,0,1-2.73,0,3.3,3.3,0,0,1-1.86-1.78A3.48,3.48,0,0,1,48.4,96.49Zm1.63,0a2.45,2.45,0,0,0,.12.75,2,2,0,0,0,.34.67,1.66,1.66,0,0,0,.57.48,1.7,1.7,0,0,0,.83.19,1.64,1.64,0,0,0,.83-.19,1.61,1.61,0,0,0,.58-.48,2.23,2.23,0,0,0,.34-.67,2.43,2.43,0,0,0,.11-.75,2.33,2.33,0,0,0-.11-.74,2.23,2.23,0,0,0-.34-.67,1.69,1.69,0,0,0-.58-.47,1.76,1.76,0,0,0-.83-.18,1.81,1.81,0,0,0-.83.18,1.75,1.75,0,0,0-.57.47,2,2,0,0,0-.34.67A2.34,2.34,0,0,0,50,96.49Z"/><path class="cls-1" d="M57.2,94.59H56V93.3H57.2v-1a4.94,4.94,0,0,1,.12-1.1,2.65,2.65,0,0,1,.43-.93,2.12,2.12,0,0,1,.8-.64,3.77,3.77,0,0,1,1.69-.21,2.66,2.66,0,0,1,.37.07l-.11,1.37-.29-.07a1.66,1.66,0,0,0-.32,0,1.07,1.07,0,0,0-.57.14.83.83,0,0,0-.32.35,1.48,1.48,0,0,0-.16.46,2.89,2.89,0,0,0,0,.5v1h1.49v1.29H58.8v5.14H57.2Z"/><path class="cls-1" d="M60.15,94.59V93.3h1.13V91.44h1.58V93.3h1.61v1.29H62.86v3a1.47,1.47,0,0,0,.15.71c.1.19.33.28.69.28l.35,0a1.06,1.06,0,0,0,.33-.1l.06,1.26a2.69,2.69,0,0,1-.51.13,3.69,3.69,0,0,1-.56,0,2.61,2.61,0,0,1-1-.18,1.56,1.56,0,0,1-.63-.49,1.68,1.68,0,0,1-.32-.72,4.17,4.17,0,0,1-.09-.88v-3Z"/><path class="cls-1" d="M65.25,96.49a3.4,3.4,0,0,1,.28-1.38A3.15,3.15,0,0,1,66.27,94a3.29,3.29,0,0,1,1.11-.68,3.91,3.91,0,0,1,1.37-.24,3.81,3.81,0,0,1,1.36.24,3.29,3.29,0,0,1,1.11.68A3,3,0,0,1,72,95.11a3.4,3.4,0,0,1,.27,1.38A3.48,3.48,0,0,1,72,97.88,3.18,3.18,0,0,1,71.22,99a3.33,3.33,0,0,1-1.11.7,3.62,3.62,0,0,1-1.36.26,3.71,3.71,0,0,1-1.37-.26,3.33,3.33,0,0,1-1.11-.7,3.3,3.3,0,0,1-.74-1.08A3.48,3.48,0,0,1,65.25,96.49Zm1.64,0a2.78,2.78,0,0,0,.11.75,2.23,2.23,0,0,0,.34.67,1.7,1.7,0,0,0,.58.48,1.77,1.77,0,0,0,2.23-.48,2,2,0,0,0,.35-.67,2.78,2.78,0,0,0,.11-.75,2.65,2.65,0,0,0-.11-.74,2,2,0,0,0-.35-.67,1.75,1.75,0,0,0-.57-.47,1.82,1.82,0,0,0-2.24.47,2.23,2.23,0,0,0-.34.67A2.65,2.65,0,0,0,66.89,96.49Z"/><path class="cls-1" d="M75.33,93.3v.9h0a2.47,2.47,0,0,1,.31-.38,2.13,2.13,0,0,1,.47-.35,3,3,0,0,1,1.44-.35,3,3,0,0,1,1.26.26,3,3,0,0,1,1,.71,3.39,3.39,0,0,1,.64,1.07,3.91,3.91,0,0,1,.23,1.33,4.12,4.12,0,0,1-.22,1.33,3.35,3.35,0,0,1-.63,1.09,3.26,3.26,0,0,1-1,.73,3,3,0,0,1-1.32.28,2.83,2.83,0,0,1-1.25-.28,2.14,2.14,0,0,1-.88-.77h0v4.07H73.8V93.3Zm3.75,3.19a2.33,2.33,0,0,0-.11-.74,2.23,2.23,0,0,0-.34-.67,1.79,1.79,0,0,0-.58-.47,1.73,1.73,0,0,0-.81-.18,1.57,1.57,0,0,0-.79.19,1.87,1.87,0,0,0-.6.48,2,2,0,0,0-.38.67,2.45,2.45,0,0,0-.12.75,2.39,2.39,0,0,0,.12.74,2,2,0,0,0,.38.66,1.87,1.87,0,0,0,.6.48,1.67,1.67,0,0,0,.79.18,1.62,1.62,0,0,0,.81-.19,1.7,1.7,0,0,0,.58-.48,2.23,2.23,0,0,0,.34-.67A2.43,2.43,0,0,0,79.08,96.49Z"/><path class="cls-1" d="M87.25,89.61v4.51h0a1.88,1.88,0,0,1,.31-.33,2,2,0,0,1,.45-.33,2.67,2.67,0,0,1,.61-.24,2.71,2.71,0,0,1,.79-.1,2.89,2.89,0,0,1,1.25.26,2.85,2.85,0,0,1,1,.71,3.24,3.24,0,0,1,.65,1.07,3.91,3.91,0,0,1,.22,1.33,3.87,3.87,0,0,1-.22,1.33,3,3,0,0,1-1.62,1.82,2.91,2.91,0,0,1-1.32.28,2.76,2.76,0,0,1-1.27-.3,2.13,2.13,0,0,1-.93-.85h0v1H85.64V89.61Zm3.68,6.88a2.65,2.65,0,0,0-.11-.74,2.23,2.23,0,0,0-.34-.67,1.91,1.91,0,0,0-.58-.47,1.74,1.74,0,0,0-.82-.18,1.62,1.62,0,0,0-.79.19,1.84,1.84,0,0,0-.59.48,2,2,0,0,0-.38.67,2.45,2.45,0,0,0-.12.75,2.39,2.39,0,0,0,.12.74,2,2,0,0,0,.38.66,1.84,1.84,0,0,0,.59.48,1.73,1.73,0,0,0,.79.18,1.63,1.63,0,0,0,.82-.19,1.8,1.8,0,0,0,.58-.48,2.23,2.23,0,0,0,.34-.67A2.78,2.78,0,0,0,90.93,96.49Z"/><path class="cls-1" d="M98.11,98.91h0a1.81,1.81,0,0,1-.78.71,2.67,2.67,0,0,1-1.22.27,3.32,3.32,0,0,1-.81-.1,2.53,2.53,0,0,1-.77-.33,1.94,1.94,0,0,1-.59-.62,1.73,1.73,0,0,1-.24-.94,1.63,1.63,0,0,1,.41-1.16,2.64,2.64,0,0,1,1.05-.65,6.13,6.13,0,0,1,1.43-.3c.52-.05,1-.08,1.53-.08v-.16a1,1,0,0,0-.44-.89,1.81,1.81,0,0,0-1-.29,2.38,2.38,0,0,0-1,.22,2.79,2.79,0,0,0-.78.52l-.83-1a3.65,3.65,0,0,1,1.27-.76,4.3,4.3,0,0,1,1.45-.25,3.57,3.57,0,0,1,1.41.24A2.27,2.27,0,0,1,99,94a2.41,2.41,0,0,1,.45.87,4,4,0,0,1,.13,1v3.91h-1.5Zm0-2.11h-.36l-.82,0a3.26,3.26,0,0,0-.79.15,1.71,1.71,0,0,0-.6.32.72.72,0,0,0-.24.57.65.65,0,0,0,.1.38.78.78,0,0,0,.26.25,1.11,1.11,0,0,0,.36.13,1.87,1.87,0,0,0,.4,0,1.68,1.68,0,0,0,1.26-.44,1.63,1.63,0,0,0,.43-1.2Z"/><path class="cls-1" d="M101.48,93.3H103v1.07h0a2.29,2.29,0,0,1,.75-.91,1.86,1.86,0,0,1,1.12-.34h.2l.19,0v1.47a1.12,1.12,0,0,0-.27,0l-.23,0a1.74,1.74,0,0,0-.88.2,1.74,1.74,0,0,0-.78,1.06,2.49,2.49,0,0,0-.06.47v3.44h-1.61Z"/><g id="_3zAAky" data-name="3zAAky"><path class="cls-1" d="M68.32,13.31h23c1.6,0,2.45.89,2.13,2.24a2.72,2.72,0,0,1-.5.93Q81.78,32,70.64,47.44a3.26,3.26,0,0,0-.59,1.77c0,9.33,0,3.47,0,12.8,0,1,.25,1.23,1.21,1.21,3-.06,6.08,0,9.11,0,1.55,0,2.33.6,2.32,1.79s-.76,1.76-2.24,1.76H56.23c-1,0-1.83-.21-2.18-1.23-.42-1.25.45-2.32,1.92-2.32,3.15,0,6.29-.05,9.44,0,1,0,1.22-.25,1.22-1.21,0-9.36,0-3.54,0-12.9a2.7,2.7,0,0,0-.45-1.5Q55.63,33,45.08,18.43a12.66,12.66,0,0,1-1.42-2,2.89,2.89,0,0,1-.29-2.07,2.59,2.59,0,0,1,1.85-1c1.5-.14,3,0,4.55,0Zm20,3.63H48.41c.18.32.28.54.41.73,1.31,1.82,2.65,3.62,3.92,5.46a1.32,1.32,0,0,0,1.52.6,28.09,28.09,0,0,1,5.91-.45c4.26.37,8.5,1,12.75,1.61a22.71,22.71,0,0,0,8.81-.16,3.62,3.62,0,0,0,1.79-1.19c1.27-1.58,2.41-3.26,3.59-4.9C87.48,18.13,87.83,17.6,88.3,16.94Zm-20,27.71,11.55-16H78.31c-1.58-.05-3.18,0-4.75-.2-4-.51-8-1.24-12-1.69a47.79,47.79,0,0,0-5.74,0l-.14.43Z"/></g></svg>