<svg id="Capa_1" data-name="Capa 1" xmlns="http://www.w3.org/2000/svg" viewBox="0 0 137.74 112.28"><defs><style>.cls-1{fill:#bfa57a;}</style></defs><path class="cls-1" d="M36.49,91.72h3.29a5.57,5.57,0,0,1,1.3.14,3.3,3.3,0,0,1,1.12.46,2.33,2.33,0,0,1,.78.84,2.55,2.55,0,0,1,.3,1.28,2.48,2.48,0,0,1-.58,1.68,3,3,0,0,1-1.59.87l2.53,4.21h-2l-2.2-4H38.18v4H36.49Zm3.07,4.08a5.81,5.81,0,0,0,.72,0,2.15,2.15,0,0,0,.65-.2,1.38,1.38,0,0,0,.48-.42,1.29,1.29,0,0,0,.18-.71,1.09,1.09,0,0,0-.17-.63,1.3,1.3,0,0,0-.44-.4,2,2,0,0,0-.61-.2,5.16,5.16,0,0,0-.67,0H38.18V95.8Z"/><path class="cls-1" d="M50.8,98.06v.22a1.48,1.48,0,0,1,0,.21H45.9a1.69,1.69,0,0,0,.18.64,1.63,1.63,0,0,0,.41.49,1.94,1.94,0,0,0,.58.33,1.85,1.85,0,0,0,.67.12,2.07,2.07,0,0,0,1-.22,1.93,1.93,0,0,0,.69-.61l1.07.86a3.21,3.21,0,0,1-2.76,1.28,3.85,3.85,0,0,1-1.38-.23,3.42,3.42,0,0,1-1.09-.66,3,3,0,0,1-.72-1A3.56,3.56,0,0,1,44.3,98a3.61,3.61,0,0,1,.26-1.41,3.22,3.22,0,0,1,.71-1.08,3.41,3.41,0,0,1,1.08-.7,3.72,3.72,0,0,1,1.35-.25,3.59,3.59,0,0,1,1.24.22,2.83,2.83,0,0,1,1,.66,3.06,3.06,0,0,1,.65,1.08A4.67,4.67,0,0,1,50.8,98.06Zm-1.6-.72a2,2,0,0,0-.09-.59,1.26,1.26,0,0,0-.28-.49,1.17,1.17,0,0,0-.47-.34,1.59,1.59,0,0,0-.68-.13,1.78,1.78,0,0,0-1.22.43,1.6,1.6,0,0,0-.56,1.12Z"/><path class="cls-1" d="M55.88,96.48a1.91,1.91,0,0,0-.59-.48,1.64,1.64,0,0,0-.82-.21,1.54,1.54,0,0,0-.71.16.55.55,0,0,0-.32.53.54.54,0,0,0,.36.53,5.83,5.83,0,0,0,1,.32,5,5,0,0,1,.73.21,2.53,2.53,0,0,1,.67.36,1.73,1.73,0,0,1,.49.55,1.59,1.59,0,0,1,.19.79,2.17,2.17,0,0,1-.22,1,2,2,0,0,1-.59.66,2.58,2.58,0,0,1-.86.37,4.23,4.23,0,0,1-1,.11,4.06,4.06,0,0,1-1.46-.27,3.12,3.12,0,0,1-1.18-.78l1.06-1a2.09,2.09,0,0,0,1.65.81,1.45,1.45,0,0,0,.35,0A1.4,1.4,0,0,0,55,100a.76.76,0,0,0,.24-.23A.66.66,0,0,0,55,98.8a6,6,0,0,0-1.1-.35,4.16,4.16,0,0,1-.71-.21,2.11,2.11,0,0,1-.61-.33,1.42,1.42,0,0,1-.42-.52,1.58,1.58,0,0,1-.17-.76,1.9,1.9,0,0,1,.22-.92,2,2,0,0,1,.59-.64,2.72,2.72,0,0,1,.81-.37,3.73,3.73,0,0,1,.94-.12,3.94,3.94,0,0,1,1.36.24,2.31,2.31,0,0,1,1.05.74Z"/><path class="cls-1" d="M57.38,96.06V94.77H58.5V92.91h1.58v1.86h1.61v1.29H60.08v3a1.49,1.49,0,0,0,.15.71.73.73,0,0,0,.69.28l.35,0a1.52,1.52,0,0,0,.34-.1l0,1.26a2.75,2.75,0,0,1-.51.12,3.75,3.75,0,0,1-.56,0,2.61,2.61,0,0,1-1.05-.18,1.65,1.65,0,0,1-.63-.5,1.81,1.81,0,0,1-.32-.72,4,4,0,0,1-.09-.88v-3Z"/><path class="cls-1" d="M66.84,100.38h0a1.74,1.74,0,0,1-.78.7,2.51,2.51,0,0,1-1.21.28,3.9,3.9,0,0,1-.81-.1,2.47,2.47,0,0,1-.78-.34,1.91,1.91,0,0,1-.59-.61,1.76,1.76,0,0,1-.23-1,1.61,1.61,0,0,1,.4-1.15,2.9,2.9,0,0,1,1.06-.66,5.94,5.94,0,0,1,1.42-.3c.52,0,1-.07,1.53-.07V97a1,1,0,0,0-.43-.89,1.87,1.87,0,0,0-1-.29,2.26,2.26,0,0,0-1,.22,2.42,2.42,0,0,0-.77.52l-.83-1A3.6,3.6,0,0,1,64,94.84a4.37,4.37,0,0,1,1.46-.26,3.57,3.57,0,0,1,1.41.24,2.23,2.23,0,0,1,.87.63,2.13,2.13,0,0,1,.45.87,3.6,3.6,0,0,1,.13,1v3.91h-1.5Zm0-2.12h-.36c-.26,0-.53,0-.81,0a3.17,3.17,0,0,0-.79.15,1.69,1.69,0,0,0-.61.32.7.7,0,0,0-.24.56.78.78,0,0,0,.1.39.85.85,0,0,0,.26.24,1.09,1.09,0,0,0,.37.14,1.75,1.75,0,0,0,.4,0,1.5,1.5,0,0,0,1.68-1.65Z"/><path class="cls-1" d="M76.08,101.2H74.55v-1h0a2.21,2.21,0,0,1-.75.85,2.16,2.16,0,0,1-1.25.36,2.39,2.39,0,0,1-1.08-.22,2,2,0,0,1-.73-.58,2.27,2.27,0,0,1-.43-.83,3.83,3.83,0,0,1-.13-1v-4h1.61v3.56a4.08,4.08,0,0,0,0,.59,1.47,1.47,0,0,0,.17.56,1.09,1.09,0,0,0,.37.4A1.06,1.06,0,0,0,73,100a1.4,1.4,0,0,0,.66-.15,1.3,1.3,0,0,0,.47-.39,1.84,1.84,0,0,0,.28-.56,2.3,2.3,0,0,0,.09-.64V94.77h1.61Z"/><path class="cls-1" d="M78,94.77h1.54v1.07h0a2.39,2.39,0,0,1,.75-.91,1.9,1.9,0,0,1,1.13-.35h.2a.84.84,0,0,1,.18,0V96.1L81.56,96h-.22a1.71,1.71,0,0,0-.88.2,1.55,1.55,0,0,0-.53.48,1.73,1.73,0,0,0-.25.58,1.9,1.9,0,0,0-.07.47v3.44H78Z"/><path class="cls-1" d="M86.69,100.38h0a1.71,1.71,0,0,1-.77.7,2.58,2.58,0,0,1-1.22.28,3.9,3.9,0,0,1-.81-.1,2.47,2.47,0,0,1-.78-.34,2,2,0,0,1-.59-.61,1.86,1.86,0,0,1-.23-1,1.62,1.62,0,0,1,.41-1.15,2.78,2.78,0,0,1,1-.66,6,6,0,0,1,1.42-.3c.53,0,1-.07,1.54-.07V97a1,1,0,0,0-.44-.89,1.83,1.83,0,0,0-1-.29,2.23,2.23,0,0,0-1,.22,2.59,2.59,0,0,0-.78.52l-.83-1a3.65,3.65,0,0,1,1.27-.76,4.27,4.27,0,0,1,1.45-.26,3.57,3.57,0,0,1,1.41.24,2.34,2.34,0,0,1,.88.63,2.41,2.41,0,0,1,.45.87,4,4,0,0,1,.12,1v3.91h-1.5Zm0-2.12h-.36c-.26,0-.53,0-.82,0a3.17,3.17,0,0,0-.79.15,1.57,1.57,0,0,0-.6.32.7.7,0,0,0-.24.56.69.69,0,0,0,.1.39.67.67,0,0,0,.26.24,1.13,1.13,0,0,0,.36.14,1.81,1.81,0,0,0,.4,0,1.52,1.52,0,0,0,1.69-1.65Z"/><path class="cls-1" d="M90.07,94.77h1.52v1h0a2.1,2.1,0,0,1,.74-.85,2.2,2.2,0,0,1,1.26-.37,2.49,2.49,0,0,1,1.07.22,2.17,2.17,0,0,1,.74.59,2.32,2.32,0,0,1,.42.83,3.43,3.43,0,0,1,.14,1v4H94.38V97.63a4,4,0,0,0,0-.58,1.67,1.67,0,0,0-.18-.56,1,1,0,0,0-1-.57,1.3,1.3,0,0,0-.67.16,1.45,1.45,0,0,0-.46.39,1.71,1.71,0,0,0-.27.56,2.3,2.3,0,0,0-.1.63v3.54h-1.6Z"/><path class="cls-1" d="M96.94,96.06V94.77h1.12V92.91h1.58v1.86h1.61v1.29H99.64v3a1.49,1.49,0,0,0,.15.71.73.73,0,0,0,.69.28l.35,0a1.52,1.52,0,0,0,.34-.1l0,1.26a2.75,2.75,0,0,1-.51.12,3.75,3.75,0,0,1-.56,0,2.61,2.61,0,0,1-1.05-.18,1.58,1.58,0,0,1-.63-.5,1.68,1.68,0,0,1-.32-.72,4,4,0,0,1-.09-.88v-3Z"/><g id="zp62ts"><path class="cls-1" d="M95,26.05a16.44,16.44,0,0,1-6.88,13.29,16,16,0,0,1-9.77,3.17,23.92,23.92,0,0,1-2.8-.28.56.56,0,0,0-.56.17c-3.44,3.55-6.94,7-10.31,10.65-4.34,4.67-8.58,9.43-12.87,14.15-.55.61-1.07,1.26-1.67,1.81a5,5,0,0,1-5.68.6,5,5,0,0,1-.78-8.22c5.67-5,11.29-10,16.74-15.26,3.07-2.94,6.08-5.94,9.12-8.9a.92.92,0,0,0,.28-.93,15.57,15.57,0,0,1,1-8.87,16.41,16.41,0,0,1,9.5-9.31,14.89,14.89,0,0,1,6.32-1.06,8.4,8.4,0,0,1,7.31,4.34A8.91,8.91,0,0,1,95,26.05ZM78.48,39.85l0-.09.37,0A13.84,13.84,0,0,0,92.19,25.16a5.39,5.39,0,0,0-2.75-4.52,7.27,7.27,0,0,0-4.64-.76,13.24,13.24,0,0,0-8.74,4.37,13.32,13.32,0,0,0-3.31,12.61,1.45,1.45,0,0,1-.41,1.46C70.9,39.75,69.5,41.21,68,42.61q-6.47,6.16-13,12.29c-1.73,1.64-3.52,3.21-5.3,4.8-1.41,1.27-2.84,2.52-4.26,3.78a2.2,2.2,0,0,0-.83,1.91,2.23,2.23,0,0,0,3.9,1.3c1.61-1.79,3.2-3.6,4.81-5.39,2-2.23,4-4.46,6-6.66q7-7.57,14.29-14.84a1.75,1.75,0,0,1,1.7-.46C76.4,39.55,77.45,39.68,78.48,39.85Z"/><path class="cls-1" d="M62.17,38.49l1.2-1.19c-1.28-1.26-2.54-2.46-3.77-3.68-1.7-1.69-3.38-3.4-5.07-5.09l-7.26-7.26a1.41,1.41,0,0,1-.15-1.81,1.39,1.39,0,0,1,1.74-.41,1.92,1.92,0,0,1,.5.4q3.72,3.72,7.43,7.46l6.84,6.82,1.31,1.36c.28-.55.53-1,.74-1.5,0-.1-.07-.3-.17-.4-2.19-2.22-4.4-4.42-6.6-6.63l-8.38-8.4a1.39,1.39,0,1,1,1.94-2c1.33,1.32,2.65,2.66,4,4,3,3,5.94,5.93,8.9,8.9.82.81,1.63,1.63,2.43,2.47a.72.72,0,0,1,.19.52,19,19,0,0,0,.13,4.06.43.43,0,0,1-.15.34c-1.86,1.86-3.72,3.7-5.59,5.54-1,.93-1.93,1.84-2.88,2.77a.56.56,0,0,1-.61.15,3,3,0,0,1-1.41-.84q-6.89-6.92-13.79-13.81L41,27.59a1.35,1.35,0,0,1-.35-1.43,1.32,1.32,0,0,1,1.13-.95A1.44,1.44,0,0,1,43,25.7c1,1,2,2.06,3.06,3.08l5.13,5.13q3.36,3.36,6.71,6.74c.23.23.4.32.7.14s.8-.42,1.3-.67c-.84-.81-1.63-1.56-2.4-2.33L52,32.23l-6.47-6.45-1.36-1.37a1.39,1.39,0,0,1-.06-1.95,1.35,1.35,0,0,1,2,0c1.26,1.23,2.49,2.49,3.74,3.73L62,38.29Z"/><path class="cls-1" d="M69.56,50.16l2.06-1.86c.94,1,1.95,2,2.94,3.11,2,2.12,4,4.22,5.93,6.37q4.59,5.09,9.12,10.2a2.23,2.23,0,0,0,3.08.35,2.2,2.2,0,0,0,.16-3.39c-1.28-1.18-2.6-2.31-3.89-3.47-1.85-1.66-3.7-3.31-5.53-5Q78.71,52.1,74,47.69c-.33-.31-.63-.65-1-1L75,44.81l1.57,1.48c2.68,2.51,5.34,5.05,8.05,7.53,3.31,3,6.67,6,10,9a4.82,4.82,0,0,1,1.57,4.92,4.71,4.71,0,0,1-3.57,3.67A4.64,4.64,0,0,1,87.74,70c-2.54-2.76-5-5.62-7.5-8.39s-5.26-5.7-7.9-8.54C71.45,52.13,70.54,51.19,69.56,50.16Z"/></g></svg>