<?xml version="1.0" encoding="utf-8"?>
<!-- Generator: Adobe Illustrator 24.2.0, SVG Export Plug-In . SVG Version: 6.00 Build 0)  -->
<svg version="1.1" id="Capa_1" xmlns="http://www.w3.org/2000/svg" xmlns:xlink="http://www.w3.org/1999/xlink" x="0px" y="0px"
	 viewBox="0 0 137.7 112.3" style="enable-background:new 0 0 137.7 112.3;" xml:space="preserve">
<style type="text/css">
	.st0{fill:#B39C77;}
</style>
<g>
	<path class="st0" d="M34.7,88.9h3.7c0.4,0,0.7,0,1.1,0.1c0.3,0.1,0.7,0.2,0.9,0.4c0.3,0.2,0.5,0.4,0.7,0.7c0.2,0.3,0.3,0.7,0.3,1.1
		c0,0.5-0.2,1-0.5,1.3c-0.3,0.3-0.7,0.6-1.2,0.8v0c0.6,0.1,1.1,0.3,1.5,0.7c0.4,0.4,0.6,0.9,0.6,1.5c0,0.5-0.1,1-0.3,1.3
		c-0.2,0.4-0.5,0.6-0.8,0.8c-0.3,0.2-0.7,0.4-1.2,0.5c-0.4,0.1-0.9,0.1-1.3,0.1h-3.4V88.9z M36.4,92.7h1.5c0.6,0,1-0.1,1.3-0.3
		c0.3-0.2,0.4-0.5,0.4-1c0-0.4-0.2-0.7-0.5-0.9c-0.3-0.2-0.8-0.3-1.4-0.3h-1.4V92.7z M36.4,96.9h1.5c0.2,0,0.4,0,0.7,0
		s0.5-0.1,0.7-0.2c0.2-0.1,0.4-0.2,0.5-0.4c0.1-0.2,0.2-0.4,0.2-0.7c0-0.5-0.2-0.8-0.5-1c-0.3-0.2-0.9-0.3-1.5-0.3h-1.6V96.9z"/>
	<path class="st0" d="M49.4,95.2c0,0.1,0,0.1,0,0.2c0,0.1,0,0.1,0,0.2h-4.9c0,0.2,0.1,0.4,0.2,0.6c0.1,0.2,0.2,0.4,0.4,0.5
		c0.2,0.1,0.4,0.2,0.6,0.3s0.4,0.1,0.7,0.1c0.4,0,0.7-0.1,1-0.2c0.3-0.1,0.5-0.3,0.7-0.6l1.1,0.9c-0.6,0.9-1.6,1.3-2.8,1.3
		c-0.5,0-1-0.1-1.4-0.2s-0.8-0.4-1.1-0.7c-0.3-0.3-0.5-0.6-0.7-1.1s-0.3-0.9-0.3-1.4c0-0.5,0.1-1,0.3-1.4s0.4-0.8,0.7-1.1
		c0.3-0.3,0.7-0.5,1.1-0.7c0.4-0.2,0.9-0.2,1.3-0.2c0.4,0,0.9,0.1,1.2,0.2c0.4,0.1,0.7,0.4,1,0.7c0.3,0.3,0.5,0.7,0.6,1.1
		C49.4,94.1,49.4,94.6,49.4,95.2z M47.8,94.5c0-0.2,0-0.4-0.1-0.6s-0.1-0.4-0.3-0.5c-0.1-0.1-0.3-0.3-0.5-0.3
		C46.8,93,46.6,93,46.3,93c-0.5,0-0.9,0.1-1.2,0.4c-0.3,0.3-0.5,0.7-0.6,1.1H47.8z"/>
	<path class="st0" d="M54.9,97.5L54.9,97.5c-0.2,0.3-0.5,0.5-0.8,0.7c-0.4,0.2-0.8,0.3-1.2,0.3c-0.3,0-0.5,0-0.8-0.1
		c-0.3-0.1-0.5-0.2-0.8-0.3s-0.4-0.4-0.6-0.6c-0.2-0.3-0.2-0.6-0.2-0.9c0-0.5,0.1-0.9,0.4-1.2c0.3-0.3,0.6-0.5,1.1-0.7
		c0.4-0.2,0.9-0.3,1.4-0.3c0.5,0,1-0.1,1.5-0.1v-0.2c0-0.4-0.1-0.7-0.4-0.9c-0.3-0.2-0.6-0.3-1-0.3c-0.3,0-0.7,0.1-1,0.2
		s-0.6,0.3-0.8,0.5l-0.8-1c0.4-0.3,0.8-0.6,1.3-0.8c0.5-0.2,1-0.3,1.5-0.3c0.6,0,1,0.1,1.4,0.2c0.4,0.2,0.7,0.4,0.9,0.6
		c0.2,0.3,0.4,0.5,0.4,0.9c0.1,0.3,0.1,0.6,0.1,1v3.9h-1.5V97.5z M54.9,95.4h-0.4c-0.3,0-0.5,0-0.8,0s-0.5,0.1-0.8,0.1
		c-0.2,0.1-0.4,0.2-0.6,0.3s-0.2,0.3-0.2,0.6c0,0.2,0,0.3,0.1,0.4s0.2,0.2,0.3,0.2c0.1,0.1,0.2,0.1,0.4,0.1c0.1,0,0.3,0,0.4,0
		c0.6,0,1-0.1,1.3-0.4c0.3-0.3,0.4-0.7,0.4-1.2V95.4z"/>
	<path class="st0" d="M62.7,93.7c-0.1-0.2-0.3-0.3-0.6-0.4c-0.2-0.1-0.5-0.2-0.8-0.2c-0.3,0-0.6,0.1-0.8,0.2
		c-0.2,0.1-0.4,0.3-0.6,0.5c-0.1,0.2-0.3,0.4-0.3,0.7c-0.1,0.2-0.1,0.5-0.1,0.7s0,0.5,0.1,0.7c0.1,0.2,0.2,0.5,0.3,0.7
		c0.2,0.2,0.3,0.4,0.6,0.5s0.5,0.2,0.8,0.2c0.2,0,0.5,0,0.8-0.1c0.2-0.1,0.5-0.2,0.6-0.4l1,1c-0.3,0.3-0.6,0.5-1,0.7
		c-0.4,0.2-0.9,0.2-1.3,0.2c-0.5,0-0.9-0.1-1.3-0.2c-0.4-0.2-0.8-0.4-1.1-0.7c-0.3-0.3-0.6-0.7-0.8-1.1c-0.2-0.4-0.3-0.9-0.3-1.4
		c0-0.5,0.1-1,0.3-1.4c0.2-0.4,0.4-0.8,0.7-1.1c0.3-0.3,0.7-0.5,1.1-0.7c0.4-0.2,0.9-0.2,1.3-0.2c0.5,0,0.9,0.1,1.4,0.3
		s0.8,0.4,1.1,0.7L62.7,93.7z"/>
	<path class="st0" d="M68.4,91.7c0.4,0,0.8,0.1,1.1,0.2c0.3,0.1,0.5,0.3,0.7,0.6c0.2,0.2,0.3,0.5,0.4,0.8c0.1,0.3,0.1,0.6,0.1,1v4
		h-1.6v-3.5c0-0.2,0-0.4,0-0.6c0-0.2-0.1-0.4-0.2-0.5c-0.1-0.2-0.2-0.3-0.4-0.4c-0.2-0.1-0.4-0.2-0.6-0.2s-0.5,0-0.7,0.1
		c-0.2,0.1-0.3,0.2-0.5,0.4s-0.2,0.4-0.3,0.6s-0.1,0.4-0.1,0.6v3.5h-1.6V88.2h1.6v4.6h0c0.1-0.1,0.2-0.3,0.3-0.4
		c0.1-0.1,0.3-0.2,0.4-0.3c0.2-0.1,0.3-0.2,0.5-0.2C67.9,91.8,68.1,91.7,68.4,91.7z"/>
	<path class="st0" d="M82.9,91.1c-0.2-0.3-0.6-0.6-1-0.7s-0.8-0.2-1.2-0.2c-0.5,0-0.9,0.1-1.3,0.3s-0.7,0.4-1,0.7s-0.5,0.7-0.7,1.1
		c-0.2,0.4-0.2,0.9-0.2,1.4c0,0.5,0.1,1,0.2,1.4c0.2,0.4,0.4,0.8,0.6,1.1c0.3,0.3,0.6,0.5,1,0.7c0.4,0.2,0.8,0.3,1.3,0.3
		c0.5,0,1-0.1,1.4-0.3c0.4-0.2,0.7-0.5,1-0.8l1.4,1c-0.4,0.5-0.9,0.9-1.5,1.2c-0.6,0.3-1.3,0.4-2.1,0.4c-0.7,0-1.4-0.1-2-0.4
		c-0.6-0.2-1.2-0.6-1.6-1c-0.4-0.4-0.8-1-1-1.6s-0.4-1.3-0.4-2c0-0.8,0.1-1.4,0.4-2.1c0.3-0.6,0.6-1.1,1.1-1.6c0.5-0.4,1-0.8,1.6-1
		s1.3-0.3,2-0.3c0.3,0,0.6,0,1,0.1c0.3,0.1,0.6,0.1,1,0.3c0.3,0.1,0.6,0.3,0.9,0.4s0.5,0.4,0.7,0.6L82.9,91.1z"/>
	<path class="st0" d="M85.3,88.2h1.6v10.1h-1.6V88.2z"/>
	<path class="st0" d="M94.7,98.4h-1.5v-1h0c-0.1,0.3-0.4,0.6-0.7,0.9s-0.8,0.4-1.3,0.4c-0.4,0-0.8-0.1-1.1-0.2s-0.5-0.3-0.7-0.6
		c-0.2-0.2-0.3-0.5-0.4-0.8c-0.1-0.3-0.1-0.6-0.1-1v-4h1.6v3.6c0,0.2,0,0.4,0,0.6c0,0.2,0.1,0.4,0.2,0.6c0.1,0.2,0.2,0.3,0.4,0.4
		c0.2,0.1,0.4,0.2,0.6,0.2c0.2,0,0.5-0.1,0.7-0.2c0.2-0.1,0.3-0.2,0.5-0.4c0.1-0.2,0.2-0.3,0.3-0.6s0.1-0.4,0.1-0.6v-3.5h1.6V98.4z"
		/>
	<path class="st0" d="M98.3,88.2v4.5h0c0.1-0.1,0.2-0.2,0.3-0.3c0.1-0.1,0.3-0.2,0.4-0.3c0.2-0.1,0.4-0.2,0.6-0.2
		c0.2-0.1,0.5-0.1,0.8-0.1c0.5,0,0.9,0.1,1.3,0.3s0.7,0.4,1,0.7c0.3,0.3,0.5,0.7,0.6,1.1c0.2,0.4,0.2,0.9,0.2,1.3
		c0,0.5-0.1,0.9-0.2,1.3c-0.1,0.4-0.4,0.8-0.6,1.1s-0.6,0.6-1,0.7c-0.4,0.2-0.8,0.3-1.3,0.3c-0.5,0-0.9-0.1-1.3-0.3
		s-0.7-0.5-0.9-0.9h0v1h-1.5V88.2H98.3z M102,95.1c0-0.2,0-0.5-0.1-0.7c-0.1-0.2-0.2-0.5-0.3-0.7s-0.3-0.4-0.6-0.5
		c-0.2-0.1-0.5-0.2-0.8-0.2c-0.3,0-0.6,0.1-0.8,0.2c-0.2,0.1-0.4,0.3-0.6,0.5c-0.2,0.2-0.3,0.4-0.4,0.7c-0.1,0.2-0.1,0.5-0.1,0.8
		s0,0.5,0.1,0.7c0.1,0.2,0.2,0.5,0.4,0.7c0.2,0.2,0.4,0.4,0.6,0.5c0.2,0.1,0.5,0.2,0.8,0.2c0.3,0,0.6-0.1,0.8-0.2
		c0.2-0.1,0.4-0.3,0.6-0.5s0.3-0.4,0.3-0.7C102,95.6,102,95.4,102,95.1z"/>
</g>
<path class="st0" d="M48.3,46.5c1.3-0.3,2.5-0.5,3.8-0.8c-3.6-8.5-0.9-18,6.1-23.3c6.4-4.9,15.2-5.2,22.1-0.7c3.4,2.2,5.8,5.2,7.3,9
	c2,5,1.8,10-0.2,15c1.3,0.3,2.5,0.5,3.7,0.8c3.4-8.1,1.7-19.9-7.8-26.9c-8.9-6.7-21.6-5.8-29.5,2.1c-4.2,4.2-6.5,9.2-6.9,15.1
	C46.6,40.1,47,43.4,48.3,46.5z M90.2,19c0.2-0.1,0.4-0.2,0.7-0.3c0.3-0.2,0.5-0.5,0.7-0.7c0.8-0.8,1.6-1.6,2.4-2.4
	c0.5-0.6,0.5-1.3,0-1.8c-0.5-0.5-1.3-0.5-1.8,0c-0.1,0.1-0.3,0.3-0.4,0.4c-0.9,0.9-1.7,1.8-2.6,2.6c-0.4,0.4-0.5,0.9-0.3,1.4
	C89.1,18.7,89.5,19,90.2,19z M48.6,18.7c0.4,0.4,0.8,0.4,1.3,0.2c0.5-0.2,0.7-0.6,0.7-1.3c-0.1-0.1-0.1-0.5-0.3-0.7
	c-1.1-1.1-2.1-2.2-3.3-3.3c-0.5-0.5-1.2-0.4-1.7,0.1c-0.5,0.5-0.6,1.2-0.1,1.7C46.3,16.5,47.4,17.6,48.6,18.7z M98.2,39.4
	c0.7,0,1.5,0,2.2,0c0.8,0,1.6,0,2.4,0c0.8,0,1.2-0.6,1.2-1.5c0-0.8-0.5-1.4-1.3-1.4c-1.5,0-3.1,0-4.6,0c-0.8,0-1.3,0.6-1.3,1.5
	C96.9,38.8,97.5,39.3,98.2,39.4z M68.2,7.3c0,0.7,0,1.5,0,2.2c0,0.8,0.6,1.3,1.4,1.3c0.8,0,1.5-0.5,1.5-1.3c0-1.4-0.1-2.9,0-4.3
	c0.1-1.2-0.7-1.7-1.5-1.7c-0.7,0-1.4,0.4-1.4,1.7C68.2,5.8,68.2,6.5,68.2,7.3z M33.3,64.2c3.4-1.9,6.7-1.9,9.9,0.3
	c1.9,1.3,3.9,2,6.2,2.1c2.7,0.2,5.2-0.6,7.5-2.1c1.5-1,3.2-1.6,5-1.7c2.1-0.1,3.9,0.6,5.6,1.8c2.8,1.9,5.9,2.5,9.3,1.8
	c1.6-0.3,3-1,4.4-1.9c1.9-1.3,4-1.9,6.3-1.6c1.5,0.2,2.8,0.8,4.1,1.7c4,2.8,9.2,2.9,13.2,0.3c0.2-0.1,0.3-0.2,0.5-0.4
	c-0.6-0.8-1.2-1.6-1.8-2.4c-0.1,0.1-0.2,0.1-0.2,0.1c-3.4,2.2-6.8,2-10.1-0.2c-4.2-2.8-9.5-2.9-13.7,0c-0.8,0.5-1.6,1-2.5,1.3
	c-2.9,1-5.5,0.3-8-1.4c-4.1-2.8-9.5-2.9-13.6,0c-3.4,2.4-7.3,2.2-10.5,0c-4.1-2.8-8.4-2.8-12.7-0.6c-0.4,0.2-0.7,0.4-1.1,0.7
	c0.7,0.8,1.3,1.6,1.9,2.4C33.1,64.3,33.2,64.3,33.3,64.2z M36.6,39.4c0.7,0,1.5,0,2.2,0v0c0.7,0,1.5,0,2.2,0c0.9,0,1.4-0.6,1.4-1.5
	c0-0.9-0.5-1.4-1.4-1.4c-1.5,0-2.9,0-4.4,0c-0.8,0-1.4,0.6-1.4,1.4C35.3,38.8,35.8,39.3,36.6,39.4z M33.5,56.2
	c1.3-0.7,2.7-1.2,4.2-1.3c2.1-0.1,4,0.6,5.7,1.8c2.6,1.8,5.5,2.4,8.7,2c1.9-0.3,3.6-1.1,5.2-2.2c3.2-2.1,6.9-2.1,10.1,0.1
	c4.3,3,9.5,3,13.8,0.1c3-2,6.9-2.5,10.5,0c3.4,2.4,7.2,2.9,11.1,1.4c0.9-0.3,1.8-0.9,2.7-1.4c-0.7-0.9-1.3-1.7-1.9-2.5
	c-0.2,0.1-0.3,0.2-0.5,0.3c-0.8,0.4-1.5,0.8-2.4,1.1c-2.7,0.7-5.2,0.1-7.5-1.4c-1.5-1-3.1-1.8-4.9-2c-3.2-0.5-6.2,0.2-8.8,2
	c-1,0.7-2.1,1.3-3.3,1.5c-2.7,0.6-5.1-0.1-7.3-1.6c-4.1-2.8-9.5-2.8-13.5,0.1c-3.5,2.5-7.4,2.1-10.4,0c-3.8-2.6-7.9-2.8-12-1
	c-0.6,0.3-1.2,0.7-1.9,1c0.7,0.9,1.3,1.6,1.9,2.4C33.2,56.4,33.3,56.3,33.5,56.2z"/>
</svg>
