<svg id="Capa_1" data-name="Capa 1" xmlns="http://www.w3.org/2000/svg" viewBox="0 0 137.74 112.28"><defs><style>.cls-1{fill:#bfa57a;}</style></defs><path class="cls-1" d="M46.67,91.72h1.68v8h4v1.5H46.67Z"/><path class="cls-1" d="M52.81,98a3.32,3.32,0,0,1,.28-1.39,3.21,3.21,0,0,1,.74-1.06,3.16,3.16,0,0,1,1.11-.69,4,4,0,0,1,2.73,0,3.16,3.16,0,0,1,1.11.69,3.39,3.39,0,0,1,.75,1.06,3.45,3.45,0,0,1-.75,3.86,3.33,3.33,0,0,1-1.11.7,3.85,3.85,0,0,1-2.73,0,3.33,3.33,0,0,1-1.11-.7,3.3,3.3,0,0,1-.74-1.08A3.35,3.35,0,0,1,52.81,98Zm1.63,0a2.45,2.45,0,0,0,.12.75,2.23,2.23,0,0,0,.34.67,1.84,1.84,0,0,0,.58.48,1.74,1.74,0,0,0,.82.18,1.83,1.83,0,0,0,.84-.18,1.92,1.92,0,0,0,.57-.48,2,2,0,0,0,.34-.67,2.4,2.4,0,0,0,0-1.5,2.07,2.07,0,0,0-.34-.66,1.64,1.64,0,0,0-.57-.47,1.83,1.83,0,0,0-.84-.19,1.74,1.74,0,0,0-.82.19,1.59,1.59,0,0,0-.58.47,2.3,2.3,0,0,0-.34.66A2.45,2.45,0,0,0,54.44,98Z"/><path class="cls-1" d="M67.22,101.2H65.69v-1h0a2.1,2.1,0,0,1-.74.85,2.16,2.16,0,0,1-1.25.36,2.39,2.39,0,0,1-1.08-.22,2.12,2.12,0,0,1-.74-.58,2.41,2.41,0,0,1-.42-.83,3.42,3.42,0,0,1-.13-1v-4h1.61v3.56a4.08,4.08,0,0,0,0,.59,1.47,1.47,0,0,0,.17.56,1.09,1.09,0,0,0,.37.4,1,1,0,0,0,.62.16,1.4,1.4,0,0,0,.66-.15,1.3,1.3,0,0,0,.47-.39,2.1,2.1,0,0,0,.28-.56,2.3,2.3,0,0,0,.09-.64V94.77h1.61Z"/><path class="cls-1" d="M69.14,94.77h1.53v1h0a2.1,2.1,0,0,1,.74-.85,2.17,2.17,0,0,1,1.25-.37,2.53,2.53,0,0,1,1.08.22,2.27,2.27,0,0,1,.74.59,2.32,2.32,0,0,1,.42.83,3.42,3.42,0,0,1,.13,1v4h-1.6V97.63a4,4,0,0,0,0-.58,1.47,1.47,0,0,0-.17-.56,1.21,1.21,0,0,0-.37-.41,1.11,1.11,0,0,0-.62-.16,1.3,1.3,0,0,0-.67.16,1.35,1.35,0,0,0-.46.39,2,2,0,0,0-.28.56,2.28,2.28,0,0,0-.09.63v3.54H69.14Z"/><path class="cls-1" d="M83.47,94.77v5.85a5.09,5.09,0,0,1-.22,1.57,2.91,2.91,0,0,1-1.79,2,4.36,4.36,0,0,1-1.62.27,4.78,4.78,0,0,1-.82-.07,5.11,5.11,0,0,1-.86-.2,5.73,5.73,0,0,1-.81-.33,4.46,4.46,0,0,1-.7-.46l.93-1.24a3.18,3.18,0,0,0,1.06.67,3.12,3.12,0,0,0,1.19.24,2.55,2.55,0,0,0,1-.17,1.66,1.66,0,0,0,.63-.46,2,2,0,0,0,.33-.7,3.57,3.57,0,0,0,.1-.89v-.47h0a2.22,2.22,0,0,1-.89.72,2.86,2.86,0,0,1-1.22.25,3.26,3.26,0,0,1-1.31-.26,3,3,0,0,1-1-.73,3.31,3.31,0,0,1-.63-1.06A3.73,3.73,0,0,1,76.56,98a3.81,3.81,0,0,1,.22-1.32,3.36,3.36,0,0,1,.63-1.07,3,3,0,0,1,1-.72,3.07,3.07,0,0,1,1.31-.27,3,3,0,0,1,1.27.28,2.25,2.25,0,0,1,.94.87h0v-1ZM80,95.89a1.94,1.94,0,0,0-.78.16,1.82,1.82,0,0,0-.58.44,2.14,2.14,0,0,0-.36.65,2.53,2.53,0,0,0-.13.8,2.35,2.35,0,0,0,.13.74,2.41,2.41,0,0,0,.36.65,1.74,1.74,0,0,0,.58.46A1.62,1.62,0,0,0,80,100a1.81,1.81,0,0,0,1.4-.61,2.1,2.1,0,0,0,.38-.65,2.17,2.17,0,0,0,.13-.76,2.3,2.3,0,0,0-.13-.79,2,2,0,0,0-.38-.65,1.89,1.89,0,0,0-.6-.45A2,2,0,0,0,80,95.89Z"/><path class="cls-1" d="M91.53,98.06v.22a1.49,1.49,0,0,1,0,.21H86.63a1.69,1.69,0,0,0,.18.64,1.49,1.49,0,0,0,.41.49,2,2,0,0,0,.57.33,1.93,1.93,0,0,0,.67.12,2.14,2.14,0,0,0,1-.22,1.9,1.9,0,0,0,.68-.61l1.07.86a3.2,3.2,0,0,1-2.76,1.28,3.79,3.79,0,0,1-1.37-.23,3.31,3.31,0,0,1-1.09-.66,3.14,3.14,0,0,1-.73-1A3.74,3.74,0,0,1,85,98a3.8,3.8,0,0,1,.26-1.41A3.4,3.4,0,0,1,86,95.53a3.2,3.2,0,0,1,1.08-.7,3.67,3.67,0,0,1,1.34-.25,3.55,3.55,0,0,1,1.24.22,2.65,2.65,0,0,1,1,.66,2.92,2.92,0,0,1,.65,1.08A4.41,4.41,0,0,1,91.53,98.06Zm-1.61-.72a2,2,0,0,0-.09-.59,1.24,1.24,0,0,0-.27-.49,1.2,1.2,0,0,0-.48-.34,1.54,1.54,0,0,0-.67-.13,1.83,1.83,0,0,0-1.23.43,1.59,1.59,0,0,0-.55,1.12Z"/><g id="S5luwJ"><path class="cls-1" d="M68.85,65.46h-28c-1.26,0-1.8-.54-1.8-1.81,0-6.08,0-12.16,0-18.24a2.66,2.66,0,0,1,3-2.74c.45.07.93,0,1.39,0s.65-.17.65-.68c0-5.11,0-10.22,0-15.32a4.52,4.52,0,0,1,2.72-4.39A5.56,5.56,0,0,1,49,21.86c4.8,0,9.6,0,14.39,0H88.07a4.69,4.69,0,0,1,4.86,3.62,5.92,5.92,0,0,1,.15,1.39c0,4.8,0,9.59,0,14.39,0,.44-.15,1,.07,1.28s.83.11,1.26.12l1.85.07a2.38,2.38,0,0,1,2.46,2.58V63.7c0,1.2-.55,1.76-1.74,1.76H68.85ZM84.43,51.59v-.88c0-1.81,0-3.61,0-5.42a2.55,2.55,0,0,1,2.47-2.64c.71,0,1.43,0,2.15,0,1,0,1,0,1-1V27c0-1.56-.62-2.18-2.2-2.18H49.08c-1.31,0-2,.64-2,1.87C47,31.85,47,37,47,42.14c0,.32.08.51.45.51,1,0,2,.12,3,0A2.48,2.48,0,0,1,53.29,45c0,.22,0,.43,0,.64v5.24c0,.22,0,.45,0,.7Zm-.06,10.87V54.65h-31v7.81ZM95.73,45.69H87.45V62.48h.63c2.33,0,4.66,0,7,0,.55,0,.67-.16.67-.69,0-4.58,0-9.16,0-13.74Zm-45.4,0H42.06V62.43h8.27Z"/></g></svg>