<svg id="Capa_1" data-name="Capa 1" xmlns="http://www.w3.org/2000/svg" viewBox="0 0 137.74 112.28"><defs><style>.cls-1{fill:#bfa57a;}</style></defs><path class="cls-1" d="M6.82,90.25h3.29a6.16,6.16,0,0,1,1.3.14,3.62,3.62,0,0,1,1.12.46,2.45,2.45,0,0,1,.78.85,2.51,2.51,0,0,1,.3,1.27A2.41,2.41,0,0,1,13,94.65a3,3,0,0,1-1.58.88L14,99.73h-2l-2.19-4H8.5v4H6.82Zm3.06,4.08a4.48,4.48,0,0,0,.73,0,2,2,0,0,0,.65-.2,1.27,1.27,0,0,0,.47-.42,1.18,1.18,0,0,0,.19-.7,1.05,1.05,0,0,0-.18-.64,1.1,1.1,0,0,0-.44-.39,1.91,1.91,0,0,0-.61-.21,4.89,4.89,0,0,0-.66,0H8.5v2.66Z"/><path class="cls-1" d="M14.62,96.49a3.24,3.24,0,0,1,.28-1.38A3.15,3.15,0,0,1,15.64,94a3.29,3.29,0,0,1,1.11-.68,4,4,0,0,1,2.73,0,3.29,3.29,0,0,1,1.11.68,3.18,3.18,0,0,1,.75,1.07,3.4,3.4,0,0,1,.27,1.38,3.48,3.48,0,0,1-.27,1.39,3.3,3.3,0,0,1-1.86,1.78,3.71,3.71,0,0,1-2.73,0,3.33,3.33,0,0,1-1.11-.7,3.42,3.42,0,0,1-1-2.47Zm1.64,0a2.43,2.43,0,0,0,.11.75,2.23,2.23,0,0,0,.34.67,1.61,1.61,0,0,0,.58.48,1.67,1.67,0,0,0,.83.19,1.7,1.7,0,0,0,.83-.19,1.66,1.66,0,0,0,.57-.48,2,2,0,0,0,.34-.67,2.45,2.45,0,0,0,.12-.75,2.34,2.34,0,0,0-.12-.74,2,2,0,0,0-.34-.67,1.75,1.75,0,0,0-.57-.47,1.81,1.81,0,0,0-.83-.18,1.78,1.78,0,0,0-.83.18,1.69,1.69,0,0,0-.58.47,2.23,2.23,0,0,0-.34.67A2.33,2.33,0,0,0,16.26,96.49Z"/><path class="cls-1" d="M22.79,96.49a3.4,3.4,0,0,1,.27-1.38A3.18,3.18,0,0,1,23.81,94a3.29,3.29,0,0,1,1.11-.68,4,4,0,0,1,2.73,0,3.29,3.29,0,0,1,1.11.68,3.15,3.15,0,0,1,.74,1.07,3.24,3.24,0,0,1,.28,1.38,3.3,3.3,0,0,1-2.13,3.17,3.71,3.71,0,0,1-2.73,0,3.3,3.3,0,0,1-1.86-1.78A3.48,3.48,0,0,1,22.79,96.49Zm1.63,0a2.45,2.45,0,0,0,.12.75,2,2,0,0,0,.34.67,1.66,1.66,0,0,0,.57.48,1.7,1.7,0,0,0,.83.19,1.67,1.67,0,0,0,.83-.19,1.61,1.61,0,0,0,.58-.48,2.23,2.23,0,0,0,.34-.67,2.43,2.43,0,0,0,.11-.75,2.33,2.33,0,0,0-.11-.74,2.23,2.23,0,0,0-.34-.67,1.69,1.69,0,0,0-.58-.47,1.78,1.78,0,0,0-.83-.18,1.81,1.81,0,0,0-.83.18,1.75,1.75,0,0,0-.57.47,2,2,0,0,0-.34.67A2.34,2.34,0,0,0,24.42,96.49Z"/><path class="cls-1" d="M31.58,94.59H30.37V93.3h1.21v-1a4.94,4.94,0,0,1,.13-1.1,2.65,2.65,0,0,1,.43-.93,2.12,2.12,0,0,1,.8-.64,3.77,3.77,0,0,1,1.69-.21,2.66,2.66,0,0,1,.37.07l-.11,1.37-.29-.07a1.66,1.66,0,0,0-.32,0,1.07,1.07,0,0,0-.57.14.83.83,0,0,0-.32.35,1.48,1.48,0,0,0-.16.46,2.89,2.89,0,0,0,0,.5v1h1.49v1.29H33.19v5.14H31.58Z"/><path class="cls-1" d="M34.54,94.59V93.3h1.13V91.44h1.58V93.3h1.6v1.29h-1.6v3a1.47,1.47,0,0,0,.15.71c.1.19.33.28.69.28l.35,0a1.06,1.06,0,0,0,.33-.1l.06,1.26a2.9,2.9,0,0,1-.51.13,3.69,3.69,0,0,1-.56,0,2.61,2.61,0,0,1-1-.18,1.56,1.56,0,0,1-.63-.49,1.68,1.68,0,0,1-.32-.72,4.17,4.17,0,0,1-.09-.88v-3Z"/><path class="cls-1" d="M39.64,96.49a3.4,3.4,0,0,1,.28-1.38A3.15,3.15,0,0,1,40.66,94a3.29,3.29,0,0,1,1.11-.68,3.91,3.91,0,0,1,1.37-.24,3.81,3.81,0,0,1,1.36.24,3.43,3.43,0,0,1,1.12.68,3.15,3.15,0,0,1,.74,1.07,3.4,3.4,0,0,1,.27,1.38,3.48,3.48,0,0,1-.27,1.39A3.3,3.3,0,0,1,45.62,99a3.48,3.48,0,0,1-1.12.7,3.62,3.62,0,0,1-1.36.26,3.71,3.71,0,0,1-1.37-.26,3.33,3.33,0,0,1-1.11-.7,3.3,3.3,0,0,1-.74-1.08A3.48,3.48,0,0,1,39.64,96.49Zm1.64,0a2.78,2.78,0,0,0,.11.75,2.23,2.23,0,0,0,.34.67,1.7,1.7,0,0,0,.58.48,1.77,1.77,0,0,0,2.23-.48,1.85,1.85,0,0,0,.34-.67,2.45,2.45,0,0,0,.12-.75,2.34,2.34,0,0,0-.12-.74,1.85,1.85,0,0,0-.34-.67,1.75,1.75,0,0,0-.57-.47,1.82,1.82,0,0,0-2.24.47,2.23,2.23,0,0,0-.34.67A2.65,2.65,0,0,0,41.28,96.49Z"/><path class="cls-1" d="M49.72,93.3v.9h0a3.4,3.4,0,0,1,.32-.38,2.13,2.13,0,0,1,.47-.35A3,3,0,0,1,52,93.12a3,3,0,0,1,1.26.26,3,3,0,0,1,1,.71,3.39,3.39,0,0,1,.64,1.07,3.91,3.91,0,0,1,.23,1.33,4.12,4.12,0,0,1-.22,1.33,3.35,3.35,0,0,1-.63,1.09,3.26,3.26,0,0,1-1,.73,3,3,0,0,1-1.32.28,2.83,2.83,0,0,1-1.25-.28,2.14,2.14,0,0,1-.88-.77h0v4.07h-1.6V93.3Zm3.75,3.19a2.33,2.33,0,0,0-.11-.74,2.23,2.23,0,0,0-.34-.67,1.79,1.79,0,0,0-.58-.47,1.74,1.74,0,0,0-.82-.18,1.55,1.55,0,0,0-.78.19,1.87,1.87,0,0,0-.6.48,1.83,1.83,0,0,0-.37.67,2.19,2.19,0,0,0-.13.75,2.14,2.14,0,0,0,.13.74,1.79,1.79,0,0,0,.37.66,1.87,1.87,0,0,0,.6.48,1.66,1.66,0,0,0,.78.18,1.63,1.63,0,0,0,.82-.19,1.7,1.7,0,0,0,.58-.48,2.23,2.23,0,0,0,.34-.67A2.43,2.43,0,0,0,53.47,96.49Z"/><path class="cls-1" d="M60.09,90.25h1.68v9.48H60.09Z"/><path class="cls-1" d="M63.78,93.3h1.53v1h0a2.13,2.13,0,0,1,.75-.85,2.16,2.16,0,0,1,1.25-.36,2.39,2.39,0,0,1,1.08.22,2,2,0,0,1,.73.58,2.27,2.27,0,0,1,.43.83,3.83,3.83,0,0,1,.13,1v4H68.09V96.17a4.08,4.08,0,0,0,0-.59,1.47,1.47,0,0,0-.17-.56,1.09,1.09,0,0,0-.37-.4,1.06,1.06,0,0,0-.62-.16,1.41,1.41,0,0,0-.67.15,1.35,1.35,0,0,0-.46.39,1.73,1.73,0,0,0-.28.56,2.3,2.3,0,0,0-.09.64v3.53H63.78Z"/><path class="cls-1" d="M71.83,94.59H70.61V93.3h1.22v-1a4.94,4.94,0,0,1,.12-1.1,2.65,2.65,0,0,1,.43-.93,2.12,2.12,0,0,1,.8-.64,3.77,3.77,0,0,1,1.69-.21,2.41,2.41,0,0,1,.37.07l-.11,1.37-.28-.07a1.84,1.84,0,0,0-.33,0A1,1,0,0,0,74,91a.79.79,0,0,0-.33.35,1.48,1.48,0,0,0-.16.46,4.38,4.38,0,0,0,0,.5v1h1.49v1.29H73.43v5.14h-1.6Zm4-3.47a.92.92,0,0,1,.29-.67,1,1,0,0,1,.73-.29,1.07,1.07,0,0,1,.74.27.92.92,0,0,1,.3.69.89.89,0,0,1-.3.69,1.08,1.08,0,0,1-.74.28,1,1,0,0,1-.73-.29A.94.94,0,0,1,75.87,91.12Zm.23,2.18h1.6v6.43H76.1Z"/><path class="cls-1" d="M79.51,93.3H81v1h0a2.13,2.13,0,0,1,.75-.85,2.16,2.16,0,0,1,1.25-.36,2.39,2.39,0,0,1,1.08.22,2,2,0,0,1,.73.58,2.11,2.11,0,0,1,.42.83,3.43,3.43,0,0,1,.14,1v4H83.82V96.17a4.08,4.08,0,0,0,0-.59,1.47,1.47,0,0,0-.17-.56,1.09,1.09,0,0,0-.37-.4,1.06,1.06,0,0,0-.62-.16,1.41,1.41,0,0,0-.67.15,1.35,1.35,0,0,0-.46.39,1.73,1.73,0,0,0-.28.56,2.3,2.3,0,0,0-.09.64v3.53H79.51Z"/><path class="cls-1" d="M87.1,91.12a.92.92,0,0,1,.29-.67,1,1,0,0,1,.73-.29,1.07,1.07,0,0,1,.74.27.92.92,0,0,1,.3.69.89.89,0,0,1-.3.69,1.08,1.08,0,0,1-.74.28,1,1,0,0,1-.73-.29A.94.94,0,0,1,87.1,91.12Zm.23,2.18h1.61v6.43H87.33Z"/><path class="cls-1" d="M90,94.59V93.3h1.12V91.44h1.58V93.3h1.61v1.29H92.67v3a1.36,1.36,0,0,0,.16.71c.1.19.33.28.69.28l.34,0a1.13,1.13,0,0,0,.34-.1l0,1.26a2.69,2.69,0,0,1-.51.13,3.6,3.6,0,0,1-.56,0,2.52,2.52,0,0,1-1-.18,1.59,1.59,0,0,1-.64-.49,1.81,1.81,0,0,1-.32-.72,4.17,4.17,0,0,1-.09-.88v-3Z"/><path class="cls-1" d="M94.48,93.3h1.78L98.05,98h0l1.59-4.68h1.68l-3,7.81a5.67,5.67,0,0,1-.38.78,1.93,1.93,0,0,1-1.14.93,3.11,3.11,0,0,1-.92.12,2.88,2.88,0,0,1-.41,0,2,2,0,0,1-.42-.07l.14-1.39a1.73,1.73,0,0,0,.31.07l.29,0a1.35,1.35,0,0,0,.43-.06.7.7,0,0,0,.29-.19,1.2,1.2,0,0,0,.21-.31c.07-.13.13-.27.21-.44l.32-.82Z"/><path class="cls-1" d="M105.74,90.25h3.09a6.58,6.58,0,0,1,1.47.15,3.14,3.14,0,0,1,1.13.48,2.23,2.23,0,0,1,.72.86A2.86,2.86,0,0,1,112.4,93a2.68,2.68,0,0,1-.29,1.32,2.39,2.39,0,0,1-.8.87,3.63,3.63,0,0,1-1.17.47,6.44,6.44,0,0,1-1.42.15h-1.3v3.92h-1.68Zm2.86,4.14a5,5,0,0,0,.79-.06,2,2,0,0,0,.67-.22,1.19,1.19,0,0,0,.47-.42,1.22,1.22,0,0,0,.17-.69,1.16,1.16,0,0,0-.17-.68,1.3,1.3,0,0,0-.46-.41,1.89,1.89,0,0,0-.66-.19,6.16,6.16,0,0,0-.75,0h-1.24v2.72Z"/><path class="cls-1" d="M112.58,96.49a3.4,3.4,0,0,1,.27-1.38A3.18,3.18,0,0,1,113.6,94a3.29,3.29,0,0,1,1.11-.68,3.85,3.85,0,0,1,1.36-.24,3.91,3.91,0,0,1,1.37.24,3.29,3.29,0,0,1,1.11.68,3.15,3.15,0,0,1,.74,1.07,3.24,3.24,0,0,1,.28,1.38,3.3,3.3,0,0,1-2.13,3.17,3.71,3.71,0,0,1-1.37.26,3.66,3.66,0,0,1-1.36-.26,3.3,3.3,0,0,1-1.86-1.78A3.48,3.48,0,0,1,112.58,96.49Zm1.63,0a2.45,2.45,0,0,0,.12.75,2,2,0,0,0,.34.67,1.83,1.83,0,0,0,2.23.48,1.7,1.7,0,0,0,.58-.48,2.23,2.23,0,0,0,.34-.67,2.43,2.43,0,0,0,.11-.75,2.33,2.33,0,0,0-.11-.74,2.23,2.23,0,0,0-.34-.67,1.9,1.9,0,0,0-2.24-.47,1.75,1.75,0,0,0-.57.47,2,2,0,0,0-.34.67A2.34,2.34,0,0,0,114.21,96.49Z"/><path class="cls-1" d="M120.74,96.49a3.4,3.4,0,0,1,.28-1.38,3.15,3.15,0,0,1,.74-1.07,3.39,3.39,0,0,1,1.11-.68,3.91,3.91,0,0,1,1.37-.24,3.81,3.81,0,0,1,1.36.24,3.43,3.43,0,0,1,1.12.68,3.15,3.15,0,0,1,.74,1.07,3.4,3.4,0,0,1,.27,1.38,3.48,3.48,0,0,1-.27,1.39,3.3,3.3,0,0,1-.74,1.08,3.48,3.48,0,0,1-1.12.7,3.62,3.62,0,0,1-1.36.26,3.71,3.71,0,0,1-1.37-.26,3.43,3.43,0,0,1-1.11-.7,3.3,3.3,0,0,1-.74-1.08A3.48,3.48,0,0,1,120.74,96.49Zm1.64,0a2.78,2.78,0,0,0,.11.75,2.23,2.23,0,0,0,.34.67,1.7,1.7,0,0,0,.58.48,1.77,1.77,0,0,0,2.23-.48,2,2,0,0,0,.35-.67,2.78,2.78,0,0,0,.11-.75,2.65,2.65,0,0,0-.11-.74,2,2,0,0,0-.35-.67,1.75,1.75,0,0,0-.57-.47,1.82,1.82,0,0,0-2.24.47,2.23,2.23,0,0,0-.34.67A2.65,2.65,0,0,0,122.38,96.49Z"/><path class="cls-1" d="M129.31,89.61h1.61V99.73h-1.61Z"/><path class="cls-1" d="M107.24,37.57a15.77,15.77,0,0,0-4.22-9,16.82,16.82,0,0,0-15.6-5.45,16.48,16.48,0,0,0-9.31,4.8l-6.67,6.67-4.7,4.71-3.1,3.12c-2.42,2.45-4.92,5-7.46,7.39a12.93,12.93,0,0,1-13.47,3,13.31,13.31,0,0,1-9.16-14.55A12.78,12.78,0,0,1,36.91,31a13.22,13.22,0,0,1,12.38-4.25,12.44,12.44,0,0,1,6.82,3.41c1.62,1.57,3.23,3.19,4.79,4.76l2,2a2,2,0,0,0,1.41.61,1.79,1.79,0,0,0,1.28-.56,1.87,1.87,0,0,0-.1-2.65l-1.54-1.52c-1.39-1.37-2.83-2.8-4.21-4.23a18.92,18.92,0,0,0-4.92-3.77,17.06,17.06,0,0,0-7.9-1.91h0a16.39,16.39,0,0,0-7.46,1.72,16.86,16.86,0,0,0-9.55,13.51,16.47,16.47,0,0,0,2.23,10.59A17.13,17.13,0,0,0,52.55,56.2,15.75,15.75,0,0,0,58.12,53c1.11-1,2.19-2.1,3.24-3.15l4.26-4.25q7.25-7.24,14.48-14.51a14.14,14.14,0,0,1,7.18-4.22,13.49,13.49,0,0,1,16.2,15.91,13.5,13.5,0,0,1-22.85,6.7l-3.14-3.14-3.28-3.27a1.79,1.79,0,0,0-1.28-.54h-.06a1.85,1.85,0,0,0-1.1,3.27L74,48l4.14,4.13A16.75,16.75,0,0,0,87.8,57a16.24,16.24,0,0,0,11.85-2.63C105.51,50.33,108.06,44.68,107.24,37.57Z"/></svg>