<svg id="Capa_1" data-name="Capa 1" xmlns="http://www.w3.org/2000/svg" viewBox="0 0 137.74 112.28"><defs><style>.cls-1{fill:#bfa57a;}</style></defs><g id="pFyakq"><path class="cls-1" d="M69.12,72.08a88.57,88.57,0,0,0,12.17-.84A52.1,52.1,0,0,0,93,68.37a17,17,0,0,0,5-2.87,5.77,5.77,0,0,0,2-2.93,4.6,4.6,0,0,0-1.32-4.44,12.86,12.86,0,0,0-4.08-2.8,35.22,35.22,0,0,0-7.53-2.5c-1.76-.38-3.54-.68-5.31-1a2.31,2.31,0,0,0-1,0,1.13,1.13,0,0,0-.74,1.19,1.18,1.18,0,0,0,1.13,1.06,54.15,54.15,0,0,1,9,2A19.49,19.49,0,0,1,96,58.81a6.76,6.76,0,0,1,1.31,1.25,2.06,2.06,0,0,1-.07,3,11.13,11.13,0,0,1-2.09,1.72A25.57,25.57,0,0,1,88,67.52a68.3,68.3,0,0,1-12.24,2,90.53,90.53,0,0,1-17.88-.33c-2.56-.31-5.08-.87-7.63-1.3a2,2,0,0,0-1,.06,1.09,1.09,0,0,0-.66,1.15,1.19,1.19,0,0,0,1.09,1.07c2.32.42,4.64.89,7,1.22A84,84,0,0,0,69.12,72.08ZM77,42.78h0c0,4.16,0,3.58,0,7.74,0,2.55,0,5.1,0,7.65a1.47,1.47,0,0,0,.11.59,1.16,1.16,0,0,0,2.22-.55c0-3.92,0-6.26,0-10.18V39c0-4.86,0-9.72,0-14.58v-4.2c0-1.29,0-2.57,0-3.85a1.12,1.12,0,0,0-.67-1.07,1.15,1.15,0,0,0-1.23.14A1.33,1.33,0,0,0,77,16.63V20.4c0,3.66,0,3.38,0,7,0,1.48,0,3,0,4.44C77,35.51,77,39.15,77,42.78Zm-8.12,26a74.2,74.2,0,0,0,9.07-.6,1.14,1.14,0,0,0,1-.77,1.16,1.16,0,0,0-1.31-1.55c-1.35.13-2.69.32-4,.41a69.55,69.55,0,0,1-15.92-.69,26.15,26.15,0,0,1-7.05-2,10.2,10.2,0,0,1-2-1.29c-.61-.49-.6-1,0-1.5a6.55,6.55,0,0,1,1.32-1,20.88,20.88,0,0,1,5.37-1.87,1.17,1.17,0,1,0-.51-2.28,25.61,25.61,0,0,0-5.45,1.8,8.17,8.17,0,0,0-2.47,1.73,3.16,3.16,0,0,0,0,4.61,8.4,8.4,0,0,0,2.92,2,30.54,30.54,0,0,0,7.26,2A69.8,69.8,0,0,0,68.86,68.74Zm-4.67-38.9h0v10.7c0,1.21,0,2.42,0,3.63a1.17,1.17,0,0,0,.77,1.1,1.11,1.11,0,0,0,1.28-.38,2,2,0,0,0,.28-1c0-2.91,0-2.68,0-5.59V17.73c0-.46,0-.92,0-1.38a1.17,1.17,0,0,0-1.87-.9,1.28,1.28,0,0,0-.47,1.15C64.19,22.32,64.19,24.11,64.19,29.84ZM57.81,44.18h0V55.37c0,1,0,2,0,3a1.16,1.16,0,0,0,2.32,0c0-.25,0-.49,0-.74V31.81a1.18,1.18,0,1,0-2.34,0c0,1,0,2,0,3ZM36.92,61.49a4.48,4.48,0,0,0,.95,2.73,11.54,11.54,0,0,0,4.74,3.51,1.14,1.14,0,0,0,1.49-.61,1.16,1.16,0,0,0-.53-1.51c-.28-.16-.57-.28-.85-.43a8.53,8.53,0,0,1-3-2.37,2,2,0,0,1,0-2.6,3.29,3.29,0,0,1,.81-.89,24.37,24.37,0,0,1,3-1.91,34.87,34.87,0,0,1,8.31-2.59c1.2-.24,2.41-.43,3.61-.64a1.18,1.18,0,0,0,1-1.57,1.15,1.15,0,0,0-1.35-.75c-1.39.24-2.77.52-4.16.78a36.49,36.49,0,0,0-7.16,2.09,15.9,15.9,0,0,0-5.1,3A5.2,5.2,0,0,0,36.92,61.49Zm42.26.11c-.72.15-1.52.35-2.32.48a56.82,56.82,0,0,1-9.84.54,41.94,41.94,0,0,1-8.58-.9,1.17,1.17,0,0,0-1.57.8,1.15,1.15,0,0,0,1,1.45c1.16.24,2.32.48,3.49.61a65.35,65.35,0,0,0,12.74.18,26.08,26.08,0,0,0,5.75-1,6.24,6.24,0,0,0,1.64-.75A1.6,1.6,0,0,0,82,60.69a2.57,2.57,0,0,0-1.46-1,1.1,1.1,0,0,0-1.41.81A5,5,0,0,0,79.18,61.6ZM70.59,23.44V34.21a2.59,2.59,0,0,0,0,.56,1.06,1.06,0,0,0,.84.84c.85.2,1.45-.4,1.45-1.44,0-7.14,0-10.34,0-17.48a3,3,0,0,0,0-.52,1.07,1.07,0,0,0-.81-.91,1,1,0,0,0-1.17.35,2,2,0,0,0-.31,1C70.58,20.19,70.59,19.85,70.59,23.44ZM57.79,24h0v1.82c0,2,0,0,0,1.94a1.15,1.15,0,0,0,2.19.51,1.73,1.73,0,0,0,.14-.71c0-2.61,0-1.28,0-3.89q0-3.51,0-7a1.92,1.92,0,0,0-.16-.83,1.12,1.12,0,0,0-1.33-.56,1.16,1.16,0,0,0-.84,1.21C57.78,19,57.79,21.48,57.79,24ZM91.3,61.52A8.74,8.74,0,0,0,91,60.28a5.58,5.58,0,0,0-2.67-2.54,24.42,24.42,0,0,0-6.87-2.26A1.17,1.17,0,1,0,81,57.76a23.83,23.83,0,0,1,5.28,1.6,11.2,11.2,0,0,1,2.18,1.36c.66.52.64,1,0,1.59a9.54,9.54,0,0,1-1.48,1A1.21,1.21,0,0,0,86.38,65a1.16,1.16,0,0,0,1.64.48,12.55,12.55,0,0,0,1.73-1.13A3.84,3.84,0,0,0,91.3,61.52ZM72.92,42.66h0c0-2.06,0-1,0-3a1.51,1.51,0,0,0-.17-.7,1.11,1.11,0,0,0-1.3-.52,1.16,1.16,0,0,0-.86,1.2v.53c0,2.86,0,4.14,0,7A2,2,0,0,0,71,48.2a1,1,0,0,0,1.22.27,1.16,1.16,0,0,0,.75-1.2Zm-8.73,11.5c0,1.34,0,2.69,0,4a1.17,1.17,0,1,0,2.34,0c0-2.71,0-5.42,0-8.13a1.62,1.62,0,0,0-.28-.84A1.09,1.09,0,0,0,65,48.87a1.14,1.14,0,0,0-.77,1.18C64.18,51.42,64.19,52.79,64.19,54.16Zm6.39,1.14h0c0,1,0,2,0,3a1.14,1.14,0,0,0,1.18,1.13,1.15,1.15,0,0,0,1.15-1.16c0-2,0-3.92,0-5.87a1.18,1.18,0,0,0-1.16-1.3,1.21,1.21,0,0,0-1.18,1.32Z"/><path class="cls-1" d="M69.12,72.08a84,84,0,0,1-12.38-.74c-2.34-.33-4.66-.8-7-1.22a1.19,1.19,0,0,1-1.09-1.07,1.09,1.09,0,0,1,.66-1.15,2,2,0,0,1,1-.06c2.55.43,5.07,1,7.63,1.3a90.53,90.53,0,0,0,17.88.33,68.3,68.3,0,0,0,12.24-2,25.57,25.57,0,0,0,7.06-2.77A11.13,11.13,0,0,0,97.19,63a2.06,2.06,0,0,0,.07-3A6.76,6.76,0,0,0,96,58.81a19.49,19.49,0,0,0-5.76-2.71,54.15,54.15,0,0,0-9-2,1.18,1.18,0,0,1-1.13-1.06,1.13,1.13,0,0,1,.74-1.19,2.31,2.31,0,0,1,1,0c1.77.32,3.55.62,5.31,1a35.22,35.22,0,0,1,7.53,2.5,12.86,12.86,0,0,1,4.08,2.8A4.6,4.6,0,0,1,100,62.57a5.77,5.77,0,0,1-2,2.93,17,17,0,0,1-5,2.87,52.1,52.1,0,0,1-11.73,2.87A88.57,88.57,0,0,1,69.12,72.08Z"/><path class="cls-1" d="M77,42.78c0-3.63,0-7.27,0-10.9,0-1.48.05-3,0-4.44,0-3.66,0-3.38,0-7V16.63a1.33,1.33,0,0,1,.44-1.16,1.15,1.15,0,0,1,1.23-.14,1.12,1.12,0,0,1,.67,1.07c0,1.28,0,2.56,0,3.85v4.2c0,4.86,0,9.72,0,14.58v9c0,3.92,0,6.26,0,10.18a1.16,1.16,0,0,1-2.22.55,1.47,1.47,0,0,1-.11-.59c0-2.55,0-5.1,0-7.65,0-4.16,0-3.58,0-7.74Z"/><path class="cls-1" d="M68.86,68.74A69.8,69.8,0,0,1,57,67.81a30.54,30.54,0,0,1-7.26-2,8.4,8.4,0,0,1-2.92-2,3.16,3.16,0,0,1,0-4.61,8.17,8.17,0,0,1,2.47-1.73,25.61,25.61,0,0,1,5.45-1.8,1.17,1.17,0,1,1,.51,2.28,20.88,20.88,0,0,0-5.37,1.87,6.55,6.55,0,0,0-1.32,1c-.57.55-.58,1,0,1.5a10.2,10.2,0,0,0,2,1.29,26.15,26.15,0,0,0,7.05,2,69.55,69.55,0,0,0,15.92.69c1.35-.09,2.69-.28,4-.41a1.16,1.16,0,0,1,1.31,1.55,1.14,1.14,0,0,1-1,.77A74.2,74.2,0,0,1,68.86,68.74Z"/><path class="cls-1" d="M64.19,29.84c0-5.73,0-7.52,0-13.24a1.28,1.28,0,0,1,.47-1.15,1.17,1.17,0,0,1,1.87.9c0,.46,0,.92,0,1.38v20.6c0,2.91,0,2.68,0,5.59a2,2,0,0,1-.28,1,1.11,1.11,0,0,1-1.28.38,1.17,1.17,0,0,1-.77-1.1c0-1.21,0-2.42,0-3.63V29.84Z"/><path class="cls-1" d="M57.81,44.18V34.82c0-1,0-2,0-3a1.18,1.18,0,1,1,2.34,0V57.59c0,.25,0,.49,0,.74a1.16,1.16,0,0,1-2.32,0c0-1,0-2,0-3V44.18Z"/><path class="cls-1" d="M36.92,61.49a5.2,5.2,0,0,1,1.83-3.73,15.9,15.9,0,0,1,5.1-3A36.49,36.49,0,0,1,51,52.64c1.39-.26,2.77-.54,4.16-.78a1.15,1.15,0,0,1,1.35.75,1.18,1.18,0,0,1-1,1.57c-1.2.21-2.41.4-3.61.64a34.87,34.87,0,0,0-8.31,2.59,24.37,24.37,0,0,0-3,1.91,3.29,3.29,0,0,0-.81.89,2,2,0,0,0,0,2.6,8.53,8.53,0,0,0,3,2.37c.28.15.57.27.85.43a1.16,1.16,0,0,1,.53,1.51,1.14,1.14,0,0,1-1.49.61,11.54,11.54,0,0,1-4.74-3.51A4.48,4.48,0,0,1,36.92,61.49Z"/><path class="cls-1" d="M79.18,61.6a5,5,0,0,1-.05-1.12,1.1,1.1,0,0,1,1.41-.81,2.57,2.57,0,0,1,1.46,1,1.6,1.6,0,0,1-.52,2.36,6.24,6.24,0,0,1-1.64.75,26.08,26.08,0,0,1-5.75,1,65.35,65.35,0,0,1-12.74-.18c-1.17-.13-2.33-.37-3.49-.61a1.15,1.15,0,0,1-1-1.45,1.17,1.17,0,0,1,1.57-.8,41.94,41.94,0,0,0,8.58.9,56.82,56.82,0,0,0,9.84-.54C77.66,62,78.46,61.75,79.18,61.6Z"/><path class="cls-1" d="M70.59,23.44c0-3.59,0-3.25,0-6.84a2,2,0,0,1,.31-1,1,1,0,0,1,1.17-.35,1.07,1.07,0,0,1,.81.91,3,3,0,0,1,0,.52c0,7.14,0,10.34,0,17.48,0,1-.6,1.64-1.45,1.44a1.06,1.06,0,0,1-.84-.84,2.59,2.59,0,0,1,0-.56Z"/><path class="cls-1" d="M57.79,24c0-2.51,0-5,0-7.52a1.16,1.16,0,0,1,.84-1.21,1.12,1.12,0,0,1,1.33.56,1.92,1.92,0,0,1,.16.83q0,3.5,0,7c0,2.61,0,1.28,0,3.89a1.73,1.73,0,0,1-.14.71,1.15,1.15,0,0,1-2.19-.51c0-2,0,0,0-1.94V24Z"/><path class="cls-1" d="M91.3,61.52a3.84,3.84,0,0,1-1.55,2.78A12.55,12.55,0,0,1,88,65.43,1.16,1.16,0,0,1,86.38,65,1.21,1.21,0,0,1,87,63.34a9.54,9.54,0,0,0,1.48-1c.64-.56.66-1.07,0-1.59a11.2,11.2,0,0,0-2.18-1.36A23.83,23.83,0,0,0,81,57.76a1.17,1.17,0,1,1,.45-2.28,24.42,24.42,0,0,1,6.87,2.26A5.58,5.58,0,0,1,91,60.28,8.74,8.74,0,0,1,91.3,61.52Z"/><path class="cls-1" d="M72.92,42.66v4.61a1.16,1.16,0,0,1-.75,1.2A1,1,0,0,1,71,48.2a2,2,0,0,1-.35-1.07c0-2.85,0-4.13,0-7v-.53a1.16,1.16,0,0,1,.86-1.2,1.11,1.11,0,0,1,1.3.52,1.51,1.51,0,0,1,.17.7c0,2.06,0,1,0,3Z"/><path class="cls-1" d="M64.19,54.16c0-1.37,0-2.74,0-4.11A1.14,1.14,0,0,1,65,48.87a1.09,1.09,0,0,1,1.28.36,1.62,1.62,0,0,1,.28.84c0,2.71,0,5.42,0,8.13a1.17,1.17,0,1,1-2.34,0C64.18,56.85,64.19,55.5,64.19,54.16Z"/><path class="cls-1" d="M70.58,55.3V52.44a1.21,1.21,0,0,1,1.18-1.32,1.18,1.18,0,0,1,1.16,1.3c0,1.95,0,3.91,0,5.87a1.15,1.15,0,0,1-1.15,1.16,1.14,1.14,0,0,1-1.18-1.13c0-1,0-2,0-3Z"/></g><path class="cls-1" d="M7.89,91.72H11a6.52,6.52,0,0,1,1.47.15,2.83,2.83,0,0,1,1.13.48,2.28,2.28,0,0,1,.72.85,2.86,2.86,0,0,1,.26,1.26,2.7,2.7,0,0,1-.3,1.33,2.42,2.42,0,0,1-.79.86,3.57,3.57,0,0,1-1.18.48,7.1,7.1,0,0,1-1.41.14H9.58v3.93H7.89Zm2.86,4.13a5,5,0,0,0,.79-.06,2.2,2.2,0,0,0,.67-.21,1.13,1.13,0,0,0,.47-.42,1.23,1.23,0,0,0,.18-.7,1.14,1.14,0,0,0-.64-1.08,1.9,1.9,0,0,0-.65-.2,6.34,6.34,0,0,0-.76,0H9.58v2.71Z"/><path class="cls-1" d="M14.73,98A3.48,3.48,0,0,1,15,96.57a3.39,3.39,0,0,1,.75-1.06,3.16,3.16,0,0,1,1.11-.69,4,4,0,0,1,2.73,0,3.16,3.16,0,0,1,1.11.69,3.21,3.21,0,0,1,.74,1.06,3.37,3.37,0,0,1-1.85,4.56,3.85,3.85,0,0,1-2.73,0,3.33,3.33,0,0,1-1.11-.7,3.31,3.31,0,0,1-1-2.47Zm1.63,0a2.45,2.45,0,0,0,.12.75,2,2,0,0,0,.34.67,1.84,1.84,0,0,0,.58.48,1.76,1.76,0,0,0,.83.18,1.81,1.81,0,0,0,.83-.18,1.92,1.92,0,0,0,.57-.48,2,2,0,0,0,.34-.67,2.4,2.4,0,0,0,0-1.5,2.07,2.07,0,0,0-.34-.66,1.64,1.64,0,0,0-.57-.47,1.81,1.81,0,0,0-.83-.19,1.75,1.75,0,0,0-.83.19,1.59,1.59,0,0,0-.58.47,2.07,2.07,0,0,0-.34.66A2.45,2.45,0,0,0,16.36,98Z"/><path class="cls-1" d="M22.9,98a3.48,3.48,0,0,1,.27-1.39,3.21,3.21,0,0,1,.74-1.06A3.29,3.29,0,0,1,25,94.82a3.81,3.81,0,0,1,1.36-.24,3.91,3.91,0,0,1,1.37.24,3.25,3.25,0,0,1,1.11.69,3.21,3.21,0,0,1,.74,1.06A3.48,3.48,0,0,1,29.89,98a3.52,3.52,0,0,1-.28,1.39,3.3,3.3,0,0,1-.74,1.08,3.43,3.43,0,0,1-1.11.7,3.7,3.7,0,0,1-1.37.25,3.61,3.61,0,0,1-1.36-.25,3.48,3.48,0,0,1-1.12-.7,3.3,3.3,0,0,1-.74-1.08A3.52,3.52,0,0,1,22.9,98Zm1.63,0a2.78,2.78,0,0,0,.11.75,2,2,0,0,0,.35.67,1.92,1.92,0,0,0,.57.48,2,2,0,0,0,1.66,0,2,2,0,0,0,.58-.48,2.23,2.23,0,0,0,.34-.67,2.61,2.61,0,0,0,0-1.5,2.3,2.3,0,0,0-.34-.66,1.67,1.67,0,0,0-.58-.47,1.91,1.91,0,0,0-1.66,0,1.64,1.64,0,0,0-.57.47,2.1,2.1,0,0,0-.35.66A2.78,2.78,0,0,0,24.53,98Z"/><path class="cls-1" d="M31.47,91.08h1.6V101.2h-1.6Z"/><path class="cls-1" d="M38.55,96.48A1.91,1.91,0,0,0,38,96a1.64,1.64,0,0,0-.82-.21,1.54,1.54,0,0,0-.71.16.55.55,0,0,0-.32.53.54.54,0,0,0,.36.53,5.83,5.83,0,0,0,1,.32,5,5,0,0,1,.73.21,2.53,2.53,0,0,1,.67.36,1.73,1.73,0,0,1,.49.55,1.59,1.59,0,0,1,.19.79,2.17,2.17,0,0,1-.22,1,2,2,0,0,1-.59.66,2.58,2.58,0,0,1-.86.37,4.23,4.23,0,0,1-1,.11,4.06,4.06,0,0,1-1.46-.27,3.12,3.12,0,0,1-1.18-.78l1.06-1a2.09,2.09,0,0,0,1.65.81,1.45,1.45,0,0,0,.35,0,1.4,1.4,0,0,0,.34-.13.76.76,0,0,0,.24-.23.66.66,0,0,0-.27-.94,6,6,0,0,0-1.1-.35,4.16,4.16,0,0,1-.71-.21,2.11,2.11,0,0,1-.61-.33,1.42,1.42,0,0,1-.42-.52,1.58,1.58,0,0,1-.17-.76,1.9,1.9,0,0,1,.22-.92,2,2,0,0,1,.59-.64,2.72,2.72,0,0,1,.81-.37,3.73,3.73,0,0,1,.94-.12,3.94,3.94,0,0,1,1.36.24,2.31,2.31,0,0,1,1.05.74Z"/><path class="cls-1" d="M48.31,100.38h0a1.74,1.74,0,0,1-.78.7,2.55,2.55,0,0,1-1.22.28,3.9,3.9,0,0,1-.81-.1,2.47,2.47,0,0,1-.78-.34,1.88,1.88,0,0,1-.58-.61,1.76,1.76,0,0,1-.24-1,1.62,1.62,0,0,1,.41-1.15,2.78,2.78,0,0,1,1-.66,6,6,0,0,1,1.43-.3c.52,0,1-.07,1.53-.07V97a1,1,0,0,0-.44-.89,1.83,1.83,0,0,0-1-.29,2.23,2.23,0,0,0-1,.22,2.59,2.59,0,0,0-.78.52l-.83-1a3.65,3.65,0,0,1,1.27-.76,4.31,4.31,0,0,1,1.45-.26,3.57,3.57,0,0,1,1.41.24,2.27,2.27,0,0,1,.88.63,2.41,2.41,0,0,1,.45.87,4,4,0,0,1,.13,1v3.91h-1.5Zm0-2.12h-.36c-.26,0-.53,0-.82,0a3.26,3.26,0,0,0-.79.15,1.57,1.57,0,0,0-.6.32.7.7,0,0,0-.24.56.69.69,0,0,0,.1.39.75.75,0,0,0,.26.24,1.13,1.13,0,0,0,.36.14,1.87,1.87,0,0,0,.4,0,1.68,1.68,0,0,0,1.26-.44,1.66,1.66,0,0,0,.43-1.21Z"/><path class="cls-1" d="M51.68,94.77h1.53v1h0A2.13,2.13,0,0,1,54,95a2.17,2.17,0,0,1,1.25-.37,2.53,2.53,0,0,1,1.08.22,2.23,2.23,0,0,1,.73.59,2.32,2.32,0,0,1,.42.83,3.43,3.43,0,0,1,.14,1v4H56V97.63a4,4,0,0,0,0-.58,1.67,1.67,0,0,0-.17-.56,1.32,1.32,0,0,0-.37-.41,1.16,1.16,0,0,0-.62-.16,1.28,1.28,0,0,0-.67.16,1.38,1.38,0,0,0-.47.39,1.71,1.71,0,0,0-.27.56,2.28,2.28,0,0,0-.09.63v3.54H51.68Z"/><path class="cls-1" d="M66,101.2H64.48v-1h0a2.15,2.15,0,0,1-.93.86,2.8,2.8,0,0,1-1.28.29,3.11,3.11,0,0,1-1.32-.27,3,3,0,0,1-1-.74,3.3,3.3,0,0,1-.63-1.08A4.17,4.17,0,0,1,59.08,98a3.83,3.83,0,0,1,.23-1.33A3.28,3.28,0,0,1,60,95.56a3.23,3.23,0,0,1,1-.72A3.18,3.18,0,0,1,63,94.68a2.87,2.87,0,0,1,.61.25,2.74,2.74,0,0,1,.45.32,3.09,3.09,0,0,1,.31.34h0V91.08H66ZM60.72,98a2.43,2.43,0,0,0,.11.75,2.23,2.23,0,0,0,.34.67,1.84,1.84,0,0,0,.58.48,1.73,1.73,0,0,0,.81.18,1.67,1.67,0,0,0,.79-.18,2.12,2.12,0,0,0,.6-.47,2.15,2.15,0,0,0,.37-.66,2.23,2.23,0,0,0,0-1.5,2.09,2.09,0,0,0-.37-.67,2.35,2.35,0,0,0-.6-.48,1.68,1.68,0,0,0-.79-.19,1.73,1.73,0,0,0-.81.19,1.59,1.59,0,0,0-.58.47,2.3,2.3,0,0,0-.34.66A2.43,2.43,0,0,0,60.72,98Z"/><path class="cls-1" d="M70.4,94.77h1.74l1.33,4.61h0l1.38-4.61h1.71L78,99.38h0l1.37-4.61h1.67l-2.22,6.43H77.2l-1.46-4.5h0l-1.45,4.5H72.63Z"/><path class="cls-1" d="M86.06,100.38h0a1.74,1.74,0,0,1-.78.7,2.53,2.53,0,0,1-1.22.28,4,4,0,0,1-.81-.1,2.32,2.32,0,0,1-.77-.34,1.81,1.81,0,0,1-.59-.61,1.76,1.76,0,0,1-.24-1A1.62,1.62,0,0,1,82,98.21a2.86,2.86,0,0,1,1-.66,6.13,6.13,0,0,1,1.43-.3c.52,0,1-.07,1.53-.07V97a1,1,0,0,0-.43-.89,1.87,1.87,0,0,0-1-.29,2.23,2.23,0,0,0-1,.22,2.42,2.42,0,0,0-.77.52l-.83-1a3.52,3.52,0,0,1,1.26-.76,4.31,4.31,0,0,1,1.45-.26,3.63,3.63,0,0,1,1.42.24,2.23,2.23,0,0,1,.87.63,2.13,2.13,0,0,1,.45.87,3.6,3.6,0,0,1,.13,1v3.91h-1.5Zm0-2.12h-.36c-.26,0-.53,0-.82,0a3.35,3.35,0,0,0-.79.15,1.57,1.57,0,0,0-.6.32.7.7,0,0,0-.24.56.69.69,0,0,0,.1.39.85.85,0,0,0,.26.24,1.13,1.13,0,0,0,.36.14,1.87,1.87,0,0,0,.4,0,1.68,1.68,0,0,0,1.26-.44A1.66,1.66,0,0,0,86,98.49Z"/><path class="cls-1" d="M88.37,96.06V94.77H89.5V92.91h1.58v1.86h1.61v1.29H91.08v3a1.49,1.49,0,0,0,.15.71c.1.19.34.28.69.28l.35,0a1.29,1.29,0,0,0,.33-.1l.06,1.26a2.75,2.75,0,0,1-.51.12,3.75,3.75,0,0,1-.56,0,2.61,2.61,0,0,1-1-.18,1.58,1.58,0,0,1-.63-.5,1.68,1.68,0,0,1-.32-.72,4,4,0,0,1-.09-.88v-3Z"/><path class="cls-1" d="M100,98.06v.22a1.48,1.48,0,0,1,0,.21H95.08a1.69,1.69,0,0,0,.18.64,1.63,1.63,0,0,0,.41.49,1.94,1.94,0,0,0,.58.33,1.85,1.85,0,0,0,.67.12,2.07,2.07,0,0,0,1-.22,1.93,1.93,0,0,0,.69-.61l1.07.86a3.22,3.22,0,0,1-2.76,1.28,3.85,3.85,0,0,1-1.38-.23,3.42,3.42,0,0,1-1.09-.66,3,3,0,0,1-.72-1A3.56,3.56,0,0,1,93.48,98a3.61,3.61,0,0,1,.26-1.41,3.22,3.22,0,0,1,.71-1.08,3.41,3.41,0,0,1,1.08-.7,3.72,3.72,0,0,1,1.35-.25,3.49,3.49,0,0,1,1.23.22,2.78,2.78,0,0,1,1,.66,3.21,3.21,0,0,1,.65,1.08A4.67,4.67,0,0,1,100,98.06Zm-1.61-.72a2,2,0,0,0-.08-.59,1.26,1.26,0,0,0-.28-.49,1.17,1.17,0,0,0-.47-.34,1.59,1.59,0,0,0-.68-.13,1.78,1.78,0,0,0-1.22.43,1.6,1.6,0,0,0-.56,1.12Z"/><path class="cls-1" d="M101.53,94.77h1.54v1.07h0a2.39,2.39,0,0,1,.75-.91,1.9,1.9,0,0,1,1.13-.35h.2a.84.84,0,0,1,.18,0V96.1l-.27-.06h-.22a1.71,1.71,0,0,0-.88.2,1.55,1.55,0,0,0-.53.48,1.73,1.73,0,0,0-.25.58,1.9,1.9,0,0,0-.07.47v3.44h-1.61Z"/><path class="cls-1" d="M106.66,96.06h-1.22V94.77h1.22v-1a4.56,4.56,0,0,1,.13-1.11,2.37,2.37,0,0,1,.43-.92,2,2,0,0,1,.79-.64,2.88,2.88,0,0,1,1.25-.23h.45a2.74,2.74,0,0,1,.37.08L110,92.37l-.29-.06a1.69,1.69,0,0,0-.33,0,1.13,1.13,0,0,0-.56.13,1,1,0,0,0-.33.35,1.52,1.52,0,0,0-.15.47,2.89,2.89,0,0,0,0,.5v1h1.48v1.29h-1.48v5.14h-1.61Z"/><path class="cls-1" d="M114.74,100.38h0a1.76,1.76,0,0,1-.77.7,2.55,2.55,0,0,1-1.22.28,3.9,3.9,0,0,1-.81-.1,2.47,2.47,0,0,1-.78-.34,2,2,0,0,1-.59-.61,1.86,1.86,0,0,1-.23-1,1.62,1.62,0,0,1,.41-1.15,2.78,2.78,0,0,1,1-.66,6,6,0,0,1,1.42-.3c.53,0,1-.07,1.54-.07V97a1,1,0,0,0-.44-.89,1.83,1.83,0,0,0-1-.29,2.23,2.23,0,0,0-1,.22,2.59,2.59,0,0,0-.78.52l-.83-1a3.65,3.65,0,0,1,1.27-.76,4.27,4.27,0,0,1,1.45-.26,3.57,3.57,0,0,1,1.41.24,2.34,2.34,0,0,1,.88.63,2.41,2.41,0,0,1,.45.87,4,4,0,0,1,.12,1v3.91h-1.49Zm0-2.12h-.36c-.26,0-.53,0-.82,0a3.17,3.17,0,0,0-.79.15,1.57,1.57,0,0,0-.6.32.7.7,0,0,0-.24.56.69.69,0,0,0,.1.39.67.67,0,0,0,.26.24,1.13,1.13,0,0,0,.36.14,1.81,1.81,0,0,0,.4,0,1.71,1.71,0,0,0,1.26-.44,1.66,1.66,0,0,0,.43-1.21Z"/><path class="cls-1" d="M118.14,91.08h1.6V101.2h-1.6Z"/><path class="cls-1" d="M121.72,91.08h1.61V101.2h-1.61Z"/><path class="cls-1" d="M128.8,96.48a1.75,1.75,0,0,0-.58-.48,1.67,1.67,0,0,0-.82-.21,1.51,1.51,0,0,0-.71.16.55.55,0,0,0-.32.53.54.54,0,0,0,.35.53,6.28,6.28,0,0,0,1,.32,5,5,0,0,1,.73.21,2.53,2.53,0,0,1,.67.36,1.73,1.73,0,0,1,.49.55,1.59,1.59,0,0,1,.18.79,2.05,2.05,0,0,1-.22,1,1.85,1.85,0,0,1-.58.66,2.58,2.58,0,0,1-.86.37,4.23,4.23,0,0,1-1,.11,4.06,4.06,0,0,1-1.46-.27,3,3,0,0,1-1.18-.78l1.06-1a2.05,2.05,0,0,0,1.65.81,1.45,1.45,0,0,0,.35,0,1.2,1.2,0,0,0,.33-.13.65.65,0,0,0,.35-.59.61.61,0,0,0-.37-.58,6.13,6.13,0,0,0-1.11-.35,4.33,4.33,0,0,1-.7-.21,2.11,2.11,0,0,1-.61-.33,1.56,1.56,0,0,1-.43-.52,1.71,1.71,0,0,1-.16-.76,1.8,1.8,0,0,1,.81-1.56,2.72,2.72,0,0,1,.81-.37,3.73,3.73,0,0,1,.94-.12,4,4,0,0,1,1.36.24,2.31,2.31,0,0,1,1,.74Z"/></svg>