<svg id="Capa_1" data-name="Capa 1" xmlns="http://www.w3.org/2000/svg" viewBox="0 0 137.74 112.28"><defs><style>.cls-1{fill:#bfa57a;}</style></defs><path class="cls-1" d="M37.31,95.62l-3.56-5.37h2.06l2.38,4,2.41-4h2L39,95.62v4.11H37.31Z"/><path class="cls-1" d="M41.65,96.49a3.4,3.4,0,0,1,.27-1.38A3.15,3.15,0,0,1,42.66,94a3.49,3.49,0,0,1,1.11-.68,4,4,0,0,1,2.74,0,3.49,3.49,0,0,1,1.11.68,3.15,3.15,0,0,1,.74,1.07,3.4,3.4,0,0,1,.27,1.38,3.48,3.48,0,0,1-.27,1.39A3.3,3.3,0,0,1,47.62,99a3.55,3.55,0,0,1-1.11.7,3.74,3.74,0,0,1-2.74,0,3.55,3.55,0,0,1-1.11-.7,3.3,3.3,0,0,1-.74-1.08A3.48,3.48,0,0,1,41.65,96.49Zm1.63,0a2.78,2.78,0,0,0,.11.75,2.23,2.23,0,0,0,.34.67,1.8,1.8,0,0,0,.58.48,1.77,1.77,0,0,0,2.23-.48,2,2,0,0,0,.35-.67,2.78,2.78,0,0,0,.11-.75,2.65,2.65,0,0,0-.11-.74,2,2,0,0,0-.35-.67,1.75,1.75,0,0,0-.57-.47,2,2,0,0,0-1.66,0,1.91,1.91,0,0,0-.58.47,2.23,2.23,0,0,0-.34.67A2.65,2.65,0,0,0,43.28,96.49Z"/><path class="cls-1" d="M56.72,93.3v5.85a5.54,5.54,0,0,1-.21,1.58,3.15,3.15,0,0,1-.67,1.19,3,3,0,0,1-1.13.76,4.58,4.58,0,0,1-1.62.26,6,6,0,0,1-.82-.06,8.26,8.26,0,0,1-.86-.2,5.77,5.77,0,0,1-.81-.34,3.42,3.42,0,0,1-.69-.45l.92-1.25a3.21,3.21,0,0,0,1.06.68,3.31,3.31,0,0,0,1.19.23,2.51,2.51,0,0,0,1-.17,1.56,1.56,0,0,0,.63-.46,1.81,1.81,0,0,0,.33-.7,3.51,3.51,0,0,0,.1-.89v-.47h0a2.26,2.26,0,0,1-.89.73,3,3,0,0,1-1.22.25,3.13,3.13,0,0,1-1.31-.27,3,3,0,0,1-1-.72A3.21,3.21,0,0,1,50,97.78a3.65,3.65,0,0,1-.23-1.29A4,4,0,0,1,50,95.18a3.26,3.26,0,0,1,.63-1.07,2.9,2.9,0,0,1,1-.73A3.26,3.26,0,0,1,53,93.12a2.88,2.88,0,0,1,1.27.28,2.19,2.19,0,0,1,.94.87h0v-1Zm-3.43,1.13a1.76,1.76,0,0,0-1.36.59,2.14,2.14,0,0,0-.36.65,2.63,2.63,0,0,0-.12.8,2.12,2.12,0,0,0,.48,1.39,1.75,1.75,0,0,0,1.35.64,1.82,1.82,0,0,0,1.4-.62,2,2,0,0,0,.38-.64,2.22,2.22,0,0,0,.13-.77,2.3,2.3,0,0,0-.13-.79,2.1,2.1,0,0,0-.38-.65,1.86,1.86,0,0,0-.6-.44A1.8,1.8,0,0,0,53.29,94.43Z"/><path class="cls-1" d="M62.64,98.91h0a1.81,1.81,0,0,1-.78.71,2.67,2.67,0,0,1-1.22.27,3.32,3.32,0,0,1-.81-.1,2.53,2.53,0,0,1-.77-.33,1.94,1.94,0,0,1-.59-.62,1.73,1.73,0,0,1-.24-.94,1.63,1.63,0,0,1,.41-1.16,2.64,2.64,0,0,1,1-.65,6.13,6.13,0,0,1,1.43-.3c.52-.05,1-.08,1.53-.08v-.16a1,1,0,0,0-.43-.89,1.87,1.87,0,0,0-1-.29,2.38,2.38,0,0,0-1,.22,2.79,2.79,0,0,0-.78.52l-.83-1a3.65,3.65,0,0,1,1.27-.76,4.3,4.3,0,0,1,1.45-.25,3.57,3.57,0,0,1,1.41.24A2.2,2.2,0,0,1,64,94.86a4,4,0,0,1,.13,1v3.91h-1.5Zm0-2.11h-.36l-.82,0a3.26,3.26,0,0,0-.79.15,1.71,1.71,0,0,0-.6.32.72.72,0,0,0-.24.57.65.65,0,0,0,.1.38.78.78,0,0,0,.26.25,1.11,1.11,0,0,0,.36.13,1.87,1.87,0,0,0,.4,0,1.68,1.68,0,0,0,1.26-.44,1.63,1.63,0,0,0,.43-1.2Z"/><path class="cls-1" d="M69.44,90.25h3.29a6.16,6.16,0,0,1,1.3.14,3.62,3.62,0,0,1,1.12.46,2.55,2.55,0,0,1,.78.85A2.51,2.51,0,0,1,76.22,93a2.4,2.4,0,0,1-.58,1.68,3,3,0,0,1-1.58.88l2.53,4.2h-2l-2.19-4H71.12v4H69.44Zm3.06,4.08a4.48,4.48,0,0,0,.73,0,2,2,0,0,0,.65-.2,1.27,1.27,0,0,0,.47-.42,1.18,1.18,0,0,0,.19-.7,1.05,1.05,0,0,0-.18-.64,1.1,1.1,0,0,0-.44-.39,1.91,1.91,0,0,0-.61-.21,4.89,4.89,0,0,0-.66,0H71.12v2.66Z"/><path class="cls-1" d="M77.24,96.49a3.24,3.24,0,0,1,.28-1.38A3.15,3.15,0,0,1,78.26,94a3.29,3.29,0,0,1,1.11-.68,4,4,0,0,1,2.73,0,3.29,3.29,0,0,1,1.11.68A3.18,3.18,0,0,1,84,95.11a3.4,3.4,0,0,1,.27,1.38A3.48,3.48,0,0,1,84,97.88a3.3,3.3,0,0,1-1.86,1.78,3.71,3.71,0,0,1-2.73,0,3.33,3.33,0,0,1-1.11-.7,3.42,3.42,0,0,1-1-2.47Zm1.64,0a2.43,2.43,0,0,0,.11.75,2.23,2.23,0,0,0,.34.67,1.61,1.61,0,0,0,.58.48,1.67,1.67,0,0,0,.83.19,1.7,1.7,0,0,0,.83-.19,1.66,1.66,0,0,0,.57-.48,2,2,0,0,0,.34-.67,2.45,2.45,0,0,0,.12-.75,2.34,2.34,0,0,0-.12-.74,2,2,0,0,0-.34-.67,1.75,1.75,0,0,0-.57-.47,1.81,1.81,0,0,0-.83-.18,1.78,1.78,0,0,0-.83.18,1.69,1.69,0,0,0-.58.47,2.23,2.23,0,0,0-.34.67A2.33,2.33,0,0,0,78.88,96.49Z"/><path class="cls-1" d="M85.41,96.49a3.4,3.4,0,0,1,.27-1.38A3.18,3.18,0,0,1,86.43,94a3.29,3.29,0,0,1,1.11-.68,3.85,3.85,0,0,1,1.36-.24,3.91,3.91,0,0,1,1.37.24,3.29,3.29,0,0,1,1.11.68,3.15,3.15,0,0,1,.74,1.07,3.24,3.24,0,0,1,.28,1.38,3.3,3.3,0,0,1-2.13,3.17,3.71,3.71,0,0,1-1.37.26,3.66,3.66,0,0,1-1.36-.26,3.3,3.3,0,0,1-1.86-1.78A3.48,3.48,0,0,1,85.41,96.49Zm1.63,0a2.45,2.45,0,0,0,.12.75,2,2,0,0,0,.34.67,1.66,1.66,0,0,0,.57.48,1.7,1.7,0,0,0,.83.19,1.67,1.67,0,0,0,.83-.19,1.7,1.7,0,0,0,.58-.48,2.23,2.23,0,0,0,.34-.67,2.43,2.43,0,0,0,.11-.75,2.33,2.33,0,0,0-.11-.74,2.23,2.23,0,0,0-.34-.67,1.72,1.72,0,0,0-1.41-.65,1.81,1.81,0,0,0-.83.18,1.75,1.75,0,0,0-.57.47,2,2,0,0,0-.34.67A2.34,2.34,0,0,0,87,96.49Z"/><path class="cls-1" d="M101.62,93.12a2.39,2.39,0,0,1,1.08.22,2.12,2.12,0,0,1,.74.58,2.41,2.41,0,0,1,.42.83,3.42,3.42,0,0,1,.13,1v4h-1.61V96.17a4.08,4.08,0,0,0,0-.59,1.47,1.47,0,0,0-.17-.56,1.09,1.09,0,0,0-.37-.4,1,1,0,0,0-.62-.16,1.17,1.17,0,0,0-.64.16,1.24,1.24,0,0,0-.44.41,1.64,1.64,0,0,0-.26.57,2.7,2.7,0,0,0-.08.62v3.51H98.15V95.85a1.66,1.66,0,0,0-.28-1,1.07,1.07,0,0,0-.91-.39,1.28,1.28,0,0,0-.63.15,1.24,1.24,0,0,0-.43.39,1.92,1.92,0,0,0-.26.56,2.74,2.74,0,0,0-.08.64v3.53H94V93.3h1.53v1h0a1.82,1.82,0,0,1,.29-.45,2.33,2.33,0,0,1,.43-.39,1.88,1.88,0,0,1,.57-.27,2.26,2.26,0,0,1,.71-.1,2.18,2.18,0,0,1,1.24.33,2.26,2.26,0,0,1,.77.88,2.31,2.31,0,0,1,.85-.9A2.45,2.45,0,0,1,101.62,93.12Z"/><path class="cls-1" d="M97.81,55.14a5.56,5.56,0,0,0-4.55-5,9.29,9.29,0,0,0-1.75-.09H79.45V47.13c0-1.57,0-3.09,0-4.61a1.48,1.48,0,1,0-2.94-.05c0,2.23-.06,4.63,0,7a3.55,3.55,0,0,0,2.76,3.38,8.89,8.89,0,0,0,2.15.17c1.13,0,2.19,0,3.25,0h.54c2.22,0,4.52,0,6.78.06a3.55,3.55,0,0,1,2.53,1.5c.57.82,0,2.2-.37,2.7a3.23,3.23,0,0,1-1.85,1l-.09,0c-6.36,1.85-13.13,3.81-19.83,5.7a5,5,0,0,1-2.52,0c-4.92-1.38-9.83-2.8-14.74-4.21l-5.37-1.54c-1.85-.53-2.65-1.57-2.39-3.08C47.73,53,49.84,53,50.54,53c3.3,0,7.19,0,11.2,0a3.77,3.77,0,0,0,3.92-3.89c0-1.94,0-4,0-6.44,0-.66-.21-1.78-1.45-1.8a1.23,1.23,0,0,0-1,.34,2.1,2.1,0,0,0-.5,1.51c0,1.44,0,2.88,0,4.39v2.94H50.42c-3.22,0-5.59,1.87-6,4.75s1.33,5.36,4.43,6.26c2.45.72,4.92,1.42,7.38,2.13l4.73,1.35c.34.1.68.21,1.1.36L65.38,66,61,67.31l-3.66,1.07a2.25,2.25,0,0,0-1.35.94,1.27,1.27,0,0,0-.06,1c.35,1.15,1.42,1.11,2.24.87l3.42-1,.44-.13c2.38-.68,5.07-1.46,7.74-2.17a5.53,5.53,0,0,1,2.77,0c2.71.73,5.53,1.55,7.8,2.2l3.65,1a2.45,2.45,0,0,0,1.63,0,1.27,1.27,0,0,0,.72-.9c.24-.85-.31-1.57-1.48-1.92l-3.56-1.06L77.11,66.1,79.82,65c.26-.11.45-.18.63-.24l4.21-1.21c3.13-.89,6.29-1.8,9.39-2.77A5.36,5.36,0,0,0,97.81,55.14Z"/><path class="cls-1" d="M100.42,46.08h.16a2.19,2.19,0,0,0,1.45-.59,2.2,2.2,0,0,0,.16-1.52h0c-.07-.26-.21-.8-1.61-.8A16.9,16.9,0,0,1,87,36.61c-1.18-1.45-2.42-2.91-3.49-4.17A8.34,8.34,0,0,0,77,29.38H65.2a8.29,8.29,0,0,0-6.45,3c-.76.88-1.5,1.77-2.23,2.65l-.09.11c-.52.62-1,1.24-1.55,1.85a16.85,16.85,0,0,1-13.16,6.21,2.3,2.3,0,0,0-1.65.55,1.33,1.33,0,0,0-.33,1c0,1.18,1.07,1.43,1.93,1.43a19.55,19.55,0,0,0,14.65-6.35c1.49-1.59,2.84-3.27,4.21-5a6,6,0,0,1,5.1-2.45c3.91.05,7.77,0,11,0a6,6,0,0,1,4.86,2.34c1.34,1.67,2.65,3.29,4,4.8A19.37,19.37,0,0,0,100.42,46.08Z"/><path class="cls-1" d="M71.19,8.71A8.46,8.46,0,0,0,62.7,17a8.38,8.38,0,1,0,14.36-5.77A8.2,8.2,0,0,0,71.19,8.71Zm3.67,12.23a5.39,5.39,0,0,1-3.79,1.55H71a5.41,5.41,0,0,1-3.67-9.28h0a5.51,5.51,0,0,1,3.84-1.54h0a5.4,5.4,0,0,1,3.68,9.27Z"/></svg>