<svg id="Capa_1" data-name="Capa 1" xmlns="http://www.w3.org/2000/svg" viewBox="0 0 137.74 112.28"><defs><style>.cls-1{fill:#bfa57a;}</style></defs><path class="cls-1" d="M32,91.93h3.7a4.22,4.22,0,0,1,1.06.13,2.78,2.78,0,0,1,.93.41,2.12,2.12,0,0,1,.91,1.84,2,2,0,0,1-.45,1.33,2.54,2.54,0,0,1-1.19.75v0a2.51,2.51,0,0,1,1.47.7A2.09,2.09,0,0,1,39,98.65a2.64,2.64,0,0,1-.3,1.31,2.51,2.51,0,0,1-.81.84,3.53,3.53,0,0,1-1.16.47,6.41,6.41,0,0,1-1.31.14H32Zm1.69,3.85h1.5a2.1,2.1,0,0,0,1.28-.33,1.11,1.11,0,0,0,.45-1,1,1,0,0,0-.46-.91A2.87,2.87,0,0,0,35,93.32H33.64Zm0,4.21h1.51a5.91,5.91,0,0,0,.7,0,2.2,2.2,0,0,0,.69-.19,1.35,1.35,0,0,0,.52-.43,1.23,1.23,0,0,0,.21-.75,1.12,1.12,0,0,0-.51-1,3.23,3.23,0,0,0-1.54-.29H33.64Z"/><path class="cls-1" d="M40.61,91.93h3.7a4.22,4.22,0,0,1,1.06.13,2.7,2.7,0,0,1,.93.41,2.12,2.12,0,0,1,.91,1.84,2,2,0,0,1-.45,1.33,2.49,2.49,0,0,1-1.19.75v0a2.48,2.48,0,0,1,1.47.7,2.1,2.1,0,0,1,.58,1.54,2.64,2.64,0,0,1-.31,1.31,2.51,2.51,0,0,1-.81.84,3.57,3.57,0,0,1-1.15.47,6.58,6.58,0,0,1-1.32.14H40.61Zm1.69,3.85h1.5a2.16,2.16,0,0,0,1.29-.33,1.13,1.13,0,0,0,.44-1,1,1,0,0,0-.46-.91,2.85,2.85,0,0,0-1.42-.27H42.3Zm0,4.21h1.51a5.91,5.91,0,0,0,.7,0,2.2,2.2,0,0,0,.69-.19,1.35,1.35,0,0,0,.52-.43,1.23,1.23,0,0,0,.21-.75,1.12,1.12,0,0,0-.51-1,3.23,3.23,0,0,0-1.54-.29H42.3Z"/><path class="cls-1" d="M59.49,101.41H53.77a6.14,6.14,0,0,1-2.06-.33,4.57,4.57,0,0,1-1.6-1,4.2,4.2,0,0,1-1-1.53,5.47,5.47,0,0,1-.36-2,4.89,4.89,0,0,1,.38-2A4.57,4.57,0,0,1,50.17,93a5,5,0,0,1,1.62-1,5.95,5.95,0,0,1,4,0,4.77,4.77,0,0,1,1.6,1,4.54,4.54,0,0,1,1.05,1.53,5.06,5.06,0,0,1,.38,2,4.38,4.38,0,0,1-.15,1.18,5.29,5.29,0,0,1-.38,1,4,4,0,0,1-.54.76,3.89,3.89,0,0,1-.62.55v0h2.34ZM53.8,93.2a3.25,3.25,0,0,0-1.28.26,3.17,3.17,0,0,0-1,.69,3.33,3.33,0,0,0-.68,1.06,3.67,3.67,0,0,0-.25,1.34,3.77,3.77,0,0,0,.24,1.38,2.91,2.91,0,0,0,1.67,1.76,3.37,3.37,0,0,0,1.29.24,3.46,3.46,0,0,0,1.3-.24,3.28,3.28,0,0,0,1-.69,3.09,3.09,0,0,0,.67-1.07A3.77,3.77,0,0,0,57,96.55a3.66,3.66,0,0,0-.23-1.34,3,3,0,0,0-.65-1.06,3,3,0,0,0-1-.69A3.26,3.26,0,0,0,53.8,93.2Z"/><path class="cls-1" d="M63,96.27V95h1.13V93.12h1.58V95h1.61v1.29H65.73v3a1.49,1.49,0,0,0,.15.71.73.73,0,0,0,.69.28l.35,0a1.52,1.52,0,0,0,.34-.1l0,1.26a3.83,3.83,0,0,1-1.07.17,2.61,2.61,0,0,1-1-.18,1.56,1.56,0,0,1-.63-.49,1.72,1.72,0,0,1-.32-.73,4,4,0,0,1-.09-.87v-3Z"/><path class="cls-1" d="M74.63,98.27v.22a1.48,1.48,0,0,1,0,.21H69.73a1.64,1.64,0,0,0,.18.64,1.63,1.63,0,0,0,.41.49,1.94,1.94,0,0,0,.58.33,1.85,1.85,0,0,0,.67.12,2.07,2.07,0,0,0,1-.22,1.93,1.93,0,0,0,.69-.61l1.07.86a3.22,3.22,0,0,1-2.76,1.28,3.85,3.85,0,0,1-1.38-.23,3.42,3.42,0,0,1-1.09-.66,3,3,0,0,1-.72-1,3.56,3.56,0,0,1-.26-1.42,3.61,3.61,0,0,1,.26-1.41,3.22,3.22,0,0,1,.71-1.08,3.41,3.41,0,0,1,1.08-.7,3.72,3.72,0,0,1,1.35-.25,3.49,3.49,0,0,1,1.23.22,2.78,2.78,0,0,1,1,.66,3.21,3.21,0,0,1,.65,1.08A4.67,4.67,0,0,1,74.63,98.27ZM73,97.55a2,2,0,0,0-.09-.59,1.33,1.33,0,0,0-.28-.49,1.17,1.17,0,0,0-.47-.34,1.59,1.59,0,0,0-.68-.13,1.78,1.78,0,0,0-1.22.43,1.6,1.6,0,0,0-.56,1.12Z"/><path class="cls-1" d="M76.18,95h1.54v1.07h0a2.39,2.39,0,0,1,.75-.91,1.9,1.9,0,0,1,1.13-.35h.2a.84.84,0,0,1,.18,0v1.48l-.27-.06h-.22a1.71,1.71,0,0,0-.88.2,1.65,1.65,0,0,0-.53.48,1.73,1.73,0,0,0-.25.58,1.9,1.9,0,0,0-.07.47v3.44H76.18Z"/><path class="cls-1" d="M81.06,95H82.6v1.07h0a2.39,2.39,0,0,1,.75-.91,1.92,1.92,0,0,1,1.13-.35h.2a1.08,1.08,0,0,1,.19,0v1.48l-.28-.06h-.22a1.74,1.74,0,0,0-.88.2,1.52,1.52,0,0,0-.52.48,1.76,1.76,0,0,0-.26.58,2.54,2.54,0,0,0-.07.47v3.44h-1.6Z"/><path class="cls-1" d="M89.75,100.59h0a1.74,1.74,0,0,1-.78.7,2.55,2.55,0,0,1-1.22.28,3.9,3.9,0,0,1-.81-.1,2.32,2.32,0,0,1-.77-.34,1.81,1.81,0,0,1-.59-.61,1.76,1.76,0,0,1-.24-1,1.62,1.62,0,0,1,.41-1.15,2.64,2.64,0,0,1,1.05-.65,5.66,5.66,0,0,1,1.43-.31c.52,0,1-.07,1.53-.07v-.16a1,1,0,0,0-.44-.89,1.83,1.83,0,0,0-1-.29,2.23,2.23,0,0,0-1,.22,2.59,2.59,0,0,0-.78.52l-.83-1a3.65,3.65,0,0,1,1.27-.76,4.31,4.31,0,0,1,1.45-.26,3.39,3.39,0,0,1,1.41.25,2.35,2.35,0,0,1,.88.62,2.26,2.26,0,0,1,.45.87,4.11,4.11,0,0,1,.13,1v3.91h-1.5Zm0-2.11h-.36l-.82,0a3.26,3.26,0,0,0-.79.15,1.57,1.57,0,0,0-.6.32.72.72,0,0,0-.24.57.65.65,0,0,0,.1.38.89.89,0,0,0,.26.25,1.4,1.4,0,0,0,.36.13,1.87,1.87,0,0,0,.4,0,1.68,1.68,0,0,0,1.26-.44,1.66,1.66,0,0,0,.43-1.21Z"/><path class="cls-1" d="M97.51,96.76a1.36,1.36,0,0,0-.56-.45,1.76,1.76,0,0,0-.76-.18,1.61,1.61,0,0,0-.78.18,1.73,1.73,0,0,0-.56.48,2.24,2.24,0,0,0-.32.66,2.37,2.37,0,0,0-.11.74,2.78,2.78,0,0,0,.11.75,2.3,2.3,0,0,0,.34.66,1.87,1.87,0,0,0,.57.48,1.71,1.71,0,0,0,.8.18,2,2,0,0,0,.75-.15,1.41,1.41,0,0,0,.6-.43l1,1a2.77,2.77,0,0,1-1,.66,3.66,3.66,0,0,1-1.34.23,4,4,0,0,1-1.35-.22,3.3,3.3,0,0,1-1.11-.67A3.14,3.14,0,0,1,93,99.63a3.63,3.63,0,0,1-.27-1.44,3.53,3.53,0,0,1,.27-1.4,3.15,3.15,0,0,1,.74-1.07A3.34,3.34,0,0,1,94.85,95a3.51,3.51,0,0,1,1.34-.25,3.6,3.6,0,0,1,1.37.27,2.65,2.65,0,0,1,1,.74Z"/><path class="cls-1" d="M105.79,98.27v.22a1.49,1.49,0,0,1,0,.21h-4.88a1.36,1.36,0,0,0,.18.64,1.6,1.6,0,0,0,.4.49,2.08,2.08,0,0,0,.58.33,1.89,1.89,0,0,0,.67.12,2.14,2.14,0,0,0,1-.22,2,2,0,0,0,.68-.61l1.07.86a3.2,3.2,0,0,1-2.76,1.28,3.85,3.85,0,0,1-1.38-.23,3.42,3.42,0,0,1-1.09-.66,3,3,0,0,1-.72-1,3.74,3.74,0,0,1-.26-1.42,3.8,3.8,0,0,1,.26-1.41,3.1,3.1,0,0,1,.72-1.08,3.26,3.26,0,0,1,1.07-.7,3.77,3.77,0,0,1,1.35-.25,3.55,3.55,0,0,1,1.24.22,2.65,2.65,0,0,1,1,.66,3.06,3.06,0,0,1,.65,1.08A4.41,4.41,0,0,1,105.79,98.27Zm-1.61-.72a2,2,0,0,0-.09-.59,1.47,1.47,0,0,0-.27-.49,1.27,1.27,0,0,0-.48-.34,1.54,1.54,0,0,0-.67-.13,1.81,1.81,0,0,0-1.23.43,1.59,1.59,0,0,0-.55,1.12Z"/><g id="CatRhK"><path class="cls-1" d="M82.68,58.49c1.55,4.67,3,9.17,4.54,13.66.39,1.16.71,2.31-.77,2.85s-2.15-.62-2.32-1.75c-.36-2.45-1.69-3-4-2.88-5.15.18-10.32.06-15.48.06-.4,0-.9.15-1.18,0-.74-.47-1.82-1-2-1.69-.28-1.27.87-1.65,2-1.66,4.89,0,9.78,0,14.68,0H82L79.6,59.89a32.24,32.24,0,0,1-21.92,0L56.59,63c2.25,1.92,3.65,4.21,2.8,7.36a6.69,6.69,0,0,1-7,4.89,6.8,6.8,0,0,1-6.17-6.12,6.65,6.65,0,0,1,4.68-6.73c2.76-.88,2.76-.88,3.4-3.35-3.33-3-6.79-5.59-9.56-8.77a27.4,27.4,0,0,1-6.71-18.46c0-2.4.34-2.74,2.83-2.74H96.39c2.39,0,2.88.45,2.81,2.8-.3,11.21-5.45,19.62-14.81,25.59C83.88,57.82,83.35,58.1,82.68,58.49Zm13-25.79H41.58C41.78,47,54,58.48,68.74,58.46,83.32,58.43,95.53,46.84,95.69,32.7ZM53,65.36a3.28,3.28,0,0,0-3.31,3.3,3.34,3.34,0,0,0,3.41,3.42,3.29,3.29,0,0,0,3.19-3.41A3.24,3.24,0,0,0,53,65.36Z"/><path class="cls-1" d="M68.41,25.71c-1.52,0-2.51-1.44-1.73-2.41,2.17-2.75,1.27-5.29,0-8A8,8,0,0,1,69.61,5c.53-.38,1.54-.09,2.32-.11,0,.79,0,1.58,0,2.36,0,.15-.25.3-.41.43-2.56,2.13-2.82,4.61-1.25,7.48a8.19,8.19,0,0,1-.46,9.25A8.13,8.13,0,0,1,68.41,25.71Z"/><path class="cls-1" d="M77.12,9.8c1.63,0,2.55,1.51,1.66,2.57-1.67,2-1.52,3.93-.61,6.14a6.28,6.28,0,0,1-.69,6.11c-.39.56-1.49.64-2.26.93-.21-.8-.81-1.78-.54-2.36a6,6,0,0,0-.12-5,6.94,6.94,0,0,1,1.29-7.29A7.7,7.7,0,0,1,77.12,9.8Z"/><path class="cls-1" d="M59.52,21c-.36-1.21-.66-2.3-1-3.38a6.58,6.58,0,0,1,1.74-7c.45-.46,1.47-.36,2.23-.51.11.81.63,2,.28,2.38-1.55,1.87-1.42,3.7-.59,5.78a6.61,6.61,0,0,1-.58,6.33c-.39.57-1.48.65-2.26,1a8.52,8.52,0,0,1-.6-2.41A7.31,7.31,0,0,1,59.52,21Z"/></g></svg>