<svg id="Capa_1" data-name="Capa 1" xmlns="http://www.w3.org/2000/svg" viewBox="0 0 137.74 112.28"><defs><style>.cls-1{fill:#bfa57a;}</style></defs><path class="cls-1" d="M63,93.7a2,2,0,0,0-.76-.58,2.21,2.21,0,0,0-1-.24,2.33,2.33,0,0,0-.59.08,1.62,1.62,0,0,0-.54.22,1.35,1.35,0,0,0-.39.4,1.08,1.08,0,0,0-.16.6,1,1,0,0,0,.14.55,1.33,1.33,0,0,0,.36.39,2.52,2.52,0,0,0,.57.28l.74.24c.3.1.62.21.94.34a3.56,3.56,0,0,1,.9.49,2.29,2.29,0,0,1,.93,1.94,2.93,2.93,0,0,1-.28,1.33,2.83,2.83,0,0,1-.75,1,3.09,3.09,0,0,1-1.1.56,4.44,4.44,0,0,1-1.32.19,5.14,5.14,0,0,1-1.81-.34,3.54,3.54,0,0,1-1.45-1L58.65,99a2.33,2.33,0,0,0,.93.76,2.53,2.53,0,0,0,1.75.21,1.53,1.53,0,0,0,.55-.25,1.27,1.27,0,0,0,.4-.43,1.21,1.21,0,0,0,.16-.65,1,1,0,0,0-.18-.62,1.4,1.4,0,0,0-.47-.43,3.17,3.17,0,0,0-.69-.32L60.25,97a7.35,7.35,0,0,1-.85-.32,2.8,2.8,0,0,1-.77-.49,2.54,2.54,0,0,1-.56-.76,2.63,2.63,0,0,1-.21-1.12,2.42,2.42,0,0,1,.3-1.24,2.64,2.64,0,0,1,.79-.87,4,4,0,0,1,1.11-.51,5,5,0,0,1,1.27-.16,4.44,4.44,0,0,1,1.46.25,3.61,3.61,0,0,1,1.29.76Z"/><path class="cls-1" d="M67.3,94.77v.9h0a2.07,2.07,0,0,1,.31-.38,2,2,0,0,1,.48-.35,2.77,2.77,0,0,1,.63-.26,3.3,3.3,0,0,1,.8-.1,3.12,3.12,0,0,1,1.26.26,3.23,3.23,0,0,1,1,.72,3.11,3.11,0,0,1,.64,1.07A3.83,3.83,0,0,1,72.68,98a3.91,3.91,0,0,1-.22,1.33,3.3,3.3,0,0,1-.63,1.08,2.93,2.93,0,0,1-1,.74,3.11,3.11,0,0,1-1.32.27,2.73,2.73,0,0,1-1.25-.28,2.12,2.12,0,0,1-.88-.76h0v4.07h-1.6V94.77ZM71.05,98a2.45,2.45,0,0,0-.12-.75,2.07,2.07,0,0,0-.34-.66,1.59,1.59,0,0,0-.58-.47,1.73,1.73,0,0,0-.81-.19,1.68,1.68,0,0,0-.79.19,2.35,2.35,0,0,0-.6.48,2.09,2.09,0,0,0-.37.67,2.23,2.23,0,0,0,0,1.5,2.15,2.15,0,0,0,.37.66,2.12,2.12,0,0,0,.6.47,1.67,1.67,0,0,0,.79.18,1.73,1.73,0,0,0,.81-.18,1.84,1.84,0,0,0,.58-.48,2,2,0,0,0,.34-.67A2.45,2.45,0,0,0,71.05,98Z"/><path class="cls-1" d="M78.22,100.38h0a1.74,1.74,0,0,1-.78.7,2.51,2.51,0,0,1-1.21.28,3.9,3.9,0,0,1-.81-.1,2.37,2.37,0,0,1-.78-.34,1.91,1.91,0,0,1-.59-.61,1.76,1.76,0,0,1-.23-1,1.61,1.61,0,0,1,.4-1.15,2.9,2.9,0,0,1,1.06-.66,5.94,5.94,0,0,1,1.42-.3c.52,0,1-.07,1.53-.07V97a1,1,0,0,0-.43-.89,1.87,1.87,0,0,0-1-.29,2.26,2.26,0,0,0-1,.22,2.42,2.42,0,0,0-.77.52l-.83-1a3.6,3.6,0,0,1,1.26-.76,4.32,4.32,0,0,1,1.46-.26,3.57,3.57,0,0,1,1.41.24,2.23,2.23,0,0,1,.87.63,2.13,2.13,0,0,1,.45.87,3.6,3.6,0,0,1,.13,1v3.91h-1.5Zm0-2.12h-.36c-.26,0-.53,0-.81,0a3.17,3.17,0,0,0-.79.15,1.61,1.61,0,0,0-.61.32.7.7,0,0,0-.24.56.78.78,0,0,0,.1.39.85.85,0,0,0,.26.24,1.09,1.09,0,0,0,.37.14,1.75,1.75,0,0,0,.4,0,1.5,1.5,0,0,0,1.68-1.65Z"/><path class="cls-1" d="M84.17,38.49l0-.35C82.9,27.72,77.7,19.79,68.24,13.92c-4.83,3.44-8,6.63-10.27,10.33a31.55,31.55,0,0,0-4.56,13.88l0,.36H39.64c0,1,0,2,0,3a56.72,56.72,0,0,0,.11,7.26,21.23,21.23,0,0,0,21,18.75l4.32,0c3.9,0,7.92,0,11.89,0a21.06,21.06,0,0,0,17.33-9.09c4.29-5.82,4.08-12.64,3.87-19.24l0-.63ZM67.26,64.11l-.35,0c-1.42.14-2.91.25-4.43.25-5.85,0-12.2-1.53-16.75-8.12-3.33-4.82-3.38-10.23-3-14.4l0-.37h.37c.95,0,1.89,0,2.83,0a26,26,0,0,1,9,1A18.58,18.58,0,0,1,67.26,60c0,.87,0,1.73,0,2.6Zm1.47-12.69-.32-.65a21.75,21.75,0,0,0-7.79-8.93l-.26-.16A11.31,11.31,0,0,0,58,40.4c-1.51-.5-1.52-1.52-1.41-2.53a27.53,27.53,0,0,1,10.7-19.28,1.45,1.45,0,0,1,2-.09A27.52,27.52,0,0,1,80.92,38.33a2,2,0,0,1-.73,1.72c-6.44,3.69-7.47,4.7-11.09,10.75ZM89.67,59c-2.62,2.61-7.19,5.45-14.63,5.45a32.74,32.74,0,0,1-4.28-.29l-.32,0,0-.32c-.57-6.83.85-11.93,4.46-16.05C80.53,41.29,88,41,94.5,41.65l.31,0,0,.32C95.7,48.69,93.81,54.89,89.67,59Z"/></svg>