<svg id="Capa_1" data-name="Capa 1" xmlns="http://www.w3.org/2000/svg" viewBox="0 0 367.93 109.11"><defs><style>.cls-1{fill:#fff;}</style></defs><path class="cls-1" d="M16,41.23a18.54,18.54,0,0,0,.57,4.71,11.53,11.53,0,0,0,1.64,3.7A7.39,7.39,0,0,0,20.79,52a6.71,6.71,0,0,0,3.31.82,6.92,6.92,0,0,0,5.17-2.35,9.84,9.84,0,0,0,2.08-3.82,18.22,18.22,0,0,0,.74-5.42,19.19,19.19,0,0,0-.56-4.81,11.44,11.44,0,0,0-1.61-3.65,7.54,7.54,0,0,0-2.53-2.32,6.78,6.78,0,0,0-3.33-.81,6.69,6.69,0,0,0-3.31.82,7.46,7.46,0,0,0-2.53,2.36,11.43,11.43,0,0,0-1.63,3.7A18.53,18.53,0,0,0,16,41.23m-4.36.12a12.24,12.24,0,0,1,1-4.79,12.51,12.51,0,0,1,2.69-4,12.36,12.36,0,0,1,4-2.66A12.18,12.18,0,0,1,24.06,29a11.94,11.94,0,0,1,6.2,1.67,12.4,12.4,0,0,1,4.52,4.52,12.34,12.34,0,0,1-2,14.94,12.58,12.58,0,0,1-4,2.69,11.86,11.86,0,0,1-4.75,1,12.2,12.2,0,0,1-6.27-1.66,12.33,12.33,0,0,1-4.53-4.51,12.13,12.13,0,0,1-1.66-6.21"/><path class="cls-1" d="M51.59,40.05h3.1a9.08,9.08,0,0,0,3.86-.6,3.86,3.86,0,0,0,1.65-1.67,5.52,5.52,0,0,0,.59-2.61,5.34,5.34,0,0,0-.7-2.73,4.84,4.84,0,0,0-2-1.88,6.06,6.06,0,0,0-2.86-.66c-1.59,0-2.67.49-3.22,1.49a5.74,5.74,0,0,0-.47,2.66Zm0,.69v7.11a9.92,9.92,0,0,0,.18,2.21,3.11,3.11,0,0,0,.7,1.3,4.64,4.64,0,0,0,2.74,1.23v.54h-11v-.54a4.07,4.07,0,0,0,2.71-1.44,5.68,5.68,0,0,0,.66-3.3V34.79a11,11,0,0,0-.17-2.28,2.72,2.72,0,0,0-.64-1.21,4.52,4.52,0,0,0-2.56-1.25v-.53l.43,0,1.52.08c.61,0,1.32.05,2.13.05q1.92,0,3.48-.15l2.42-.21c.76-.07,1.51-.1,2.25-.1a14.55,14.55,0,0,1,3.65.41,8.34,8.34,0,0,1,2.71,1.2,5.29,5.29,0,0,1,1.71,1.91,5.2,5.2,0,0,1,.61,2.53,4.45,4.45,0,0,1-1.6,3.64,8.36,8.36,0,0,1-4.73,1.53,9.47,9.47,0,0,1,3.27,2.09,24.21,24.21,0,0,1,3.2,4.31,33.83,33.83,0,0,0,3.3,4.67,7,7,0,0,0,2.68,1.87v.48A15.79,15.79,0,0,1,68,53.51a9.31,9.31,0,0,1-2.64-1.11,13.3,13.3,0,0,1-3.09-2.75,18.79,18.79,0,0,1-2.54-4l-.92-1.92a10.92,10.92,0,0,0-1.16-2A2.51,2.51,0,0,0,56.49,41a6.3,6.3,0,0,0-1.89-.23Z"/><path class="cls-1" d="M97.48,29.78l2,6.17h-.59a18.3,18.3,0,0,0-1.77-2.82,10,10,0,0,0-1.94-1.91,7.13,7.13,0,0,0-2.15-1.08,8.9,8.9,0,0,0-2.58-.35,9.26,9.26,0,0,0-3.8.78,9.07,9.07,0,0,0-3.07,2.2,10.15,10.15,0,0,0-2,3.35,11.9,11.9,0,0,0-.72,4.17,14.14,14.14,0,0,0,1.33,6.15,10.84,10.84,0,0,0,3.66,4.36A9,9,0,0,0,91,52.38a8.79,8.79,0,0,0,3.66-.76,9.28,9.28,0,0,0,3-2.2A13.29,13.29,0,0,0,100,45.81h.7a11.76,11.76,0,0,1-4.37,5.82A13.87,13.87,0,0,1,81.06,51a11.54,11.54,0,0,1-2.32-2.63,12.27,12.27,0,0,1-1.45-3.23,13.2,13.2,0,0,1-.5-3.6,11.86,11.86,0,0,1,1.74-6.3,12.27,12.27,0,0,1,4.79-4.49,14.06,14.06,0,0,1,6.75-1.63,24.61,24.61,0,0,1,4.1.45,15.84,15.84,0,0,0,2.56.33,5.23,5.23,0,0,0,.75-.07"/><path class="cls-1" d="M108.92,53.13v-.54a4.07,4.07,0,0,0,2.71-1.44,5.68,5.68,0,0,0,.66-3.3V34.79a11,11,0,0,0-.17-2.28,2.72,2.72,0,0,0-.64-1.21,4.23,4.23,0,0,0-2.56-1.25v-.53h10.77v.53A4.14,4.14,0,0,0,117,31.49a2.88,2.88,0,0,0-.5,1.2,10.38,10.38,0,0,0-.16,2.1v5.78h12.16V34.79a11,11,0,0,0-.17-2.28,2.72,2.72,0,0,0-.64-1.21,4.23,4.23,0,0,0-2.56-1.25v-.53h10.77v.53a4.17,4.17,0,0,0-2.73,1.44,2.88,2.88,0,0,0-.5,1.2,10.38,10.38,0,0,0-.16,2.1V47.85a10.21,10.21,0,0,0,.18,2.22,2.85,2.85,0,0,0,.65,1.27,4.18,4.18,0,0,0,2.56,1.25v.54H125.09v-.54a4.07,4.07,0,0,0,2.71-1.44,5.68,5.68,0,0,0,.66-3.3V41.36H116.3v6.49a10.21,10.21,0,0,0,.18,2.22,2.85,2.85,0,0,0,.65,1.27,4.18,4.18,0,0,0,2.56,1.25v.54Z"/><path class="cls-1" d="M143.43,53.13v-.54a4.09,4.09,0,0,0,2.72-1.44,5.68,5.68,0,0,0,.66-3.3V34.79a10.22,10.22,0,0,0-.18-2.28A2.62,2.62,0,0,0,146,31.3a4.2,4.2,0,0,0-2.56-1.25v-.53h10.78v.53a4.12,4.12,0,0,0-2.73,1.44,2.88,2.88,0,0,0-.51,1.2,11.32,11.32,0,0,0-.15,2.1V47.85a10.21,10.21,0,0,0,.18,2.22,2.85,2.85,0,0,0,.65,1.27,4.15,4.15,0,0,0,2.56,1.25v.54Z"/><path class="cls-1" d="M169.25,33.75l0,13.37a9.66,9.66,0,0,0,.4,3.24,2.91,2.91,0,0,0,1.29,1.44,4.43,4.43,0,0,0,2.19.51,8.2,8.2,0,0,0,3.67-.82,8.88,8.88,0,0,0,2.93-2.35,10.88,10.88,0,0,0,1.91-3.62,14.93,14.93,0,0,0,.66-4.5,13.24,13.24,0,0,0-1.17-5.67,9.47,9.47,0,0,0-3.25-3.94A8.06,8.06,0,0,0,173.19,30a4.23,4.23,0,0,0-3,.91,3.78,3.78,0,0,0-1,2.86m-7.47,19.38.05-.54a4.12,4.12,0,0,0,2.72-1.44,5.78,5.78,0,0,0,.65-3.3V34.79a11.06,11.06,0,0,0-.16-2.22,2.8,2.8,0,0,0-.65-1.27,4.23,4.23,0,0,0-2.56-1.25v-.53l.67,0,2,.11c.65,0,1.36.05,2.11.05,1.35,0,2.81-.07,4.39-.21s2.55-.17,3.25-.17a14,14,0,0,1,5,.85,11.38,11.38,0,0,1,3.9,2.45,10.92,10.92,0,0,1,2.55,3.79,13.34,13.34,0,0,1,0,9.71A10.6,10.6,0,0,1,183.08,50a11.78,11.78,0,0,1-4.1,2.43,15.59,15.59,0,0,1-5.3.85c-.72,0-1.86-.07-3.43-.21-1.1-.1-2.18-.15-3.23-.15-.74,0-1.56,0-2.46.07l-2.35.17a3.32,3.32,0,0,0-.43,0"/><path class="cls-1" d="M207.86,53.13v-.54a4.09,4.09,0,0,0,2.72-1.44,5.68,5.68,0,0,0,.66-3.3V34.79a11,11,0,0,0-.17-2.28,2.64,2.64,0,0,0-.65-1.21,4.2,4.2,0,0,0-2.56-1.25v-.53h10.78v.53a4.12,4.12,0,0,0-2.73,1.44,2.88,2.88,0,0,0-.5,1.2,10.38,10.38,0,0,0-.16,2.1v5.78h12.16V34.79a11,11,0,0,0-.17-2.28,2.72,2.72,0,0,0-.64-1.21A4.23,4.23,0,0,0,224,30.05v-.53h10.77v.53a4.14,4.14,0,0,0-2.73,1.44,2.88,2.88,0,0,0-.5,1.2,10.38,10.38,0,0,0-.16,2.1V47.85a10.21,10.21,0,0,0,.18,2.22,2.85,2.85,0,0,0,.65,1.27,4.18,4.18,0,0,0,2.56,1.25v.54H224v-.54a4.07,4.07,0,0,0,2.71-1.44,5.68,5.68,0,0,0,.66-3.3V41.36H215.25v6.49a10.21,10.21,0,0,0,.18,2.22,2.85,2.85,0,0,0,.65,1.27,4.18,4.18,0,0,0,2.56,1.25v.54Z"/><path class="cls-1" d="M247.33,41.23a18.54,18.54,0,0,0,.57,4.71,11.53,11.53,0,0,0,1.63,3.7A7.39,7.39,0,0,0,252.09,52a6.74,6.74,0,0,0,3.31.82,6.91,6.91,0,0,0,5.17-2.35,9.85,9.85,0,0,0,2.09-3.82,18.23,18.23,0,0,0,.73-5.42,18.74,18.74,0,0,0-.56-4.81,11.22,11.22,0,0,0-1.61-3.65,7.6,7.6,0,0,0-2.52-2.32,6.84,6.84,0,0,0-3.33-.81,6.66,6.66,0,0,0-3.31.82,7.49,7.49,0,0,0-2.54,2.36,11.64,11.64,0,0,0-1.62,3.7,18.53,18.53,0,0,0-.57,4.73m-4.36.12a12.06,12.06,0,0,1,1-4.79A12.31,12.31,0,0,1,255.37,29a12,12,0,0,1,6.2,1.67,12.45,12.45,0,0,1,4.51,4.52,12.42,12.42,0,0,1,.73,11,12.33,12.33,0,0,1-2.67,4,12.81,12.81,0,0,1-4,2.69,11.94,11.94,0,0,1-4.76,1,12.39,12.39,0,0,1-10.79-6.17A12,12,0,0,1,243,41.35"/><path class="cls-1" d="M286.3,29.52v.53a4.47,4.47,0,0,0-2.9,1.42,2.89,2.89,0,0,0-.56,1.26,10.84,10.84,0,0,0-.15,2.06V44.94a7.7,7.7,0,0,0,1.71,5.31,6.06,6.06,0,0,0,2.34,1.6,7.64,7.64,0,0,0,2.95.58,6.7,6.7,0,0,0,3.89-1.12A6.8,6.8,0,0,0,296,48.14a12.26,12.26,0,0,0,.66-4.49v-8c0-2-.45-3.37-1.35-4.22a5.11,5.11,0,0,0-2.82-1.34v-.53h8v.53a4.53,4.53,0,0,0-1.86.94,3.55,3.55,0,0,0-1,1.64,9.18,9.18,0,0,0-.31,2.56v8.44a17.93,17.93,0,0,1-.26,3.39,7.9,7.9,0,0,1-2.84,4.69,9,9,0,0,1-2.81,1.47,11.56,11.56,0,0,1-3.43.5,11.12,11.12,0,0,1-3.59-.56,8.67,8.67,0,0,1-2.86-1.63,7.76,7.76,0,0,1-2-2.57,13.76,13.76,0,0,1-1-5.81V34.79a10.9,10.9,0,0,0-.17-2.22,2.71,2.71,0,0,0-.65-1.27,4.2,4.2,0,0,0-2.56-1.25v-.53Z"/><path class="cls-1" d="M321.75,30.05l1,5.76h-.59a15.91,15.91,0,0,0-.92-2.45,6.71,6.71,0,0,0-1-1.51,6.16,6.16,0,0,0-2.12-1.54,6.23,6.23,0,0,0-2.58-.55,4.64,4.64,0,0,0-3.12,1,3.3,3.3,0,0,0-1.21,2.65,3.57,3.57,0,0,0,1.57,3,13.86,13.86,0,0,0,1.74,1.05c.62.3,1.59.73,2.9,1.29.9.35,1.66.68,2.28,1a15.5,15.5,0,0,1,1.51.78,11.29,11.29,0,0,1,1.14.8,6.2,6.2,0,0,1,2.4,5.07,6.44,6.44,0,0,1-1.12,3.71,7.62,7.62,0,0,1-3.11,2.61,10.17,10.17,0,0,1-4.41.94,18,18,0,0,1-3.88-.5A31.46,31.46,0,0,1,308.83,52l-.48-.17-.52-6.56h.52A13.2,13.2,0,0,0,310.81,50a6.66,6.66,0,0,0,5.31,2.71,6.22,6.22,0,0,0,2.79-.6,4.65,4.65,0,0,0,1.91-1.64,4.26,4.26,0,0,0,.69-2.39,4.43,4.43,0,0,0-.53-2.16,5.71,5.71,0,0,0-1.75-1.81,18.32,18.32,0,0,0-3.32-1.76c-2-.89-3.28-1.45-3.72-1.69a9.85,9.85,0,0,1-2.09-1.54,5.46,5.46,0,0,1-1.23-1.8,5.35,5.35,0,0,1-.4-2.08,5.66,5.66,0,0,1,.91-3.13,6.34,6.34,0,0,1,2.49-2.23,7.58,7.58,0,0,1,3.5-.81,10.33,10.33,0,0,1,2.7.4l1,.27a9.39,9.39,0,0,0,2.47.31Z"/><path class="cls-1" d="M352.88,29.52l.66,6.43H353a8.6,8.6,0,0,0-2.67-4.38,7.18,7.18,0,0,0-4.61-1.41h-1a4.71,4.71,0,0,0-3.21.87,3.82,3.82,0,0,0-.94,2.92v5.88h2.3a6.85,6.85,0,0,0,3.81-.83,4.54,4.54,0,0,0,1.64-3h.52v8.75h-.52a7.85,7.85,0,0,0-.93-2.64,3.09,3.09,0,0,0-1.62-1.28,8.75,8.75,0,0,0-2.85-.37h-2.35V48a8.4,8.4,0,0,0,.32,2.62A2.09,2.09,0,0,0,342,51.88a5.7,5.7,0,0,0,2.26.36h1.59a7.75,7.75,0,0,0,4.47-1.45,21.42,21.42,0,0,0,4.58-4.53l.14-.19h.6l-2,7.06H333.2v-.54a4.07,4.07,0,0,0,2.71-1.44,5.68,5.68,0,0,0,.66-3.3V34.79a11,11,0,0,0-.17-2.28,2.72,2.72,0,0,0-.64-1.21,4.23,4.23,0,0,0-2.56-1.25v-.53Z"/><path class="cls-1" d="M143.53,76.91c0-.73-.06-1.47-.09-2.23l.42.06a3,3,0,0,0,.42,0l.41,0,.43-.06c0,.76-.07,1.5-.1,2.23s0,1.47,0,2.22v3c0,.75,0,1.5,0,2.23s.06,1.45.1,2.16q-.41,0-.84,0t-.84,0q0-1.07.09-2.16c0-.73,0-1.48,0-2.23V80.54l-1.79,0h-3.59l-1.8,0v1.55c0,.75,0,1.5.05,2.23s.06,1.45.09,2.16q-.39,0-.84,0t-.84,0q0-1.07.09-2.16c0-.73.05-1.48.05-2.23v-3c0-.75,0-1.5-.05-2.22s-.06-1.47-.09-2.23l.43.06a2.83,2.83,0,0,0,.41,0,2.73,2.73,0,0,0,.41,0l.43-.06c0,.76-.06,1.5-.09,2.23s-.05,1.47-.05,2.22v.6l1.8,0h3.59l1.79,0v-.6c0-.75,0-1.5,0-2.22"/><path class="cls-1" d="M166.12,80.61a7.61,7.61,0,0,0-.36-2.47,4.63,4.63,0,0,0-1-1.71,4,4,0,0,0-1.51-1,5.27,5.27,0,0,0-1.88-.32,5.21,5.21,0,0,0-1.87.32,3.94,3.94,0,0,0-1.51,1,4.63,4.63,0,0,0-1,1.71,7.61,7.61,0,0,0-.36,2.47,7.51,7.51,0,0,0,.36,2.46,4.6,4.6,0,0,0,1,1.72,4.06,4.06,0,0,0,1.51,1,5.44,5.44,0,0,0,1.87.32,5.5,5.5,0,0,0,1.88-.32,4.14,4.14,0,0,0,1.51-1,4.6,4.6,0,0,0,1-1.72,7.51,7.51,0,0,0,.36-2.46m-11.18,0a6.85,6.85,0,0,1,.47-2.6,5.55,5.55,0,0,1,1.33-1.94,5.78,5.78,0,0,1,2-1.2,8.48,8.48,0,0,1,5.21,0,5.88,5.88,0,0,1,2,1.2A5.39,5.39,0,0,1,167.33,78a7.28,7.28,0,0,1,0,5.2A5.27,5.27,0,0,1,166,85.14a5.41,5.41,0,0,1-2,1.18,8.9,8.9,0,0,1-5.21,0,5.33,5.33,0,0,1-2-1.18,5.42,5.42,0,0,1-1.33-1.93,6.85,6.85,0,0,1-.47-2.6"/><path class="cls-1" d="M179.47,75.58h-.94c-.33,0-.65,0-1,0l-.94.06a8.22,8.22,0,0,0-.82.09,2,2,0,0,0,.09-.55,2.29,2.29,0,0,0-.09-.54l2.22.06c.72,0,1.46,0,2.21,0s1.5,0,2.22,0l2.21-.06a2.88,2.88,0,0,0-.08.55,2.43,2.43,0,0,0,.08.54q-.36-.06-.81-.09l-1-.06c-.32,0-.65,0-1,0H181c0,1.18,0,2.36,0,3.55v3c0,.75,0,1.5,0,2.23s.06,1.45.09,2.16q-.39,0-.84,0t-.84,0c0-.71.07-1.43.1-2.16s0-1.48,0-2.23v-3c0-1.19,0-2.37-.05-3.55"/><path class="cls-1" d="M194.19,76.88l-.09-2.2c.51,0,1,0,1.54.06s1,0,1.53,0,1,0,1.53,0,1,0,1.53-.06a3.15,3.15,0,0,0,0,.52,2.94,2.94,0,0,0,0,.51l-1-.06-1-.07c-.33,0-.7,0-1.1-.06s-.89,0-1.45,0c0,.37,0,.72,0,1.05s0,.71,0,1.13,0,.88,0,1.31,0,.74,0,1l1.36,0,1.1,0,.92,0,.8-.06a2.33,2.33,0,0,0-.06.53,2.22,2.22,0,0,0,.06.51c-.3,0-.65-.06-1-.08s-.79,0-1.19,0l-1.12,0h-.83c0,.1,0,.21,0,.33s0,.28,0,.46v1.7c0,.65,0,1.19,0,1.61s0,.75,0,1h1.2c.44,0,.86,0,1.28,0l1.19-.07a7.63,7.63,0,0,0,1-.13,1.08,1.08,0,0,0,0,.27c0,.1,0,.19,0,.27a1.33,1.33,0,0,0,.06.44l-1.54,0h-3.12l-1.56,0,.09-2.19c0-.72.05-1.47.05-2.22v-3c0-.75,0-1.5-.05-2.23"/><path class="cls-1" d="M210.34,76.91c0-.73-.06-1.47-.1-2.23l.43.06.41,0a3,3,0,0,0,.42,0l.42-.06c0,.76-.06,1.5-.09,2.23s0,1.47,0,2.22c0,1.44,0,2.7,0,3.75s0,2,0,2.85q1.22,0,2.34,0a21.54,21.54,0,0,0,2.4-.2,2,2,0,0,0-.09.52,1.54,1.54,0,0,0,.09.46c-.53,0-1.05,0-1.58,0h-3.17l-1.59,0c0-.71.07-1.43.1-2.16s0-1.48,0-2.23v-3c0-.75,0-1.5,0-2.22"/><path class="cls-1" d="M226.52,84.88a2.74,2.74,0,0,0,.56.57,3.23,3.23,0,0,0,.78.42,2.87,2.87,0,0,0,1,.17,2.54,2.54,0,0,0,1-.2,2.35,2.35,0,0,0,.77-.53,2.23,2.23,0,0,0,.49-.79,2.64,2.64,0,0,0,.17-1,1.85,1.85,0,0,0-.4-1.26,3.38,3.38,0,0,0-1-.77,11.07,11.07,0,0,0-1.3-.57,6.55,6.55,0,0,1-1.3-.64,3.49,3.49,0,0,1-1-1,2.84,2.84,0,0,1-.4-1.61,3.34,3.34,0,0,1,.25-1.32,3,3,0,0,1,.75-1,3.49,3.49,0,0,1,1.18-.67,5.13,5.13,0,0,1,3,0,3.36,3.36,0,0,1,1.11.61,3.82,3.82,0,0,0-.25.62,7.94,7.94,0,0,0-.21.82h-.21a3.2,3.2,0,0,0-.23-.52,2.2,2.2,0,0,0-.39-.53,2.45,2.45,0,0,0-.59-.4,1.92,1.92,0,0,0-.83-.16,2.46,2.46,0,0,0-.88.15,2.07,2.07,0,0,0-.71.44,1.9,1.9,0,0,0-.46.68,2.2,2.2,0,0,0-.16.86,1.88,1.88,0,0,0,.4,1.27,3.4,3.4,0,0,0,1,.78,9.6,9.6,0,0,0,1.3.56,7.75,7.75,0,0,1,1.3.61,3.29,3.29,0,0,1,1,.93,2.55,2.55,0,0,1,.41,1.51,4,4,0,0,1-.29,1.5,3.54,3.54,0,0,1-.82,1.23,3.75,3.75,0,0,1-1.33.8,5.13,5.13,0,0,1-1.77.29,4.42,4.42,0,0,1-1.73-.29,4.84,4.84,0,0,1-1.11-.64,3.74,3.74,0,0,0,.22-.71c0-.22.08-.49.11-.82h.21a3,3,0,0,0,.37.63"/></svg>