<svg id="Capa_1" data-name="Capa 1" xmlns="http://www.w3.org/2000/svg" viewBox="0 0 187.77 109.11"><defs><style>.cls-1{fill:#fff;}</style></defs><polygon class="cls-1" points="85.33 10.54 116.28 43.86 116.36 43.86 116.36 11.97 116.37 10.54 85.33 10.54"/><polygon class="cls-1" points="67.54 10.54 67.54 11.97 67.54 62.25 81.22 62.25 81.22 11.12 81.23 10.55 67.54 10.54"/><polygon class="cls-1" points="91.06 29.89 91.06 62.25 120.23 62.25 91.13 29.89 91.06 29.89"/><path class="cls-1" d="M62.64,72.59a.38.38,0,0,1,.36-.37h.76a.39.39,0,0,1,.37.37v12.8a.38.38,0,0,1-.37.36H63a.37.37,0,0,1-.36-.36Z"/><path class="cls-1" d="M66.6,72.38A.36.36,0,0,1,67,72h.48l8.61,10.86h0V72.59a.36.36,0,0,1,.37-.37h.66a.38.38,0,0,1,.37.37v13a.37.37,0,0,1-.37.35h-.34L68,74.87h0V85.39a.36.36,0,0,1-.36.36H67a.37.37,0,0,1-.36-.36Z"/><path class="cls-1" d="M79.62,72.59a.37.37,0,0,1,.37-.37h.74a.37.37,0,0,1,.36.37V84.46h7.69a.37.37,0,0,1,.37.37v.56a.37.37,0,0,1-.37.36H80a.37.37,0,0,1-.37-.36Z"/><path class="cls-1" d="M87.75,85.25l5.81-13a.32.32,0,0,1,.32-.21h.19a.35.35,0,0,1,.33.21l5.76,13a.34.34,0,0,1-.32.5h-.77a.34.34,0,0,1-.32-.21l-1.41-3.19H90.56l-1.39,3.19a.36.36,0,0,1-.33.21h-.76a.34.34,0,0,1-.33-.5m9.07-4.1c-.93-2.1-1.85-4.23-2.79-6.34h-.15l-2.79,6.34Z"/><path class="cls-1" d="M101.6,72.37A.35.35,0,0,1,102,72h.48L111,82.89h0V72.59a.36.36,0,0,1,.36-.37h.67a.37.37,0,0,1,.36.37v13c0,.19-.31.16-.5.16h-.35L103,74.87h0V85.39a.36.36,0,0,1-.36.36H102a.37.37,0,0,1-.36-.36Z"/><path class="cls-1" d="M111,72.59a.36.36,0,0,1,.35-.37h4.27a6.77,6.77,0,0,1,0,13.53H112a3.43,3.43,0,0,1-1-1.34Zm4.32,11.83a5.44,5.44,0,0,0,0-10.88h-2.87V84.42Z"/><path class="cls-1" d="M123.76,72.38a1.41,1.41,0,1,1-1.41,1.39,1.4,1.4,0,0,1,1.41-1.39m0,2.51a1.1,1.1,0,1,0-1.07-1.12,1.09,1.09,0,0,0,1.07,1.12m-.49-1.76a.08.08,0,0,1,.08-.07h.6a.47.47,0,0,1,.46.5.46.46,0,0,1-.28.43l.17.41a.07.07,0,0,1-.06.1H124a.09.09,0,0,1-.07-.06l-.16-.44h-.21v.42a.07.07,0,0,1-.08.07h-.19a.08.08,0,0,1-.07-.08Zm.62.59a.17.17,0,0,0,.17-.16.16.16,0,0,0-.16-.16h-.31v.32Z"/><path class="cls-1" d="M63.43,92.09H64.8a2.56,2.56,0,0,1,.77.11,1.9,1.9,0,0,1,1.2,1,2.06,2.06,0,0,1,.19.9,2,2,0,0,1-.19.89,1.83,1.83,0,0,1-.51.62,1.92,1.92,0,0,1-.69.37,2.58,2.58,0,0,1-.77.12H63.43Zm.56,3.5h.7a2.09,2.09,0,0,0,.67-.1,1.8,1.8,0,0,0,.53-.29,1.42,1.42,0,0,0,.35-.48,1.62,1.62,0,0,0,.12-.64,1.67,1.67,0,0,0-.12-.65,1.29,1.29,0,0,0-.35-.47,1.6,1.6,0,0,0-.53-.29,2.09,2.09,0,0,0-.67-.1H64Z"/><path class="cls-1" d="M70.88,95.59H73v.49H70.32v-4h2.57v.49h-2v1.19h1.89v.48H70.88Z"/><path class="cls-1" d="M77.64,95.36h0l1.2-3.27h.6l-1.57,4h-.52l-1.55-4h.62Z"/><path class="cls-1" d="M83.09,95.59h2.09v.49H82.53v-4H85.1v.49h-2v1.19H85v.48H83.09Z"/><path class="cls-1" d="M89.08,95.59h1.79v.49H88.52v-4h.56Z"/><path class="cls-1" d="M97.86,94.08a2.15,2.15,0,0,1-.16.85,2.06,2.06,0,0,1-.44.66,2,2,0,0,1-.68.44,2.46,2.46,0,0,1-1.69,0,2,2,0,0,1-.67-.44,2.06,2.06,0,0,1-.44-.66,2.34,2.34,0,0,1-.15-.85,2.39,2.39,0,0,1,.15-.86,2.31,2.31,0,0,1,.44-.66,2.11,2.11,0,0,1,.67-.42,2.31,2.31,0,0,1,1.69,0,2,2,0,0,1,.68.42,2.31,2.31,0,0,1,.44.66A2.2,2.2,0,0,1,97.86,94.08Zm-.6,0a1.8,1.8,0,0,0-.11-.62,1.55,1.55,0,0,0-.78-.86,1.71,1.71,0,0,0-1.26,0,1.48,1.48,0,0,0-.47.35,1.63,1.63,0,0,0-.3.51,1.8,1.8,0,0,0-.11.62,1.9,1.9,0,0,0,.11.63,1.63,1.63,0,0,0,.3.51,1.39,1.39,0,0,0,.48.34,1.66,1.66,0,0,0,1.24,0,1.39,1.39,0,0,0,.48-.34,1.49,1.49,0,0,0,.31-.51A1.9,1.9,0,0,0,97.26,94.08Z"/><path class="cls-1" d="M101.22,92.09h1.22a2.74,2.74,0,0,1,.59.06,1.32,1.32,0,0,1,.45.2.87.87,0,0,1,.28.35,1.06,1.06,0,0,1,.11.5,1.13,1.13,0,0,1-.11.51,1,1,0,0,1-.31.35,1.29,1.29,0,0,1-.46.2,2.15,2.15,0,0,1-.58.07h-.63v1.75h-.56Zm.56,1.76h.59a2.25,2.25,0,0,0,.38,0,1.1,1.1,0,0,0,.29-.12.41.41,0,0,0,.19-.2.68.68,0,0,0,0-.6.52.52,0,0,0-.19-.2.83.83,0,0,0-.29-.11,2.13,2.13,0,0,0-.37,0h-.6Z"/><path class="cls-1" d="M107.73,95.59h2.09v.49h-2.64v-4h2.56v.49h-2v1.19h1.89v.48h-1.89Z"/><path class="cls-1" d="M113.72,96.08h-.56v-4h1.29a2.35,2.35,0,0,1,.54.06,1.47,1.47,0,0,1,.46.18,1,1,0,0,1,.31.35,1.13,1.13,0,0,1,.11.51,1,1,0,0,1-.27.71,1.3,1.3,0,0,1-.7.35L116,96.08h-.68l-1-1.78h-.6Zm0-2.24h.65a2,2,0,0,0,.36,0,.82.82,0,0,0,.3-.11.48.48,0,0,0,.2-.2.68.68,0,0,0,0-.6.5.5,0,0,0-.19-.19.83.83,0,0,0-.29-.11,1.87,1.87,0,0,0-.34,0h-.69Z"/><path class="cls-1" d="M121.21,92.83a.78.78,0,0,0-.32-.27.94.94,0,0,0-.45-.11,1.35,1.35,0,0,0-.28,0,.64.64,0,0,0-.25.12.58.58,0,0,0-.18.2.54.54,0,0,0-.07.29.61.61,0,0,0,.06.28.52.52,0,0,0,.18.18.9.9,0,0,0,.26.13l.32.11.41.14a2.32,2.32,0,0,1,.38.21,1.09,1.09,0,0,1,.27.33,1,1,0,0,1,.11.49,1.16,1.16,0,0,1-.42.92,1.35,1.35,0,0,1-.45.22,1.75,1.75,0,0,1-.51.07,1.79,1.79,0,0,1-.73-.14,1.43,1.43,0,0,1-.59-.44l.44-.36a1.07,1.07,0,0,0,.37.33,1,1,0,0,0,.52.13.9.9,0,0,0,.28,0,.68.68,0,0,0,.26-.12,1,1,0,0,0,.19-.21.74.74,0,0,0,.07-.31.56.56,0,0,0-.08-.3.8.8,0,0,0-.2-.21,2.09,2.09,0,0,0-.3-.14l-.37-.12-.38-.14a1.15,1.15,0,0,1-.33-.21.92.92,0,0,1-.24-.31,1.09,1.09,0,0,1-.09-.47,1,1,0,0,1,.12-.51,1.26,1.26,0,0,1,.76-.56,2.07,2.07,0,0,1,.49-.07,1.76,1.76,0,0,1,.66.13,1.25,1.25,0,0,1,.49.33Z"/></svg>