<svg id="Capa_1" data-name="Capa 1" xmlns="http://www.w3.org/2000/svg" viewBox="0 0 187.77 109.11"><defs><style>.cls-1{fill:#fff;}</style></defs><path class="cls-1" d="M118.51,46.29c.35.62.67,1.12.94,1.64,1.08,2.14,2.14,4.29,3.22,6.43.36.69.79,1.36,1.19,2a7,7,0,0,0,5.69,3.41,4,4,0,0,1,.62.08,1.71,1.71,0,0,1,.4.32c-.15.08-.3.17-.46.24a.88.88,0,0,1-.23,0c-2.82,0-5.64,0-8.47,0a1,1,0,0,1-1-.57q-2.17-4.14-4.39-8.28c-.77-1.43-1.57-2.85-2.34-4.29a1.22,1.22,0,0,0-1.21-.7c-2.47,0-5,0-7.43,0-.52,0-.7.17-.69.7,0,3.17,0,6.34,0,9.51,0,1.76.55,2.44,2.26,2.78.75.15,1.52.19,2.27.32.11,0,.2.2.29.31-.11.07-.22.2-.34.2H95.25a1.07,1.07,0,0,1-.4,0,2.63,2.63,0,0,1-.41-.27c.13-.09.24-.24.37-.27.72-.12,1.45-.18,2.16-.33a2.35,2.35,0,0,0,2.1-2.48c0-.31,0-.61,0-.92,0-6.24,0-12.48,0-18.72,0-2.77-.74-3.36-3.43-3.7-.32,0-.65-.06-1-.13-.1,0-.18-.16-.26-.24.1-.09.18-.22.3-.26a1.75,1.75,0,0,1,.46,0c3.24,0,6.49,0,9.73,0,3.8,0,7.6,0,11.4.11a17.52,17.52,0,0,1,7.12,1.66c4.26,2,3.81,6.18,1.89,8.43a6,6,0,0,1-2.6,1.84c-1.11.37-2.25.61-3.38.91Zm-8.2-.92v.07c2.09-.08,4.18-.06,6.26-.27,3.11-.32,4.89-2.28,5.07-5.66a4.19,4.19,0,0,0-1.07-3,6.75,6.75,0,0,0-5.33-2.41c-3.43-.06-6.86-.09-10.3-.15-.49,0-.62.19-.62.65q0,5.07,0,10.13c0,.52.2.66.69.66C106.78,45.36,108.55,45.37,110.31,45.37Z"/><path class="cls-1" d="M72.49,61c-4.23,0-7.7-.63-10.89-2.38a12,12,0,0,1-6.31-9.47,16.29,16.29,0,0,1,.58-7.34,11.92,11.92,0,0,1,7.47-7.7,23.76,23.76,0,0,1,17.59.17c4.61,1.86,7.08,5.43,7.74,10.31A15.23,15.23,0,0,1,87.94,52c-1.58,4.28-4.77,6.74-9,8a23.46,23.46,0,0,1-3.21.67C74.43,60.85,73.15,60.91,72.49,61ZM83,46.72c-.07-1.11-.09-2.22-.23-3.32a17.73,17.73,0,0,0-.56-2.7,9.13,9.13,0,0,0-6.83-6.91A14.6,14.6,0,0,0,70,33.52c-4,.51-6.86,2.6-8.11,6.51a21.86,21.86,0,0,0-.07,13.2,8.83,8.83,0,0,0,6.92,6.51,14.69,14.69,0,0,0,6.05.1,8.94,8.94,0,0,0,7.14-6.05A20.45,20.45,0,0,0,83,46.72Z"/><path class="cls-1" d="M148.62,60.45H135.31a1.69,1.69,0,0,1-.45,0c-.12,0-.2-.18-.3-.27.08-.08.15-.23.25-.25.49-.09,1-.14,1.48-.22.32-.05.65-.09,1-.17a2.29,2.29,0,0,0,1.93-2.5c0-2.43,0-4.87,0-7.31V36.93c0-2-.64-2.73-2.6-3.06-.55-.09-1.11-.13-1.65-.24-.14,0-.25-.2-.38-.3.14-.07.26-.16.41-.22a.88.88,0,0,1,.28,0h23.91c.52,0,.78-.18.85-.7a1.78,1.78,0,0,1,.16-.6c.09-.17.27-.45.36-.43a.93.93,0,0,1,.56.38c.58,1.1,1.12,2.23,1.67,3.34.76,1.53,1.53,3.06,2.28,4.59.29.58.11,1-.41.92a1.14,1.14,0,0,1-.6-.39c-.88-.95-1.71-2-2.64-2.88a12.87,12.87,0,0,0-9.17-3.51c-2.38,0-4.76,0-7.14-.05-.46,0-.64.17-.64.65,0,3.44,0,6.87,0,10.31,0,.52.19.66.68.66,2.38,0,4.77.07,7.14,0a16,16,0,0,0,3.64-.77c1.09-.33,1.41-1.31,1.58-2.34.05-.34.07-.69.15-1,0-.13.21-.21.32-.32.09.12.25.22.27.35a3.17,3.17,0,0,1,0,.69c0,3.17,0,6.34,0,9.5a.59.59,0,0,1-.3.47c-.34.07-.29-.22-.33-.45a17.86,17.86,0,0,0-.48-2.42,3.3,3.3,0,0,0-3.34-2.27c-2.93-.1-5.87-.09-8.8-.14-.41,0-.54.18-.54.56q0,5.73,0,11.46c0,.37.15.54.51.53h1c2.88,0,5.76,0,8.63,0a11.49,11.49,0,0,0,8.94-4.65c.5-.62,1-1.28,1.43-1.94a.71.71,0,0,1,1-.26.63.63,0,0,1,.3.92L163,60.07c-.18.37-.5.41-.87.4H148.62Z"/><path class="cls-1" d="M41.76,35.25c.29-.7.55-1.4.86-2.07a.81.81,0,0,1,.51-.42c.12,0,.36.23.43.41,1.29,3.54,2.57,7.1,3.85,10.65.1.26.21.58-.18.64a.76.76,0,0,1-.62-.28,40.87,40.87,0,0,0-5.25-6.55,13.83,13.83,0,0,0-7.57-4.07c-3.8-.58-8,.75-10.12,4.14a11.76,11.76,0,0,0-1.55,4.78A16,16,0,0,0,23,50.74a11.68,11.68,0,0,0,10.18,7.59A15.09,15.09,0,0,0,41.77,57a11.77,11.77,0,0,0,4.74-4.16s0-.05,0-.05l.6-.23c0,.19.09.43,0,.57a14.79,14.79,0,0,1-4.44,5,15.74,15.74,0,0,1-7,2.64,20.48,20.48,0,0,1-11.2-1.48,12.36,12.36,0,0,1-7.53-10.2,15.26,15.26,0,0,1,1.9-10.26A12.22,12.22,0,0,1,27,33.22a19,19,0,0,1,14.45,1.89A2.44,2.44,0,0,0,41.76,35.25Z"/><path class="cls-1" d="M47.6,70.87c1.21,0,2.36,0,3.51,0A1.73,1.73,0,0,1,52.71,72a1.7,1.7,0,0,1-.56,2,.92.92,0,0,0-.12.16,1.56,1.56,0,0,1,1.06,1.61,1.72,1.72,0,0,1-1.6,1.79c-1.28.08-2.56,0-3.89,0Zm1.17,5.65c.8,0,1.53,0,2.26,0a.81.81,0,0,0,.82-.86c0-.51-.2-.91-.71-1-.77-.06-1.55,0-2.37,0Zm0-4.62v1.72c.69,0,1.34,0,2,0a.79.79,0,0,0,.78-.89.74.74,0,0,0-.76-.82C50.14,71.87,49.49,71.9,48.79,71.9Z"/><path class="cls-1" d="M37.07,74.21a3.51,3.51,0,0,1,7,0,3.37,3.37,0,0,1-3.5,3.47A3.34,3.34,0,0,1,37.07,74.21Zm3.52,2.33a2.18,2.18,0,0,0,2.26-2.35,2.22,2.22,0,0,0-2.3-2.32,2.34,2.34,0,0,0,0,4.67Z"/><path class="cls-1" d="M25.83,71.88,25,72.6a2.49,2.49,0,0,0-3.38-.17,2.54,2.54,0,0,0-.47,2.93,2.26,2.26,0,0,0,2.53,1.15,1.68,1.68,0,0,0,1.43-1.62H23.2v-1h3.18a3,3,0,0,1-1.72,3.5,3.59,3.59,0,0,1-4.51-1.31A3.64,3.64,0,0,1,21,71.38,3.7,3.7,0,0,1,25.83,71.88Z"/><path class="cls-1" d="M82.13,75l1.69,2.49c-.93.31-1.33.18-1.82-.58a10.29,10.29,0,0,1-.77-1.21,1.1,1.1,0,0,0-1.52-.6v2.37a1.13,1.13,0,0,1-.16.11c-1,.11-1,.11-1-.9V70.93c1.27,0,2.5-.09,3.7,0a1.7,1.7,0,0,1,1.5,1.66,1.93,1.93,0,0,1-1.16,2.15ZM79.7,72c0,.58,0,1.07,0,1.56a.43.43,0,0,0,.25.3,16,16,0,0,0,1.83,0c.52-.06.72-.45.7-1a.81.81,0,0,0-.81-.86C81.05,72,80.42,72,79.7,72Z"/><path class="cls-1" d="M163.76,70.9c.19,1,.17,1-.77,1s-1.79,0-2.74,0v1.7h3.41v1.09h-3.42v1.73h3.63v1.08H159V70.9Z"/><path class="cls-1" d="M88.38,74.74a13.22,13.22,0,0,0,0,1.42c0,.12.27.29.42.3.86,0,1.73,0,2.59,0h.66v1H87.24V70.9H92v1c-.26,0-.53,0-.81,0-.79,0-1.57,0-2.36,0-.32,0-.43.12-.44.44-.07,1.27-.08,1.27,1.16,1.27h2.31c0,.18,0,.29,0,.4.08.53-.09.75-.67.72C90.29,74.7,89.37,74.74,88.38,74.74Z"/><path class="cls-1" d="M130.91,71.36l-.45.82c-.88-.12-1.67-.23-2.47-.31a.75.75,0,0,0-.53.17,1.34,1.34,0,0,0-.41.75.9.9,0,0,0,.49.6,13.17,13.17,0,0,0,1.44.36,5.92,5.92,0,0,1,1,.3,1.6,1.6,0,0,1,1.09,1.42,1.7,1.7,0,0,1-.9,1.78,4.36,4.36,0,0,1-1.59.42,4.88,4.88,0,0,1-3-.82L126,76a20.8,20.8,0,0,0,2.13.6,1.9,1.9,0,0,0,1.1-.16,1,1,0,0,0,.49-.73.87.87,0,0,0-.52-.64,11.34,11.34,0,0,0-1.55-.39l-.77-.23A1.5,1.5,0,0,1,125.72,73a1.82,1.82,0,0,1,1-1.83A4.41,4.41,0,0,1,130.91,71.36Z"/><path class="cls-1" d="M117.58,70.89h4.81v1h-3.63a10.74,10.74,0,0,0,0,1.41c0,.12.31.29.48.29,1,0,1.91,0,2.93,0v1.11h-3.35c0,.12-.07.18-.08.23-.11,1.51-.11,1.51,1.38,1.51h2.31a2.32,2.32,0,0,1,.07.37c0,.72,0,.72-.72.72h-3.74c-.28,0-.49,0-.48-.39C117.59,75.11,117.58,73,117.58,70.89Z"/><path class="cls-1" d="M141.52,77.57c.09-.26.14-.43.21-.61.75-1.88,1.53-3.75,2.25-5.64.19-.51.51-.46.89-.46s.71-.06.9.45c.74,1.93,1.53,3.84,2.3,5.75.06.14.1.29.17.51a5.56,5.56,0,0,1-1,0,.74.74,0,0,1-.4-.4c-.53-1.22-.52-1.23-1.85-1.23,0,0,0,0-.06,0-1.09-.19-1.84.11-2,1.32,0,.13-.28.28-.45.31A4.54,4.54,0,0,1,141.52,77.57Zm4.38-2.79c-.33-.89-.65-1.71-1-2.69l-1,2.69Z"/><path class="cls-1" d="M62.67,77.54c-.27,0-.44,0-.61,0-.5.09-.73-.13-.91-.61-.48-1.28-.14-1-1.46-1-.11,0-.23,0-.34,0-1.07-.17-1.79.09-2.06,1.3-.15.7-.83.2-1.39.4.23-.6.41-1.06.59-1.51.64-1.6,1.3-3.19,1.91-4.8.16-.44.42-.48.79-.45s.77-.14,1,.42C61,73.35,61.81,75.4,62.67,77.54Zm-2.35-2.76-1-2.52-.14,0-.95,2.49Z"/><path class="cls-1" d="M101.7,77.56a5.61,5.61,0,0,1-1,0,.76.76,0,0,1-.39-.4c-.52-1.22-.51-1.23-1.87-1.23h-.11c-1.4,0-1.4,0-1.93,1.28-.29.7-.86.22-1.41.42.11-.31.16-.5.23-.68.75-1.87,1.51-3.73,2.23-5.61a.64.64,0,0,1,.77-.47c.39,0,.81-.15,1,.44.74,2,1.54,3.88,2.32,5.82C101.6,77.24,101.63,77.36,101.7,77.56Zm-3.28-5.28h-.14l-1,2.49h2.05Z"/><path class="cls-1" d="M136.24,71.93h-2.19v-1h5.5v1h-2.16v5.59h-1.15Z"/><path class="cls-1" d="M155.71,70.9v1h-2.14v5.52a.7.7,0,0,1-.17.11c-1,.11-1,.11-1-.9v-4c0-.74,0-.74-.76-.75H151c-.94,0-1,0-.77-1Z"/><path class="cls-1" d="M109.57,77.54H105V70.9h1.14v5.56h3.41Z"/><path class="cls-1" d="M30,70.88h1.17v5.53c.3,0,.55.06.8.06.73,0,1.46,0,2.19,0,.43,0,.44.24.44.55s0,.56-.44.56c-1.24,0-2.49,0-3.73,0-.15,0-.41-.19-.41-.3C30,75.15,30,73,30,70.88Z"/><path class="cls-1" d="M66,70.89h1.17V72.5c0,1.14,0,2.27,0,3.4,0,.47.15.6.59.58.92,0,1.84,0,2.77,0l.07.39c.09.53-.08.75-.67.72-1.15,0-2.3,0-3.45,0-.16,0-.45-.2-.45-.32C66,75.14,66,73.05,66,70.89Z"/></svg>