<?xml version="1.0" encoding="utf-8"?>
<!-- Generator: Adobe Illustrator 24.2.0, SVG Export Plug-In . SVG Version: 6.00 Build 0)  -->
<svg version="1.1" id="Capa_1" xmlns="http://www.w3.org/2000/svg" xmlns:xlink="http://www.w3.org/1999/xlink" x="0px" y="0px"
	 viewBox="0 0 136.9 141.5" style="enable-background:new 0 0 136.9 141.5;" xml:space="preserve">
<style type="text/css">
	.st0{fill:#FFFFFF;}
</style>
<g>
	<polygon class="st0" points="11.7,96 11.7,86.4 11.6,86.4 7.4,96 6.6,96 2.5,86.4 2.4,86.4 2.4,96 1.6,96 1.6,85.5 3,85.5 
		7.1,94.9 7.1,94.9 11.2,85.5 12.5,85.5 12.5,96 	"/>
	<polygon class="st0" points="22.7,96 22.7,85.5 29.2,85.5 29,86.2 23.5,86.2 23.5,90.2 28.4,90.2 28.4,91 23.5,91 23.5,95.2 
		29.2,95.2 29.3,96 	"/>
	<polygon class="st0" points="41.8,86.2 41.8,96 41,96 41,86.2 37.5,86.2 37.5,85.5 45.3,85.5 45.3,86.2 	"/>
	<path class="st0" d="M61.6,96c-0.1,0-0.2,0-0.2,0c-0.3,0-0.6-0.1-0.8-0.4c-0.2-0.3-0.4-0.8-0.4-1.6c0-1.2-0.2-2-0.6-2.4
		c-0.4-0.4-0.9-0.6-1.3-0.6h-3.4v5H54V85.5h4.3c0.5,0,1,0.1,1.4,0.3c0.4,0.2,0.8,0.5,1.1,0.9c0.3,0.4,0.4,0.8,0.4,1.4
		c0,0.4-0.1,0.7-0.2,1.1c-0.2,0.4-0.4,0.7-0.7,0.9c-0.3,0.3-0.6,0.4-1,0.5v0.1c0-0.1,0.2,0,0.5,0.2c0.3,0.2,0.6,0.5,0.8,0.9
		c0.2,0.4,0.4,1.1,0.4,1.9c0,0.6,0,1,0.1,1.3c0.1,0.3,0.1,0.4,0.2,0.5c0.1,0.1,0.2,0.2,0.5,0.3v0.3C61.8,96,61.7,96,61.6,96
		 M59.4,90c0.3-0.2,0.6-0.4,0.7-0.7c0.2-0.3,0.3-0.7,0.3-1c0-0.4-0.1-0.7-0.3-1c-0.2-0.3-0.4-0.5-0.7-0.7c-0.3-0.2-0.7-0.3-1-0.3
		h-3.5v4h3.5C58.7,90.2,59,90.1,59.4,90"/>
	<path class="st0" d="M71.6,95c-0.7-0.8-1.1-2.1-1.1-4.1v-0.4c0-1.9,0.4-3.3,1.1-4.1c0.7-0.8,1.7-1.1,3-1.1c1.3,0,2.3,0.4,3,1.1
		c0.7,0.8,1.1,2.1,1.1,4.1v0.4c0,1.9-0.4,3.3-1.1,4.1c-0.7,0.8-1.7,1.1-3,1.1C73.3,96.1,72.3,95.7,71.6,95 M77,94.4
		c0.6-0.6,0.9-1.7,0.9-3.4v-0.8c0-1.6-0.3-2.7-0.9-3.4c-0.6-0.6-1.4-0.9-2.4-0.9c-1,0-1.8,0.3-2.4,0.9c-0.6,0.6-0.9,1.7-0.9,3.4v0.8
		c0,1.6,0.3,2.7,0.9,3.4c0.6,0.6,1.4,0.9,2.4,0.9C75.6,95.4,76.4,95.1,77,94.4"/>
	<polygon class="st0" points="101.3,95.4 98.1,95.4 98.1,88.7 98,88.7 96.2,95.4 92.5,95.4 90.7,88.7 90.6,88.7 90.6,95.4 
		87.7,95.4 87.7,84.9 92.9,84.9 94.4,90.5 94.5,90.5 96,84.9 101.3,84.9 	"/>
	<polygon class="st0" points="117.3,87.3 112.9,87.3 112.9,88.8 117.1,88.8 117.1,91.2 112.9,91.2 112.9,92.9 117.3,92.9 
		117.6,95.4 109.7,95.4 109.7,84.9 117.6,84.9 	"/>
	<polygon class="st0" points="132,89.8 135.3,95.4 131.6,95.4 129.8,92.1 129.7,92.1 128,95.4 124.5,95.4 127.8,89.8 124.8,84.9 
		128.6,84.9 130,87.6 130.1,87.6 131.5,84.9 135,84.9 	"/>
	<polygon class="st0" points="61.4,73.8 65.6,73.8 65.6,62.6 	"/>
	<polygon class="st0" points="78.3,73.8 74.1,73.8 74.1,62.6 	"/>
	<polygon class="st0" points="60.6,45.4 60.6,61.9 67.7,45.4 	"/>
	<polygon class="st0" points="72.2,45.4 79.2,61.9 79.2,45.4 	"/>
</g>
</svg>
