<svg id="Capa_1" data-name="Capa 1" xmlns="http://www.w3.org/2000/svg" viewBox="0 0 640.7 115.45"><defs><style>.cls-1{fill:#fff;}</style></defs><path class="cls-1" d="M132.19,28.71a18.54,18.54,0,0,0,.57,4.71,11.53,11.53,0,0,0,1.64,3.7A7.39,7.39,0,0,0,137,39.46a6.71,6.71,0,0,0,3.31.82,6.92,6.92,0,0,0,5.17-2.35,10,10,0,0,0,2.09-3.82,18.56,18.56,0,0,0,.73-5.42,19.19,19.19,0,0,0-.56-4.81,11.44,11.44,0,0,0-1.61-3.65,7.54,7.54,0,0,0-2.53-2.32,6.78,6.78,0,0,0-3.33-.81,6.69,6.69,0,0,0-3.31.82,7.46,7.46,0,0,0-2.53,2.36,11.65,11.65,0,0,0-1.63,3.7,18.53,18.53,0,0,0-.57,4.73m-4.36.12a12.24,12.24,0,0,1,1-4.79,12.38,12.38,0,0,1,6.67-6.67,12.21,12.21,0,0,1,4.76-.94,12,12,0,0,1,6.21,1.67A12.45,12.45,0,0,1,151,22.62a12.1,12.1,0,0,1,1.67,6.21,12.38,12.38,0,0,1-.94,4.75,12.2,12.2,0,0,1-2.68,4,12.58,12.58,0,0,1-4,2.69,11.86,11.86,0,0,1-4.75,1,12.36,12.36,0,0,1-12.46-12.38"/><path class="cls-1" d="M167.76,27.53h3.1a8.9,8.9,0,0,0,3.86-.61,3.78,3.78,0,0,0,1.65-1.66,5.52,5.52,0,0,0,.59-2.61,5.34,5.34,0,0,0-.7-2.73A4.77,4.77,0,0,0,174.31,18a6.06,6.06,0,0,0-2.86-.66c-1.59,0-2.67.49-3.22,1.48a5.82,5.82,0,0,0-.47,2.67Zm0,.69v7.11a9.24,9.24,0,0,0,.19,2.21,2.9,2.9,0,0,0,.7,1.3,4.64,4.64,0,0,0,2.73,1.23v.54h-11v-.54a4.07,4.07,0,0,0,2.71-1.44,5.68,5.68,0,0,0,.66-3.3V22.27a11,11,0,0,0-.17-2.28,2.72,2.72,0,0,0-.64-1.21,4.52,4.52,0,0,0-2.56-1.25V17h.43l1.52.09c.61,0,1.32,0,2.13,0q1.92,0,3.48-.15l2.42-.21c.76-.07,1.51-.1,2.25-.1a14.55,14.55,0,0,1,3.65.41A8.33,8.33,0,0,1,179,18.29a5.46,5.46,0,0,1,1.71,1.91,5.27,5.27,0,0,1,.61,2.54,4.45,4.45,0,0,1-1.6,3.64A8.33,8.33,0,0,1,175,27.91,9.74,9.74,0,0,1,178.24,30a24.92,24.92,0,0,1,3.19,4.32,33.83,33.83,0,0,0,3.3,4.67,7,7,0,0,0,2.68,1.87v.48A16,16,0,0,1,184.2,41a9.14,9.14,0,0,1-2.63-1.11,13.14,13.14,0,0,1-3.1-2.75,18.79,18.79,0,0,1-2.54-4L175,31.25a10,10,0,0,0-1.16-2,2.51,2.51,0,0,0-1.19-.84,6.3,6.3,0,0,0-1.89-.23Z"/><path class="cls-1" d="M213.65,17.26l2,6.17h-.59a17.57,17.57,0,0,0-1.77-2.82,10,10,0,0,0-1.94-1.91,7.13,7.13,0,0,0-2.15-1.08,8.9,8.9,0,0,0-2.58-.35,9.26,9.26,0,0,0-3.8.78,8.93,8.93,0,0,0-3.06,2.2,10,10,0,0,0-2,3.35,11.9,11.9,0,0,0-.72,4.17,14.14,14.14,0,0,0,1.33,6.15A10.84,10.84,0,0,0,202,38.28a9,9,0,0,0,5.17,1.58,8.78,8.78,0,0,0,3.65-.76,9.28,9.28,0,0,0,3-2.2,13.29,13.29,0,0,0,2.32-3.61h.71a11.84,11.84,0,0,1-4.38,5.82,13.87,13.87,0,0,1-15.31-.68,11.79,11.79,0,0,1-2.32-2.63,12.27,12.27,0,0,1-1.45-3.23A13.2,13.2,0,0,1,193,29a11.86,11.86,0,0,1,1.74-6.3,12.27,12.27,0,0,1,4.79-4.49,14.09,14.09,0,0,1,6.75-1.63,24.61,24.61,0,0,1,4.1.45,15.84,15.84,0,0,0,2.56.33,5.23,5.23,0,0,0,.75-.07"/><path class="cls-1" d="M225.09,40.61v-.54a4.07,4.07,0,0,0,2.71-1.44,5.68,5.68,0,0,0,.66-3.3V22.27a11,11,0,0,0-.17-2.28,2.72,2.72,0,0,0-.64-1.21,4.23,4.23,0,0,0-2.56-1.25V17h10.77v.53A4.17,4.17,0,0,0,233.13,19a2.88,2.88,0,0,0-.5,1.2,10.38,10.38,0,0,0-.16,2.1v5.78h12.16V22.27a11,11,0,0,0-.17-2.28,2.72,2.72,0,0,0-.64-1.21,4.23,4.23,0,0,0-2.56-1.25V17H252v.53A4.17,4.17,0,0,0,249.3,19a2.88,2.88,0,0,0-.5,1.2,11.17,11.17,0,0,0-.16,2.1V35.33a9.5,9.5,0,0,0,.19,2.22,2.83,2.83,0,0,0,.64,1.27A4.18,4.18,0,0,0,252,40.07v.54H241.26v-.54A4.07,4.07,0,0,0,244,38.63a5.68,5.68,0,0,0,.66-3.3V28.84H232.47v6.49a9.5,9.5,0,0,0,.19,2.22,2.83,2.83,0,0,0,.64,1.27,4.18,4.18,0,0,0,2.56,1.25v.54Z"/><path class="cls-1" d="M259.6,40.61v-.54a4.09,4.09,0,0,0,2.72-1.44,5.68,5.68,0,0,0,.66-3.3V22.27A10.22,10.22,0,0,0,262.8,20a2.53,2.53,0,0,0-.64-1.21,4.2,4.2,0,0,0-2.56-1.25V17h10.78v.53A4.12,4.12,0,0,0,267.65,19a3,3,0,0,0-.51,1.2,11.32,11.32,0,0,0-.15,2.1V35.33a10.21,10.21,0,0,0,.18,2.22,2.85,2.85,0,0,0,.65,1.27,4.18,4.18,0,0,0,2.56,1.25v.54Z"/><path class="cls-1" d="M285.42,21.23l0,13.37a9.72,9.72,0,0,0,.39,3.24,2.91,2.91,0,0,0,1.29,1.44,4.43,4.43,0,0,0,2.19.51,8.2,8.2,0,0,0,3.67-.82,8.78,8.78,0,0,0,2.93-2.35A10.88,10.88,0,0,0,297.77,33a14.93,14.93,0,0,0,.66-4.5,13.24,13.24,0,0,0-1.17-5.67A9.47,9.47,0,0,0,294,18.89a8.06,8.06,0,0,0-4.65-1.43,4.23,4.23,0,0,0-3,.91,3.78,3.78,0,0,0-1,2.86M278,40.61l.05-.54a4.09,4.09,0,0,0,2.72-1.44,5.78,5.78,0,0,0,.65-3.3V22.27a11.06,11.06,0,0,0-.16-2.22,2.8,2.8,0,0,0-.65-1.27A4.23,4.23,0,0,0,278,17.53V17l.68,0,2,.11c.66,0,1.36.05,2.11.05,1.35,0,2.81-.07,4.39-.21s2.55-.17,3.25-.17a14,14,0,0,1,5,.85,11.38,11.38,0,0,1,3.9,2.45,10.92,10.92,0,0,1,2.55,3.79,13.34,13.34,0,0,1,0,9.71,10.48,10.48,0,0,1-2.64,3.82,11.78,11.78,0,0,1-4.1,2.43,15.59,15.59,0,0,1-5.3.85c-.72,0-1.86-.07-3.43-.21-1.1-.1-2.18-.15-3.23-.15-.74,0-1.56,0-2.46.07l-2.35.17a3.32,3.32,0,0,0-.43,0"/><path class="cls-1" d="M324,40.61v-.54a4.07,4.07,0,0,0,2.71-1.44,5.68,5.68,0,0,0,.66-3.3V22.27a11,11,0,0,0-.17-2.28,2.72,2.72,0,0,0-.64-1.21A4.23,4.23,0,0,0,324,17.53V17h10.77v.53A4.17,4.17,0,0,0,332.08,19a2.88,2.88,0,0,0-.5,1.2,10.38,10.38,0,0,0-.16,2.1v5.78h12.16V22.27a11,11,0,0,0-.17-2.28,2.72,2.72,0,0,0-.64-1.21,4.23,4.23,0,0,0-2.56-1.25V17H351v.53A4.17,4.17,0,0,0,348.25,19a2.88,2.88,0,0,0-.5,1.2,10.38,10.38,0,0,0-.16,2.1V35.33a9.5,9.5,0,0,0,.19,2.22,2.83,2.83,0,0,0,.64,1.27A4.18,4.18,0,0,0,351,40.07v.54H340.21v-.54a4.07,4.07,0,0,0,2.71-1.44,5.68,5.68,0,0,0,.66-3.3V28.84H331.42v6.49a10.21,10.21,0,0,0,.18,2.22,2.85,2.85,0,0,0,.65,1.27,4.18,4.18,0,0,0,2.56,1.25v.54Z"/><path class="cls-1" d="M363.5,28.71a18.54,18.54,0,0,0,.57,4.71,11.53,11.53,0,0,0,1.63,3.7,7.48,7.48,0,0,0,2.56,2.34,6.74,6.74,0,0,0,3.31.82,6.93,6.93,0,0,0,5.18-2.35,9.84,9.84,0,0,0,2.08-3.82,18.23,18.23,0,0,0,.73-5.42,18.74,18.74,0,0,0-.56-4.81,11.22,11.22,0,0,0-1.61-3.65,7.42,7.42,0,0,0-2.52-2.32,6.84,6.84,0,0,0-3.33-.81,6.66,6.66,0,0,0-3.31.82,7.49,7.49,0,0,0-2.54,2.36,11.64,11.64,0,0,0-1.62,3.7,18.53,18.53,0,0,0-.57,4.73m-4.36.12a12.06,12.06,0,0,1,1-4.79,12.31,12.31,0,0,1,11.43-7.61,12,12,0,0,1,6.2,1.67,12.37,12.37,0,0,1,4.51,4.52,12,12,0,0,1,1.67,6.21,12.2,12.2,0,0,1-.94,4.75,12.33,12.33,0,0,1-2.67,4,12.58,12.58,0,0,1-4,2.69,11.94,11.94,0,0,1-4.76,1A12.39,12.39,0,0,1,360.8,35a12,12,0,0,1-1.66-6.21"/><path class="cls-1" d="M402.48,17v.53A4.47,4.47,0,0,0,399.57,19a3,3,0,0,0-.56,1.26,10.84,10.84,0,0,0-.15,2.06V32.42a7.7,7.7,0,0,0,1.71,5.31,6.06,6.06,0,0,0,2.34,1.6,7.66,7.66,0,0,0,3,.58,6.69,6.69,0,0,0,3.88-1.12,6.8,6.8,0,0,0,2.46-3.17,12.26,12.26,0,0,0,.66-4.49v-8c0-2-.45-3.37-1.35-4.22a5.11,5.11,0,0,0-2.82-1.34V17h8v.53a4.42,4.42,0,0,0-1.85.94,3.49,3.49,0,0,0-1,1.64,9.18,9.18,0,0,0-.31,2.56v8.44a17.13,17.13,0,0,1-.26,3.39,7.77,7.77,0,0,1-2.84,4.69,9,9,0,0,1-2.81,1.47,11.51,11.51,0,0,1-3.43.5,11.12,11.12,0,0,1-3.59-.56A8.67,8.67,0,0,1,397.77,39a7.76,7.76,0,0,1-1.95-2.57,13.76,13.76,0,0,1-1-5.81V22.27a10.9,10.9,0,0,0-.17-2.22,2.79,2.79,0,0,0-.64-1.27,4.23,4.23,0,0,0-2.56-1.25V17Z"/><path class="cls-1" d="M437.93,17.53l1,5.76h-.59a17.17,17.17,0,0,0-.91-2.45,6.73,6.73,0,0,0-1-1.51,6.33,6.33,0,0,0-4.7-2.09,4.64,4.64,0,0,0-3.12,1,3.33,3.33,0,0,0-1.21,2.65,3.56,3.56,0,0,0,1.58,3,12.55,12.55,0,0,0,1.74,1.05c.61.3,1.58.73,2.89,1.29.9.35,1.66.68,2.29,1a16.4,16.4,0,0,1,1.5.78,11.29,11.29,0,0,1,1.14.8,6.21,6.21,0,0,1,2.41,5.07,6.45,6.45,0,0,1-1.13,3.71,7.62,7.62,0,0,1-3.11,2.61,10.17,10.17,0,0,1-4.41.94,18,18,0,0,1-3.88-.5,30.72,30.72,0,0,1-3.4-1.11l-.49-.17L424,32.75h.52A13.2,13.2,0,0,0,427,37.48a6.69,6.69,0,0,0,5.31,2.71,6.22,6.22,0,0,0,2.79-.6A4.65,4.65,0,0,0,437,38a4.26,4.26,0,0,0,.69-2.39,4.32,4.32,0,0,0-.53-2.16,5.71,5.71,0,0,0-1.75-1.81,18.32,18.32,0,0,0-3.32-1.76c-2-.89-3.28-1.45-3.72-1.69a9.85,9.85,0,0,1-2.09-1.54A5.78,5.78,0,0,1,425,24.8a5.54,5.54,0,0,1-.4-2.08,5.75,5.75,0,0,1,.91-3.13A6.41,6.41,0,0,1,428,17.36a7.58,7.58,0,0,1,3.5-.81,10.33,10.33,0,0,1,2.7.4l1,.27a9.39,9.39,0,0,0,2.47.31Z"/><path class="cls-1" d="M469.05,17l.66,6.43h-.56a8.6,8.6,0,0,0-2.67-4.38,7.18,7.18,0,0,0-4.61-1.41h-1a4.71,4.71,0,0,0-3.21.87,3.86,3.86,0,0,0-.94,2.92v5.88h2.3a6.85,6.85,0,0,0,3.81-.83,4.54,4.54,0,0,0,1.64-3H465v8.75h-.52a8.1,8.1,0,0,0-.92-2.64A3.15,3.15,0,0,0,462,28.35a8.72,8.72,0,0,0-2.84-.37h-2.36v7.49a8.4,8.4,0,0,0,.32,2.62,2.1,2.1,0,0,0,1.13,1.27,5.61,5.61,0,0,0,2.25.36H462a7.75,7.75,0,0,0,4.47-1.45,21.42,21.42,0,0,0,4.58-4.53l.14-.19h.6l-2,7.06H449.37v-.54a4.07,4.07,0,0,0,2.71-1.44,5.68,5.68,0,0,0,.66-3.3V22.27a11,11,0,0,0-.17-2.28,2.72,2.72,0,0,0-.64-1.21,4.23,4.23,0,0,0-2.56-1.25V17Z"/><path class="cls-1" d="M259.7,64.39c0-.73-.06-1.47-.09-2.23l.43.06a2.73,2.73,0,0,0,.41,0,2.83,2.83,0,0,0,.41,0l.43-.06c0,.76-.07,1.5-.09,2.23s-.05,1.47-.05,2.22v3c0,.75,0,1.5.05,2.23s.06,1.45.09,2.16q-.39,0-.84,0t-.84,0q0-1.06.09-2.16c0-.73,0-1.48,0-2.23V68L258,68h-3.59l-1.79,0v1.55c0,.75,0,1.5,0,2.23s.06,1.45.09,2.16q-.39,0-.84,0T251,74q0-1.06.09-2.16c0-.73,0-1.48,0-2.23v-3c0-.75,0-1.5,0-2.22s-.06-1.47-.09-2.23l.43.06a2.83,2.83,0,0,0,.41,0,2.73,2.73,0,0,0,.41,0l.43-.06c0,.76-.06,1.5-.09,2.23s0,1.47,0,2.22v.6l1.79,0H258l1.79,0v-.6c0-.75,0-1.5,0-2.22"/><path class="cls-1" d="M282.29,68.09a7.61,7.61,0,0,0-.36-2.47,4.63,4.63,0,0,0-1-1.71,3.94,3.94,0,0,0-1.51-1,5.27,5.27,0,0,0-1.88-.32,5.21,5.21,0,0,0-1.87.32,3.94,3.94,0,0,0-1.51,1,4.63,4.63,0,0,0-1,1.71,7.61,7.61,0,0,0-.36,2.47,7.51,7.51,0,0,0,.36,2.46,4.6,4.6,0,0,0,1,1.72,4.06,4.06,0,0,0,1.51,1,5.44,5.44,0,0,0,1.87.32,5.5,5.5,0,0,0,1.88-.32,4.06,4.06,0,0,0,1.51-1,4.6,4.6,0,0,0,1-1.72,7.51,7.51,0,0,0,.36-2.46m-11.18,0a6.66,6.66,0,0,1,.48-2.6,5.39,5.39,0,0,1,1.32-1.94,5.78,5.78,0,0,1,2-1.2,8.48,8.48,0,0,1,5.21,0,5.88,5.88,0,0,1,2,1.2,5.39,5.39,0,0,1,1.32,1.94,7.28,7.28,0,0,1,0,5.2,5.27,5.27,0,0,1-1.32,1.93,5.41,5.41,0,0,1-2,1.18,8.9,8.9,0,0,1-5.21,0,5.33,5.33,0,0,1-2-1.18,5.27,5.27,0,0,1-1.32-1.93,6.66,6.66,0,0,1-.48-2.6"/><path class="cls-1" d="M295.64,63.06h-.94l-1,0-.94.06c-.3,0-.58.05-.82.09a2,2,0,0,0,.09-.55,2.29,2.29,0,0,0-.09-.54l2.22.06c.72,0,1.46,0,2.21,0s1.5,0,2.22,0l2.22-.06a2.36,2.36,0,0,0-.09.55,2,2,0,0,0,.09.54c-.25,0-.52-.07-.82-.09l-.95-.06c-.32,0-.65,0-1,0h-.94c0,1.18,0,2.36,0,3.55v3c0,.75,0,1.5,0,2.23s.06,1.45.1,2.16c-.27,0-.55,0-.85,0s-.57,0-.84,0c0-.71.07-1.43.1-2.16s0-1.48,0-2.23v-3c0-1.19,0-2.37-.05-3.55"/><path class="cls-1" d="M310.36,64.36c0-.73-.06-1.46-.09-2.2l1.54.06q.76,0,1.53,0t1.53,0q.76,0,1.53-.06a3.15,3.15,0,0,0,0,.52,2.94,2.94,0,0,0,0,.51l-1-.06-1-.07c-.33,0-.7-.05-1.1-.06s-.88,0-1.45,0c0,.37,0,.72,0,1s0,.71,0,1.13v1.31c0,.42,0,.74,0,1l1.36,0,1.1,0,.92,0,.8-.06a2.33,2.33,0,0,0-.06.53,2.22,2.22,0,0,0,.06.51l-1-.08c-.4,0-.79,0-1.19,0l-1.11,0h-.84c0,.1,0,.21,0,.33v3.77c0,.43,0,.75,0,1h1.2c.44,0,.86,0,1.28,0l1.19-.07a7.63,7.63,0,0,0,1-.13,1.08,1.08,0,0,0-.05.27v.27a1.36,1.36,0,0,0,.05.44l-1.54,0h-3.12l-1.56,0c0-.73.07-1.46.09-2.19s.05-1.47.05-2.22v-3c0-.75,0-1.5-.05-2.23"/><path class="cls-1" d="M326.51,64.39c0-.73-.06-1.47-.1-2.23l.43.06.41,0,.42,0,.43-.06c0,.76-.07,1.5-.1,2.23s0,1.47,0,2.22c0,1.44,0,2.7,0,3.75s0,2,0,2.85q1.22,0,2.34,0a21.54,21.54,0,0,0,2.4-.2,2,2,0,0,0-.09.52,1.54,1.54,0,0,0,.09.46c-.53,0-1.05,0-1.58,0H328l-1.59,0c0-.71.07-1.43.1-2.16s0-1.48,0-2.23v-3c0-.75,0-1.5,0-2.22"/><path class="cls-1" d="M342.69,72.36a2.74,2.74,0,0,0,.56.57,3.23,3.23,0,0,0,.78.42,2.87,2.87,0,0,0,1,.17,2.54,2.54,0,0,0,1-.2,2.39,2.39,0,0,0,.78-.53,2.36,2.36,0,0,0,.48-.79,2.65,2.65,0,0,0,.18-1,1.85,1.85,0,0,0-.41-1.26,3.38,3.38,0,0,0-1-.77,10.38,10.38,0,0,0-1.3-.57,6.83,6.83,0,0,1-1.3-.64,3.49,3.49,0,0,1-1-1,2.84,2.84,0,0,1-.4-1.61,3.34,3.34,0,0,1,.25-1.32,3.14,3.14,0,0,1,.75-1,3.49,3.49,0,0,1,1.18-.67,5.13,5.13,0,0,1,3,0,3.51,3.51,0,0,1,1.12.61,3.12,3.12,0,0,0-.26.62,7.94,7.94,0,0,0-.21.82h-.2a4.59,4.59,0,0,0-.24-.52,2,2,0,0,0-.39-.53,2.45,2.45,0,0,0-.59-.4,1.92,1.92,0,0,0-.83-.16,2.5,2.5,0,0,0-.88.15,2.07,2.07,0,0,0-.71.44,1.9,1.9,0,0,0-.46.68,2.2,2.2,0,0,0-.16.86,1.88,1.88,0,0,0,.4,1.27,3.4,3.4,0,0,0,1,.78,9.6,9.6,0,0,0,1.3.56,7.75,7.75,0,0,1,1.3.61,3.29,3.29,0,0,1,1,.93,2.55,2.55,0,0,1,.41,1.51,4,4,0,0,1-.29,1.5,3.54,3.54,0,0,1-.82,1.23,3.8,3.8,0,0,1-1.32.8,5.19,5.19,0,0,1-1.78.29,4.42,4.42,0,0,1-1.73-.29,4.56,4.56,0,0,1-1.1-.64,4.49,4.49,0,0,0,.21-.71c0-.22.08-.49.11-.82h.21a3,3,0,0,0,.37.63"/><polygon class="cls-1" points="40.55 27.92 66.22 55.56 66.29 55.56 66.29 29.11 66.29 27.92 40.55 27.92"/><polygon class="cls-1" points="25.79 27.92 25.79 29.11 25.79 70.82 37.15 70.82 37.15 28.41 37.15 27.93 25.79 27.92"/><polygon class="cls-1" points="45.3 43.97 45.3 70.82 69.5 70.82 45.36 43.97 45.3 43.97"/><rect class="cls-1" x="21.73" y="79.08" width="1.24" height="11.22" rx="0.3"/><path class="cls-1" d="M25,79.21a.3.3,0,0,1,.3-.29h.4l7.14,9h0V79.39a.31.31,0,0,1,.3-.31h.55a.33.33,0,0,1,.31.31V90.18a.31.31,0,0,1-.31.29h-.28l-7.27-9.19h0V90a.3.3,0,0,1-.3.31h-.56A.31.31,0,0,1,25,90Z"/><path class="cls-1" d="M35.82,79.39a.3.3,0,0,1,.3-.31h.61a.33.33,0,0,1,.31.31v9.84h6.37a.3.3,0,0,1,.3.31V90a.3.3,0,0,1-.3.31H36.12a.3.3,0,0,1-.3-.31Z"/><path class="cls-1" d="M42.56,89.89,47.37,79.1a.29.29,0,0,1,.27-.18h.16a.29.29,0,0,1,.27.18l4.78,10.79a.28.28,0,0,1-.27.42H52a.3.3,0,0,1-.27-.18l-1.17-2.64H44.89l-1.16,2.64a.29.29,0,0,1-.27.18h-.63a.29.29,0,0,1-.27-.42m7.52-3.4c-.78-1.75-1.54-3.51-2.31-5.26h-.13l-2.31,5.26Z"/><path class="cls-1" d="M54,79.21a.3.3,0,0,1,.3-.29h.4l7.14,9h0V79.39a.31.31,0,0,1,.3-.31h.55a.32.32,0,0,1,.3.31V90.18c0,.16-.26.13-.42.13h-.28l-7.15-9h0V90a.31.31,0,0,1-.3.31h-.56A.32.32,0,0,1,54,90Z"/><path class="cls-1" d="M61.87,79.39a.3.3,0,0,1,.28-.31H65.7a5.62,5.62,0,0,1,0,11.23h-3a2.78,2.78,0,0,1-.81-1.11Zm3.58,9.81a4.52,4.52,0,0,0,0-9H63.07v9Z"/><path class="cls-1" d="M72.43,79.22a1.17,1.17,0,0,1,0,2.33,1.17,1.17,0,0,1,0-2.33m0,2.08a.92.92,0,0,0,0-1.83.89.89,0,0,0-.91.9.91.91,0,0,0,.88.93M72,79.84a.06.06,0,0,1,.06-.06h.5a.39.39,0,0,1,.38.41.38.38,0,0,1-.23.36l.14.34a.06.06,0,0,1,0,.09h-.18a.07.07,0,0,1,0,0l-.14-.37h-.17v.34s0,.07-.06.06H72a.06.06,0,0,1-.06-.06Zm.51.49a.14.14,0,0,0,.14-.13.13.13,0,0,0-.13-.14h-.26v.27Z"/><path class="cls-1" d="M22.38,95.56h1.14a2.35,2.35,0,0,1,.64.09,2.13,2.13,0,0,1,.58.3,1.47,1.47,0,0,1,.41.51,1.64,1.64,0,0,1,.16.76,1.58,1.58,0,0,1-.16.74,1.47,1.47,0,0,1-.41.51,1.91,1.91,0,0,1-.58.31,2.37,2.37,0,0,1-.64.1H22.38Zm.47,2.91h.58a1.63,1.63,0,0,0,.55-.09,1.15,1.15,0,0,0,.73-.63,1.29,1.29,0,0,0,.1-.53,1.27,1.27,0,0,0-.1-.54,1.06,1.06,0,0,0-.29-.4,1.23,1.23,0,0,0-.44-.23,1.63,1.63,0,0,0-.55-.09h-.58Z"/><path class="cls-1" d="M28.57,98.46H30.3v.42H28.1V95.56h2.13V96H28.57v1h1.56v.4H28.57Z"/><path class="cls-1" d="M34.17,98.28h0l1-2.72h.5l-1.3,3.32H34l-1.29-3.32h.51Z"/><path class="cls-1" d="M38.69,98.46h1.74v.42h-2.2V95.56h2.13V96H38.69v1h1.57v.4H38.69Z"/><path class="cls-1" d="M43.66,98.46h1.48v.42H43.2V95.56h.46Z"/><path class="cls-1" d="M50.94,97.21a1.83,1.83,0,0,1-.13.71,1.62,1.62,0,0,1-.37.55,1.42,1.42,0,0,1-.56.36,1.78,1.78,0,0,1-.7.13,1.82,1.82,0,0,1-.7-.13,1.46,1.46,0,0,1-.55-.36,1.62,1.62,0,0,1-.37-.55,2,2,0,0,1,0-1.42,1.58,1.58,0,0,1,.37-.54,1.75,1.75,0,0,1,.55-.36,2,2,0,0,1,.7-.12,2,2,0,0,1,.7.12,1.69,1.69,0,0,1,.56.36,1.58,1.58,0,0,1,.37.54A1.83,1.83,0,0,1,50.94,97.21Zm-.5,0a1.44,1.44,0,0,0-.09-.51,1.27,1.27,0,0,0-.25-.42,1.18,1.18,0,0,0-.4-.29,1.21,1.21,0,0,0-.52-.11,1.27,1.27,0,0,0-.52.11,1.24,1.24,0,0,0-.39.29,1.27,1.27,0,0,0-.25.42,1.44,1.44,0,0,0-.09.51,1.46,1.46,0,0,0,.09.52,1.22,1.22,0,0,0,.25.43,1.15,1.15,0,0,0,.4.28,1.19,1.19,0,0,0,.51.1,1.24,1.24,0,0,0,.52-.1,1.15,1.15,0,0,0,.4-.28,1.22,1.22,0,0,0,.25-.43A1.46,1.46,0,0,0,50.44,97.21Z"/><path class="cls-1" d="M53.73,95.56h1a2.46,2.46,0,0,1,.49,0,1.26,1.26,0,0,1,.37.17.85.85,0,0,1,.24.29.86.86,0,0,1,.08.41.94.94,0,0,1-.09.43.78.78,0,0,1-.25.29,1.46,1.46,0,0,1-.38.17,2.44,2.44,0,0,1-.48,0h-.53v1.46h-.46ZM54.19,97h.49A1.58,1.58,0,0,0,55,97a.87.87,0,0,0,.24-.1.49.49,0,0,0,.16-.16.53.53,0,0,0,.06-.26.45.45,0,0,0-.22-.41A.85.85,0,0,0,55,96a1.55,1.55,0,0,0-.31,0h-.5Z"/><path class="cls-1" d="M59.13,98.46h1.73v.42H58.67V95.56h2.12V96H59.13v1H60.7v.4H59.13Z"/><path class="cls-1" d="M64.1,98.88h-.46V95.56H64.7a2.14,2.14,0,0,1,.45,0,1.09,1.09,0,0,1,.38.16.78.78,0,0,1,.26.28.94.94,0,0,1,.09.43.81.81,0,0,1-.23.59,1,1,0,0,1-.58.28L66,98.88h-.56L64.6,97.4h-.5Zm0-1.87h.53a1.55,1.55,0,0,0,.31,0,.5.5,0,0,0,.24-.09.44.44,0,0,0,.17-.16.55.55,0,0,0,0-.5.41.41,0,0,0-.16-.16A.85.85,0,0,0,65,96a1.27,1.27,0,0,0-.28,0H64.1Z"/><path class="cls-1" d="M70.31,96.17a.71.71,0,0,0-.26-.22.81.81,0,0,0-.38-.08.91.91,0,0,0-.23,0,.67.67,0,0,0-.21.09.8.8,0,0,0-.15.17.48.48,0,0,0-.06.24.41.41,0,0,0,.06.23.52.52,0,0,0,.14.16.9.9,0,0,0,.22.1l.26.09.34.12a1.23,1.23,0,0,1,.32.17,1.18,1.18,0,0,1,.23.27,1,1,0,0,1,.08.41,1,1,0,0,1-.09.45.88.88,0,0,1-.26.31,1,1,0,0,1-.36.19,1.59,1.59,0,0,1-.43.06,1.62,1.62,0,0,1-.61-.12,1.15,1.15,0,0,1-.48-.36l.36-.31a.77.77,0,0,0,.31.28.79.79,0,0,0,.43.11l.23,0a.68.68,0,0,0,.21-.1.55.55,0,0,0,.16-.18A.49.49,0,0,0,70.2,98a.46.46,0,0,0-.06-.25.58.58,0,0,0-.17-.18l-.25-.12-.31-.1-.31-.11a1.61,1.61,0,0,1-.28-.17.83.83,0,0,1-.19-.26.9.9,0,0,1-.08-.39.93.93,0,0,1,.1-.42,1,1,0,0,1,.27-.3,1.09,1.09,0,0,1,.36-.17,1.92,1.92,0,0,1,.41,0,1.37,1.37,0,0,1,.54.1,1,1,0,0,1,.41.28Z"/><path class="cls-1" d="M589.05,55.62c.28.48.53.86.73,1.27.84,1.65,1.66,3.32,2.5,5,.28.54.61,1.06.92,1.58a5.44,5.44,0,0,0,4.4,2.65,1.91,1.91,0,0,1,.48.06,1.18,1.18,0,0,1,.31.24l-.35.19a.54.54,0,0,1-.18,0c-2.19,0-4.37,0-6.55,0a.79.79,0,0,1-.8-.44c-1.12-2.14-2.26-4.28-3.4-6.41-.59-1.11-1.21-2.21-1.81-3.32a1,1,0,0,0-.93-.55c-1.92,0-3.84,0-5.75,0-.41,0-.55.14-.54.55,0,2.45,0,4.9,0,7.35,0,1.37.43,1.89,1.75,2.16.58.11,1.18.15,1.76.24.09,0,.15.16.23.25-.09,0-.18.15-.27.15H571.05a.81.81,0,0,1-.31,0,1.21,1.21,0,0,1-.31-.21c.09-.07.18-.18.28-.2.56-.1,1.12-.14,1.67-.26A1.84,1.84,0,0,0,574,64c0-.24,0-.48,0-.72,0-4.83,0-9.66,0-14.49,0-2.14-.58-2.59-2.66-2.86-.25,0-.5,0-.75-.1-.07,0-.13-.12-.2-.19.08-.07.14-.17.23-.2a1.43,1.43,0,0,1,.36,0h7.53c3,0,5.89,0,8.83.09a13.49,13.49,0,0,1,5.51,1.29,4,4,0,0,1,1.47,6.52,4.61,4.61,0,0,1-2,1.42c-.86.29-1.74.48-2.62.71Zm-6.31-.71V55c1.63-.06,3.27-.06,4.89-.22a4.26,4.26,0,0,0,3.76-5.23,4.31,4.31,0,0,0-3.47-3.15,13,13,0,0,0-2.57-.26c-2.27,0-4.54,0-6.81,0-.37,0-.46.15-.46.48q0,3.95,0,7.89c0,.39.16.48.51.48Z"/><path class="cls-1" d="M553.44,67a17.36,17.36,0,0,1-8.31-1.77,9.31,9.31,0,0,1-5-7.44,12.51,12.51,0,0,1,.47-5.67,9.18,9.18,0,0,1,5.72-5.91,18.4,18.4,0,0,1,13.61.08,9.35,9.35,0,0,1,6,7.95,12,12,0,0,1-.55,5.84,9.8,9.8,0,0,1-7,6.17,18.83,18.83,0,0,1-2.48.52C555,66.89,554,66.93,553.44,67Zm8.1-11.14a14.42,14.42,0,0,0-.73-5.08,7,7,0,0,0-5.11-4.82,12.33,12.33,0,0,0-4.11-.23,7.15,7.15,0,0,0-6.42,5.17,17.21,17.21,0,0,0,0,10,6.87,6.87,0,0,0,5.36,5.1,11.38,11.38,0,0,0,4.72.07,6.88,6.88,0,0,0,5.45-4.53A15.23,15.23,0,0,0,561.54,55.84Z"/><path class="cls-1" d="M612.38,66.58h-10.3a1.36,1.36,0,0,1-.35,0,.76.76,0,0,1-.25-.19c.07-.07.14-.2.22-.21.38-.08.77-.11,1.15-.17a8,8,0,0,0,.82-.17,1.69,1.69,0,0,0,1.38-1.74c0-1.82,0-3.63,0-5.44V48.3c0-1.39-.42-1.92-1.79-2.24-.5-.11-1-.15-1.53-.24-.1,0-.18-.14-.27-.22a3,3,0,0,1,.3-.18c.05,0,.12,0,.17,0H620.5c.4,0,.63-.11.68-.52a1.05,1.05,0,0,1,.11-.43,3,3,0,0,1,.32-.41c.15.13.35.22.43.38.43.8.82,1.62,1.22,2.43.59,1.17,1.17,2.34,1.75,3.51.12.25.37.54,0,.78s-.55,0-.77-.28a35.32,35.32,0,0,0-2.46-2.58A9.93,9.93,0,0,0,615,46l-5.35,0c-.33,0-.51.1-.51.49,0,2.67,0,5.35,0,8,0,.34.11.49.46.48,1.91,0,3.81.06,5.71,0a11.53,11.53,0,0,0,2.64-.57,2,2,0,0,0,1.28-1.82c0-.25,0-.51.11-.75s.16-.2.24-.3l.24.34s0,.08,0,.13c0,2.57,0,5.14,0,7.71a.44.44,0,0,1-.22.34c-.25.06-.25-.14-.27-.34a13.15,13.15,0,0,0-.22-1.4A2.61,2.61,0,0,0,616.42,56c-2.3-.09-4.6-.07-6.9-.11-.3,0-.39.14-.39.41q0,4.44,0,8.88c0,.35.16.43.47.43,1,0,1.93,0,2.89,0,1.3,0,2.59,0,3.88,0a9.08,9.08,0,0,0,5.91-2,15.17,15.17,0,0,0,2.67-3c.1-.14.26-.33.41-.34a.71.71,0,0,1,.57.21.69.69,0,0,1,0,.61c-.81,1.73-1.64,3.46-2.46,5.19a.65.65,0,0,1-.68.37H612.38Z"/><path class="cls-1" d="M529.65,47.07c.22-.55.42-1.09.66-1.61a.64.64,0,0,1,.4-.32c.09,0,.28.19.33.33,1,2.73,2,5.46,3,8.2.06.19.19.39-.09.54s-.43-.06-.56-.26a30.11,30.11,0,0,0-4-5,10.35,10.35,0,0,0-5.82-3.13c-3.14-.42-5.85.36-7.77,3a8.45,8.45,0,0,0-1.32,4,12.25,12.25,0,0,0,.7,6.17,9,9,0,0,0,7.9,5.92,11.7,11.7,0,0,0,6.64-1,9.13,9.13,0,0,0,3.67-3.22c.08-.11.22-.26.32-.26.28,0,.35.19.2.47a11.51,11.51,0,0,1-4.19,4.35,13.14,13.14,0,0,1-6,1.7,15.17,15.17,0,0,1-8.11-1.62,9.48,9.48,0,0,1-5.1-7.5,11.71,11.71,0,0,1,1.69-8.32,9.48,9.48,0,0,1,6.1-4A14.69,14.69,0,0,1,529.41,47,1.45,1.45,0,0,0,529.65,47.07Z"/><path class="cls-1" d="M534.15,79.79V74.64h2.52a1.37,1.37,0,0,1,.92,2.5,1.25,1.25,0,0,1,.82,1.27,1.3,1.3,0,0,1-1.16,1.36C536.24,79.84,535.21,79.79,534.15,79.79Zm.93-.77c.6,0,1.18,0,1.75,0a.71.71,0,0,0,0-1.41c-.58,0-1.16,0-1.77,0Zm0-3.58c0,.39,0,.73,0,1.06a.38.38,0,0,0,.25.27,10.93,10.93,0,0,0,1.28,0,.64.64,0,0,0,.64-.7.59.59,0,0,0-.61-.63C536.12,75.42,535.62,75.44,535.05,75.44Z"/><path class="cls-1" d="M526,77.21a2.56,2.56,0,0,1,2.69-2.68,2.71,2.71,0,1,1,0,5.41A2.57,2.57,0,0,1,526,77.21ZM528.74,79a1.81,1.81,0,0,0,0-3.62,1.81,1.81,0,0,0,0,3.62Z"/><path class="cls-1" d="M517.31,75.42l-.65.57a1.91,1.91,0,0,0-2.61-.14,2,2,0,0,0-.37,2.27,1.75,1.75,0,0,0,2,.89,1.31,1.31,0,0,0,1.11-1.25h-1.47V77h2.45a2.34,2.34,0,0,1-1.32,2.71,2.79,2.79,0,0,1-3.5-1,2.84,2.84,0,0,1,.67-3.65A2.87,2.87,0,0,1,517.31,75.42Z"/><path class="cls-1" d="M560.9,77.81l1.31,1.94c-.84.22-1,.14-1.45-.51-.2-.3-.39-.6-.58-.9-.38-.58-.39-.59-1.17-.45v1.9a2.88,2.88,0,0,1-.35,0c-.56,0-.56,0-.56-.56v-4.1c0-.16,0-.32,0-.5,1,0,1.87-.06,2.78,0A1.36,1.36,0,0,1,562.12,76a1.51,1.51,0,0,1-.87,1.69ZM559,75.51c0,.44,0,.81,0,1.17,0,.1.13.26.21.26a8.28,8.28,0,0,0,1.41,0c.41,0,.55-.36.53-.74a.61.61,0,0,0-.59-.65C560.08,75.49,559.58,75.51,559,75.51Z"/><path class="cls-1" d="M624.18,79.81h-3.76V74.68h3.69c0,.13,0,.26,0,.38,0,.32-.11.41-.41.41-.79,0-1.57,0-2.38,0v1.3H624v.88h-2.64V79h2.82Z"/><path class="cls-1" d="M564.85,74.66h3.68v.8h-1.81c-1.08,0-1.21.19-.91,1.31h2.6c0,.17,0,.3,0,.42,0,.35-.08.47-.44.46-.74,0-1.48,0-2.19,0,0,.08-.06.11-.06.14-.16,1.2-.15,1.2,1,1.21h1.65a.6.6,0,0,1,.14,0v.74h-3.74Z"/><path class="cls-1" d="M594.48,79.27l.39-.67c.57.16,1.1.36,1.65.46a1.4,1.4,0,0,0,.85-.13.74.74,0,0,0,.38-.56.69.69,0,0,0-.4-.5,9.57,9.57,0,0,0-1.2-.3l-.6-.18a1.16,1.16,0,0,1-.91-1.12,1.41,1.41,0,0,1,.75-1.42,3.43,3.43,0,0,1,3.27.17l-.35.64c-.68-.09-1.3-.18-1.91-.24a.6.6,0,0,0-.42.13,1,1,0,0,0-.31.58.65.65,0,0,0,.37.46,8.73,8.73,0,0,0,1.12.28,4.8,4.8,0,0,1,.76.24,1.26,1.26,0,0,1,.86,1.09,1.31,1.31,0,0,1-.71,1.38,3.26,3.26,0,0,1-1.22.33A3.74,3.74,0,0,1,594.48,79.27Z"/><path class="cls-1" d="M588.34,74.66h3.72v.8h-2.72a.46.46,0,0,1-.07.11c-.15,1.21-.15,1.21,1,1.21h1.6v.85h-2.66a10.46,10.46,0,0,0,0,1.13c0,.09.22.21.34.21.67,0,1.34,0,2,0h.52c0,.18,0,.31,0,.43.06.35-.11.43-.43.43-1,0-2,0-3,0-.19,0-.41,0-.41-.26Z"/><path class="cls-1" d="M612.07,79.79l-.19,0c-.77,0-.8,0-1-.68a.72.72,0,0,0-.89-.6,7.94,7.94,0,0,1-1.29,0c-.24,0-.4,0-.46.31a1.72,1.72,0,0,1-.11.29c-.3.77-.3.77-1.2.63a3,3,0,0,1,.1-.32c.59-1.5,1.2-3,1.79-4.49.09-.21.18-.39.44-.33s.69-.21.86.22C610.76,76.48,611.41,78.12,612.07,79.79Zm-3.39-2.14h1.58l-.79-2.05Z"/><path class="cls-1" d="M545.8,79.83a3.88,3.88,0,0,1-.77,0c-.12,0-.25-.18-.3-.31-.4-.94-.39-.94-1.4-.94h-.13c-1.08,0-1.08,0-1.5,1-.24.56-.68.18-1.12.32l.85-2.13c.38-.93.76-1.86,1.12-2.8a.4.4,0,0,1,.51-.29c.28,0,.63-.18.8.26.62,1.57,1.26,3.14,1.89,4.7C545.77,79.66,545.77,79.72,545.8,79.83Zm-2.52-4.08h-.12l-.74,1.93H544Z"/><path class="cls-1" d="M570.85,79.78l1-2.5c.32-.79.64-1.57.93-2.36a.38.38,0,0,1,.48-.28c.27.07.65-.2.82.22L576,79.69s0,.06,0,.14a5.19,5.19,0,0,0-.56,0,.43.43,0,0,1-.5-.33c-.36-1-.37-1-1.38-1h-.14c-1.07,0-1.07,0-1.49,1C571.79,79.88,571.69,79.9,570.85,79.78Zm3.39-2.1-.74-1.94h-.1l-.75,1.94Z"/><path class="cls-1" d="M601.07,75.47v-.79h4.28v.76h-1.68v3.79c0,.63,0,.63-.65.6l-.27,0V75.47Z"/><path class="cls-1" d="M613.63,74.67h4.22v.79h-1.66v4.33l-.42,0c-.38.06-.52-.08-.51-.48,0-1.15,0-2.29,0-3.44,0-.35-.11-.49-.46-.45a5.61,5.61,0,0,1-.58,0C613.51,75.46,613.5,75.46,613.63,74.67Z"/><path class="cls-1" d="M578.6,79.83V74.67h.9V79h2.62c0,.14,0,.22,0,.3.07.42-.07.58-.52.56C580.65,79.81,579.64,79.83,578.6,79.83Z"/><path class="cls-1" d="M520.52,74.66h.92V79h1.7a4.86,4.86,0,0,0,.54,0c.32,0,.4.11.4.41s-.07.46-.42.45c-.92,0-1.84,0-2.76,0-.19,0-.39,0-.39-.28C520.52,77.94,520.52,76.32,520.52,74.66Z"/><path class="cls-1" d="M548.45,74.65h.83V79h2c.76,0,.76,0,.65.85h-3.13c-.2,0-.38,0-.38-.29,0-1.59,0-3.18,0-4.77A.59.59,0,0,1,548.45,74.65Z"/></svg>