<svg id="Capa_1" data-name="Capa 1" xmlns="http://www.w3.org/2000/svg" viewBox="0 0 114.1 141.5"><defs><style>.cls-1{fill:#fff;}</style></defs><path class="cls-1" d="M38.1,48.2H48.9V89H38.1Z"/><path class="cls-1" d="M52.3,48.1H77.1V74.4C68.8,65.7,60.6,57,52.3,48.1Z"/><path class="cls-1" d="M80.2,88.9H56.9V63.3Z"/><path class="cls-1" d="M66.4,99.2v7.6c0,.4,0,.8-.6.8s-.5-.4-.5-.7V97.5a1.08,1.08,0,0,1,.3-.7c.2.1.6.2.7.4,1.9,2.4,3.9,4.8,5.8,7.2a9.68,9.68,0,0,1,.7.9V97.8c0-.9,0-.9.9-.9h2.8a5.36,5.36,0,0,1,5.2,5.5,5.42,5.42,0,0,1-5.1,5.2H73.7a1.37,1.37,0,0,1-.8-.5c-2-2.4-3.9-4.9-5.9-7.3l-.5-.6Zm7.7,7.2a26.13,26.13,0,0,0,2.8,0,4.25,4.25,0,0,0,3.7-4.7A4.21,4.21,0,0,0,78,98.3a24.73,24.73,0,0,0-3.8-.5v8.6Z"/><path class="cls-1" d="M48.9,106.5h5.2c.2,0,.5-.3.6-.6,1.3-2.8,2.6-5.6,3.8-8.5,0-.1.1-.2.1-.3a.51.51,0,0,1,1,0c1.5,3.2,2.9,6.5,4.4,9.7.1.2,0,.4-.1.7-.3-.1-.8-.1-1-.3a14.17,14.17,0,0,1-.8-1.8.87.87,0,0,0-.9-.6H57a.78.78,0,0,0-.9.6,6.53,6.53,0,0,1-.8,1.7,1.13,1.13,0,0,1-.8.5H48.2c-.5,0-.7-.2-.7-.7V97.6c0-.4,0-.7.6-.7s.6.2.6.7v8Zm12.5-2.7-2.2-5-2.2,5Z"/><path class="cls-1" d="M44.9,105V97.5c0-.4.1-.6.6-.6s.6.2.6.6v9.7a1.42,1.42,0,0,1-.2.6,2.51,2.51,0,0,1-.7-.4l-6.1-7.6c-.1-.2-.3-.3-.6-.7v7.8c0,.4,0,.8-.6.8s-.5-.3-.5-.7V97.6a1.85,1.85,0,0,1,.2-.7,4.88,4.88,0,0,1,.7.3c2,2.4,4,4.9,5.9,7.3l.5.6Z"/><path class="cls-1" d="M35.3,102.1v4.7c0,.4,0,.7-.6.7s-.7-.2-.6-.7V97.5c0-.4.1-.7.6-.7s.6.2.6.7Z"/><path class="cls-1" d="M34,114.7v-3.1a.52.52,0,0,1,.2-.4,2.28,2.28,0,0,1,2.5.9,1.73,1.73,0,0,1-.7,2.4,1.45,1.45,0,0,1-.7.2Zm.4-.4c.8,0,1.5.1,1.9-.7a1.36,1.36,0,0,0-.1-1.6,1.53,1.53,0,0,0-1.8-.4Z"/><path class="cls-1" d="M74.6,111.2c.8.1,1.7-.3,2.3.6.4.7,0,1.1-.5,1.6l.6,1.2-.2.2a3,3,0,0,1-.5-.7.83.83,0,0,0-1-.6c-.1,0-.2,0-.2.1l-.1,1.3C74.5,114.3,74.4,113.1,74.6,111.2Zm.4,2a9.38,9.38,0,0,0,1.5-.6c.1,0,0-.6-.1-.7a7.37,7.37,0,0,0-1.4-.4Z"/><path class="cls-1" d="M62.2,113a1.8,1.8,0,1,1-3.6,0,1.77,1.77,0,0,1,1.7-1.8h.1a1.86,1.86,0,0,1,1.8,1.8Zm-.4,0a1.45,1.45,0,0,0-1.5-1.4,1.43,1.43,0,0,0-1.3,1.5,1.37,1.37,0,0,0,1.4,1.4h0A1.52,1.52,0,0,0,61.8,113Z"/><path class="cls-1" d="M51.8,111.5l-1.7.1v1.1l1.4.1v.2l-1.4.1v1.2l1.7.1v.2H49.7v-3.1q0-.15.3-.3h1.9Z"/><path class="cls-1" d="M39.6,114.6v-3a.45.45,0,0,1,.3-.3h1.8v.3l-1.7.1v1.1l1.4.1v.2l-1.4.1v1.2h1.6v.2Z"/><path class="cls-1" d="M71.8,111.5l-1.7.1v1.1l1.4.1v.2l-1.4.1v1.2h1.6v.2H69.6v-3.3h2Z"/><path class="cls-1" d="M65.3,113.5l-.1,1.2H65c0-.3-.1-.6-.1-.9v-1.5c0-.4-.4-1.1.6-1.1s1.7.3,1.7,1.1-.5,1.1-1.2,1.2Zm0-.3c.5-.2.9-.4,1.4-.6a.85.85,0,0,0,0-.7,5.78,5.78,0,0,0-1.4-.5Z"/><path class="cls-1" d="M79.6,114.1a.6.6,0,0,1,.4.1c.4.2,1,.4,1.2-.1s-.4-.7-.7-1c-.2-.1-.5-.2-.6-.4s-.3-.8-.2-1a1.7,1.7,0,0,1,1-.6c.3-.1.6.2.9.3l-.1.3a1.42,1.42,0,0,0-.6-.2,1.49,1.49,0,0,0-.7.3c-.1.1.1.5.3.7s.4.3.6.3c.5.2.9.6.7,1.2a.93.93,0,0,1-1.2.6,3.55,3.55,0,0,1-.9-.4Z"/><path class="cls-1" d="M45.5,114.7,44,111.3l.3-.2,1.3,2.8,1.3-2.8.3.2-1.5,3.4Z"/><path class="cls-1" d="M56.4,114.7H54.6v-3.4h.2c.3,1,0,2,.2,3.1l1.4.1Z"/><path class="cls-1" d="M84.1,98.1A1.1,1.1,0,1,1,83,97h0a1.11,1.11,0,0,1,1.1,1.1Zm-1.3.9h.3a2.07,2.07,0,0,0,.6-1c.1-.4-.4-.9-.9-.8s-.9.3-.8.8.6.7.8,1Z"/><path class="cls-1" d="M83.3,98.5h-.7v-.9C83.5,97.4,83.6,97.5,83.3,98.5Z"/></svg>