<svg id="Capa_1" data-name="Capa 1" xmlns="http://www.w3.org/2000/svg" viewBox="0 0 388.23 177.62"><defs><style>.cls-1{fill:#fff;}</style></defs><path class="cls-1" d="M20.55,28.71a18.1,18.1,0,0,0,.57,4.71,11.53,11.53,0,0,0,1.63,3.7,7.39,7.39,0,0,0,2.56,2.34,6.74,6.74,0,0,0,3.31.82,6.91,6.91,0,0,0,5.17-2.35,9.85,9.85,0,0,0,2.09-3.82,18.23,18.23,0,0,0,.73-5.42,18.74,18.74,0,0,0-.56-4.81,11.22,11.22,0,0,0-1.61-3.65,7.6,7.6,0,0,0-2.52-2.32,6.84,6.84,0,0,0-3.33-.81,6.73,6.73,0,0,0-3.32.82,7.46,7.46,0,0,0-2.53,2.36A11.64,11.64,0,0,0,21.12,24a18.09,18.09,0,0,0-.57,4.73m-4.36.12a12.23,12.23,0,0,1,1-4.79,12.68,12.68,0,0,1,2.69-4,12.47,12.47,0,0,1,4-2.66,12.22,12.22,0,0,1,4.77-.94,12,12,0,0,1,6.2,1.67,12.45,12.45,0,0,1,4.51,4.52,12.42,12.42,0,0,1,.73,11,12.33,12.33,0,0,1-2.67,4,12.81,12.81,0,0,1-4,2.69,11.94,11.94,0,0,1-4.76,1A12.39,12.39,0,0,1,17.85,35a12,12,0,0,1-1.66-6.21"/><path class="cls-1" d="M56.12,27.53h3.09a8.87,8.87,0,0,0,3.86-.61,3.78,3.78,0,0,0,1.65-1.66,5.52,5.52,0,0,0,.6-2.61,5.44,5.44,0,0,0-.7-2.73,4.86,4.86,0,0,0-2-1.88,6,6,0,0,0-2.86-.66c-1.59,0-2.66.49-3.22,1.48a5.84,5.84,0,0,0-.46,2.67Zm0,.69v7.11a9.92,9.92,0,0,0,.18,2.21,2.9,2.9,0,0,0,.7,1.3,4.64,4.64,0,0,0,2.73,1.23v.54h-11v-.54a4.09,4.09,0,0,0,2.72-1.44,5.7,5.7,0,0,0,.65-3.3V22.27A10.36,10.36,0,0,0,51.93,20a2.62,2.62,0,0,0-.64-1.21,4.48,4.48,0,0,0-2.56-1.25V17h.43l1.53.09c.61,0,1.32,0,2.12,0q1.92,0,3.48-.15l2.42-.21c.76-.07,1.51-.1,2.25-.1a14.5,14.5,0,0,1,3.65.41,8.24,8.24,0,0,1,2.71,1.19A5.59,5.59,0,0,1,69,20.2a5.38,5.38,0,0,1,.6,2.54A4.42,4.42,0,0,1,68,26.38a8.33,8.33,0,0,1-4.73,1.53A9.64,9.64,0,0,1,66.59,30a24.41,24.41,0,0,1,3.19,4.32A34.73,34.73,0,0,0,73.08,39a7,7,0,0,0,2.68,1.87v.48a15.76,15.76,0,0,1-3.2-.34,9.08,9.08,0,0,1-2.64-1.11,13.14,13.14,0,0,1-3.1-2.75,19.19,19.19,0,0,1-2.54-4l-.92-1.92a10,10,0,0,0-1.16-2A2.51,2.51,0,0,0,61,28.45a6.27,6.27,0,0,0-1.88-.23Z"/><path class="cls-1" d="M102,17.26l2,6.17h-.59a17.57,17.57,0,0,0-1.77-2.82,9.92,9.92,0,0,0-1.93-1.91,7.29,7.29,0,0,0-2.16-1.08A8.9,8.9,0,0,0,95,17.27a9.29,9.29,0,0,0-3.8.78,8.93,8.93,0,0,0-3.06,2.2,10,10,0,0,0-2,3.35,12.13,12.13,0,0,0-.71,4.17,14,14,0,0,0,1.33,6.15,10.76,10.76,0,0,0,3.66,4.36,9,9,0,0,0,5.16,1.58,8.86,8.86,0,0,0,3.66-.76,9.34,9.34,0,0,0,3-2.2,13.29,13.29,0,0,0,2.32-3.61h.71a11.84,11.84,0,0,1-4.38,5.82,13.85,13.85,0,0,1-15.3-.68,11.59,11.59,0,0,1-2.33-2.63,11.93,11.93,0,0,1-1.44-3.23,12.84,12.84,0,0,1-.51-3.6,11.86,11.86,0,0,1,1.74-6.3,12.34,12.34,0,0,1,4.79-4.49,14.1,14.1,0,0,1,6.76-1.63,24.83,24.83,0,0,1,4.1.45,15.58,15.58,0,0,0,2.56.33,5.1,5.1,0,0,0,.74-.07"/><path class="cls-1" d="M113.44,40.61v-.54a4.07,4.07,0,0,0,2.71-1.44,5.68,5.68,0,0,0,.66-3.3V22.27a11,11,0,0,0-.17-2.28,2.72,2.72,0,0,0-.64-1.21,4.23,4.23,0,0,0-2.56-1.25V17h10.77v.53A4.17,4.17,0,0,0,121.48,19a2.88,2.88,0,0,0-.5,1.2,11.17,11.17,0,0,0-.16,2.1v5.78H133V22.27a10.36,10.36,0,0,0-.17-2.28,2.62,2.62,0,0,0-.64-1.21,4.23,4.23,0,0,0-2.56-1.25V17h10.78v.53A4.17,4.17,0,0,0,137.65,19a3,3,0,0,0-.5,1.2,11.32,11.32,0,0,0-.15,2.1V35.33a10.21,10.21,0,0,0,.18,2.22,2.75,2.75,0,0,0,.65,1.27,4.15,4.15,0,0,0,2.56,1.25v.54H129.61v-.54a4.09,4.09,0,0,0,2.72-1.44,5.78,5.78,0,0,0,.65-3.3V28.84H120.82v6.49a10.09,10.09,0,0,0,.19,2.22,2.75,2.75,0,0,0,.65,1.27,4.12,4.12,0,0,0,2.55,1.25v.54Z"/><path class="cls-1" d="M148,40.61v-.54a4.07,4.07,0,0,0,2.71-1.44,5.68,5.68,0,0,0,.66-3.3V22.27a11,11,0,0,0-.17-2.28,2.72,2.72,0,0,0-.64-1.21A4.23,4.23,0,0,0,148,17.53V17h10.77v.53A4.17,4.17,0,0,0,156,19a2.88,2.88,0,0,0-.5,1.2,10.38,10.38,0,0,0-.16,2.1V35.33a10.21,10.21,0,0,0,.18,2.22,2.85,2.85,0,0,0,.65,1.27,4.18,4.18,0,0,0,2.56,1.25v.54Z"/><path class="cls-1" d="M173.77,21.23l0,13.37a9.41,9.41,0,0,0,.4,3.24,2.85,2.85,0,0,0,1.28,1.44,4.43,4.43,0,0,0,2.19.51,8.2,8.2,0,0,0,3.67-.82,8.68,8.68,0,0,0,2.93-2.35A10.7,10.7,0,0,0,186.12,33a14.93,14.93,0,0,0,.66-4.5,13.24,13.24,0,0,0-1.17-5.67,9.47,9.47,0,0,0-3.25-3.94,8.05,8.05,0,0,0-4.64-1.43,4.26,4.26,0,0,0-3,.91,3.78,3.78,0,0,0-1,2.86M166.3,40.61l0-.54a4.09,4.09,0,0,0,2.72-1.44,5.68,5.68,0,0,0,.66-3.3V22.27a10.9,10.9,0,0,0-.17-2.22,2.71,2.71,0,0,0-.65-1.27,4.2,4.2,0,0,0-2.56-1.25V17l.68,0,2,.11c.66,0,1.36.05,2.11.05,1.35,0,2.81-.07,4.39-.21s2.55-.17,3.26-.17a14,14,0,0,1,5,.85,11.38,11.38,0,0,1,3.9,2.45,10.92,10.92,0,0,1,2.55,3.79,12.57,12.57,0,0,1,.9,4.82,12.79,12.79,0,0,1-.92,4.89,10.63,10.63,0,0,1-2.65,3.82,11.69,11.69,0,0,1-4.1,2.43,15.55,15.55,0,0,1-5.3.85c-.71,0-1.86-.07-3.42-.21q-1.67-.15-3.24-.15c-.74,0-1.55,0-2.45.07l-2.36.17a3.39,3.39,0,0,0-.43,0"/><path class="cls-1" d="M212.39,40.61v-.54a4.07,4.07,0,0,0,2.71-1.44,5.68,5.68,0,0,0,.66-3.3V22.27a11,11,0,0,0-.17-2.28,2.72,2.72,0,0,0-.64-1.21,4.23,4.23,0,0,0-2.56-1.25V17h10.77v.53A4.17,4.17,0,0,0,220.43,19a2.88,2.88,0,0,0-.5,1.2,11.17,11.17,0,0,0-.16,2.1v5.78h12.16V22.27a11,11,0,0,0-.17-2.28,2.72,2.72,0,0,0-.64-1.21,4.23,4.23,0,0,0-2.56-1.25V17h10.78v.53A4.17,4.17,0,0,0,236.6,19a2.88,2.88,0,0,0-.5,1.2,11.32,11.32,0,0,0-.15,2.1V35.33a10.21,10.21,0,0,0,.18,2.22,2.75,2.75,0,0,0,.65,1.27,4.15,4.15,0,0,0,2.56,1.25v.54H228.56v-.54a4.09,4.09,0,0,0,2.72-1.44,5.78,5.78,0,0,0,.65-3.3V28.84H219.77v6.49a9.5,9.5,0,0,0,.19,2.22,2.83,2.83,0,0,0,.64,1.27,4.18,4.18,0,0,0,2.56,1.25v.54Z"/><path class="cls-1" d="M251.85,28.71a18.54,18.54,0,0,0,.57,4.71,11.53,11.53,0,0,0,1.64,3.7,7.36,7.36,0,0,0,2.55,2.34,6.78,6.78,0,0,0,3.32.82,6.92,6.92,0,0,0,5.17-2.35,9.84,9.84,0,0,0,2.08-3.82,18.22,18.22,0,0,0,.74-5.42,18.72,18.72,0,0,0-.57-4.81,11.43,11.43,0,0,0-1.6-3.65,7.54,7.54,0,0,0-2.53-2.32,6.78,6.78,0,0,0-3.33-.81,6.69,6.69,0,0,0-3.31.82,7.37,7.37,0,0,0-2.53,2.36,11.43,11.43,0,0,0-1.63,3.7,18.53,18.53,0,0,0-.57,4.73m-4.36.12a12.06,12.06,0,0,1,1-4.79,12.51,12.51,0,0,1,2.69-4,12.36,12.36,0,0,1,4-2.66,12.18,12.18,0,0,1,4.76-.94,11.94,11.94,0,0,1,6.2,1.67,12.48,12.48,0,0,1,4.52,4.52,12.37,12.37,0,0,1,.72,11,12.33,12.33,0,0,1-2.67,4,12.58,12.58,0,0,1-4,2.69,11.91,11.91,0,0,1-4.76,1A12.39,12.39,0,0,1,249.15,35a12,12,0,0,1-1.66-6.21"/><path class="cls-1" d="M290.83,17v.53A4.47,4.47,0,0,0,287.92,19a3.14,3.14,0,0,0-.56,1.26,10.84,10.84,0,0,0-.15,2.06V32.42a7.7,7.7,0,0,0,1.72,5.31,6.1,6.1,0,0,0,2.33,1.6,7.69,7.69,0,0,0,3,.58,6.67,6.67,0,0,0,3.88-1.12,6.88,6.88,0,0,0,2.47-3.17,12.51,12.51,0,0,0,.65-4.49v-8c0-2-.45-3.37-1.35-4.22a5.11,5.11,0,0,0-2.82-1.34V17h8.05v.53a4.41,4.41,0,0,0-1.86.94,3.39,3.39,0,0,0-1,1.64,8.78,8.78,0,0,0-.32,2.56v8.44a18.05,18.05,0,0,1-.25,3.39,8.47,8.47,0,0,1-.85,2.34,8.09,8.09,0,0,1-2,2.35A8.85,8.85,0,0,1,296,40.66a11.45,11.45,0,0,1-3.42.5A11.08,11.08,0,0,1,289,40.6,8.72,8.72,0,0,1,286.12,39a7.89,7.89,0,0,1-1.95-2.57,13.76,13.76,0,0,1-1-5.81V22.27a11.06,11.06,0,0,0-.16-2.22,2.8,2.8,0,0,0-.65-1.27,4.23,4.23,0,0,0-2.56-1.25V17Z"/><path class="cls-1" d="M326.28,17.53l1,5.76h-.59a16,16,0,0,0-.91-2.45,6.73,6.73,0,0,0-1-1.51,6.12,6.12,0,0,0-2.11-1.54,6.28,6.28,0,0,0-2.59-.55,4.6,4.6,0,0,0-3.11,1,3.3,3.3,0,0,0-1.21,2.65,3.55,3.55,0,0,0,1.57,3,12.55,12.55,0,0,0,1.74,1.05c.61.3,1.58.73,2.89,1.29.9.35,1.67.68,2.29,1a16.4,16.4,0,0,1,1.5.78,11.29,11.29,0,0,1,1.14.8,6.18,6.18,0,0,1,2.41,5.07,6.45,6.45,0,0,1-1.13,3.71,7.55,7.55,0,0,1-3.11,2.61,10.17,10.17,0,0,1-4.41.94,17.85,17.85,0,0,1-3.87-.5,30.77,30.77,0,0,1-3.41-1.11l-.49-.17-.51-6.56h.51a13.2,13.2,0,0,0,2.46,4.73,6.69,6.69,0,0,0,5.31,2.71,6.22,6.22,0,0,0,2.79-.6A4.58,4.58,0,0,0,325.34,38a4.19,4.19,0,0,0,.7-2.39,4.33,4.33,0,0,0-.54-2.16,5.71,5.71,0,0,0-1.75-1.81,18,18,0,0,0-3.32-1.76c-2-.89-3.28-1.45-3.72-1.69a10.11,10.11,0,0,1-2.09-1.54,5.78,5.78,0,0,1-1.23-1.8,5.54,5.54,0,0,1-.39-2.08,5.74,5.74,0,0,1,.9-3.13,6.41,6.41,0,0,1,2.49-2.23,7.62,7.62,0,0,1,3.51-.81,10.31,10.31,0,0,1,2.69.4l1,.27a9.41,9.41,0,0,0,2.48.31Z"/><path class="cls-1" d="M357.4,17l.66,6.43h-.55a8.61,8.61,0,0,0-2.68-4.38,7.18,7.18,0,0,0-4.61-1.41h-1a4.71,4.71,0,0,0-3.21.87,3.82,3.82,0,0,0-.95,2.92v5.88h2.3a6.83,6.83,0,0,0,3.81-.83,4.5,4.5,0,0,0,1.64-3h.52v8.75h-.52a8.1,8.1,0,0,0-.92-2.64,3.15,3.15,0,0,0-1.63-1.28,8.68,8.68,0,0,0-2.84-.37H345.1v7.49a8.4,8.4,0,0,0,.32,2.62,2.1,2.1,0,0,0,1.13,1.27,5.7,5.7,0,0,0,2.26.36h1.59a7.74,7.74,0,0,0,4.46-1.45,21.2,21.2,0,0,0,4.58-4.53l.14-.19h.61l-2,7.06H337.72v-.54a4.07,4.07,0,0,0,2.71-1.44,5.68,5.68,0,0,0,.66-3.3V22.27a11,11,0,0,0-.17-2.28,2.72,2.72,0,0,0-.64-1.21,4.23,4.23,0,0,0-2.56-1.25V17Z"/><path class="cls-1" d="M148.05,64.39c0-.73-.06-1.47-.09-2.23l.43.06a2.83,2.83,0,0,0,.41,0,2.73,2.73,0,0,0,.41,0l.43-.06c0,.76-.06,1.5-.09,2.23s-.05,1.47-.05,2.22v3c0,.75,0,1.5.05,2.23l.09,2.16q-.39,0-.84,0T148,74c0-.71.07-1.43.09-2.16s0-1.48,0-2.23V68l-1.8,0h-3.59l-1.79,0v1.55c0,.75,0,1.5,0,2.23s.06,1.45.1,2.16c-.27,0-.55,0-.85,0s-.57,0-.84,0c0-.71.07-1.43.1-2.16s0-1.48,0-2.23v-3c0-.75,0-1.5,0-2.22s-.06-1.47-.1-2.23l.43.06.41,0a3,3,0,0,0,.42,0l.43-.06c0,.76-.07,1.5-.1,2.23s0,1.47,0,2.22v.6l1.79,0h3.59l1.8,0v-.6c0-.75,0-1.5,0-2.22"/><path class="cls-1" d="M170.65,68.09a7.61,7.61,0,0,0-.36-2.47,4.65,4.65,0,0,0-1-1.71,3.94,3.94,0,0,0-1.51-1,5.27,5.27,0,0,0-1.88-.32,5.16,5.16,0,0,0-1.86.32,4,4,0,0,0-1.52,1,4.77,4.77,0,0,0-1,1.71,7.61,7.61,0,0,0-.36,2.47,7.51,7.51,0,0,0,.36,2.46,4.73,4.73,0,0,0,1,1.72,4.09,4.09,0,0,0,1.52,1,5.38,5.38,0,0,0,1.86.32,5.5,5.5,0,0,0,1.88-.32,4.06,4.06,0,0,0,1.51-1,4.61,4.61,0,0,0,1-1.72,7.51,7.51,0,0,0,.36-2.46m-11.18,0a6.66,6.66,0,0,1,.47-2.6,5.39,5.39,0,0,1,1.32-1.94,5.92,5.92,0,0,1,2-1.2,8.45,8.45,0,0,1,5.2,0,5.92,5.92,0,0,1,2,1.2,5.66,5.66,0,0,1,1.32,1.94,7.43,7.43,0,0,1,0,5.2,5.52,5.52,0,0,1-1.32,1.93,5.45,5.45,0,0,1-2,1.18,8.31,8.31,0,0,1-2.61.39,8.23,8.23,0,0,1-2.59-.39,5.45,5.45,0,0,1-2-1.18,5.27,5.27,0,0,1-1.32-1.93,6.66,6.66,0,0,1-.47-2.6"/><path class="cls-1" d="M184,63.06h-.94c-.32,0-.65,0-1,0l-1,.06q-.45,0-.81.09a2.43,2.43,0,0,0,.08-.55,2.8,2.8,0,0,0-.08-.54l2.21.06q1.08,0,2.22,0c.75,0,1.49,0,2.21,0l2.22-.06a2.36,2.36,0,0,0-.09.55,2,2,0,0,0,.09.54c-.24,0-.52-.07-.82-.09l-.94-.06-1,0h-.94c0,1.18-.05,2.36-.05,3.55v3c0,.75,0,1.5,0,2.23s.06,1.45.1,2.16q-.41,0-.84,0c-.3,0-.58,0-.85,0,0-.71.07-1.43.1-2.16s0-1.48,0-2.23v-3c0-1.19,0-2.37,0-3.55"/><path class="cls-1" d="M198.72,64.36c0-.73-.06-1.46-.1-2.2l1.54.06c.51,0,1,0,1.54,0s1,0,1.53,0l1.52-.06a3.15,3.15,0,0,0-.05.52,2.94,2.94,0,0,0,.05.51l-1-.06-1-.07q-.51,0-1.11-.06t-1.44,0c0,.37,0,.72-.05,1s0,.71,0,1.13,0,.88,0,1.31,0,.74,0,1l1.35,0,1.1,0,.92,0,.8-.06a2.32,2.32,0,0,0-.05.53,2.21,2.21,0,0,0,.05.51c-.3,0-.64-.06-1-.08s-.79,0-1.19,0l-1.11,0h-.83c0,.1,0,.21,0,.33s0,.28,0,.46v1.7c0,.65,0,1.19,0,1.61s0,.75,0,1h1.21c.43,0,.86,0,1.27,0l1.19-.07a7.39,7.39,0,0,0,1-.13,1.1,1.1,0,0,0,0,.27,2.62,2.62,0,0,0,0,.27,1.72,1.72,0,0,0,.05.44l-1.54,0h-3.11l-1.57,0c0-.73.07-1.46.1-2.19s0-1.47,0-2.22v-3c0-.75,0-1.5,0-2.23"/><path class="cls-1" d="M214.86,64.39c0-.73-.06-1.47-.09-2.23a3.18,3.18,0,0,0,.43.06,2.73,2.73,0,0,0,.41,0l.41,0,.43-.06c0,.76-.07,1.5-.09,2.23s-.05,1.47-.05,2.22c0,1.44,0,2.7,0,3.75s0,2,0,2.85c.82,0,1.59,0,2.34,0a21.54,21.54,0,0,0,2.4-.2,2.36,2.36,0,0,0-.08.52,1.85,1.85,0,0,0,.08.46c-.52,0-1,0-1.58,0h-3.16l-1.59,0q0-1.06.09-2.16c0-.73,0-1.48,0-2.23v-3c0-.75,0-1.5,0-2.22"/><path class="cls-1" d="M231,72.36a2.57,2.57,0,0,0,.57.57,2.9,2.9,0,0,0,.78.42,2.86,2.86,0,0,0,1,.17,2.63,2.63,0,0,0,1-.2,2.35,2.35,0,0,0,.77-.53,2.56,2.56,0,0,0,.49-.79,2.87,2.87,0,0,0,.17-1,1.85,1.85,0,0,0-.4-1.26,3.42,3.42,0,0,0-1-.77,10.38,10.38,0,0,0-1.3-.57,6.46,6.46,0,0,1-1.29-.64,3.53,3.53,0,0,1-1-1,2.84,2.84,0,0,1-.4-1.61,3.34,3.34,0,0,1,.26-1.32,3,3,0,0,1,.74-1,3.49,3.49,0,0,1,1.18-.67,4.67,4.67,0,0,1,1.55-.24,4.59,4.59,0,0,1,1.42.2,3.51,3.51,0,0,1,1.12.61,3.12,3.12,0,0,0-.26.62,7.94,7.94,0,0,0-.21.82H236c-.06-.16-.14-.33-.23-.52a2,2,0,0,0-.4-.53,2.11,2.11,0,0,0-.59-.4,1.92,1.92,0,0,0-.83-.16,2.5,2.5,0,0,0-.88.15,2,2,0,0,0-.7.44,1.93,1.93,0,0,0-.47.68,2.2,2.2,0,0,0-.16.86,1.88,1.88,0,0,0,.4,1.27,3.45,3.45,0,0,0,1,.78,9.46,9.46,0,0,0,1.29.56,7.4,7.4,0,0,1,1.3.61,3.18,3.18,0,0,1,1,.93,2.55,2.55,0,0,1,.41,1.51,4.16,4.16,0,0,1-.28,1.5,3.57,3.57,0,0,1-.83,1.23,3.8,3.8,0,0,1-1.32.8,5.19,5.19,0,0,1-1.78.29,4.37,4.37,0,0,1-1.72-.29,4.63,4.63,0,0,1-1.11-.64,4.49,4.49,0,0,0,.21-.71c0-.22.08-.49.11-.82h.21a3.45,3.45,0,0,0,.37.63"/><polygon class="cls-1" points="74.92 91.36 100.6 119 100.66 119 100.66 92.55 100.67 91.36 74.92 91.36"/><polygon class="cls-1" points="60.17 91.36 60.17 92.55 60.17 134.25 71.52 134.25 71.52 91.84 71.52 91.37 60.17 91.36"/><polygon class="cls-1" points="79.67 107.41 79.67 134.25 103.87 134.25 79.74 107.41 79.67 107.41"/><rect class="cls-1" x="56.1" y="142.52" width="1.24" height="11.22" rx="0.3"/><path class="cls-1" d="M59.39,142.65a.3.3,0,0,1,.3-.29h.39l7.14,9h0v-8.55a.3.3,0,0,1,.31-.3h.55a.31.31,0,0,1,.3.3v10.8a.3.3,0,0,1-.3.29h-.29l-7.26-9.19h0v8.72a.3.3,0,0,1-.3.31h-.55a.32.32,0,0,1-.3-.31Z"/><path class="cls-1" d="M70.19,142.82a.3.3,0,0,1,.3-.3h.62a.31.31,0,0,1,.3.3v9.85h6.38a.3.3,0,0,1,.3.31v.46a.31.31,0,0,1-.3.31h-7.3a.31.31,0,0,1-.3-.31Z"/><path class="cls-1" d="M76.93,153.33l4.82-10.79a.27.27,0,0,1,.27-.18h.16a.26.26,0,0,1,.26.18l4.79,10.79a.28.28,0,0,1-.27.41h-.64a.29.29,0,0,1-.27-.17l-1.17-2.65H79.26l-1.15,2.65a.3.3,0,0,1-.27.17H77.2a.28.28,0,0,1-.27-.41m7.52-3.4c-.77-1.75-1.53-3.51-2.31-5.26H82l-2.31,5.26Z"/><path class="cls-1" d="M88.41,142.65a.31.31,0,0,1,.31-.29h.39l7.14,9h0v-8.55a.3.3,0,0,1,.3-.3h.56a.31.31,0,0,1,.3.3v10.8c0,.16-.26.13-.42.13h-.29l-7.14-9h0v8.72a.3.3,0,0,1-.3.3h-.55a.32.32,0,0,1-.31-.3Z"/><path class="cls-1" d="M96.24,142.82a.3.3,0,0,1,.29-.3h3.54a5.61,5.61,0,0,1,0,11.22h-3a3,3,0,0,1-.81-1.11Zm3.58,9.82a4.52,4.52,0,0,0,0-9H97.44v9Z"/><path class="cls-1" d="M106.8,142.65a1.17,1.17,0,1,1-1.17,1.15,1.17,1.17,0,0,1,1.17-1.15m0,2.09a.92.92,0,1,0-.89-.93.91.91,0,0,0,.89.93m-.41-1.46a.06.06,0,0,1,.06-.06h.5a.39.39,0,0,1,.39.41.36.36,0,0,1-.23.35l.14.34a.06.06,0,0,1-.06.09H107s0,0-.06,0l-.13-.36h-.17v.35a.06.06,0,0,1-.06.06h-.16a.06.06,0,0,1-.06-.06Zm.52.49a.13.13,0,0,0,.13-.14.13.13,0,0,0-.13-.13h-.25v.27Z"/><path class="cls-1" d="M56.76,159H57.9a2.28,2.28,0,0,1,.63.09,1.63,1.63,0,0,1,1,.81,1.73,1.73,0,0,1,.16.75,1.68,1.68,0,0,1-.16.74,1.66,1.66,0,0,1-.42.52,1.88,1.88,0,0,1-.58.3,2,2,0,0,1-.63.1H56.76Zm.46,2.91h.58a1.69,1.69,0,0,0,.56-.09,1.43,1.43,0,0,0,.44-.24,1.18,1.18,0,0,0,.29-.4,1.25,1.25,0,0,0,.1-.53,1.33,1.33,0,0,0-.1-.54,1.14,1.14,0,0,0-.29-.39,1.43,1.43,0,0,0-.44-.24,2,2,0,0,0-.56-.08h-.58Z"/><path class="cls-1" d="M62.94,161.9h1.73v.41H62.48V159H64.6v.4H62.94v1H64.5v.39H62.94Z"/><path class="cls-1" d="M68.54,161.71h0l1-2.71h.5l-1.3,3.31h-.43L67,159h.52Z"/><path class="cls-1" d="M73.07,161.9H74.8v.41H72.6V159h2.13v.4H73.07v1h1.56v.39H73.07Z"/><path class="cls-1" d="M78,161.9h1.48v.41h-2V159H78Z"/><path class="cls-1" d="M85.32,160.65a1.75,1.75,0,0,1-.14.7,1.63,1.63,0,0,1-.36.56,1.92,1.92,0,0,1-.56.36,2,2,0,0,1-.7.13,1.94,1.94,0,0,1-.7-.13,1.8,1.8,0,0,1-.56-.36,1.63,1.63,0,0,1-.36-.56,1.75,1.75,0,0,1-.13-.7,1.8,1.8,0,0,1,.13-.71,1.59,1.59,0,0,1,.36-.55,1.61,1.61,0,0,1,.56-.35,1.75,1.75,0,0,1,.7-.13,1.82,1.82,0,0,1,.7.13,1.71,1.71,0,0,1,.56.35,1.59,1.59,0,0,1,.36.55A1.8,1.8,0,0,1,85.32,160.65Zm-.5,0a1.39,1.39,0,0,0-.35-.94,1.11,1.11,0,0,0-.39-.28,1.27,1.27,0,0,0-.52-.11,1.24,1.24,0,0,0-.52.11,1,1,0,0,0-.39.28,1.24,1.24,0,0,0-.25.43,1.44,1.44,0,0,0-.09.51,1.5,1.5,0,0,0,.09.52,1.12,1.12,0,0,0,.25.42,1.14,1.14,0,0,0,.91.39,1.27,1.27,0,0,0,.52-.1,1.14,1.14,0,0,0,.39-.29,1.29,1.29,0,0,0,.26-.42A1.5,1.5,0,0,0,84.82,160.65Z"/><path class="cls-1" d="M88.1,159h1a2.46,2.46,0,0,1,.49.05,1.1,1.1,0,0,1,.38.17.7.7,0,0,1,.23.28.93.93,0,0,1,.09.42.94.94,0,0,1-.09.43.89.89,0,0,1-.26.29,1,1,0,0,1-.38.16,1.86,1.86,0,0,1-.48.06h-.52v1.45H88.1Zm.47,1.46h.49a1.55,1.55,0,0,0,.31,0,.92.92,0,0,0,.25-.09.41.41,0,0,0,.15-.17.55.55,0,0,0,0-.5.41.41,0,0,0-.16-.16.43.43,0,0,0-.24-.09,1.39,1.39,0,0,0-.3,0h-.5Z"/><path class="cls-1" d="M93.51,161.9h1.73v.41H93V159h2.13v.4H93.51v1h1.56v.39H93.51Z"/><path class="cls-1" d="M98.47,162.31H98V159h1.06a1.75,1.75,0,0,1,.46.05,1,1,0,0,1,.37.15.73.73,0,0,1,.26.29.91.91,0,0,1,.09.43.78.78,0,0,1-.22.58,1,1,0,0,1-.58.29l.93,1.52h-.57L99,160.84h-.5Zm0-1.86H99a1.39,1.39,0,0,0,.3,0,.81.81,0,0,0,.25-.09.44.44,0,0,0,.16-.17.45.45,0,0,0,.07-.24.5.5,0,0,0-.07-.26.49.49,0,0,0-.16-.16.52.52,0,0,0-.23-.08,1.36,1.36,0,0,0-.29,0h-.57Z"/><path class="cls-1" d="M104.69,159.61a.84.84,0,0,0-.27-.22.79.79,0,0,0-.38-.09l-.23,0a.54.54,0,0,0-.2.1.52.52,0,0,0-.16.17.47.47,0,0,0,0,.24.41.41,0,0,0,0,.23.5.5,0,0,0,.14.15l.22.11.27.09.34.12a1.17,1.17,0,0,1,.31.17.87.87,0,0,1,.23.27.83.83,0,0,1,.09.41.93.93,0,0,1-.1.45,1,1,0,0,1-.25.31,1.43,1.43,0,0,1-.37.19,1.54,1.54,0,0,1-.43.06,1.38,1.38,0,0,1-.6-.13,1.18,1.18,0,0,1-.49-.36l.36-.3a.93.93,0,0,0,.31.28,1,1,0,0,0,.43.11.85.85,0,0,0,.23,0,.91.91,0,0,0,.22-.11.66.66,0,0,0,.16-.17.53.53,0,0,0,.06-.26.49.49,0,0,0-.07-.25.55.55,0,0,0-.17-.17.83.83,0,0,0-.25-.12l-.3-.1-.31-.11a1.12,1.12,0,0,1-.28-.18.75.75,0,0,1-.2-.26.86.86,0,0,1-.07-.38.83.83,0,0,1,.1-.43.91.91,0,0,1,.26-.29,1,1,0,0,1,.37-.17,1.4,1.4,0,0,1,1,.05,1.09,1.09,0,0,1,.41.27Z"/><path class="cls-1" d="M310.51,121.23c.27.48.52.86.73,1.27.84,1.66,1.65,3.32,2.49,5,.28.54.61,1.06.92,1.58a5.44,5.44,0,0,0,4.4,2.65,2.53,2.53,0,0,1,.49.06c.11,0,.2.16.31.24a3.13,3.13,0,0,1-.36.19.54.54,0,0,1-.18,0c-2.18,0-4.37,0-6.55,0a.78.78,0,0,1-.79-.44q-1.7-3.21-3.4-6.41c-.6-1.11-1.22-2.21-1.82-3.32a.94.94,0,0,0-.93-.55c-1.91,0-3.83,0-5.75,0-.4,0-.54.14-.54.55,0,2.45,0,4.9,0,7.36,0,1.36.43,1.88,1.75,2.15.58.11,1.18.15,1.77.24.08,0,.15.16.22.25-.09.05-.18.15-.26.15H292.51a.8.8,0,0,1-.31,0,1.55,1.55,0,0,1-.32-.2c.1-.08.18-.19.29-.21.55-.1,1.12-.14,1.67-.26a1.82,1.82,0,0,0,1.62-1.92c0-.24,0-.48,0-.71,0-4.83,0-9.67,0-14.5,0-2.13-.57-2.59-2.65-2.86-.25,0-.51,0-.75-.1-.08,0-.14-.12-.21-.18s.15-.17.24-.2a1,1,0,0,1,.35,0c2.51,0,5,0,7.54,0,2.94,0,5.88,0,8.82.08a13.45,13.45,0,0,1,5.51,1.29,4,4,0,0,1,1.47,6.52,4.56,4.56,0,0,1-2,1.42c-.85.29-1.74.48-2.61.71Zm-6.32-.71v.06c1.63-.07,3.26-.07,4.89-.22a4.22,4.22,0,0,0,.28-8.38,11.59,11.59,0,0,0-2.56-.26c-2.28,0-4.55,0-6.82,0-.37,0-.46.15-.46.48q0,3.94,0,7.89c0,.39.17.49.52.48Z"/><path class="cls-1" d="M274.89,132.59a17.32,17.32,0,0,1-8.3-1.77,9.3,9.3,0,0,1-5-7.43,12.69,12.69,0,0,1,.47-5.68,9.2,9.2,0,0,1,5.72-5.91,18.35,18.35,0,0,1,13.61.09,9.35,9.35,0,0,1,6.05,7.94,12,12,0,0,1-.56,5.84,9.8,9.8,0,0,1-7,6.17,18.83,18.83,0,0,1-2.48.52C276.4,132.5,275.41,132.55,274.89,132.59Zm8.1-11.14a14,14,0,0,0-.73-5.08,6.93,6.93,0,0,0-5.1-4.81,12.14,12.14,0,0,0-4.12-.23,7.13,7.13,0,0,0-6.42,5.16,17.29,17.29,0,0,0,0,10.05,6.88,6.88,0,0,0,5.36,5.1,11.26,11.26,0,0,0,4.73.07,6.87,6.87,0,0,0,5.44-4.53A14.85,14.85,0,0,0,283,121.45Z"/><path class="cls-1" d="M333.84,132.19h-10.3a1.43,1.43,0,0,1-.36,0,1,1,0,0,1-.25-.19c.08-.07.14-.2.23-.21.37-.07.76-.11,1.14-.17a5.82,5.82,0,0,0,.83-.17,1.68,1.68,0,0,0,1.37-1.74c0-1.81,0-3.63,0-5.44V113.92c0-1.4-.41-1.93-1.78-2.24-.51-.12-1-.15-1.54-.25-.1,0-.18-.14-.27-.22.1-.06.2-.13.3-.18a.53.53,0,0,1,.18,0L342,111c.39,0,.62-.12.67-.53a1.6,1.6,0,0,1,.11-.43,4.23,4.23,0,0,1,.33-.41c.14.13.34.23.43.38.42.8.82,1.62,1.22,2.43l1.74,3.51c.12.25.37.54,0,.78s-.56,0-.78-.28c-.81-.87-1.57-1.8-2.45-2.58a10,10,0,0,0-6.8-2.32l-5.35,0c-.34,0-.52.1-.52.49,0,2.67,0,5.35,0,8,0,.33.1.48.46.47,1.9,0,3.81.06,5.7,0a11.53,11.53,0,0,0,2.64-.57,2,2,0,0,0,1.28-1.82c.05-.25.05-.51.12-.75s.15-.2.23-.3a4.15,4.15,0,0,1,.24.34s0,.08,0,.13q0,3.85,0,7.71a.45.45,0,0,1-.21.34c-.26.06-.25-.14-.28-.33a10.9,10.9,0,0,0-.22-1.41,2.59,2.59,0,0,0-2.67-2.23c-2.3-.1-4.61-.08-6.91-.12-.29,0-.38.14-.38.42v8.87c0,.35.16.43.46.43,1,0,1.93,0,2.9,0,1.29,0,2.58,0,3.87,0a9.11,9.11,0,0,0,5.91-2,14.87,14.87,0,0,0,2.67-3c.1-.14.27-.33.41-.34a.77.77,0,0,1,.58.21.76.76,0,0,1,0,.61c-.81,1.74-1.65,3.46-2.47,5.19a.64.64,0,0,1-.68.37c-3.48,0-6.95,0-10.43,0Z"/><path class="cls-1" d="M251.1,112.68c.22-.54.42-1.08.67-1.61a.58.58,0,0,1,.39-.31c.1,0,.28.18.33.32,1,2.73,2,5.46,3,8.2.07.19.19.39-.09.54s-.42,0-.56-.26a30.46,30.46,0,0,0-4-5,10.37,10.37,0,0,0-5.83-3.13c-3.13-.41-5.84.36-7.76,3a8.39,8.39,0,0,0-1.33,4,12.3,12.3,0,0,0,.7,6.18,9.05,9.05,0,0,0,7.9,5.91,11.67,11.67,0,0,0,6.64-1,9.33,9.33,0,0,0,3.68-3.23c.07-.11.21-.26.31-.25.29,0,.36.18.2.46a11.56,11.56,0,0,1-4.18,4.35,13.32,13.32,0,0,1-6,1.71,15.31,15.31,0,0,1-8.11-1.63,9.49,9.49,0,0,1-5.09-7.5,11.66,11.66,0,0,1,1.69-8.32,9.48,9.48,0,0,1,6.1-4,14.7,14.7,0,0,1,11.19,1.47A1.3,1.3,0,0,0,251.1,112.68Z"/><path class="cls-1" d="M255.6,145.4v-5.15h2.53a1.37,1.37,0,0,1,.91,2.5,1.27,1.27,0,0,1,.83,1.27,1.33,1.33,0,0,1-1.16,1.37C257.69,145.45,256.67,145.4,255.6,145.4Zm.94-.77c.59,0,1.17,0,1.75,0a.62.62,0,0,0,.62-.68.63.63,0,0,0-.61-.73c-.57,0-1.15,0-1.76,0Zm0-3.58c0,.39,0,.73,0,1.06a.4.4,0,0,0,.25.27,10.93,10.93,0,0,0,1.28,0,.63.63,0,0,0,.64-.7.57.57,0,0,0-.61-.62C257.57,141,257.07,141.05,256.5,141.05Z"/><path class="cls-1" d="M247.47,142.82a2.71,2.71,0,0,1,5.42,0,2.61,2.61,0,0,1-2.73,2.7A2.58,2.58,0,0,1,247.47,142.82Zm2.72,1.83a1.7,1.7,0,0,0,1.75-1.82,1.72,1.72,0,0,0-1.78-1.8,1.81,1.81,0,0,0,0,3.62Z"/><path class="cls-1" d="M238.77,141l-.65.56a1.94,1.94,0,0,0-2.62-.14,2,2,0,0,0-.36,2.27,1.76,1.76,0,0,0,2,.9,1.32,1.32,0,0,0,1.1-1.26h-1.47v-.76h2.46a2.35,2.35,0,0,1-1.33,2.7,2.78,2.78,0,0,1-3.49-1,2.81,2.81,0,0,1,.67-3.65A2.87,2.87,0,0,1,238.77,141Z"/><path class="cls-1" d="M282.35,143.43l1.31,1.93c-.83.22-1,.15-1.45-.51-.19-.3-.38-.6-.58-.9-.37-.58-.39-.59-1.17-.44v1.89a2.88,2.88,0,0,1-.35,0c-.55,0-.56,0-.56-.55v-4.1c0-.16,0-.32,0-.51.94,0,1.86-.05,2.77,0a1.39,1.39,0,0,1,1.23,1.28,1.52,1.52,0,0,1-.88,1.69Zm-1.88-2.31c0,.44,0,.81,0,1.17,0,.1.13.26.2.26a9.62,9.62,0,0,0,1.42,0c.4-.05.55-.36.53-.75a.61.61,0,0,0-.6-.65C281.53,141.1,281,141.12,280.47,141.12Z"/><path class="cls-1" d="M345.63,145.42h-3.76v-5.13h3.69c0,.13,0,.26,0,.39,0,.31-.11.4-.41.4-.78,0-1.57,0-2.38,0v1.3h2.64v.88h-2.64v1.34h2.82Z"/><path class="cls-1" d="M286.3,140.28H290v.79h-1.81c-1.07,0-1.21.19-.91,1.31h2.6c0,.17,0,.3,0,.42.05.35-.08.47-.44.46-.74,0-1.48,0-2.19,0,0,.08-.06.11-.06.14-.15,1.2-.15,1.21,1.05,1.21h1.65a.6.6,0,0,1,.14,0v.74H286.3Z"/><path class="cls-1" d="M315.94,144.88l.38-.67c.58.16,1.11.36,1.65.46a1.43,1.43,0,0,0,.86-.13.79.79,0,0,0,.38-.56.7.7,0,0,0-.41-.5,9.57,9.57,0,0,0-1.2-.3A5.76,5.76,0,0,1,317,143a1.16,1.16,0,0,1-.92-1.12,1.41,1.41,0,0,1,.75-1.41,3.46,3.46,0,0,1,3.27.16l-.35.64c-.68-.09-1.29-.18-1.91-.24a.56.56,0,0,0-.41.13,1.06,1.06,0,0,0-.32.58.67.67,0,0,0,.38.46,6.94,6.94,0,0,0,1.11.28,5.28,5.28,0,0,1,.77.24,1.24,1.24,0,0,1,.85,1.1,1.34,1.34,0,0,1-.7,1.38,3.5,3.5,0,0,1-1.23.32A3.71,3.71,0,0,1,315.94,144.88Z"/><path class="cls-1" d="M309.79,140.27h3.73v.8h-2.73c-.05.09-.06.1-.06.11-.16,1.21-.16,1.21,1,1.21h1.6v.85H310.7a10.46,10.46,0,0,0,0,1.13c0,.09.22.21.34.22.67,0,1.34,0,2,0h.51c0,.17,0,.3,0,.43.05.34-.11.42-.43.42-1,0-2,0-3,0-.19,0-.41.05-.41-.26Z"/><path class="cls-1" d="M333.53,145.4l-.2,0c-.76,0-.8.05-1-.68a.73.73,0,0,0-.9-.6,9.24,9.24,0,0,1-1.29,0c-.24,0-.4.05-.45.3,0,.1-.08.19-.12.29-.29.77-.29.77-1.2.64,0-.12.06-.23.1-.33l1.8-4.49c.08-.21.17-.39.43-.33s.69-.21.87.22C332.21,142.1,332.86,143.73,333.53,145.4Zm-3.39-2.14h1.57l-.79-2Z"/><path class="cls-1" d="M267.25,145.44a4.9,4.9,0,0,1-.77,0,.63.63,0,0,1-.3-.32c-.4-.94-.39-.94-1.4-.94h-.13c-1.08,0-1.08,0-1.5,1-.24.55-.67.17-1.11.31l.85-2.12c.37-.94.76-1.87,1.11-2.81a.4.4,0,0,1,.52-.28c.27.05.62-.19.8.25.61,1.57,1.25,3.14,1.88,4.71A1.23,1.23,0,0,1,267.25,145.44Zm-2.52-4.08h-.11l-.75,1.94h1.59Z"/><path class="cls-1" d="M292.3,145.39c.34-.86.68-1.68,1-2.5s.63-1.57.93-2.36a.36.36,0,0,1,.47-.27c.28.06.65-.21.82.21q1,2.42,1.93,4.84s0,.05,0,.13a5.28,5.28,0,0,0-.56,0,.43.43,0,0,1-.49-.33c-.37-1-.38-1-1.39-1h-.13c-1.08,0-1.08,0-1.5,1C293.24,145.49,293.14,145.51,292.3,145.39Zm3.4-2.1-.74-1.94h-.11l-.75,1.94Z"/><path class="cls-1" d="M322.52,141.08v-.79h4.28v.76h-1.68v3.79c0,.64,0,.64-.65.6a1.14,1.14,0,0,1-.26-.05v-4.31Z"/><path class="cls-1" d="M335.08,140.28h4.23v.79h-1.67v4.33l-.42,0c-.38.06-.51-.08-.5-.48,0-1.15,0-2.29,0-3.44,0-.35-.1-.49-.46-.45a5.61,5.61,0,0,1-.58,0C335,141.07,335,141.07,335.08,140.28Z"/><path class="cls-1" d="M300.06,145.44v-5.16h.9v4.31h2.62c0,.14,0,.22.05.31.07.41-.07.57-.52.55C302.1,145.42,301.1,145.44,300.06,145.44Z"/><path class="cls-1" d="M242,140.28h.93v4.32h1.7a4.64,4.64,0,0,0,.53,0c.32,0,.4.12.41.42s-.08.45-.43.44c-.91,0-1.83,0-2.75,0-.2,0-.4,0-.39-.28Z"/><path class="cls-1" d="M269.91,140.27h.82v4.33h2c.76,0,.76,0,.65.84h-3.13c-.2,0-.38,0-.38-.29,0-1.59,0-3.18,0-4.77C269.85,140.36,269.87,140.33,269.91,140.27Z"/></svg>