<svg id="Capa_1" data-name="Capa 1" xmlns="http://www.w3.org/2000/svg" viewBox="0 0 244.83 83.48"><defs><style>.cls-1{fill:#fff;}</style></defs><path class="cls-1" d="M239.17,48.65c-1.63-1.2-4.81-1.2-9.88-.94S217.7,49.34,207.57,50s-19.83,1.54-25.41.42-5.32-4.34-5.4-6.06.77-3.35-.86-4.29-1.8-.78-2.92,0a51.73,51.73,0,0,1-10.56,6.35c-5.32,2.23-7.64,2.92-6.61-.86a40.32,40.32,0,0,1,3.43-7.9c.52-1.11.26-1.11-.08-2.06a1.66,1.66,0,0,0-2.49-.94c-1.29.6-7.64,3.69-12.88,5.84S130.62,46,130.1,46.05s.23-.51.83-1c.38-.32,5.65-5.35,6.94-8.44s-.61-7.13-5.24-7.3A27.57,27.57,0,0,0,119.06,33c-2.38,1.62-3.43,2.92-3.43,2.23A85,85,0,0,1,120.18,22,83.05,83.05,0,0,1,127.5,9.62c.86-1.2-.45-2.66-1.31-2.92s-1.55.47-2.32,1.59a72.44,72.44,0,0,0-7.47,14.12c-4.29,11.51-5.11,16.8-4.77,17.66a3.05,3.05,0,0,0,2.28,1.14c.69-.08,1.46-1,3.09-2.31,2.75-2.15,8.93-5.84,13-6s5.41.85,3.26,4a32.64,32.64,0,0,1-10.47,10c-5.5,3.43-5.84,3.78-5.67,4.89s2,1.55,3,1.29,17.26-6.09,21.81-8,9.79-4.21,10.56-4.55,1.63-.69,1.12.43-2.31,5.38-2.23,7.38c.08,2.4,2.58,5,7.81,3.18a75.67,75.67,0,0,0,11.93-5.67c.77-.43,1.54-1,1.59.21.09,2.06.64,7.44,9.48,8.09,9.38.68,43.79-3.18,48.51-3s7.12,1.29,8,1,2.15-2.32.52-3.52M110.22,45.56c-2.32.77-8.33,3.52-13.22,4-5.17.55-8.84-1.63-9.44-4.63s1.28-6.7,1.54-7.47S88,35.6,87.56,35.68s-.86-.08-.86-.42a2.65,2.65,0,0,0-1.29-2.41c-1.2-.51-3.78-.51-6.87,1.89s-7.3,9-8,9.79c-1,1.09-9.28,4.72-15.37,5.41S48.92,47,49.44,44.18s1.11-4.29,1.46-7-1-3.6-2.49-3.34-5.86,3.19-12,8-9.88,7.57-11.34,8.51-1.2-.26-.6-1.8,4.47-11,5.87-14.36c2-4.72,2.66-8.76.6-10.39-2.54-2-7.24-.76-14.77,1.8-8.84,3-9.57,1.64-10.73,2.92-1.63,1.81.43,3.69,2.14,3.44s14.69-4.9,18-5.67,3,1.72,2.4,4.12S21,46.93,19.22,51.83s2.4,5.49,4,4.46S44,40.21,45.4,39.89c1.89-.43-.77,4.72-.26,8.5s5.07,6.1,10.74,5a97.7,97.7,0,0,0,13.47-4.12c1-.34,1.29.94,1.72,1.37s1.63,1.46,4,.78,7.12-5.24,7.81-5.67.56.89,1.89,3c1.46,2.32,4.56,4.72,9.61,4.38s14.68-3.52,17.17-4.46,3-2,2.49-3c-.6-1.28-1.54-.85-3.86-.08m-27-6.27a18.44,18.44,0,0,1-5.5,6.44c-3.17,2.4-3.6,1.46-3.69.09s2.49-4.9,4-6.53,2.49-2.83,3.78-2.66a2,2,0,0,1,1.46,2.66m-24,27.58H50.34v1.62h3.54v8.16h1.73V68.49h3.54Zm17.59,0H75v5.32c0,2.73,1,4.64,4.48,4.64s4.47-2,4.47-4.64V66.87H82.15v5.32c0,2.18-.77,3-2.7,3s-2.71-.81-2.71-3Zm25.72,0h-1.73v9.78H108V75h-5.52Zm22.73,0h-1.77v5.32c0,2.73,1,4.64,4.48,4.64s4.47-2,4.47-4.64V66.87h-1.78v5.32c0,2.18-.76,3-2.69,3s-2.71-.81-2.71-3Zm26.54,0h-2.55v9.78h1.72V68.84L154,75.59h1.9l3.1-6.75v7.81h1.72V66.87h-2.56l-3.21,7.06Z"/></svg>