<?xml version="1.0" encoding="utf-8"?>
<!-- Generator: Adobe Illustrator 24.2.0, SVG Export Plug-In . SVG Version: 6.00 Build 0)  -->
<svg version="1.1" id="Capa_1" xmlns="http://www.w3.org/2000/svg" xmlns:xlink="http://www.w3.org/1999/xlink" x="0px" y="0px"
	 viewBox="0 0 386.1 141.5" style="enable-background:new 0 0 386.1 141.5;" xml:space="preserve">
<style type="text/css">
	.st0{fill:#FFFFFF;}
</style>
<polygon class="st0" points="56.7,87.5 68.2,95.7 68.2,100.2 56.7,91.9 "/>
<polygon class="st0" points="56.7,80.2 68.2,88.5 68.2,92.9 56.7,84.6 "/>
<polygon class="st0" points="56.7,73 68.2,81.2 68.2,85.7 56.7,77.4 "/>
<polygon class="st0" points="56.7,65.7 68.2,73.9 68.2,78.4 56.7,70.1 "/>
<polygon class="st0" points="56.7,58.4 68.2,66.7 68.2,71.1 56.7,62.8 "/>
<polygon class="st0" points="56.7,51.2 68.2,59.4 68.2,63.9 56.7,55.6 "/>
<polygon class="st0" points="56.7,45.7 68.2,54 68.2,56.6 56.7,48.3 "/>
<polygon class="st0" points="69.5,90.5 76.8,95.9 76.8,98.7 69.5,93.4 "/>
<polygon class="st0" points="69.5,85.7 76.8,91.1 76.8,93.9 69.5,88.6 "/>
<polygon class="st0" points="69.5,80.7 76.8,86.1 76.8,88.9 69.5,83.6 "/>
<polygon class="st0" points="69.5,76 76.8,81.4 76.8,84.2 69.5,78.9 "/>
<polygon class="st0" points="69.5,71 76.8,76.4 76.8,79.2 69.5,73.9 "/>
<polygon class="st0" points="69.5,66.2 76.8,71.6 76.8,74.4 69.5,69.1 "/>
<polygon class="st0" points="69.5,62.2 76.8,67.5 76.8,69.4 69.5,64.1 "/>
<polygon class="st0" points="78.3,94.9 84.4,99.2 84.4,101.2 78.3,96.9 "/>
<polygon class="st0" points="78.3,90.9 84.4,95.2 84.4,97.2 78.3,92.9 "/>
<polygon class="st0" points="78.3,87.1 84.4,91.4 84.4,93.4 78.3,89.1 "/>
<polygon class="st0" points="78.3,83.4 84.4,87.7 84.4,89.7 78.3,85.4 "/>
<polygon class="st0" points="78.3,79.4 84.4,83.7 84.4,85.7 78.3,81.4 "/>
<polygon class="st0" points="78.3,75.6 84.4,79.9 84.4,81.9 78.3,77.6 "/>
<polygon class="st0" points="78.3,72.7 84.4,76.9 84.4,78.2 78.3,73.9 "/>
<polygon class="st0" points="55.5,87.5 44,95.7 44,100.2 55.5,91.9 "/>
<polygon class="st0" points="55.5,80.2 44,88.5 44,92.9 55.5,84.6 "/>
<polygon class="st0" points="55.5,73 44,81.2 44,85.7 55.5,77.4 "/>
<polygon class="st0" points="55.5,65.7 44,73.9 44,78.4 55.5,70.1 "/>
<polygon class="st0" points="55.5,58.4 44,66.7 44,71.1 55.5,62.8 "/>
<polygon class="st0" points="55.5,51.2 44,59.4 44,63.9 55.5,55.6 "/>
<polygon class="st0" points="55.5,45.7 44,54 44,56.6 55.5,48.3 "/>
<polygon class="st0" points="42.7,90.5 35.3,95.9 35.3,98.7 42.7,93.4 "/>
<polygon class="st0" points="42.7,85.7 35.3,91.1 35.3,93.9 42.7,88.6 "/>
<polygon class="st0" points="42.7,80.7 35.3,86.1 35.3,88.9 42.7,83.6 "/>
<polygon class="st0" points="42.7,76 35.3,81.4 35.3,84.2 42.7,78.9 "/>
<polygon class="st0" points="42.7,71 35.3,76.4 35.3,79.2 42.7,73.9 "/>
<polygon class="st0" points="42.7,66.2 35.3,71.6 35.3,74.4 42.7,69.1 "/>
<polygon class="st0" points="42.7,62.2 35.3,67.5 35.3,69.4 42.7,64.1 "/>
<polygon class="st0" points="33.9,94.9 27.8,99.2 27.8,101.2 33.9,96.9 "/>
<polygon class="st0" points="33.9,90.9 27.8,95.2 27.8,97.2 33.9,92.9 "/>
<polygon class="st0" points="33.9,87.1 27.8,91.4 27.8,93.4 33.9,89.1 "/>
<polygon class="st0" points="33.9,83.4 27.8,87.7 27.8,89.7 33.9,85.4 "/>
<polygon class="st0" points="33.9,79.4 27.8,83.7 27.8,85.7 33.9,81.4 "/>
<polygon class="st0" points="33.9,75.6 27.8,79.9 27.8,81.9 33.9,77.6 "/>
<polygon class="st0" points="33.9,72.7 27.8,76.9 27.8,78.2 33.9,73.9 "/>
<path class="st0" d="M10.9,113.3h0.2l-0.1,2H7v-0.2h0.1c0.2,0,0.3,0,0.5-0.1c0.1-0.1,0.1-0.2,0.1-0.3c0-0.3,0-0.7,0-1v-3.2
	c0-0.3,0-0.7,0-1c0-0.1-0.1-0.2-0.1-0.3C7.4,109,7.3,109,7.1,109v-0.2h3.4l0.1,1.6h-0.2c0-0.3-0.1-0.7-0.3-1
	c-0.1-0.2-0.2-0.3-0.4-0.4C9.6,109,9.3,109,9.1,109H8.4v2.8h0.5c0.2,0,0.3,0,0.5-0.1c0.1-0.1,0.2-0.1,0.2-0.2c0-0.2,0-0.4,0-0.7h0.2
	v2.3H9.6c0-0.2,0-0.5-0.1-0.7c0-0.1-0.1-0.2-0.2-0.2c-0.1,0-0.3-0.1-0.4-0.1H8.4v1.6c0,0.5,0,0.9,0.1,1.4c0.1,0.1,0.3,0.2,0.6,0.2
	h0.4c0.2,0,0.4,0,0.6-0.1c0.2-0.1,0.4-0.3,0.5-0.5C10.7,114.1,10.8,113.7,10.9,113.3z"/>
<path class="st0" d="M11.7,115.3v-1.8h0.2c0.2,1.1,0.7,1.7,1.4,1.7c0.3,0,0.6-0.1,0.8-0.3c0.2-0.2,0.3-0.5,0.3-0.7
	c0-0.3-0.1-0.5-0.2-0.7c-0.3-0.2-0.6-0.4-0.9-0.6c-0.3-0.1-0.6-0.3-0.9-0.5c-0.2-0.1-0.4-0.3-0.5-0.5c-0.1-0.2-0.2-0.5-0.2-0.7
	c0-0.4,0.1-0.7,0.4-1c0.2-0.3,0.6-0.4,0.9-0.4c0.2,0,0.4,0,0.6,0.1c0.2,0.1,0.4,0.3,0.6,0.5c0.1-0.1,0.2-0.3,0.2-0.5h0.2v1.4h-0.2
	c-0.1-0.4-0.2-0.7-0.5-1c-0.2-0.2-0.5-0.4-0.8-0.4c-0.2,0-0.5,0.1-0.6,0.3c-0.1,0.2-0.2,0.4-0.2,0.6c0,0.2,0.1,0.5,0.2,0.6
	c0.3,0.2,0.6,0.4,0.9,0.6c0.3,0.2,0.6,0.3,0.9,0.5c0.2,0.1,0.4,0.3,0.5,0.5c0.1,0.2,0.2,0.5,0.2,0.8c0,0.4-0.1,0.8-0.4,1.1
	c-0.3,0.3-0.7,0.5-1.1,0.4c-0.5,0-1-0.3-1.3-0.7c-0.1,0.2-0.1,0.3-0.2,0.5L11.7,115.3z"/>
<path class="st0" d="M15.6,111.2h-0.2v-1.3h4.7v1.3H20c0-0.3-0.1-0.5-0.2-0.8c-0.1-0.1-0.2-0.2-0.3-0.3c-0.2,0-0.4,0-0.6,0h-0.8v3.8
	c0,0.3,0,0.6,0,0.8c0,0.1,0.1,0.2,0.1,0.3c0.1,0.1,0.3,0.1,0.4,0.1H19v0.2h-2.4v-0.2h0.2c0.1,0,0.3,0,0.4-0.1
	c0.1-0.1,0.1-0.2,0.1-0.3c0-0.3,0-0.6,0-0.9v-3.8h-0.7c-0.2,0-0.4,0-0.6,0c-0.1,0.1-0.2,0.2-0.3,0.3C15.7,110.7,15.7,111,15.6,111.2
	z"/>
<path class="st0" d="M25.7,115.4h-1.3c-0.4-0.4-0.8-0.9-1.1-1.4c-0.1-0.2-0.3-0.5-0.5-0.7c-0.1-0.2-0.2-0.3-0.3-0.4
	c-0.1-0.1-0.2-0.1-0.3-0.1h-0.2v1.3c0,0.3,0,0.6,0,0.8c0,0.1,0.1,0.2,0.1,0.3c0.1,0.1,0.3,0.1,0.4,0.1h0.2v0.2h-2.3v-0.2h0.1
	c0.1,0,0.3,0,0.4-0.1c0.1-0.1,0.1-0.2,0.1-0.3c0-0.3,0-0.6,0-0.9v-2.7c0-0.3,0-0.6,0-0.8c0-0.1-0.1-0.2-0.1-0.3
	c-0.1-0.1-0.3-0.1-0.5-0.1h-0.1V110l0.7-0.1h1.1c0.4,0,0.8,0,1.1,0.1c0.3,0.1,0.5,0.3,0.7,0.5c0.4,0.5,0.3,1.2-0.1,1.7
	c-0.3,0.3-0.6,0.4-1,0.5c0.4,0.3,0.7,0.7,1,1.2c0.2,0.4,0.5,0.7,0.8,1c0.2,0.2,0.5,0.3,0.7,0.3L25.7,115.4z M22.1,112.6h0.5
	c0.2,0,0.3,0,0.5-0.1c0.1,0,0.2-0.1,0.3-0.2c0.1-0.1,0.2-0.2,0.2-0.4c0.1-0.2,0.1-0.4,0.1-0.6c0-0.3-0.1-0.6-0.2-0.9
	c-0.3-0.3-0.7-0.4-1.1-0.3h-0.3V112.6z"/>
<path class="st0" d="M28.9,113.4h-1.8l-0.1,0.3c-0.1,0.3-0.2,0.7-0.3,1c0,0.1,0,0.3,0.1,0.4c0.1,0.1,0.2,0.1,0.4,0.1v0.2h-1.4v-0.2
	c0.2,0,0.4-0.1,0.5-0.3c0.2-0.3,0.3-0.5,0.4-0.8c0,0,0.1-0.2,0.2-0.5l1.4-3.8h0.1l1.6,4.3l0.2,0.6c0,0.1,0.1,0.2,0.2,0.3
	c0.1,0.1,0.2,0.1,0.4,0.1v0.2h-1.9v-0.2c0.2,0,0.3,0,0.5-0.1c0.1,0,0.1-0.1,0.1-0.2c0-0.2-0.1-0.4-0.2-0.5L28.9,113.4z M28.8,113.2
	l-0.8-2.3l-0.9,2.3H28.8z"/>
<path class="st0" d="M30.5,111.2h-0.2v-1.3H35v1.3h-0.2c0-0.3-0.1-0.5-0.2-0.8c-0.1-0.1-0.2-0.2-0.3-0.3c-0.2,0-0.4,0-0.6,0H33v3.8
	c0,0.3,0,0.6,0,0.8c0,0.1,0.1,0.2,0.2,0.3c0.1,0.1,0.3,0.1,0.4,0.1h0.2v0.2h-2.4v-0.2h0.2c0.1,0,0.3,0,0.4-0.1
	c0.1-0.1,0.1-0.2,0.2-0.3c0-0.3,0-0.6,0-0.9v-3.8h-0.7c-0.2,0-0.4,0-0.6,0c-0.1,0.1-0.2,0.2-0.3,0.3C30.6,110.7,30.5,111,30.5,111.2
	z"/>
<path class="st0" d="M39.5,113.7h0.2l-0.1,1.7h-4v-0.2h0.1c0.2,0,0.3,0,0.5-0.1c0.1-0.1,0.1-0.2,0.1-0.3c0-0.3,0-0.6,0-0.8v-2.7
	c0-0.3,0-0.5,0-0.8c0-0.1-0.1-0.2-0.1-0.3c-0.1-0.1-0.3-0.1-0.5-0.1v-0.2h3.5l0.1,1.3H39c0-0.3-0.1-0.6-0.3-0.8
	c-0.1-0.1-0.2-0.3-0.4-0.3c-0.2,0-0.5-0.1-0.7-0.1h-0.7v2.3h0.5c0.2,0,0.3,0,0.5-0.1c0.1,0,0.2-0.1,0.2-0.2c0-0.2,0-0.4,0-0.5h0.2
	v1.9h-0.2c0-0.2,0-0.4-0.1-0.6c0-0.1-0.1-0.2-0.2-0.2c-0.1,0-0.3,0-0.4,0h-0.5v1.3c0,0.4,0,0.8,0.1,1.1c0.1,0.1,0.3,0.2,0.6,0.2H38
	c0.2,0,0.4,0,0.6-0.1c0.2-0.1,0.4-0.3,0.5-0.5C39.3,114.4,39.4,114,39.5,113.7z"/>
<path class="st0" d="M43.2,113h2.1v0.2c-0.2,0-0.3,0-0.5,0.1c-0.1,0.1-0.1,0.2-0.2,0.3c0,0.3,0,0.6,0,0.9v0.6h-0.2
	c-0.2,0-0.5,0.1-0.7,0.2c-0.4,0.2-0.7,0.3-1.1,0.3c-0.7,0-1.3-0.3-1.7-0.8c-0.5-0.5-0.7-1.2-0.7-1.9c0-0.7,0.2-1.4,0.7-2
	c0.4-0.6,1.1-0.9,1.8-0.9c0.6,0,1.2,0.3,1.6,0.8c0.1-0.2,0.1-0.4,0.2-0.6h0.2v1.8h-0.2c0-0.5-0.2-1-0.6-1.3
	c-0.3-0.3-0.7-0.5-1.1-0.5c-0.5,0-0.9,0.2-1.2,0.6c-0.4,0.6-0.6,1.3-0.5,2c-0.1,0.7,0.1,1.4,0.5,2c0.3,0.4,0.7,0.6,1.2,0.6
	c0.2,0,0.5-0.1,0.7-0.2c0.2-0.1,0.3-0.2,0.4-0.4c0.1-0.2,0.1-0.4,0.1-0.6c0-0.2,0-0.4,0-0.6c0-0.1-0.1-0.2-0.2-0.2
	c-0.1,0-0.3,0-0.4,0h-0.1V113z"/>
<path class="st0" d="M45.7,110.1v-0.2h2.2v0.2h-0.1c-0.2,0-0.3,0-0.5,0.1c-0.1,0.1-0.1,0.1-0.2,0.2c0,0.3,0,0.6,0,0.9v2.7
	c0,0.3,0,0.6,0,0.8c0,0.1,0.1,0.2,0.1,0.3c0.1,0.1,0.3,0.1,0.5,0.1h0.1v0.2h-2.2v-0.2h0.2c0.1,0,0.3,0,0.4-0.1
	c0.1-0.1,0.1-0.2,0.2-0.3c0-0.3,0-0.6,0-0.9v-2.7c0-0.3,0-0.6,0-0.8c0-0.1-0.1-0.2-0.2-0.3c-0.1-0.1-0.3-0.1-0.5-0.1L45.7,110.1z"/>
<path class="st0" d="M51.3,113.4h-1.8l-0.1,0.3c-0.1,0.3-0.2,0.7-0.3,1c0,0.1,0,0.3,0.2,0.4c0.1,0.1,0.2,0.1,0.4,0.1v0.2h-1.4v-0.2
	c0.2,0,0.4-0.1,0.5-0.3c0.2-0.3,0.3-0.5,0.4-0.8c0-0.2,0.1-0.3,0.2-0.5l1.4-3.8h0.1l1.6,4.3l0.2,0.6c0,0.1,0.1,0.2,0.2,0.3
	c0.1,0.1,0.2,0.1,0.4,0.1v0.2h-1.9v-0.2c0.2,0,0.3,0,0.5-0.1c0.1,0,0.1-0.1,0.1-0.2c0-0.2-0.1-0.4-0.2-0.5L51.3,113.4z M51.2,113.2
	l-0.8-2.3l-0.8,2.3H51.2z"/>
<path class="st0" d="M53.5,115.3v-1.8h0.2c0.2,1.1,0.7,1.7,1.4,1.7c0.3,0,0.6-0.1,0.8-0.3c0.2-0.2,0.3-0.5,0.3-0.7
	c0-0.3-0.1-0.5-0.2-0.7c-0.3-0.2-0.6-0.4-0.9-0.6c-0.3-0.1-0.6-0.3-0.9-0.5c-0.2-0.1-0.4-0.3-0.5-0.5c-0.1-0.2-0.2-0.5-0.2-0.7
	c0-0.4,0.1-0.7,0.4-1c0.2-0.3,0.6-0.4,0.9-0.4c0.2,0,0.4,0,0.6,0.1c0.2,0.1,0.4,0.3,0.5,0.5c0.1-0.1,0.2-0.3,0.2-0.5h0.2v1.4h-0.2
	c-0.1-0.4-0.2-0.7-0.5-1c-0.2-0.2-0.5-0.4-0.8-0.4c-0.2,0-0.5,0.1-0.6,0.3c-0.1,0.2-0.2,0.4-0.2,0.6c0,0.2,0.1,0.5,0.2,0.6
	c0.3,0.2,0.6,0.4,0.9,0.6c0.3,0.2,0.6,0.3,0.9,0.5c0.2,0.1,0.4,0.3,0.5,0.5c0.1,0.2,0.2,0.5,0.2,0.8c0,0.4-0.1,0.8-0.4,1.2
	c-0.3,0.3-0.7,0.5-1.1,0.4c-0.5,0-1-0.3-1.3-0.7c-0.1,0.2-0.2,0.3-0.2,0.5L53.5,115.3z"/>
<path class="st0" d="M63.5,114.2l1.8-5.4h1.5v0.2h-0.2c-0.2,0-0.3,0-0.5,0.1c-0.1,0.1-0.1,0.2-0.1,0.3c0,0.3,0,0.7,0,1v3.2
	c0,0.5,0,0.9,0,1c0,0.1,0.1,0.3,0.1,0.3c0.1,0.1,0.3,0.1,0.4,0.1h0.2v0.2h-2.3v-0.2h0.2c0.2,0,0.3,0,0.4-0.1
	c0.1-0.1,0.1-0.2,0.2-0.3c0-0.3,0-0.7,0-1v-4.2l-1.9,5.9h-0.2l-1.9-5.9v3.8c0,0.5,0,0.9,0,1.1c0,0.2,0.1,0.4,0.2,0.5
	c0.1,0.2,0.3,0.2,0.5,0.2v0.2h-1.7v-0.2c0.2,0,0.4-0.1,0.5-0.2c0.1-0.1,0.2-0.3,0.2-0.5c0-0.4,0-0.7,0-1.1v-2.9c0-0.5,0-0.9,0-1
	c0-0.1-0.1-0.2-0.1-0.3c-0.1-0.1-0.3-0.1-0.5-0.1h-0.1v-0.2h1.5L63.5,114.2z"/>
<path class="st0" d="M71.1,113.7h0.2l-0.1,1.7h-4v-0.2h0.1c0.2,0,0.3,0,0.5-0.1c0.1-0.1,0.1-0.2,0.1-0.3c0-0.3,0-0.6,0-0.8v-2.7
	c0-0.3,0-0.5,0-0.8c0-0.1-0.1-0.2-0.1-0.3c-0.1-0.1-0.3-0.1-0.5-0.1v-0.2h3.4l0.1,1.3h-0.2c0-0.3-0.1-0.6-0.3-0.8
	c-0.1-0.1-0.2-0.3-0.4-0.3c-0.2,0-0.5-0.1-0.7-0.1h-0.7v2.3h0.5c0.2,0,0.3,0,0.5-0.1c0.1,0,0.2-0.1,0.2-0.2c0-0.2,0-0.4,0-0.5H70
	v1.9h-0.2c0-0.2,0-0.4-0.1-0.6c0-0.1-0.1-0.2-0.2-0.2c-0.1,0-0.3,0-0.4,0h-0.5v1.3c0,0.4,0,0.8,0.1,1.1c0.1,0.1,0.3,0.2,0.6,0.2h0.4
	c0.2,0,0.4,0,0.6-0.1c0.2-0.1,0.4-0.3,0.5-0.5C70.9,114.4,71.1,114,71.1,113.7z"/>
<path class="st0" d="M71.9,111.2h-0.2v-1.3h4.7v1.3h-0.1c0-0.3-0.1-0.5-0.2-0.8c-0.1-0.1-0.2-0.2-0.3-0.3c-0.2,0-0.4,0-0.6,0h-0.8
	v3.8c0,0.3,0,0.6,0,0.8c0,0.1,0.1,0.2,0.1,0.3c0.1,0.1,0.3,0.1,0.4,0.1h0.2v0.2h-2.4v-0.2h0.2c0.1,0,0.3,0,0.4-0.1
	c0.1-0.1,0.1-0.2,0.2-0.3c0-0.3,0-0.6,0-0.9v-3.8H73c-0.2,0-0.4,0-0.6,0c-0.1,0.1-0.2,0.2-0.3,0.3C72,110.7,71.9,111,71.9,111.2z"/>
<path class="st0" d="M81.9,115.4h-1.3c-0.4-0.4-0.8-0.9-1.1-1.4c-0.2-0.2-0.3-0.5-0.5-0.7c-0.1-0.1-0.2-0.3-0.3-0.4
	c-0.1-0.1-0.2-0.1-0.3-0.1h-0.2v1.3c0,0.3,0,0.6,0,0.8c0,0.1,0.1,0.2,0.1,0.3c0.1,0.1,0.3,0.1,0.4,0.1h0.2v0.2h-2.3v-0.2H77
	c0.1,0,0.3,0,0.4-0.1c0.1-0.1,0.1-0.2,0.2-0.3c0-0.3,0-0.6,0-0.9v-2.7c0-0.3,0-0.6,0-0.8c0-0.1-0.1-0.2-0.1-0.3
	c-0.2-0.1-0.3-0.1-0.5-0.1h-0.1V110l0.7-0.1h1.1c0.4,0,0.8,0,1.1,0.1c0.3,0.1,0.5,0.3,0.7,0.5c0.2,0.2,0.3,0.5,0.3,0.8
	c0,0.3-0.1,0.7-0.3,0.9c-0.3,0.3-0.6,0.4-1,0.5c0.4,0.3,0.7,0.7,1,1.2c0.2,0.4,0.5,0.8,0.9,1.1C81.5,115.2,81.7,115.3,81.9,115.4
	L81.9,115.4z M78.3,112.6h0.6c0.2,0,0.3,0,0.5-0.1c0.1,0,0.2-0.1,0.3-0.2c0.1-0.1,0.2-0.2,0.2-0.4c0.1-0.2,0.1-0.4,0.1-0.6
	c0-0.3-0.1-0.6-0.2-0.9c-0.3-0.3-0.7-0.4-1.1-0.3h-0.3L78.3,112.6z"/>
<path class="st0" d="M81.8,112.6c0-0.7,0.2-1.5,0.8-2c0.5-0.5,1.2-0.8,1.9-0.8c0.7,0,1.4,0.3,1.9,0.8c0.5,0.6,0.8,1.3,0.8,2.1
	c0,0.7-0.2,1.5-0.7,2c-1,1-2.7,1-3.8,0C82,114.1,81.7,113.4,81.8,112.6z M82.6,112.6c-0.1,0.7,0.1,1.4,0.5,2
	c0.3,0.4,0.8,0.7,1.4,0.7c0.5,0,1-0.2,1.3-0.7c0.4-0.6,0.5-1.3,0.5-2c0-0.7-0.1-1.4-0.5-1.9c-0.6-0.7-1.6-0.9-2.4-0.3
	c-0.1,0.1-0.2,0.2-0.3,0.3C82.7,111.3,82.5,112,82.6,112.6L82.6,112.6z"/>
<path class="st0" d="M90.8,114.2l1.8-5.4H94v0.2h-0.2c-0.2,0-0.3,0-0.5,0.1c-0.1,0.1-0.1,0.2-0.2,0.3c0,0.3,0,0.7,0,1v3.2
	c0,0.5,0,0.9,0,1c0,0.1,0.1,0.3,0.2,0.3c0.1,0.1,0.3,0.1,0.4,0.1H94v0.2h-2.3v-0.2h0.2c0.2,0,0.3,0,0.4-0.1c0.1-0.1,0.1-0.2,0.2-0.3
	c0-0.2,0-0.5,0-1v-4.2l-1.9,5.9h-0.2l-1.9-5.9v3.8c0,0.5,0,0.9,0,1.1c0,0.2,0.1,0.4,0.2,0.5c0.1,0.2,0.3,0.2,0.5,0.2v0.2h-1.6v-0.2
	c0.2,0,0.4-0.1,0.5-0.2c0.1-0.1,0.2-0.3,0.2-0.5c0-0.4,0-0.7,0-1.1v-2.9c0-0.3,0-0.7,0-1c0-0.1-0.1-0.2-0.1-0.3
	c-0.1-0.1-0.3-0.1-0.5-0.1h-0.1v-0.2H89L90.8,114.2z"/>
<path class="st0" d="M98.3,113.7h0.2l-0.1,1.7h-4v-0.2h0.1c0.2,0,0.3,0,0.5-0.1c0.1-0.1,0.1-0.2,0.1-0.3c0-0.3,0-0.6,0-0.8v-2.7
	c0-0.3,0-0.5,0-0.8c0-0.1-0.1-0.2-0.1-0.3c-0.1-0.1-0.3-0.1-0.4-0.1v-0.2H98l0.1,1.3H98c0-0.3-0.1-0.6-0.3-0.8
	c-0.1-0.1-0.2-0.3-0.4-0.3c-0.2,0-0.5-0.1-0.7-0.1h-0.7v2.3h0.5c0.2,0,0.3,0,0.5-0.1c0.1,0,0.2-0.1,0.2-0.2c0-0.2,0-0.4,0-0.5h0.2
	v1.9h-0.2c0-0.2,0-0.4-0.1-0.6c0-0.1-0.1-0.2-0.2-0.2c-0.1,0-0.3,0-0.4,0h-0.5v1.3c0,0.4,0,0.7,0.2,1.1c0.1,0.1,0.3,0.2,0.6,0.2h0.4
	c0.2,0,0.4,0,0.6-0.1c0.2-0.1,0.4-0.3,0.5-0.5C98.2,114.3,98.3,114,98.3,113.7z"/>
<path class="st0" d="M101.8,112.3l1.2,1.7c0.2,0.4,0.5,0.7,0.8,1c0.1,0.1,0.3,0.1,0.5,0.1v0.2H102v-0.2c0.2,0,0.3,0,0.5-0.1
	c0.1,0,0.2-0.1,0.2-0.2c0-0.1,0-0.2-0.1-0.2c-0.1-0.2-0.2-0.3-0.3-0.5l-0.9-1.2l-0.8,1c-0.1,0.2-0.2,0.3-0.3,0.5
	c-0.1,0.1-0.1,0.2-0.1,0.3c0,0.3,0.2,0.4,0.6,0.4v0.2h-1.9v-0.2c0.2,0,0.4-0.1,0.6-0.2c0.2-0.1,0.3-0.2,0.4-0.4
	c0.2-0.2,0.4-0.5,0.6-0.8l0.8-1.1l-1.2-1.7l-0.4-0.6c-0.1-0.1-0.2-0.2-0.3-0.3c-0.1-0.1-0.3-0.1-0.4-0.1v-0.2h2.1v0.2h-0.1
	c-0.3,0-0.4,0.1-0.4,0.2c0,0.1,0,0.1,0.1,0.2c0.1,0.1,0.2,0.3,0.3,0.4l0.9,1.2l0.8-1.1c0.1-0.1,0.2-0.3,0.3-0.5
	c0-0.1,0.1-0.1,0.1-0.2c0-0.1,0-0.2-0.1-0.2c-0.2-0.1-0.3-0.1-0.5-0.1v-0.2h1.8v0.2c-0.3,0-0.6,0.1-0.8,0.3
	c-0.3,0.3-0.5,0.5-0.7,0.8L101.8,112.3z"/>
<path class="st0" d="M42.7,95.9l-7.3,5.2v1.8c2.3-0.3,4.7-0.7,7.3-0.9V95.9z"/>
<path class="st0" d="M33.9,98.4l-6.1,4.3v1.6c1.9-0.4,3.9-0.8,6.1-1.2V98.4z"/>
<path class="st0" d="M84.4,102.7l-6.1-4.3v4.8c2.2,0.4,4.2,0.8,6.1,1.2V102.7z"/>
<path class="st0" d="M76.8,101.1l-7.3-5.2v6.1c2.6,0.2,5.1,0.6,7.3,0.9L76.8,101.1z"/>
<path class="st0" d="M84.4,104.3c-1.9-0.4-3.9-0.8-6.1-1.2l-1.4-0.2c-2.3-0.3-4.7-0.7-7.3-0.9c-0.9-0.1-1.9-0.2-2.8-0.2l-9.9-7.1
	v6.8h-1.3v-6.8l-9.9,7.1c-1,0.1-1.9,0.2-2.8,0.2c-2.6,0.2-5.1,0.6-7.3,0.9l-1.4,0.2c-2.2,0.4-4.2,0.8-6.1,1.2
	c-4.8,1-9.4,2.4-13.9,4.2c0,0,14.2-4.8,42.2-4.8s42.2,4.8,42.2,4.8C93.8,106.7,89.1,105.3,84.4,104.3z"/>
<path class="st0" d="M331,48.2h10.8v40.8H331V48.2z"/>
<path class="st0" d="M345.2,48.1h24.8v26.3C361.7,65.7,353.5,57,345.2,48.1z"/>
<path class="st0" d="M373.1,88.9h-23.3V63.3L373.1,88.9z"/>
<path class="st0" d="M359.3,99.2v7.6c0,0.4,0,0.8-0.6,0.8s-0.5-0.4-0.5-0.7c0-3.1,0-6.3,0-9.4c0-0.2,0.1-0.5,0.3-0.7
	c0.2,0.1,0.6,0.2,0.7,0.4c1.9,2.4,3.9,4.8,5.8,7.2c0.2,0.2,0.4,0.5,0.7,0.9c0-0.4,0-0.6,0-0.8v-6.7c0-0.9,0-0.9,0.9-0.9s1.9,0,2.8,0
	c3,0.1,5.3,2.6,5.2,5.5c-0.1,2.8-2.3,5-5.1,5.2c-1,0-1.9,0-2.9,0c-0.3-0.1-0.6-0.2-0.8-0.5c-2-2.4-3.9-4.9-5.9-7.3l-0.5-0.6
	L359.3,99.2z M367,106.4c1,0,1.9,0.1,2.8,0c2.3-0.3,4-2.4,3.7-4.7c-0.2-1.5-1.2-2.9-2.6-3.4c-1.3-0.3-2.5-0.4-3.8-0.5V106.4z"/>
<path class="st0" d="M341.8,106.5c1.8,0,3.5,0,5.2,0c0.2,0,0.5-0.3,0.6-0.6c1.3-2.8,2.6-5.6,3.8-8.5c0-0.1,0.1-0.2,0.1-0.3
	c0.1-0.2,0.3-0.4,0.5-0.4c0.2,0,0.4,0.2,0.5,0.4c1.5,3.2,2.9,6.5,4.4,9.7c0.1,0.2,0,0.4-0.1,0.7c-0.3-0.1-0.8-0.1-1-0.3
	c-0.3-0.6-0.6-1.2-0.8-1.8c-0.1-0.4-0.5-0.6-0.9-0.6c-1.4,0-2.8,0-4.2,0c-0.4-0.1-0.8,0.2-0.9,0.6c-0.2,0.6-0.4,1.1-0.8,1.7
	c-0.2,0.3-0.4,0.4-0.8,0.5c-2.1,0-4.2,0-6.3,0c-0.5,0-0.7-0.2-0.7-0.7c0-3.1,0-6.2,0-9.3c0-0.4,0-0.7,0.6-0.7s0.6,0.2,0.6,0.7
	c0,2.7,0,5.4,0,8L341.8,106.5z M354.3,103.8l-2.2-5l-2.2,5H354.3z"/>
<path class="st0" d="M337.8,105v-1.9c0-1.9,0-3.8,0-5.6c0-0.4,0.1-0.6,0.6-0.6s0.6,0.2,0.6,0.6c0,3.2,0,6.4,0,9.7
	c0,0.2-0.1,0.4-0.2,0.6c-0.2-0.1-0.5-0.2-0.7-0.4c-2-2.5-4.1-5.1-6.1-7.6c-0.1-0.2-0.3-0.3-0.6-0.7v7.8c0,0.4,0,0.8-0.6,0.8
	s-0.5-0.3-0.5-0.7c0-3.1,0-6.3,0-9.4c0-0.2,0.1-0.5,0.2-0.7c0.2,0.1,0.6,0.2,0.7,0.3c2,2.4,4,4.9,5.9,7.3l0.5,0.6L337.8,105z"/>
<path class="st0" d="M328.2,102.1c0,1.6,0,3.1,0,4.7c0,0.4,0,0.7-0.6,0.7s-0.7-0.2-0.6-0.7c0-3.1,0-6.2,0-9.3c0-0.4,0.1-0.7,0.6-0.7
	s0.6,0.2,0.6,0.7C328.2,99,328.2,100.6,328.2,102.1z"/>
<path class="st0" d="M326.9,114.7c0-1.1,0-2.1,0-3.1c0-0.2,0.1-0.3,0.2-0.4c0.9-0.3,1.9,0.1,2.5,0.9c0.5,0.8,0.2,1.9-0.7,2.4
	c-0.2,0.1-0.4,0.2-0.7,0.2C327.9,114.7,327.4,114.7,326.9,114.7z M327.3,114.3c0.8,0,1.5,0.1,1.9-0.7c0.3-0.5,0.3-1.1-0.1-1.6
	c-0.4-0.5-1.2-0.7-1.8-0.4L327.3,114.3z"/>
<path class="st0" d="M367.5,111.2c0.8,0.1,1.7-0.3,2.3,0.6c0.4,0.7,0,1.1-0.5,1.6l0.6,1.2l-0.2,0.2c-0.2-0.2-0.4-0.5-0.5-0.7
	c-0.1-0.4-0.5-0.7-1-0.6c-0.1,0-0.2,0-0.2,0.1l-0.1,1.3C367.4,114.3,367.3,113.1,367.5,111.2z M367.9,113.2c0.5-0.2,1-0.3,1.5-0.6
	c0.1,0,0-0.6-0.1-0.7c-0.5-0.2-0.9-0.3-1.4-0.4V113.2z"/>
<path class="st0" d="M355.1,113c0,1-0.8,1.8-1.8,1.8c-1,0-1.8-0.8-1.8-1.8c0-1,0.8-1.8,1.7-1.8c0,0,0,0,0.1,0
	C354.2,111.2,355,111.9,355.1,113C355.1,112.9,355.1,113,355.1,113z M354.7,113c0-0.8-0.7-1.4-1.5-1.4c-0.8,0.1-1.3,0.7-1.3,1.5
	c0,0.8,0.6,1.4,1.4,1.4c0,0,0,0,0,0C354.1,114.4,354.7,113.8,354.7,113z"/>
<path class="st0" d="M344.7,111.5l-1.7,0.1v1.1l1.4,0.1v0.2l-1.4,0.1v1.2l1.7,0.1v0.2h-2.1c0-1,0-2.1,0-3.1c0-0.1,0.1-0.2,0.3-0.3
	c0.6,0,1.2,0,1.9,0L344.7,111.5z"/>
<path class="st0" d="M332.5,114.6c0-1,0-2,0-3c0-0.1,0.2-0.3,0.3-0.3c0.6,0,1.2,0,1.8,0v0.3l-1.7,0.1v1.1l1.4,0.1v0.2l-1.4,0.1v1.2
	h1.6v0.2L332.5,114.6z"/>
<path class="st0" d="M364.7,111.5l-1.7,0.1v1.1l1.4,0.1v0.2l-1.4,0.1v1.2h1.6v0.2h-2.1v-3.3h2L364.7,111.5z"/>
<path class="st0" d="M358.2,113.5l-0.1,1.2h-0.2c0-0.3-0.1-0.6-0.1-0.9c0-0.5,0-1,0-1.5c0-0.4-0.4-1.1,0.6-1.1
	c1.1,0,1.7,0.3,1.7,1.1s-0.5,1.1-1.2,1.2L358.2,113.5z M358.2,113.2c0.5-0.2,0.9-0.4,1.4-0.6c0.1-0.2,0.1-0.5,0-0.7
	c-0.4-0.2-0.9-0.4-1.4-0.5L358.2,113.2z"/>
<path class="st0" d="M372.5,114.1c0.1,0,0.3,0,0.4,0.1c0.4,0.2,1,0.4,1.2-0.1s-0.4-0.7-0.7-1c-0.2-0.1-0.5-0.2-0.6-0.4
	s-0.3-0.8-0.2-1c0.2-0.3,0.6-0.5,1-0.6c0.3-0.1,0.6,0.2,0.9,0.3l-0.1,0.3c-0.2-0.1-0.4-0.2-0.6-0.2s-0.6,0.2-0.7,0.3
	s0.1,0.5,0.3,0.7c0.2,0.1,0.4,0.3,0.6,0.3c0.5,0.2,0.9,0.6,0.7,1.2c-0.2,0.5-0.7,0.8-1.2,0.6c-0.3-0.1-0.6-0.2-0.9-0.4L372.5,114.1z
	"/>
<path class="st0" d="M338.4,114.7l-1.5-3.4l0.3-0.2l1.3,2.8l1.3-2.8l0.3,0.2l-1.5,3.4L338.4,114.7z"/>
<path class="st0" d="M349.3,114.7h-1.8v-3.4h0.2c0.3,1,0,2,0.2,3.1l1.4,0.1L349.3,114.7z"/>
<path class="st0" d="M377,98.1c0,0.6-0.5,1.1-1.1,1.1c-0.6,0-1.1-0.5-1.1-1.1c0-0.6,0.5-1.1,1.1-1.1c0,0,0,0,0,0
	C376.5,97,377,97.5,377,98.1C377,98.1,377,98.1,377,98.1z M375.7,99h0.3c0.3-0.3,0.5-0.6,0.6-1c0.1-0.4-0.4-0.9-0.9-0.8
	s-0.9,0.3-0.8,0.8S375.5,98.7,375.7,99L375.7,99z"/>
<path class="st0" d="M376.2,98.5h-0.7v-0.9C376.4,97.4,376.5,97.5,376.2,98.5z"/>
<g>
	<g>
		<path class="st0" d="M206,94.9c-14.8,0-26.9-12.1-26.9-26.9v-0.5h0.8V68C180,82.3,191.7,94,206,94c14.4,0,26.1-11.7,26.1-26.1
			v-0.3h0.8V68C232.9,82.8,220.9,94.9,206,94.9"/>
		<path class="st0" d="M206,91.1c-12.3,0-22.5-9.6-23.1-21.9v0l0-0.2l0.8,0.1l0,0.2c0.6,11.8,10.4,21.1,22.3,21.1
			s21.7-9.3,22.3-21.2v-0.4h0.8v0.4C228.5,81.5,218.4,91.1,206,91.1"/>
		<path class="st0" d="M206,87.3c-4.9,0-9.6-1.8-13.2-5.2c-3.6-3.3-5.8-7.9-6.1-12.7l0.8-0.1c0.3,4.7,2.4,9,5.9,12.2
			c3.4,3.2,7.9,5,12.7,5c4.7,0,9.1-1.7,12.6-4.9c3.4-3.1,5.5-7.4,5.9-12l0.8,0.1c-0.4,4.8-2.6,9.3-6.2,12.6
			C215.6,85.5,210.9,87.3,206,87.3"/>
		<path class="st0" d="M206,83.6c-8,0-14.7-6-15.5-13.9l0.8-0.1c0.8,7.5,7.1,13.2,14.7,13.2c7.3,0,13.6-5.4,14.6-12.7v-0.4h0.8v0.5
			C220.4,77.8,213.8,83.6,206,83.6"/>
		<path class="st0" d="M206,79.8c-6.1,0-11.2-4.6-11.8-10.6l0.8-0.1c0.6,5.6,5.3,9.9,11,9.9c5.5,0,10.2-4.1,10.9-9.6l0.8,0.1
			C217,75.4,212,79.8,206,79.8"/>
		<path class="st0" d="M206,76.1c-4.4,0-7.9-3.4-8.1-7.7l0.8,0c0.2,3.9,3.4,6.9,7.3,6.9c3.8,0,7-2.9,7.3-6.7l0.8,0.1
			C213.8,72.8,210.2,76.1,206,76.1"/>
		<path class="st0" d="M222,70.1c-3.2,0-6.4-0.6-9.4-1.7c-6.7-2.5-12.1-7.5-15-14c-3-6.5-3.2-13.8-0.7-20.5
			c2.5-6.7,7.4-12.1,13.9-15l0.4,0.8c-6.3,2.9-11.1,8.1-13.5,14.6c-2.4,6.5-2.2,13.6,0.7,19.9c2.9,6.3,8.1,11.2,14.6,13.6
			c6.5,2.4,13.6,2.2,19.9-0.7l0.4,0.8C229.6,69.2,225.8,70.1,222,70.1"/>
		<path class="st0" d="M222,66.3c-2.7,0-5.5-0.5-8.1-1.5c-5.8-2.2-10.4-6.5-12.9-12.1s-2.8-11.9-0.6-17.7
			c2.2-5.8,6.5-10.4,12.1-12.9l0.4,0.8c-5.4,2.5-9.6,6.9-11.6,12.5c-2.1,5.6-1.9,11.6,0.6,17.1c2.5,5.4,6.9,9.6,12.5,11.6
			c5.6,2.1,11.6,1.9,17.1-0.6l0.4,0.8C228.5,65.6,225.3,66.3,222,66.3"/>
		<path class="st0" d="M222,62.5c-7.4,0-14.4-4.2-17.7-11.3c-2.1-4.7-2.3-10-0.5-14.8c1.8-4.8,5.4-8.7,10.1-10.8l0.4,0.8
			c-4.5,2.1-8,5.7-9.7,10.4c-1.7,4.6-1.6,9.7,0.5,14.2c3.1,6.8,9.9,10.8,16.9,10.8c2.6,0,5.2-0.5,7.7-1.7l0.3,0.8
			C227.4,62,224.7,62.5,222,62.5"/>
		<path class="st0" d="M222,58.8c-5.9,0-11.6-3.4-14.2-9.1c-1.7-3.8-1.9-8-0.4-12c1.5-3.9,4.4-7,8.1-8.7l0.4,0.8
			c-3.6,1.6-6.3,4.6-7.7,8.3c-1.4,3.7-1.2,7.7,0.4,11.3c3.4,7.4,12.2,10.7,19.6,7.3l0.3,0.8C226.4,58.3,224.2,58.8,222,58.8"/>
		<path class="st0" d="M222,55c-1.4,0-2.8-0.3-4.2-0.8c-3-1.1-5.3-3.3-6.6-6.2c-1.3-2.9-1.4-6.1-0.3-9.1c1.1-3,3.3-5.3,6.2-6.6
			l0.4,0.8c-2.7,1.2-4.7,3.4-5.8,6.2c-1,2.8-0.9,5.8,0.3,8.4c1.2,2.7,3.4,4.7,6.2,5.8c2.8,1,5.8,0.9,8.4-0.3l0.4,0.8
			C225.3,54.7,223.7,55,222,55"/>
		<path class="st0" d="M222,51.3c-1,0-1.9-0.2-2.8-0.5c-2-0.8-3.6-2.3-4.5-4.2c-1.8-4.1-0.1-8.9,4-10.8l0.4,0.8
			c-3.7,1.7-5.3,6-3.6,9.6c0.8,1.8,2.3,3.1,4.1,3.8c1.8,0.7,3.8,0.6,5.6-0.2l0.3,0.8C224.3,51,223.1,51.3,222,51.3"/>
		<path class="st0" d="M190.1,70.1c-3.8,0-7.6-0.8-11.1-2.4l0.4-0.8c6.3,2.9,13.4,3.1,19.9,0.7c6.5-2.4,11.7-7.3,14.6-13.6
			c5.9-13,0.2-28.5-12.8-34.5l0.4-0.8c13.4,6.2,19.4,22.1,13.2,35.6c-3,6.5-8.3,11.5-15,14C196.4,69.5,193.3,70.1,190.1,70.1"/>
		<path class="st0" d="M190.1,66.3c-3.3,0-6.5-0.7-9.6-2.1l0.4-0.8c5.4,2.5,11.5,2.7,17.1,0.6c5.6-2.1,10-6.2,12.5-11.6
			c2.5-5.4,2.7-11.5,0.6-17.1c-2.1-5.6-6.2-10-11.6-12.5l0.3-0.8c5.6,2.6,9.9,7.2,12.1,12.9c2.2,5.8,1.9,12.1-0.6,17.7
			c-2.6,5.6-7.2,9.9-12.9,12.1C195.6,65.8,192.8,66.3,190.1,66.3"/>
		<path class="st0" d="M190.1,62.6c-2.7,0-5.4-0.6-8-1.7l0.4-0.8c2.5,1.1,5.1,1.7,7.7,1.7c7.1,0,13.8-4,16.9-10.8
			c4.2-9.3,0.1-20.3-9.2-24.6l0.4-0.8c9.7,4.4,14,15.9,9.6,25.7C204.5,58.4,197.4,62.6,190.1,62.6"/>
		<path class="st0" d="M190.1,58.8c-2.2,0-4.4-0.4-6.5-1.4l0.4-0.8c2,0.9,4.1,1.3,6.1,1.3c5.6,0,11-3.2,13.5-8.7
			c1.6-3.6,1.8-7.6,0.4-11.3c-1.4-3.7-4.1-6.6-7.7-8.3l0.4-0.8c3.8,1.7,6.7,4.8,8.1,8.7c1.5,3.9,1.3,8.1-0.4,12
			C201.7,55.4,196,58.8,190.1,58.8"/>
		<path class="st0" d="M190.1,55.1c-1.7,0-3.3-0.4-4.9-1.1l0.4-0.8c2.7,1.2,5.7,1.3,8.4,0.3c2.8-1,5-3.1,6.2-5.8
			c1.2-2.7,1.3-5.7,0.3-8.4c-1-2.8-3.1-5-5.8-6.2l0.4-0.8c2.9,1.3,5.1,3.7,6.2,6.6c1.1,3,1,6.2-0.3,9.1c-1.3,2.9-3.7,5.1-6.6,6.2
			C192.9,54.8,191.5,55.1,190.1,55.1"/>
		<path class="st0" d="M190.1,51.3c-1.1,0-2.3-0.3-3.4-0.7l0.4-0.8c1.8,0.8,3.8,0.9,5.6,0.2c1.8-0.7,3.3-2,4.1-3.8
			c1.7-3.7,0-8-3.6-9.6l0.3-0.8c4.1,1.8,5.9,6.7,4,10.8c-0.9,2-2.5,3.5-4.5,4.2C192,51.1,191.1,51.3,190.1,51.3"/>
	</g>
	<polygon class="st0" points="206,10.9 201.4,18.9 202.1,19.3 206,12.6 210,19.4 210.7,19 	"/>
	<polygon class="st0" points="177.6,127.4 177.6,128 179.5,128 179.5,133.3 180.1,133.3 180.2,133.3 180.2,128 182.1,128 
		182.1,127.4 	"/>
	<g>
		<path class="st0" d="M192.6,133.5c-0.4,0-0.8-0.1-1.1-0.2c-0.3-0.2-0.5-0.4-0.7-0.6c-0.2-0.2-0.3-0.5-0.3-0.8
			c-0.1-0.3-0.1-0.5-0.1-0.8v-3.7h0.6v3.6c0,0.2,0,0.5,0.1,0.7c0.1,0.2,0.1,0.4,0.3,0.6c0.1,0.2,0.3,0.3,0.5,0.4
			c0.2,0.1,0.5,0.2,0.8,0.2c0.3,0,0.5-0.1,0.8-0.2c0.2-0.1,0.4-0.3,0.5-0.4c0.1-0.2,0.2-0.4,0.3-0.6c0.1-0.2,0.1-0.4,0.1-0.7v-3.6
			h0.6v3.7c0,0.3,0,0.5-0.1,0.8c-0.1,0.3-0.2,0.5-0.4,0.8c-0.2,0.2-0.4,0.4-0.7,0.6C193.4,133.4,193.1,133.5,192.6,133.5"/>
	</g>
	<polygon class="st0" points="203.8,127.4 203.8,133.3 207.2,133.3 207.2,132.8 204.4,132.8 204.4,127.4 	"/>
	<g>
		<path class="st0" d="M217.5,133.5c-0.4,0-0.8-0.1-1.1-0.2c-0.3-0.2-0.5-0.4-0.7-0.6c-0.2-0.2-0.3-0.5-0.3-0.8
			c-0.1-0.3-0.1-0.5-0.1-0.8v-3.7h0.6v3.6c0,0.2,0,0.5,0.1,0.7c0.1,0.2,0.1,0.4,0.3,0.6c0.1,0.2,0.3,0.3,0.5,0.4
			c0.2,0.1,0.5,0.2,0.8,0.2c0.3,0,0.5-0.1,0.8-0.2c0.2-0.1,0.4-0.3,0.5-0.4c0.1-0.2,0.2-0.4,0.3-0.6c0.1-0.2,0.1-0.4,0.1-0.7v-3.6
			h0.6v3.7c0,0.3,0,0.5-0.1,0.8c-0.1,0.3-0.2,0.5-0.4,0.8c-0.2,0.2-0.4,0.4-0.7,0.6C218.3,133.4,217.9,133.5,217.5,133.5"/>
	</g>
	<polygon class="st0" points="233.6,127.4 231.6,132.3 229.6,127.4 228.7,127.4 228.7,133.3 229.3,133.3 229.3,128.2 229.3,128.2 
		231.4,133.3 231.7,133.3 233.9,128.2 233.9,128.2 233.9,133.3 234.5,133.3 234.5,127.4 	"/>
	<g>
		<path class="st0" d="M172.8,114.5h2.2c0.2,0,0.5,0,0.7-0.1c0.3,0,0.5-0.1,0.8-0.3c0.2-0.1,0.4-0.3,0.6-0.6
			c0.2-0.2,0.2-0.6,0.2-0.9c0-0.6-0.2-1.1-0.6-1.5c-0.4-0.3-1-0.5-1.7-0.5h-2.2V114.5z M172.8,109.4h2c0.3,0,0.5,0,0.8-0.1
			c0.2-0.1,0.5-0.2,0.6-0.3c0.2-0.1,0.3-0.3,0.4-0.5c0.1-0.2,0.2-0.5,0.2-0.8c0-0.4-0.1-0.8-0.4-1.1c-0.3-0.3-0.7-0.5-1.3-0.5h-2.3
			V109.4z M171.3,104.8h3.8c0.5,0,0.9,0.1,1.3,0.2s0.8,0.3,1.1,0.5c0.3,0.2,0.5,0.5,0.7,0.9c0.2,0.3,0.3,0.7,0.3,1.2
			c0,0.6-0.2,1.1-0.5,1.5c-0.4,0.4-0.8,0.7-1.4,0.9v0c0.3,0,0.6,0.1,0.9,0.3c0.3,0.1,0.5,0.3,0.7,0.6c0.2,0.2,0.4,0.5,0.5,0.8
			c0.1,0.3,0.2,0.7,0.2,1c0,0.5-0.1,0.9-0.3,1.3c-0.2,0.4-0.5,0.7-0.8,1c-0.4,0.3-0.8,0.5-1.2,0.6c-0.5,0.1-1,0.2-1.5,0.2h-3.8
			V104.8z"/>
	</g>
	<path class="st0" d="M193,111.8l-2-5h0l-2.1,5H193z M190.3,104.8h1.3l4.7,10.9h-1.7l-1.1-2.7h-5.2l-1.1,2.7h-1.7L190.3,104.8z"/>
	<polygon class="st0" points="203.6,104.8 205.1,104.8 205.1,109.5 205.2,109.5 210.1,104.8 212.2,104.8 206.9,109.9 212.5,115.8 
		210.3,115.8 205.2,110.3 205.1,110.3 205.1,115.8 203.6,115.8 	"/>
	<path class="st0" d="M225.6,111.8l-2-5h0l-2.1,5H225.6z M222.9,104.8h1.3l4.7,10.9h-1.7l-1.1-2.7h-5.2l-1.1,2.7h-1.7L222.9,104.8z"
		/>
	<polygon class="st0" points="236.2,104.8 237.7,104.8 237.7,114.4 242.7,114.4 242.7,115.8 236.2,115.8 	"/>
	<g>
		<path class="st0" d="M242.4,106.2h0.2c0.2,0,0.3-0.1,0.3-0.2c0-0.1-0.1-0.2-0.3-0.2c-0.1,0-0.2,0-0.2,0V106.2z M242.4,107H242
			v-1.5c0.1,0,0.3,0,0.6,0c0.3,0,0.4,0,0.5,0.1c0.1,0.1,0.1,0.2,0.1,0.3c0,0.2-0.1,0.3-0.3,0.3v0c0.1,0.1,0.2,0.2,0.3,0.4
			c0,0.2,0.1,0.3,0.1,0.4H243c0-0.1-0.1-0.2-0.1-0.4c0-0.2-0.1-0.2-0.3-0.2h-0.2V107z M241.5,106.2c0,0.7,0.5,1.2,1.1,1.2
			c0.6,0,1.1-0.5,1.1-1.2c0-0.7-0.5-1.2-1.1-1.2C242,105.1,241.5,105.6,241.5,106.2 M244.1,106.2c0,0.8-0.7,1.5-1.5,1.5
			c-0.8,0-1.5-0.6-1.5-1.5c0-0.8,0.7-1.5,1.5-1.5C243.5,104.8,244.1,105.4,244.1,106.2"/>
	</g>
</g>
</svg>
