<svg id="Capa_1" data-name="Capa 1" xmlns="http://www.w3.org/2000/svg" viewBox="0 0 114.1 141.5"><defs><style>.cls-1{fill:#fff;}</style></defs><path class="cls-1" d="M58.35,94.9A27,27,0,0,1,31.45,68v-.5h.8V68a26.1,26.1,0,0,0,52.2-.1v-.3h.8V68a26.91,26.91,0,0,1-26.9,26.9"/><path class="cls-1" d="M58.35,91.1a23.08,23.08,0,0,1-23.1-21.9h0V69l.8.1v.2a22.33,22.33,0,0,0,44.6-.1v-.4h.8v.4a23,23,0,0,1-23.1,21.9"/><path class="cls-1" d="M58.35,87.3a19.36,19.36,0,0,1-19.3-17.9l.8-.1a18,18,0,0,0,5.9,12.2A18.57,18.57,0,0,0,77,69.6l.8.1a19.27,19.27,0,0,1-6.2,12.6,19.88,19.88,0,0,1-13.2,5"/><path class="cls-1" d="M58.35,83.6a15.52,15.52,0,0,1-15.5-13.9l.8-.1a14.76,14.76,0,0,0,29.3.5v-.4h.8v.5a15.53,15.53,0,0,1-15.4,13.4"/><path class="cls-1" d="M58.35,79.8a11.83,11.83,0,0,1-11.8-10.6l.8-.1a11,11,0,0,0,21.9.3l.8.1a11.7,11.7,0,0,1-11.7,10.3"/><path class="cls-1" d="M58.35,76.1a8.05,8.05,0,0,1-8.1-7.7h.8a7.32,7.32,0,0,0,14.6.2l.8.1a8.15,8.15,0,0,1-8.1,7.4"/><path class="cls-1" d="M74.35,70.1A27.42,27.42,0,0,1,65,68.4a26.79,26.79,0,0,1-15.7-34.5,26.3,26.3,0,0,1,13.9-15l.4.8a26.07,26.07,0,0,0,21.7,47.4l.4.8a34.35,34.35,0,0,1-11.3,2.2"/><path class="cls-1" d="M74.35,66.3a23.17,23.17,0,0,1-21-13.6,23.07,23.07,0,0,1,11.5-30.6l.4.8a22.38,22.38,0,0,0-11,29.6,22.38,22.38,0,0,0,29.6,11l.4.8a27.32,27.32,0,0,1-9.9,2"/><path class="cls-1" d="M74.35,62.5a19.3,19.3,0,0,1-18.2-26.1,19.14,19.14,0,0,1,10.1-10.8l.4.8A18.56,18.56,0,0,0,57.45,51a18.59,18.59,0,0,0,16.9,10.8,17.59,17.59,0,0,0,7.7-1.7l.3.8a20.41,20.41,0,0,1-8,1.6"/><path class="cls-1" d="M74.35,58.8A15.61,15.61,0,0,1,67.85,29l.4.8A14.82,14.82,0,0,0,61,49.4a14.82,14.82,0,0,0,19.6,7.3l.3.8a18.37,18.37,0,0,1-6.5,1.3"/><path class="cls-1" d="M74.35,55a12.49,12.49,0,0,1-4.2-.8,11.5,11.5,0,0,1-6.6-6.2,12,12,0,0,1-.3-9.1,11.5,11.5,0,0,1,6.2-6.6l.4.8A11,11,0,1,0,79,53.2l.4.8a12.75,12.75,0,0,1-5,1"/><path class="cls-1" d="M74.35,51.3a8.68,8.68,0,0,1-2.8-.5,8.41,8.41,0,0,1-4.5-4.2,8.2,8.2,0,0,1,4-10.8l.4.8a7.2,7.2,0,0,0-3.6,9.6,7.33,7.33,0,0,0,9.7,3.6l.3.8a11.45,11.45,0,0,1-3.5.7"/><path class="cls-1" d="M42.45,70.1a26.72,26.72,0,0,1-11.1-2.4l.4-.8a26.07,26.07,0,0,0,21.7-47.4l.4-.8a26.9,26.9,0,0,1-1.8,49.6,27.59,27.59,0,0,1-9.6,1.8"/><path class="cls-1" d="M42.45,66.3a23.09,23.09,0,0,1-9.6-2.1l.4-.8a22.33,22.33,0,0,0,18.6-40.6l.3-.8a23.53,23.53,0,0,1,12.1,12.9,23.11,23.11,0,0,1-.6,17.7,23.53,23.53,0,0,1-12.9,12.1,22.63,22.63,0,0,1-8.3,1.6"/><path class="cls-1" d="M42.45,62.6a20.53,20.53,0,0,1-8-1.7l.4-.8a19.12,19.12,0,0,0,7.7,1.7A18.48,18.48,0,0,0,59.45,51a18.67,18.67,0,0,0-9.2-24.6l.4-.8a19.45,19.45,0,0,1,9.6,25.7,19.84,19.84,0,0,1-17.8,11.3"/><path class="cls-1" d="M42.45,58.8A14.94,14.94,0,0,1,36,57.4l.4-.8a14.83,14.83,0,0,0,12.3-27l.4-.8a15.08,15.08,0,0,1,8.1,8.7,15.79,15.79,0,0,1-14.7,21.3"/><path class="cls-1" d="M42.45,55.1a12.06,12.06,0,0,1-4.9-1.1l.4-.8a11.12,11.12,0,0,0,8.4.3,10.73,10.73,0,0,0,6.2-5.8,11.12,11.12,0,0,0,.3-8.4,10.73,10.73,0,0,0-5.8-6.2l.4-.8a11.8,11.8,0,0,1,6.2,6.6,12,12,0,0,1-.3,9.1,11.8,11.8,0,0,1-6.6,6.2,11.44,11.44,0,0,1-4.3.9"/><path class="cls-1" d="M42.45,51.3a10.32,10.32,0,0,1-3.4-.7l.4-.8a7.27,7.27,0,1,0,6.1-13.2l.3-.8a8.09,8.09,0,0,1,4,10.8,7.74,7.74,0,0,1-4.5,4.2,9.82,9.82,0,0,1-2.9.5"/><polygon class="cls-1" points="58.35 10.9 53.75 18.9 54.45 19.3 58.35 12.6 62.35 19.4 63.05 19 58.35 10.9"/><polygon class="cls-1" points="29.95 127.4 29.95 128 31.85 128 31.85 133.3 32.45 133.3 32.55 133.3 32.55 128 34.45 128 34.45 127.4 29.95 127.4"/><path class="cls-1" d="M45,133.5a3.59,3.59,0,0,1-1.1-.2,4.35,4.35,0,0,1-.7-.6,1.14,1.14,0,0,1-.3-.8,2.2,2.2,0,0,1-.1-.8v-3.7h.6V131a1.7,1.7,0,0,0,.1.7c.1.2.1.4.3.6a1,1,0,0,0,.5.4,1.88,1.88,0,0,0,.8.2,2.35,2.35,0,0,0,.8-.2,2.18,2.18,0,0,0,.5-.4l.3-.6a1.48,1.48,0,0,0,.1-.7v-3.6h.6v3.7a2.2,2.2,0,0,1-.1.8,3,3,0,0,1-.4.8,4.35,4.35,0,0,1-.7.6,4.3,4.3,0,0,1-1.2.2"/><polygon class="cls-1" points="56.15 127.4 56.15 133.3 59.55 133.3 59.55 132.8 56.75 132.8 56.75 127.4 56.15 127.4"/><path class="cls-1" d="M69.85,133.5a3.59,3.59,0,0,1-1.1-.2,4.35,4.35,0,0,1-.7-.6,1.14,1.14,0,0,1-.3-.8,2.2,2.2,0,0,1-.1-.8v-3.7h.6V131a1.7,1.7,0,0,0,.1.7c.1.2.1.4.3.6a1,1,0,0,0,.5.4,1.88,1.88,0,0,0,.8.2,2.35,2.35,0,0,0,.8-.2,2.18,2.18,0,0,0,.5-.4l.3-.6a1.48,1.48,0,0,0,.1-.7v-3.6h.6v3.7a2.2,2.2,0,0,1-.1.8,3,3,0,0,1-.4.8,4.35,4.35,0,0,1-.7.6,5,5,0,0,1-1.2.2"/><polygon class="cls-1" points="85.95 127.4 83.95 132.3 81.95 127.4 81.05 127.4 81.05 133.3 81.65 133.3 81.65 128.2 81.65 128.2 83.75 133.3 84.05 133.3 86.25 128.2 86.25 128.2 86.25 133.3 86.85 133.3 86.85 127.4 85.95 127.4"/><path class="cls-1" d="M25.15,114.5h2.2a1.7,1.7,0,0,0,.7-.1,1.33,1.33,0,0,0,.8-.3,1.7,1.7,0,0,0,.6-.6,1.34,1.34,0,0,0,.2-.9,2,2,0,0,0-.6-1.5,2.86,2.86,0,0,0-1.7-.5h-2.2Zm0-5.1h2a2.2,2.2,0,0,0,.8-.1,3.33,3.33,0,0,0,.6-.3,1,1,0,0,0,.4-.5,1.88,1.88,0,0,0,.2-.8,1.5,1.5,0,0,0-.4-1.1,1.73,1.73,0,0,0-1.3-.5h-2.3Zm-1.5-4.6h3.8a5.07,5.07,0,0,1,1.3.2,3.7,3.7,0,0,1,1.1.5,2.18,2.18,0,0,1,.7.9,2.13,2.13,0,0,1,.3,1.2,2.46,2.46,0,0,1-.5,1.5,3.39,3.39,0,0,1-1.4.9h0a1.61,1.61,0,0,1,.9.3,1.34,1.34,0,0,1,.7.6,2.18,2.18,0,0,1,.5.8,3.55,3.55,0,0,1,.2,1A2.77,2.77,0,0,1,31,114a3.92,3.92,0,0,1-.8,1,3.38,3.38,0,0,1-1.2.6,7.72,7.72,0,0,1-1.5.2h-3.8Z"/><path class="cls-1" d="M45.35,111.8l-2-5h0l-2.1,5Zm-2.7-7H44l4.7,10.9H47l-1.1-2.7h-5.2l-1.1,2.7h-1.7Z"/><polygon class="cls-1" points="55.95 104.8 57.45 104.8 57.45 109.5 57.55 109.5 62.45 104.8 64.55 104.8 59.25 109.9 64.85 115.8 62.65 115.8 57.55 110.3 57.45 110.3 57.45 115.8 55.95 115.8 55.95 104.8"/><path class="cls-1" d="M78,111.8l-2-5h0l-2.1,5Zm-2.7-7h1.3l4.7,10.9h-1.7l-1.1-2.7h-5.2l-1.1,2.7h-1.7Z"/><polygon class="cls-1" points="88.55 104.8 90.05 104.8 90.05 114.4 95.05 114.4 95.05 115.8 88.55 115.8 88.55 104.8"/><path class="cls-1" d="M94.75,106.2H95c.2,0,.3-.1.3-.2s-.1-.2-.3-.2h-.2Zm0,.8h-.4v-1.5H95c.3,0,.4,0,.5.1a.37.37,0,0,1,.1.3.27.27,0,0,1-.3.3h0a1.38,1.38,0,0,1,.3.4c0,.2.1.3.1.4h-.3c0-.1-.1-.2-.1-.4s-.1-.2-.3-.2h-.2Zm-.9-.8A1.1,1.1,0,1,0,95,105a1.28,1.28,0,0,0-1.1,1.2m2.6,0a1.54,1.54,0,0,1-1.5,1.5,1.47,1.47,0,0,1-1.5-1.5,1.5,1.5,0,0,1,3,0"/></svg>