<svg id="Capa_1" data-name="Capa 1" xmlns="http://www.w3.org/2000/svg" viewBox="0 0 28.23 33.94"><defs><style>.cls-1{fill:#bfa57d;}</style></defs><path class="cls-1" d="M6.26,2H18.81a2.65,2.65,0,0,0,.21.26l7,7a.87.87,0,0,1,.28.66q0,9.3,0,18.59c0,.17,0,.35,0,.52a3.16,3.16,0,0,1-2.57,2.91A3.91,3.91,0,0,1,23,32H6.84a3.25,3.25,0,0,1-2-.61A3.14,3.14,0,0,1,3.5,28.82c0-.48,0-1,0-1.45-1.21,0-1.63-.68-1.61-1.74,0-2,0-4,0-6,0-.48,0-1,0-1.44A1.26,1.26,0,0,1,3.11,17l.39,0V5.24A3.18,3.18,0,0,1,5.73,2.11ZM18,3.91H6.87A1.29,1.29,0,0,0,5.45,5.36V17H20.59a1.33,1.33,0,0,1,1.49,1.5c0,2.45,0,4.91,0,7.36a1.42,1.42,0,0,1-1.54,1.53c-4.9,0-9.81,0-14.71,0H5.45v1.18A1.31,1.31,0,0,0,6.94,30h16a1.28,1.28,0,0,0,1.47-1.47q0-9-.05-17.91v-.35H24c-1.32,0-2.64,0-4,0a2.1,2.1,0,0,1-1.95-1.93c0-1.34,0-2.68,0-4ZM10,25a22.37,22.37,0,0,0,2.32,0,3.14,3.14,0,0,0,1.36-.49,2.69,2.69,0,0,0,1-2.91,2.26,2.26,0,0,0-2-1.91,8.75,8.75,0,0,0-2.75,0Zm-3.47-1.9h.32a3.18,3.18,0,0,0,1.4-.26,1.62,1.62,0,0,0,.94-1.59,1.46,1.46,0,0,0-.93-1.46,6.06,6.06,0,0,0-2.93-.11V25h1.2Zm10.29-1.26V20.6h2v-1H15.55V25h1.23V22.82h1.91v-1Z"/><path class="cls-1" d="M11.19,20.56a1.83,1.83,0,0,1,2,.57,2.34,2.34,0,0,1,0,2.29,1.82,1.82,0,0,1-1.92.63Z"/><path class="cls-1" d="M6.49,22.17c0-.55,0-1,0-1.46,0-.15,0-.22.2-.22a3.75,3.75,0,0,1,.58,0,.75.75,0,0,1,.68.69.79.79,0,0,1-.54.87A6.27,6.27,0,0,1,6.49,22.17Z"/></svg>