<svg id="Capa_1" data-name="Capa 1" xmlns="http://www.w3.org/2000/svg" viewBox="0 0 41 41"><defs><style>.cls-1{fill:#fff;}</style></defs><g id="HVvVtq"><path class="cls-1" d="M20.5,39a18.46,18.46,0,1,1,.08,0Zm0-7.33h3.25a14.35,14.35,0,0,0,3-.23,5.76,5.76,0,0,0,4.68-4.6,13.24,13.24,0,0,0,.26-3.14V17.33a13.7,13.7,0,0,0-.23-3,5.77,5.77,0,0,0-4.3-4.61,11.12,11.12,0,0,0-2.93-.33h-7.4a12.08,12.08,0,0,0-2.54.24,5.75,5.75,0,0,0-4.55,4.19,10.48,10.48,0,0,0-.34,3v7.41a12.11,12.11,0,0,0,.24,2.55,5.75,5.75,0,0,0,4.57,4.64,14,14,0,0,0,3.1.26c1,0,2.08,0,3.16,0Z"/><path class="cls-1" d="M11.28,20.48c0-1.55.05-3.11.1-4.67a5.27,5.27,0,0,1,.42-2,3.61,3.61,0,0,1,2.74-2.21,11.63,11.63,0,0,1,1.95-.21h4.94c1.24,0,2.48,0,3.72.07a5,5,0,0,1,2.39.59,3.76,3.76,0,0,1,1.88,2.59,10.36,10.36,0,0,1,.2,2v7.78a9,9,0,0,1-.24,2.2,3.76,3.76,0,0,1-3.16,2.88,10.38,10.38,0,0,1-1.76.16h-8a8.33,8.33,0,0,1-2.11-.23,3.8,3.8,0,0,1-2.88-3.13,19.3,19.3,0,0,1-.2-3.31V20.48Zm3.47,0a5.74,5.74,0,1,0,5.76-5.72h-.05a5.73,5.73,0,0,0-5.71,5.71Zm11.69-4.61a1.34,1.34,0,1,0-1.34-1.35,1.34,1.34,0,0,0,1.34,1.35h0Z"/><path class="cls-1" d="M16.74,20.46a3.74,3.74,0,1,1,3.73,3.75h0A3.74,3.74,0,0,1,16.74,20.46Z"/></g></svg>