<?xml version="1.0" encoding="utf-8"?>
<!-- Generator: Adobe Illustrator 24.2.0, SVG Export Plug-In . SVG Version: 6.00 Build 0)  -->
<svg version="1.1" id="Capa_1" xmlns="http://www.w3.org/2000/svg" xmlns:xlink="http://www.w3.org/1999/xlink" x="0px" y="0px"
	 viewBox="0 0 41 41" style="enable-background:new 0 0 41 41;" xml:space="preserve">
<style type="text/css">
	.st0{fill:#FFFFFF;}
</style>
<path class="st0" d="M20.6,2.1c-10.2,0-18.5,8.2-18.5,18.4C2.1,30.7,10.3,39,20.5,39h0.1C30.7,39,39,30.7,39,20.6
	C39,10.4,30.8,2.1,20.6,2.1z M26.5,13.3c0,0.4-0.2,0.6-0.6,0.6c-0.7,0-1.5,0-2.2,0c-0.4,0-0.8,0.1-1,0.5c-0.1,0.2-0.2,0.4-0.2,0.6
	c0,0.8,0,1.7,0,2.5c0.1,0,0.2,0,0.2,0c1,0,2,0,3,0c0.5,0,0.6,0.2,0.6,0.6c0,1.1,0,2.3,0,3.4c0,0.4-0.2,0.6-0.6,0.6c-1,0-2,0-3,0
	c-0.1,0-0.2,0-0.3,0c0,0.1,0,0.2,0,0.3c0,3,0,5.9,0,8.9c0,0.3-0.1,0.5-0.3,0.6c-1.3,0-2.7,0-4,0c-0.3-0.1-0.4-0.3-0.4-0.6
	c0-3,0-5.9,0-8.9c0-0.1,0-0.2,0-0.3c-0.1,0-0.2,0-0.2,0c-0.9,0-1.7,0-2.6,0c-0.4,0-0.6-0.2-0.6-0.6c0-1.2,0-2.3,0-3.5
	c0-0.4,0.2-0.6,0.6-0.6c0.8,0,1.7,0,2.5,0c0.1,0,0.2,0,0.3,0c0-0.1,0-0.2,0-0.3c0-0.9,0-1.8,0-2.7c0.1-1.3,0.4-2.5,1.3-3.5
	c0.7-0.8,1.7-1.3,2.7-1.5c0.3-0.1,0.5-0.1,0.8-0.1c1.2,0,2.4,0,3.6,0c0.3,0.1,0.4,0.3,0.4,0.6C26.5,11.2,26.5,12.2,26.5,13.3z"/>
</svg>
